<svg xmlns="http://www.w3.org/2000/svg" width="710" height="505" viewBox="0 0 710 505">
  <g fill-rule="evenodd">
    <path fill-rule="nonzero" d="M474.025428 356.742692C474.025428 348.060988 477.039394 344.215668 483.939789 344.215668 486.834783 344.215668 489.650461 344.57245 491.435046 345.246372L491.435046 368.080442C489.571146 369.309359 487.865876 369.943638 486.200264 369.943638 479.061924 369.903996 474.025428 364.790116 474.025428 356.742692zM486.279578 338.66572C473.470224 338.66572 462.802372 348.100631 462.802372 359.636593 462.802372 370.657203 468.988933 376.68286 480.211989 376.68286 483.662187 376.68286 488.262451 374.343954 491.435046 371.450053L491.435046 376.127865 493.774835 376.68286 500.595916 373.987171 506.941107 371.925762 506.941107 370.141851 503.847826 368.754364C501.983926 368.080442 501.30975 366.692955 501.30975 364.750473L501.032148 340.132492 501.30975 307.110305 498.96996 306.436383 492.14888 309.132072 485.803689 311.193481 485.803689 313.25489 488.89697 314.642376C490.76087 315.316299 491.435046 316.703785 491.435046 318.36877L491.435046 338.745005C490.086693 338.66572 488.341765 338.66572 486.279578 338.66572zM456.100264 367.485804L455.822661 340.09285 456.100264 307.070662 453.760474 306.39674 446.939394 309.092429 440.594203 311.153838 440.594203 313.215247 443.608169 314.602734C445.591041 315.276656 446.22556 316.664143 446.22556 318.329127L446.503162 340.053207 446.22556 367.446162C446.22556 369.428286 445.194466 370.895058 443.211594 371.767192L440.594203 373.273607 440.594203 375.414301 451.262055 375.136803 461.731621 375.414301 461.731621 373.273607 458.915942 371.767192C457.131357 370.9347 456.100264 369.467928 456.100264 367.485804zM428.657312 358.605889C428.577997 367.684017 425.841634 371.41041 419.298155 371.41041 412.55639 371.41041 409.740711 366.534385 409.740711 356.703049 409.820026 347.545636 412.55639 343.898528 419.020553 343.898528 425.920949 343.898528 428.736627 348.695268 428.657312 358.605889zM422.94664 338.66572C408.907905 338.66572 398.795257 347.347424 398.715942 359.517666 398.715942 371.013985 403.87141 376.643218 415.292754 376.643218 429.609091 376.643218 439.721739 367.842587 439.721739 355.672345 439.801054 344.176025 434.526614 338.66572 422.94664 338.66572zM366.038208 370.657203C363.896706 370.657203 362.032806 369.269716 362.032806 367.763302L362.032806 346.514932 371.312648 346.514932C375.714625 346.514932 379.363109 351.272029 379.363109 358.883386 379.363109 365.226183 374.405929 370.657203 368.615942 370.657203L366.038208 370.657203zM361.993149 324.909779C361.993149 323.403365 363.857049 322.015878 365.998551 322.015878L368.536627 322.015878C374.802503 322.015878 377.34058 324.909779 377.34058 331.847213 377.34058 336.445741 372.661001 341.757834 368.33834 341.757834L361.993149 341.757834 361.993149 324.909779zM342.798946 321.183386L348.311331 322.769085C349.818314 323.125868 350.373518 324.077287 350.373518 325.662986L350.65112 345.959937 350.373518 367.208307C350.373518 368.595794 349.818314 369.467928 348.311331 369.903996L342.798946 371.41041 342.798946 375.414301 356.163505 375.216088C358.701581 375.216088 365.324374 375.414301 367.941765 375.414301 382.733992 375.414301 392.093149 368.199369 391.418972 357.059832 391.220685 350.399895 386.18419 344.88959 378.609618 342.748896 383.963373 340.053207 388.523979 335.058254 388.523979 330.221872 388.523979 322.729443 381.583926 317.219138 371.788538 317.219138 364.293281 317.219138 357.749802 317.57592 356.08419 317.496635L342.798946 317.219138 342.798946 321.183386zM299.849934 343.898528C303.974308 343.898528 306.11581 346.911356 306.393412 352.976656L290.213175 352.976656C291.045982 346.713144 294.337549 343.898528 299.849934 343.898528zM314.999078 370.300421C314.999078 369.626498 314.721476 368.714721 314.443874 368.159727 310.517787 368.912934 306.314097 369.745426 304.41054 369.745426 295.130698 369.745426 290.014888 365.146898 289.895916 357.218402L314.880105 357.218402C315.831884 357.218402 316.268116 356.38591 316.268116 354.403785 316.268116 344.493165 310.835046 338.705363 302.031094 338.705363 289.380369 338.705363 278.633202 348.536698 278.633202 359.279811 278.633202 370.419348 285.930171 376.68286 298.580896 376.68286 303.894993 376.643218 312.024769 373.471819 314.999078 370.300421zM274.191568 367.485804C269.511989 368.873291 265.585903 369.903996 263.801318 369.903996 255.393939 369.903996 249.762582 364.671188 249.762582 356.623764 249.762582 347.545636 252.855863 343.898528 259.795916 343.898528 262.690909 343.898528 265.149671 346.594217 265.585903 351.470242 269.908564 349.488118 273.913966 345.404942 273.636364 343.62103 273.636364 341.282124 268.005007 338.66572 261.858103 338.66572 249.048748 338.66572 238.539526 348.378128 238.539526 359.438381 238.539526 370.498633 245.479578 376.643218 257.813043 376.643218 263.325428 376.643218 271.375889 373.273607 274.548485 369.547213 274.6278 368.992219 274.350198 367.961514 274.191568 367.485804zM187.857312 375.453943L198.525165 375.176446 208.99473 375.453943 208.99473 373.313249 206.377339 371.806835C204.394466 370.974343 203.363373 369.666141 203.363373 367.684017L203.363373 349.646688C205.980764 347.030284 209.351647 345.04816 211.889723 345.04816 217.600395 345.04816 220.019499 348.417771 220.019499 356.266982L220.019499 367.684017C220.019499 369.666141 218.988406 370.974343 217.124506 371.806835L214.4278 373.313249 214.4278 375.453943 224.897365 375.176446 235.485903 375.453943 235.485903 373.313249 232.947826 371.806835C230.885639 370.974343 229.93386 369.666141 229.93386 367.684017L229.93386 353.174869C229.93386 342.788538 226.483663 338.66572 217.877997 338.66572 212.841502 338.66572 207.13083 341.202839 203.363373 345.127445L203.363373 339.220715 201.023584 338.66572 194.202503 341.361409 187.857312 343.422818 187.857312 345.404942 190.950593 346.911356C192.814493 347.466351 193.488669 348.893481 193.488669 350.835962L193.488669 367.684017C193.488669 369.666141 192.457576 370.974343 190.672991 371.806835L187.857312 373.313249 187.857312 375.453943zM167.790646 343.898528C171.91502 343.898528 174.056522 346.911356 174.334124 352.976656L158.153887 352.976656C158.986693 346.713144 162.278261 343.898528 167.790646 343.898528zM182.939789 370.300421C182.939789 369.626498 182.662187 368.714721 182.384585 368.159727 178.458498 368.912934 174.254809 369.745426 172.351252 369.745426 163.07141 369.745426 157.955599 365.146898 157.836627 357.218402L182.820817 357.218402C183.772596 357.218402 184.208827 356.38591 184.208827 354.403785 184.208827 344.493165 178.775758 338.705363 169.971805 338.705363 157.32108 338.705363 146.573913 348.536698 146.573913 359.279811 146.573913 370.419348 153.870883 376.68286 166.521607 376.68286 171.796047 376.643218 179.965481 373.471819 182.939789 370.300421zM110.406324 356.742692C110.406324 348.060988 113.42029 344.215668 120.320685 344.215668 123.215679 344.215668 126.031357 344.57245 127.815942 345.246372L127.815942 368.080442C125.952042 369.309359 124.246772 369.943638 122.581159 369.943638 115.442819 369.903996 110.406324 364.790116 110.406324 356.742692zM122.660474 338.66572C109.85112 338.66572 99.1832675 348.100631 99.1832675 359.636593 99.1832675 370.657203 105.369829 376.68286 116.592885 376.68286 120.043083 376.68286 124.643347 374.343954 127.815942 371.450053L127.815942 376.127865 130.155731 376.68286 136.976812 373.987171 143.322003 371.925762 143.322003 370.141851 140.228722 368.754364C138.364822 368.080442 137.690646 366.692955 137.690646 364.750473L137.413043 340.132492 137.690646 307.110305 135.350856 306.436383 128.529776 309.132072 122.184585 311.193481 122.184585 313.25489 125.277866 314.642376C127.141765 315.316299 127.815942 316.703785 127.815942 318.36877L127.815942 338.745005C126.507246 338.66572 124.722661 338.66572 122.660474 338.66572zM69.4798419 365.622608C69.4798419 364.116193 71.1454545 362.530494 73.4852437 361.777287L80.1476943 359.636593 80.1476943 366.4551C77.8079051 369.467928 76.2216074 370.379706 74.0801054 370.379706 70.7092227 370.379706 69.4798419 369.071504 69.4798419 365.622608zM58.9309618 367.842587C58.9309618 373.471819 61.9449275 376.643218 69.400527 376.643218 72.5731225 376.643218 76.8957839 374.225026 80.1476943 370.657203L80.1476943 376.088223 82.4874835 376.643218 89.3085639 373.947529 95.6537549 371.88612 95.6537549 370.102208 92.5604743 368.714721C90.6965744 368.040799 90.0223979 366.653312 90.0223979 364.710831L90.0223979 353.967718C90.0223979 343.026393 86.373913 338.705363 77.0940711 338.705363 71.4627141 338.705363 63.7295125 343.184963 60.4379447 348.417771 59.8827404 349.170978 60.5172596 349.805258 62.0242424 350.756677 64.0071146 351.787382 65.3158103 352.144164 67.259025 352.342376 66.2279315 348.338486 69.2418972 344.651735 72.61278 344.770662 78.4027668 344.849947 79.9097497 346.832072 80.1080369 356.266982L71.7006588 358.685174C62.5794466 361.420505 58.9309618 363.759411 58.9309618 367.842587zM47.2716733 358.962671C44.7335968 366.4551 37.4366271 371.132913 29.9413702 371.132913 19.5511199 371.132913 12.055863 360.944795 12.055863 345.20673 12.055863 330.895794 19.4321476 321.540168 31.0517787 321.540168 37.9918314 321.540168 44.2577075 326.019769 46.7561265 332.203996L50.4839262 332.203996 49.8097497 319.280547C45.0508564 317.139853 39.6971014 315.990221 32.598419 315.990221 13.126614 315.990221.317259552 328.517245.317259552 347.149211.317259552 365.18654 11.1833992 376.603575 28.5930171 376.603575 37.5952569 376.603575 45.6457181 374.343954 50.3252964 370.419348L51.0787879 358.923028 47.2716733 358.923028 47.2716733 358.962671zM479.418841 214.465825L479.617128 237.498107 479.418841 265.366772C479.418841 267.348896 478.665349 268.53817 476.801449 269.212093L473.351252 270.441009 473.351252 272.502419 483.265613 272.224921 492.624769 272.502419 492.624769 270.441009 489.531489 269.212093C487.746904 268.458885 486.993412 267.348896 486.993412 265.366772L486.993412 256.962566 490.166008 254.425447 499.60448 265.644269C500.83386 267.150683 500.556258 267.903891 498.573386 268.934595L495.87668 270.441009 495.87668 272.502419 505.910013 272.224921 516.498551 272.502419 516.498551 270.441009 512.493149 268.934595C511.54137 268.577813 510.629249 267.903891 509.042951 265.921767L496.114625 249.826919 504.165086 243.28591C506.028986 241.779495 507.060079 241.026288 508.011858 240.867718L512.691436 239.757729 512.691436 237.498107 503.530567 237.775605 494.17141 237.498107 494.17141 239.757729 497.542292 240.312723C500.159684 240.788433 500.437286 241.264143 499.049275 242.453417L487.072727 252.760463 487.072727 205.308412 484.931225 204.555205 479.141238 206.537329 473.430567 208.043743 473.430567 210.025868 477.158366 211.135857C478.784321 211.571924 479.418841 212.761199 479.418841 214.465825zM461.176416 255.812934C461.176416 264.494637 457.805534 268.894953 451.262055 268.894953 443.965086 268.894953 440.673518 264.296425 440.673518 254.108307 440.673518 245.426604 444.044401 241.026288 450.508564 241.026288 457.884848 241.026288 461.176416 245.624816 461.176416 255.812934zM453.562187 236.546688C440.911462 236.546688 432.305797 244.673396 432.305797 256.486856 432.305797 267.705678 437.659552 273.414196 448.129117 273.414196 460.779842 273.414196 469.464822 265.287487 469.464822 253.474027 469.50448 242.255205 464.150725 236.546688 453.562187 236.546688zM416.363505 255.812934C416.363505 264.494637 412.992622 268.894953 406.449144 268.894953 399.152174 268.894953 395.860606 264.296425 395.860606 254.108307 395.860606 245.426604 399.231489 241.026288 405.695652 241.026288 413.071937 241.026288 416.363505 245.624816 416.363505 255.812934zM408.788933 236.546688C396.138208 236.546688 387.532543 244.673396 387.532543 256.486856 387.532543 267.705678 392.886298 273.414196 403.355863 273.414196 416.006588 273.414196 424.691568 265.287487 424.691568 253.474027 424.691568 242.255205 419.337813 236.546688 408.788933 236.546688zM353.466798 268.260673C351.325296 268.260673 349.818314 267.031756 349.818314 265.366772L349.818314 243.563407 358.344664 243.563407C365.720949 243.563407 369.766008 247.76551 369.766008 255.812934 369.766008 262.908938 364.134651 268.260673 356.956653 268.260673L353.466798 268.260673zM349.818314 222.116824C349.818314 220.45184 351.325296 219.222923 353.466798 219.222923L356.560079 219.222923C364.134651 219.222923 366.950329 222.037539 366.950329 228.776761 366.950329 234.009569 361.794862 239.361304 356.639394 239.361304L349.818314 239.361304 349.818314 222.116824zM333.241502 218.311146L339.150461 219.698633C340.538472 220.055415 341.212648 221.006835 341.212648 222.592534L341.410935 243.087697 341.212648 264.970347C341.212648 266.476761 340.538472 267.388538 339.150461 267.784963L333.241502 269.17245 333.241502 272.462776 345.495652 272.264564C348.113043 272.264564 353.189196 272.462776 355.965217 272.462776 370.36087 272.462776 379.164822 265.644269 378.807905 254.306519 378.609618 247.012303 373.93004 241.85878 365.601976 240.193796 371.233333 237.656677 375.31805 232.701367 375.31805 227.389274 375.31805 219.896845 369.052174 215.02082 359.137813 215.02082 353.347826 215.02082 347.518182 215.377603 345.455995 215.298318L333.201845 215.02082 333.201845 218.311146 333.241502 218.311146zM290.689065 241.026288C295.646245 241.026288 297.986034 243.920189 298.263636 250.302629L280.378129 250.302629C281.409223 244.197687 284.978393 241.026288 290.689065 241.026288zM305.084717 267.309253C305.164032 266.556046 304.807115 265.525342 304.331225 265.049632 300.127536 266.912829 296.479051 267.864248 293.663373 267.864248 284.780105 267.864248 280.100527 262.988223 280.100527 254.306519L280.100527 254.029022 303.577734 254.029022C305.084717 254.029022 305.719236 253.077603 305.719236 251.214406 305.719236 241.938065 300.762055 236.507045 292.513307 236.507045 280.735046 236.507045 271.653491 245.307676 271.653491 256.526498 271.653491 267.190326 278.315942 273.374553 289.618314 273.374553 294.892754 273.414196 301.991436 270.599579 305.084717 267.309253zM264.753096 265.089274C260.35112 267.071399 256.78195 267.983176 254.085244 267.983176 245.757181 267.983176 240.8 262.94858 240.8 254.425447 240.8 245.426604 244.36917 241.065931 251.467852 241.065931 255.195652 241.065931 257.654414 243.325552 258.844137 247.725868 262.135705 246.338381 265.110013 243.325552 264.753096 241.819138 263.999605 239.004522 258.844137 236.58633 253.133465 236.58633 241.355204 236.58633 232.352964 245.386961 232.352964 256.685068 232.352964 267.348896 238.817128 273.414196 250.040184 273.414196 255.274967 273.414196 262.413307 270.599579 265.46693 267.348896 265.585903 266.556046 265.228986 265.525342 264.753096 265.089274zM182.701845 272.462776L192.616206 272.185279 202.451252 272.462776 202.451252 270.401367 199.080369 269.17245C197.216469 268.498528 196.383663 267.388538 196.383663 265.446057L196.383663 247.408728C199.001054 244.118402 202.927141 241.779495 206.099736 241.779495 212.286298 241.779495 214.705402 245.149106 214.705402 253.275815L214.705402 265.446057C214.705402 267.428181 213.872596 268.53817 212.088011 269.17245L208.637813 270.401367 208.637813 272.462776 218.472859 272.185279 228.38722 272.462776 228.38722 270.401367 225.016337 269.17245C223.152437 268.498528 222.319631 267.388538 222.319631 265.446057L222.319631 250.580126C222.319631 240.947003 218.591831 236.546688 210.54137 236.546688 205.306588 236.546688 199.873518 239.083807 196.42332 243.008412L196.42332 237.299895 194.281818 236.546688 188.491831 238.528812 182.781159 240.035226 182.781159 242.01735 186.508959 243.12734C188.174572 243.603049 188.848748 244.792324 188.848748 246.695163L188.848748 265.485699C188.848748 267.467823 188.015942 268.577813 186.231357 269.212093L182.781159 270.441009 182.781159 272.462776 182.701845 272.462776zM162.000659 241.026288C166.957839 241.026288 169.297628 243.920189 169.575231 250.302629L151.689723 250.302629C152.720817 244.197687 156.289987 241.026288 162.000659 241.026288zM176.396311 267.309253C176.475626 266.556046 176.118709 265.525342 175.642819 265.049632 171.43913 266.912829 167.790646 267.864248 164.974967 267.864248 156.0917 267.864248 151.412121 262.988223 151.412121 254.306519L151.412121 254.029022 174.889328 254.029022C176.396311 254.029022 177.03083 253.077603 177.03083 251.214406 177.03083 241.938065 172.07365 236.507045 163.824901 236.507045 152.04664 236.507045 142.965086 245.307676 142.965086 256.526498 142.965086 267.190326 149.627536 273.374553 160.929908 273.374553 166.204348 273.414196 173.30303 270.599579 176.396311 267.309253zM105.330171 254.504732C105.330171 245.624816 108.978656 241.224501 116.354941 241.224501 119.646509 241.224501 122.819104 241.898423 124.484717 242.730915L124.484717 264.454995C121.867325 266.873186 119.527536 268.022818 117.108432 268.022818 109.930435 267.983176 105.330171 262.908938 105.330171 254.504732zM118.060211 236.546688C106.083663 236.546688 96.9227931 245.347319 96.9227931 256.764353 96.9227931 267.428181 102.911067 273.414196 112.825428 273.414196 116.949802 273.414196 121.629381 271.075289 124.524374 267.784963L124.524374 272.660988 126.665876 273.414196 132.455863 271.432072 138.166535 269.925657 138.166535 268.141746 134.438735 267.031756C132.773123 266.556046 132.098946 265.366772 132.098946 263.463933L131.900659 237.458465 132.098946 205.26877 129.957444 204.515563 124.167457 206.497687 118.456785 208.004101 118.456785 209.986225 122.184585 211.096215C123.850198 211.571924 124.524374 212.761199 124.524374 214.465825L124.524374 236.90347C123.017391 236.7449 120.875889 236.546688 118.060211 236.546688zM65.5537549 263.305363C65.5537549 261.323239 67.3383399 259.737539 70.5902503 258.706835L78.4424242 256.288644 78.4424242 262.274658C75.2698287 266.674974 73.0886693 268.260673 70.5902503 268.260673 67.0607378 268.260673 65.5537549 266.754259 65.5537549 263.305363zM57.5429513 264.970347C57.5429513 270.203155 60.7155468 273.374553 67.259025 273.374553 71.185112 273.374553 75.5870883 270.559937 78.4820817 266.714616L78.4820817 272.621346 80.6235837 273.374553 86.4135705 271.392429 92.1242424 269.886015 92.1242424 268.102103 88.3964427 266.992114C86.73083 266.516404 86.0566535 265.327129 86.0566535 263.42429L86.0566535 250.421556C86.0566535 240.867718 82.3288538 236.467403 74.2783926 236.467403 68.9246377 236.467403 62.5001318 240.114511 59.2878788 244.871609 58.8119895 245.545531 59.2878788 246.179811 60.3982872 246.933018 61.7862978 247.76551 62.9363636 248.161935 64.5226614 248.24122 64.6019763 244.316614 67.3383399 241.501998 70.9868248 241.501998 76.6181818 241.501998 78.2837945 243.920189 78.4820817 252.919033L69.7971014 255.456151C60.9931489 258.072555 57.5429513 260.570032 57.5429513 264.970347zM45.6060606 255.812934C43.6231884 264.21714 37.7538867 268.736383 29.1482213 268.736383 16.4974967 268.736383 9.39881423 259.460042 9.39881423 242.8102 9.39881423 228.419979 17.3699605 218.747213 29.4258235 218.747213 37.6745718 218.747213 42.9886693 222.592534 45.1301713 230.084963L48.4217391 230.084963 47.5889328 217.716509C43.4645586 215.377603 38.0314888 214.069401 31.1310935 214.069401 12.4920949 214.069401.713833992 226.04143.713833992 244.673396.713833992 262.631441 10.7471673 273.414196 27.4826087 273.414196 35.8106719 273.414196 43.3059289 271.273502 48.0648221 267.348896L48.8976285 255.852576 45.6060606 255.852576 45.6060606 255.812934zM585.938735 134.705152L583.876548 133.951945 578.522793 135.537645 573.089723 136.766562 573.089723 138.629758 577.214097 139.660463C578.800395 140.017245 579.474572 141.166877 579.474572 142.950789L579.474572 162.692744C579.474572 164.674869 578.72108 165.784858 576.857181 166.339853L573.129381 167.449842 573.129381 169.431966 582.76614 169.154469 593.989196 169.431966 593.989196 167.449842 588.476812 166.339853C586.692227 165.98307 585.938735 164.674869 585.938735 162.692744L585.938735 159.045636C585.938735 148.936803 590.063109 140.532597 595.297892 140.532597 596.88419 140.532597 597.637681 140.611882 599.422266 141.840799 600.532675 140.810095 601.405138 138.946898 601.84137 137.361199 602.039657 136.251209 602.039657 135.973712 601.563768 135.498002 600.730962 134.66551 598.74809 133.991588 596.804875 133.991588 592.323584 133.991588 587.72332 139.343323 585.105929 149.333228 585.462846 146.915037 585.938735 143.545426 585.938735 141.365089L585.938735 134.705152zM541.324111 160.512408C541.324111 158.371714 543.188011 156.786015 546.955468 155.636383L555.362846 153.019979 555.362846 158.649211C551.912648 163.683807 549.295257 165.665931 546.677866 165.665931 542.989723 165.665931 541.324111 163.961304 541.324111 160.512408zM534.582345 161.899895C534.582345 167.053417 537.754941 170.224816 543.941502 170.224816 548.264163 170.224816 552.626482 167.132702 555.362846 163.128812L555.362846 169.392324 557.425033 170.224816 562.778788 168.639117 568.211858 167.330915 568.211858 165.547003 564.087484 164.595584C562.501186 164.238801 561.827009 163.009884 561.827009 161.225973L561.827009 147.113249C561.827009 138.312618 558.099209 133.912303 550.603953 133.912303 545.36917 133.912303 539.579183 137.083701 536.485903 141.682229 536.010013 142.237224 536.406588 142.911146 537.318709 143.545426 538.429117 144.298633 539.460211 144.655415 540.887879 144.774343 541.562055 140.849737 544.179447 138.431546 547.907246 138.431546 553.419631 138.352261 555.283531 141.04795 555.402503 149.84858L546.519236 152.385699C537.953228 154.803891 534.582345 157.420294 534.582345 161.899895zM521.772991 162.653102L521.574704 134.586225 521.772991 102.87224 519.710804 102.039748 514.357049 103.625447 508.923979 104.854364 508.923979 106.836488 513.048353 107.787907C514.634651 108.14469 515.308827 109.294322 515.308827 110.959306L515.388142 134.625868 515.308827 162.692744C515.308827 164.674869 514.555336 165.784858 512.691436 166.339853L508.963636 167.449842 508.963636 169.431966 518.600395 169.154469 528.038867 169.431966 528.038867 167.449842 524.311067 166.339853C522.526482 165.745216 521.772991 164.635226 521.772991 162.653102zM471.844269 134.863722L469.782082 134.03123 464.428327 135.61693 459.074572 136.845846 459.074572 138.827971 463.198946 139.77939C464.705929 140.136172 465.340448 141.285804 465.340448 142.950789L465.340448 156.627445C465.340448 165.98307 469.464822 170.304101 478.070487 170.304101 481.44137 170.304101 485.089855 168.797687 487.984848 166.379495 488.73834 165.824501 489.491831 165.150578 490.12635 164.397371L490.12635 169.431966 492.188538 170.264458 497.542292 168.678759 502.896047 167.370557 502.896047 165.586646 498.890646 164.635226C497.304348 164.278444 496.630171 163.247739 496.630171 161.265615L496.630171 134.863722 494.567984 134.03123 489.214229 135.61693 483.781159 136.845846 483.781159 138.827971 487.905534 139.77939C489.491831 140.136172 490.166008 141.285804 490.166008 142.950789L490.166008 160.433123C487.548617 163.723449 484.098419 165.665931 480.529249 165.665931 474.065086 165.665931 471.844269 162.772029 471.844269 154.050683L471.844269 134.863722zM420.606851 183.822187C420.606851 179.421872 423.42253 176.527971 430.24361 174.545846 438.76996 175.100841 448.010145 174.902629 448.010145 181.205783 448.010145 188.02429 441.545982 193.257098 432.940316 193.257098 424.612253 193.257098 420.606851 189.887487 420.606851 183.822187zM433.49552 138.035121C439.483794 137.955836 443.330567 142.039012 443.330567 147.945741 443.330567 154.129968 440.237286 157.222082 433.693808 157.222082 427.507246 157.222082 423.858762 153.297476 423.858762 147.192534 423.779447 141.127234 426.872727 138.154048 433.49552 138.035121zM417.037681 149.293586C417.037681 154.803891 419.655072 158.649211 424.532938 160.314196 422.94664 160.670978 421.360343 161.265615 420.210277 161.97918 417.870487 163.208097 416.561792 164.992008 416.561792 166.93449 416.561792 171.057308 419.734387 172.84122 424.136364 173.752997 417.116996 175.893691 413.746113 180.095794 413.746113 186.121451 413.746113 192.662461 420.487879 197.617771 429.92635 197.617771 442.854677 197.617771 454.632938 188.81714 454.712253 178.827234 454.791568 163.763091 423.2639 172.761935 423.2639 165.269506 423.2639 163.604522 425.801976 162.098107 429.728063 161.3449L431.235046 161.3449C442.378788 161.3449 450.151647 155.002103 450.151647 145.923975 450.151647 143.228286 449.47747 140.88938 448.168775 139.105468 450.151647 138.550473 451.618972 138.431546 454.077734 138.352261 454.632938 137.321556 454.831225 135.815142 454.553623 134.625868 454.196706 133.040168 452.888011 132.564458 451.262055 133.317666 448.842951 134.705152 447.137681 135.735857 445.9083 136.687277 443.489196 134.903365 440.118314 133.991588 435.795652 133.991588 424.81054 133.951945 417.037681 140.294742 417.037681 149.293586zM395.424374 138.035121C400.778129 138.035121 403.197233 140.849737 403.474835 147.311462L384.954809 147.311462C385.946245 141.404732 389.713702 138.035121 395.424374 138.035121zM409.463109 164.238801C409.542424 163.485594 409.185507 162.375605 408.630303 161.97918 404.228327 164.318086 400.857444 165.348791 397.684848 165.348791 388.999868 165.348791 384.597892 160.393481 384.597892 151.315352L384.597892 150.839642 407.321607 150.839642C408.98722 150.839642 409.859684 149.808938 409.859684 148.025026 409.859684 139.14511 405.100791 133.912303 397.129644 133.912303 385.7083 133.912303 377.459552 142.157939 377.459552 153.574974 377.459552 164.040589 383.804743 170.224816 394.512253 170.224816 399.628063 170.224816 406.250856 167.608412 409.463109 164.238801zM337.643478 119.1653C337.643478 117.381388 338.952174 116.271399 341.212648 116.271399L345.53531 116.271399C353.863373 116.271399 358.186034 120.394217 358.186034 127.965931 358.186034 134.625868 352.277075 139.581178 344.504216 139.581178L337.683136 139.581178 337.683136 119.1653 337.643478 119.1653zM322.296047 112.30715L322.296047 115.201052 328.363636 116.588538C329.672332 116.866036 330.425823 117.89674 330.425823 119.48244L330.624111 140.532597 330.425823 162.256677C330.425823 163.763091 329.672332 164.793796 328.363636 165.071293L322.296047 166.45878 322.296047 169.352681 334.074308 169.154469 345.773254 169.352681 345.773254 166.45878 339.705665 165.071293C338.39697 164.793796 337.643478 163.842376 337.643478 162.256677L337.643478 143.466141 343.552437 143.466141C344.305929 143.466141 345.05942 143.466141 345.812912 143.386856L355.647958 162.177392C358.741238 168.242692 362.588011 170.026604 368.576285 169.669821L374.009354 169.392324 374.009354 166.379495 370.281555 165.705573C366.63307 165.031651 364.015679 163.287382 361.596574 158.490641L353.070224 142.197581C361.2 139.858675 365.879578 134.34837 365.720949 126.578444 365.641634 117.89674 358.503294 112.267508 347.002635 112.267508 342.045455 112.267508 336.414097 112.545005 333.994993 112.545005L322.296047 112.30715zM279.90224 138.035121C285.255995 138.035121 287.675099 140.849737 287.952701 147.311462L269.432675 147.311462C270.463768 141.404732 274.191568 138.035121 279.90224 138.035121zM293.940975 164.238801C294.02029 163.485594 293.663373 162.375605 293.108169 161.97918 288.706192 164.318086 285.33531 165.348791 282.162714 165.348791 273.477734 165.348791 269.075758 160.393481 269.075758 151.315352L269.075758 150.839642 291.799473 150.839642C293.465086 150.839642 294.337549 149.808938 294.337549 148.025026 294.337549 139.14511 289.578656 133.912303 281.60751 133.912303 270.186166 133.912303 261.937418 142.157939 261.937418 153.574974 261.937418 164.040589 268.282609 170.224816 278.990119 170.224816 284.105929 170.224816 290.768379 167.608412 293.940975 164.238801zM255.155995 162.29632C250.833333 164.555941 247.462451 165.388433 244.289855 165.388433 236.041107 165.388433 231.361528 160.512408 231.361528 151.711777 231.361528 142.712934 235.089328 138.035121 242.386298 138.035121 246.510672 138.035121 248.929776 140.017245 250.516074 144.219348 253.21278 143.109359 255.750856 140.651525 255.274967 139.264038 254.243874 136.171924 249.286693 133.912303 243.853623 133.912303 232.511594 133.912303 224.302503 142.237224 224.302503 153.654259 224.302503 164.119874 230.489065 170.224816 241.156917 170.224816 246.312385 170.224816 252.935178 167.608412 255.949144 164.595584 256.068116 163.763091 255.711199 162.772029 255.155995 162.29632zM175.920422 169.392324L185.557181 169.114826 194.995652 169.392324 194.995652 167.4102 191.267852 166.30021C189.483267 165.745216 188.729776 164.714511 188.729776 162.732387L188.729776 144.774343C191.426482 141.04795 195.471542 138.510831 199.040711 138.510831 205.385903 138.510831 207.923979 141.880442 207.923979 150.205363L207.923979 162.732387C207.923979 164.714511 207.170487 165.745216 205.385903 166.30021L201.53913 167.4102 201.53913 169.392324 211.096574 169.114826 220.654018 169.392324 220.654018 167.4102 216.926219 166.30021C215.141634 165.745216 214.388142 164.714511 214.388142 162.732387L214.388142 147.668244C214.388142 138.391903 210.462055 133.912303 202.689196 133.912303 197.454414 133.912303 192.021344 136.449422 188.729776 140.374027L188.729776 134.66551 186.667589 133.912303 181.313834 135.498002 175.880764 136.726919 175.880764 138.590116 180.005138 139.62082C181.591436 139.977603 182.265613 141.127234 182.265613 142.911146L182.265613 162.732387C182.265613 164.714511 181.512121 165.745216 179.727536 166.30021L175.880764 167.4102 175.880764 169.392324 175.920422 169.392324zM156.329644 138.035121C161.683399 138.035121 164.102503 140.849737 164.380105 147.311462L145.860079 147.311462C146.891173 141.404732 150.618972 138.035121 156.329644 138.035121zM170.368379 164.238801C170.447694 163.485594 170.090777 162.375605 169.535573 161.97918 165.133597 164.318086 161.762714 165.348791 158.590119 165.348791 149.905138 165.348791 145.503162 160.393481 145.503162 151.315352L145.503162 150.839642 168.226877 150.839642C169.89249 150.839642 170.764954 149.808938 170.764954 148.025026 170.764954 139.14511 166.006061 133.912303 158.034914 133.912303 146.61357 133.912303 138.364822 142.157939 138.364822 153.574974 138.364822 164.040589 144.710013 170.224816 155.417523 170.224816 160.533333 170.224816 167.195784 167.608412 170.368379 164.238801zM101.126482 151.791062C101.126482 142.792219 105.052569 138.114406 112.627141 138.114406 116.077339 138.114406 119.448221 138.788328 121.153491 139.898318L121.153491 160.86919C118.139526 164.040589 115.522134 165.348791 112.746113 165.348791 105.528458 165.388433 101.126482 160.433123 101.126482 151.791062zM114.054809 133.951945C102.55415 133.951945 94.1071146 142.356151 94.1071146 153.693901 94.1071146 164.159516 99.8971014 170.264458 109.256258 170.264458 113.737549 170.264458 118.337813 167.925552 121.153491 164.476656L121.153491 169.431966 123.215679 170.264458 128.569433 168.678759 134.002503 167.370557 134.002503 165.586646 129.878129 164.635226C128.291831 164.278444 127.617655 163.049527 127.617655 161.265615L127.53834 134.586225 127.617655 102.87224 125.555468 102.039748 120.201713 103.625447 114.847958 104.854364 114.847958 106.836488 118.85336 107.787907C120.439657 108.14469 121.113834 109.294322 121.113834 110.959306L121.113834 134.625868C119.567194 134.229443 117.14809 133.951945 114.054809 133.951945zM62.9363636 160.512408C62.9363636 158.371714 64.8002635 156.786015 68.5677207 155.636383L76.9750988 153.019979 76.9750988 158.649211C73.5249012 163.683807 70.9075099 165.665931 68.2901186 165.665931 64.6416337 165.665931 62.9363636 163.961304 62.9363636 160.512408zM56.1945982 161.899895C56.1945982 167.053417 59.3671937 170.224816 65.5537549 170.224816 69.8764163 170.224816 74.2387352 167.132702 76.9750988 163.128812L76.9750988 169.392324 79.0372859 170.224816 84.3910408 168.639117 89.8241107 167.330915 89.8241107 165.547003 85.6997365 164.595584C84.1134387 164.238801 83.4392622 163.009884 83.4392622 161.225973L83.4392622 147.113249C83.4392622 138.312618 79.7114625 133.912303 72.2162055 133.912303 66.9814229 133.912303 61.1914361 137.083701 58.0981555 141.682229 57.6222661 142.237224 58.0188406 142.911146 58.9309618 143.545426 60.0413702 144.298633 61.0724638 144.655415 62.5001318 144.774343 63.1743083 140.849737 65.7916996 138.431546 69.5194993 138.431546 75.0318841 138.352261 76.8957839 141.04795 77.0147563 149.84858L68.1314888 152.385699C59.5654809 154.803891 56.1945982 157.420294 56.1945982 161.899895zM44.7732543 152.663197C43.1076416 161.543113 37.9521739 165.943428 28.672332 165.943428 14.9905138 165.943428 8.09011858 157.142797 8.09011858 140.017245 8.09011858 125.508097 16.3388669 115.795689 28.672332 115.795689 37.4762846 115.795689 42.3541502 119.244585 44.3766798 127.410936L47.3906456 127.410936 46.4388669 115.359621C42.7110672 112.94143 37.159025 111.514301 30.3379447 111.514301 12.0955204 111.514301.753491436 123.208833.753491436 141.920084.753491436 159.798843 10.3902503 170.264458 26.8480896 170.264458 34.8192358 170.264458 42.1162055 168.123764 46.8750988 164.199159L47.7079051 152.702839 44.7732543 152.702839 44.7732543 152.663197zM421.201713 66.3218717L429.886693 66.0443743 438.571673 66.3218717 438.571673 64.4586751 433.892095 63.626183C432.226482 63.3486856 431.631621 62.5954784 431.631621 60.6133544L431.631621 42.7345952C434.447299 38.0567823 439.007905 35.0439537 443.528854 35.0439537 450.468906 35.0439537 452.967325 38.4135647 452.967325 47.0952681L452.967325 60.5737119C452.967325 62.555836 452.412121 63.2694006 450.706851 63.5865405L446.027273 64.4190326 446.027273 66.2822292 454.712253 66.0047319 463.397233 66.2822292 463.397233 64.4190326 458.717655 63.5865405C457.052042 63.3090431 456.457181 62.555836 456.457181 60.5737119L456.457181 45.0338591C456.457181 36.629653 452.134519 31.8329127 445.115152 31.8329127 439.602767 31.8329127 434.526614 34.2511041 431.552306 38.1757098L431.552306 32.8239748 429.767721 31.7932702 425.643347 32.4671924 421.043083 33.0221872 421.043083 34.8853838 426.000264 35.4403785C427.308959 35.638591 427.983136 36.550368 427.983136 38.2549947L427.983136 60.5340694C427.983136 62.5161935 427.427931 63.2297581 425.722661 63.546898L421.043083 64.3793901 421.043083 66.3218717 421.201713 66.3218717zM408.511331 32.9429022L406.726746 31.9121977 402.602372 32.5861199 398.002108 33.1411146 398.002108 35.0043113 402.959289 35.559306C404.267984 35.7575184 404.942161 36.6692955 404.942161 38.3739222L404.942161 60.6529968C404.942161 62.6351209 404.386957 63.3486856 402.681686 63.6658254L398.002108 64.4983176 398.002108 66.3615142 406.687088 66.0840168 415.372069 66.3615142 415.372069 64.4983176 410.69249 63.6658254C409.026877 63.3883281 408.432016 62.6351209 408.432016 60.6529968L408.432016 32.9429022 408.511331 32.9429022zM406.092227 13.2009464C403.55415 13.2009464 402.16614 14.7866456 402.16614 17.3237645 402.16614 19.3851735 403.39552 20.6933754 405.25942 20.6933754 407.678524 20.6933754 409.185507 19.1076761 409.185507 16.5705573 409.14585 14.5884332 407.956126 13.2009464 406.092227 13.2009464zM385.430698 60.6133544L385.430698 45.0735016C385.430698 36.6692955 381.108037 31.8725552 374.088669 31.8725552 368.576285 31.8725552 363.500132 34.2907466 360.525823 38.2153523L360.525823 1.26855941 358.741238.23785489 354.616864.911777077 350.016601 1.46677182 350.016601 3.32996845 354.973781 3.8849632C356.282477 4.0831756 356.956653 4.99495268 356.956653 6.69957939L356.956653 60.5737119C356.956653 62.555836 356.401449 63.2694006 354.696179 63.5865405L350.016601 64.4190326 350.016601 66.2822292 358.701581 66.0047319 367.386561 66.2822292 367.386561 64.4190326 362.706983 63.5865405C361.04137 63.3090431 360.446509 62.555836 360.446509 60.5737119L360.446509 42.6949527C363.262187 38.0171399 367.822793 35.0043113 372.343742 35.0043113 379.283794 35.0043113 381.782213 38.3739222 381.782213 47.0556257L381.782213 60.5340694C381.782213 62.5161935 381.227009 63.2297581 379.521739 63.546898L374.842161 64.3793901 374.842161 66.2425868 383.527141 65.9650894 392.212121 66.2425868 392.212121 64.3793901 387.532543 63.546898C385.985903 63.3486856 385.430698 62.5954784 385.430698 60.6133544zM326.975626 60.1376446L326.975626 13.3595163 341.093676 13.3595163C342.679974 13.3595163 343.790382 14.1127234 343.988669 15.4209253L345.654282 25.8865405 347.994071 25.8865405 347.319895 10.1881178 325.151383 10.2674027 302.982872 10.1881178 302.308696 25.8865405 304.648485 25.8865405 306.314097 15.4209253C306.512385 14.1127234 307.622793 13.3595163 309.209091 13.3595163L323.327141 13.3595163 323.327141 60.1376446C323.327141 61.6440589 322.652964 62.7540484 321.264954 63.0315457L314.721476 64.2604627 314.721476 66.3218717 325.111726 66.0443743 335.501976 66.3218717 335.501976 64.2604627 328.958498 63.0315457C327.610145 62.7540484 326.975626 61.6440589 326.975626 60.1376446zM263.047826 35.0835962C269.313702 35.0835962 272.050066 37.779285 272.327668 44.6374343L251.745455 44.6374343C253.014493 38.8099895 257.059552 35.0835962 263.047826 35.0835962zM276.134783 61.1683491C276.33307 60.335857 275.777866 59.0276551 275.103689 58.8294427 270.344796 62.476551 267.608432 63.5865405 263.325428 63.5865405 255.195652 63.5865405 251.34888 58.4330179 251.34888 48.6016824L251.34888 47.491693 272.208696 47.491693C274.6278 47.491693 275.658893 46.3817035 275.658893 44.7960042 275.658893 36.6692955 271.455204 31.8725552 264.237549 31.8725552 253.847299 31.8725552 247.660738 38.8892744 247.660738 50.8613039 247.660738 60.7719243 253.173123 66.757939 262.254677 66.757939 267.449802 66.7975815 272.882872 64.6568875 276.134783 61.1683491zM239.055072 59.8601472C235.049671 62.7540484 232.233992 63.5865405 227.911331 63.5865405 219.781555 63.5865405 215.934783 58.9087277 215.934783 49.553102 215.934783 40.6731861 220.257444 35.0439537 227.713043 35.0439537 232.868511 35.0439537 235.287615 36.4314406 237.825692 40.0785489 239.213702 39.6028391 240.522398 38.5721346 239.967194 37.4621451 237.984321 33.8943218 233.622003 31.8329127 228.744137 31.8329127 218.710804 31.8329127 212.286298 39.0478444 212.286298 50.8216614 212.286298 60.7322818 217.917655 66.7182965 227.157839 66.7182965 232.035705 66.7182965 237.54809 64.8550999 240.363768 62.3179811 240.443083 61.4458465 239.887879 60.335857 239.055072 59.8601472zM165.331884 66.3218717L174.016864 66.0443743 182.701845 66.3218717 182.701845 64.4586751 178.022266 63.626183C176.356653 63.3486856 175.761792 62.5954784 175.761792 60.6133544L175.761792 42.7345952C178.57747 38.0567823 183.138076 35.0439537 187.659025 35.0439537 194.599078 35.0439537 197.097497 38.4135647 197.097497 47.0952681L197.097497 60.5737119C197.097497 62.555836 196.542292 63.2694006 194.837022 63.5865405L190.157444 64.4190326 190.157444 66.2822292 198.842424 66.0047319 207.527404 66.2822292 207.527404 64.4190326 202.847826 63.5865405C201.182213 63.3090431 200.587352 62.555836 200.587352 60.5737119L200.587352 45.0338591C200.587352 36.629653 196.26469 31.8329127 189.245323 31.8329127 183.732938 31.8329127 178.656785 34.2511041 175.682477 38.1757098L175.682477 32.8239748 173.897892 31.7932702 169.773518 32.4671924 165.173254 33.0221872 165.173254 34.8853838 170.130435 35.4403785C171.43913 35.638591 172.113307 36.550368 172.113307 38.2549947L172.113307 60.5340694C172.113307 62.5161935 171.558103 63.2297581 169.852833 63.546898L165.173254 64.3793901 165.173254 66.3218717 165.331884 66.3218717zM145.701449 35.0835962C151.967325 35.0835962 154.703689 37.779285 154.981291 44.6374343L134.399078 44.6374343C135.668116 38.8099895 139.713175 35.0835962 145.701449 35.0835962zM158.788406 61.1683491C158.986693 60.335857 158.431489 59.0276551 157.757312 58.8294427 152.998419 62.476551 150.262055 63.5865405 145.979051 63.5865405 137.849275 63.5865405 134.002503 58.4330179 134.002503 48.6016824L134.002503 47.491693 154.862319 47.491693C157.281423 47.491693 158.312516 46.3817035 158.312516 44.7960042 158.312516 36.6692955 154.108827 31.8725552 146.891173 31.8725552 136.500922 31.8725552 130.314361 38.8892744 130.314361 50.8613039 130.314361 60.7719243 135.826746 66.757939 144.9083 66.757939 150.103426 66.7975815 155.536495 64.6568875 158.788406 61.1683491zM92.9967062 49.6720294C92.9967062 40.5146162 97.6762846 35.0835962 105.806061 35.0835962 109.732148 35.0835962 113.499605 36.1143007 115.165217 37.779285L115.165217 55.8166141C111.040843 61.4458465 108.066535 63.5865405 104.140448 63.5865405 96.7245059 63.626183 92.9967062 58.7501577 92.9967062 49.6720294zM106.361265 31.9121977C95.8916996 31.9121977 89.3085639 39.4839117 89.3085639 50.702734 89.3085639 60.7322818 94.9399209 66.7975815 102.673123 66.7975815 108.30448 66.7975815 112.111594 64.7361725 115.12556 60.256572L115.12556 65.766877 116.910145 66.7975815 121.034519 66.1236593 125.634783 65.5686646 125.634783 63.7054679 120.677602 63.1504732C119.368906 62.9522608 118.69473 62.0404837 118.69473 60.335857L118.69473 1.30820189 116.910145.277497371 112.785771.951419558 108.185507 1.5064143 108.185507 3.36961094 113.142688 3.92460568C114.451383 4.12281809 115.12556 5.03459516 115.12556 6.73922187L115.12556 33.7753943C112.944401 32.7446898 109.732148 31.9121977 106.361265 31.9121977zM57.5826087 58.2744479C57.5826087 55.4598318 59.6447958 53.8741325 64.5226614 52.4866456L74.4370224 49.5927445 74.4370224 53.7948475C70.4316206 60.335857 66.5848485 63.626183 63.4915679 63.626183 59.5654809 63.626183 57.5826087 61.7233438 57.5826087 58.2744479zM53.9341238 58.9483701C53.9341238 63.626183 57.3843215 66.7975815 62.341502 66.7975815 67.8538867 66.7975815 72.3748353 62.8729758 74.397365 58.4726604L74.397365 65.766877 76.1819499 66.7975815 80.3063241 66.1236593 84.9065876 65.5686646 84.9065876 63.7054679 79.9494071 63.1504732C78.6407115 62.9522608 77.9665349 62.0404837 77.9665349 60.335857L77.9665349 43.4878023C77.9665349 36.3917981 74.1197628 31.8725552 68.0521739 31.8725552 63.2932806 31.8725552 58.9706192 34.1321767 56.0756258 38.0567823 55.7187088 38.5324921 55.8773386 39.1667718 56.3532279 39.6424816 56.8291173 39.9992639 57.6619236 40.3956887 58.4947299 40.3956887 60.4776021 36.6692955 62.8173913 35.2421661 66.902108 35.0439537 72.0575758 34.8457413 74.397365 38.2153523 74.397365 45.9059937L74.397365 46.5799159 65.1175231 49.1170347C57.1067194 51.3370137 53.9341238 54.0723449 53.9341238 58.9483701zM42.7110672 49.3945321C41.6799736 59.4240799 38.3090909 63.626183 27.6412385 63.626183 11.2627141 63.626183 4.79855072 55.9355415 4.79855072 37.7 4.79855072 22.9926393 13.6818182 12.923449 26.6101449 12.923449 37.0003953 12.923449 40.728195 15.6191377 42.3144928 25.3711882L44.6542819 25.3711882 43.6231884 14.0334385C40.6092227 11.3377497 34.9382082 9.71240799 28.3550725 9.71240799 11.1437418 9.71240799 1.11040843 20.6537329 1.11040843 39.3649842 1.11040843 57.045531 9.71607378 66.757939 25.3411067 66.757939 32.4397892 66.757939 39.1022398 64.69653 43.9801054 60.8512093L45.0111989 49.3548896 42.7110672 49.3548896 42.7110672 49.3945321z" transform="translate(1)"/>
    <g transform="translate(0 410)">
      <path d="M45.0622328,59.4602273 C38.8741093,65.5852273 30.8612827,69.7215909 21.3807601,69.7215909 C8.0128266,69.7215909 0.595011876,62.0056818 0.317339667,49.7556818 C0.0396674584,29.9488636 13.3679335,9.98295455 37.2477435,9.98295455 C43.8325416,9.98295455 48.9893112,11.2954545 52.4800475,13.6420455 L50.2983373,26.0909091 L47.2042755,26.0909091 C47.0059382,18.5340909 42.8011876,14.6761364 34.9073634,14.6761364 C18.5643705,14.6761364 8.29049881,33.4488636 8.6871734,50.1136364 C8.76650831,59.7386364 14.0422803,64.9886364 23.7211401,64.9886364 C30.5836105,64.9886364 36.4940618,62.6420455 45.0622328,55.3636364 C46.0935867,56.3181818 46.4109264,58.1079545 45.0622328,59.4602273 Z"/>
      <path fill-rule="nonzero" d="M91.7904988 64.1534091C88.6964371 67.6534091 83.4206651 69.7215909 79.7712589 69.7215909 75.368171 69.7215909 75.4475059 66.0625 76.1218527 63.6761364 76.5978622 62.0852273 76.9548694 60.5738636 77.4308789 59.2613636L80.9216152 52.0227273 79.9695962 51.7443182C74.9714964 62.6022727 66.5223278 69.7613636 58.2714964 69.7613636 53.6700713 69.7613636 52.8370546 67.4147727 52.8370546 64.3920455 52.8370546 47.8068182 65.8876485 32.6136364 80.5646081 32.6136364 83.0239905 32.6136364 84.6900238 32.6931818 86.3957245 32.9715909 87.9030879 32.6931818 89.6087886 32.6136364 91.1954869 32.6136364L83.2223278 62.3238636C82.547981 64.5909091 83.5793349 64.9488636 84.3330166 64.9488636 85.7610451 64.9488636 88.1807601 63.6363636 90.4418052 61.6477273 91.2351544 62.2840909 91.7111639 63.1193182 91.7904988 64.1534091zM82.1909739 38.6193182C80.6042755 38.4204545 77.6688836 37.9431818 75.3285036 37.9431818 68.3866983 37.9431818 60.1755344 48.4034091 60.1755344 61.2102273 60.1755344 63.4772727 61.0085511 64.0340909 61.7622328 64.0340909 67.9106888 64.0738636 79.176247 49.4375 82.1909739 38.6193182zM126.142518 62.6420455C125.666508 64.5113636 126.42019 64.9090909 127.372209 64.9090909 128.800238 64.9090909 131.219952 63.5965909 133.480998 61.6079545 134.314014 62.2840909 134.790024 63.1193182 134.909026 64.1534091 131.814964 67.5340909 126.459857 69.7215909 122.889786 69.7215909 118.566033 69.7215909 118.566033 66.0625 119.24038 63.6761364 119.71639 62.0852273 120.073397 60.5738636 120.549406 59.2613636L124.040143 52.0227273 123.088124 51.7443182C118.090024 62.6022727 109.640855 69.7613636 101.390024 69.7613636 96.7885986 69.7613636 95.9555819 67.4147727 95.9555819 64.3920455 95.9555819 47.8068182 108.926841 32.6136364 123.683135 32.6136364 125.111164 32.6136364 126.301188 32.6136364 127.332542 32.6931818L134.195012 7.79545455C134.869359 5.25 133.91734 4.77272727 132.965321 4.77272727 131.457957 4.77272727 128.720903 5.32954545 127.530879 5.80681818 126.777197 5.13068182 126.57886 4.69318182 126.499525 3.46022727 130.624941 1.27272727 133.91734.357954545 137.606413.357954545 140.978147.357954545 142.326841 2.625 141.255819 6.40340909L126.142518 62.6420455zM125.309501 38.6193182C123.722803 38.4204545 120.787411 37.9431818 118.447031 37.9431818 111.505226 37.9431818 103.294062 48.4034091 103.294062 61.2102273 103.294062 63.4772727 104.127078 64.0340909 104.88076 64.0340909 111.029216 64.0738636 122.294774 49.4375 125.309501 38.6193182zM146.967933 54.25C146.888599 54.8068182 146.888599 55.2840909 146.888599 55.8409091 146.888599 63.6761364 150.180998 64.7897727 154.504751 64.7897727 158.074822 64.7897727 162.041568 62.7215909 165.492637 59.0227273 167.079335 58.9431818 168.586698 60.5340909 168.309026 61.9261364 163.152257 67.0965909 157.955819 69.6420455 151.688361 69.6420455 143.873872 69.6420455 139.550119 65.8636364 139.550119 58.1477273 139.550119 42.0397727 151.569359 32.4943182 162.200238 32.4943182 168.864371 32.4943182 171.601425 35.7954545 171.601425 39.4545455 171.601425 46.4147727 167.198337 49.5568182 159.383848 51.3465909L146.967933 54.25zM147.999287 49.3579545L158.709501 46.5340909C163.231591 45.3011364 164.897625 42.875 164.897625 40.8863636 164.897625 37.5852273 162.715914 36.75 160.494537 36.75 155.45677 36.7102273 150.260333 42.6761364 147.999287 49.3579545z"/>
      <path d="M182.747981 36.9886364C181.240618 36.9886364 178.503563 37.5454545 177.313539 38.0227273 176.559857 37.3465909 176.36152 36.9090909 176.282185 35.6761364 180.407601 33.4886364 183.7 32.5738636 187.389074 32.5738636 190.760808 32.5738636 192.109501 34.8409091 191.03848 38.6193182L190.364133 41.0852273C189.689786 43.6306818 188.103088 45.9772727 186.51639 49.4772727L186.873397 49.6761364C192.030166 39.0170455 200.24133 32.6136364 209.245843 32.6136364 213.212589 32.6136364 214.124941 35.4375 214.124941 37.625 214.124941 43.4715909 208.016152 57.7897727 207.341805 62.3238636 207.143468 64.0340909 207.341805 64.5909091 208.571496 64.5909091 209.999525 64.5909091 212.41924 63.2784091 214.680285 61.2897727 215.513302 61.9659091 215.989311 62.8011364 216.108314 63.8352273 213.014252 67.2159091 207.936817 69.4034091 203.970071 69.4034091 201.986698 69.4034091 199.447981 68.5681818 200.201663 64.2329545 201.510689 56.3181818 206.389786 45.0227273 206.389786 40.0909091 206.389786 38.5 205.834442 38.1022727 204.961758 38.1022727 197.821615 38.1022727 187.468409 51.8636364 184.295012 63.8352273L183.065321 68.3693182C181.637292 68.7272727 177.987886 68.8465909 176.20285 68.8465909L183.898337 40.0909091C184.652019 37.4659091 183.7 36.9886364 182.747981 36.9886364zM228.325891 55.8409091C228.325891 64.0340909 231.61829 65.2670455 235.942043 65.2670455 238.679097 65.2670455 241.693824 63.6761364 244.391211 60.8522727 245.5019 60.7727273 247.207601 62.7215909 246.929929 63.6761364 242.685511 67.8125 238.282423 69.7215909 232.927316 69.7215909 223.526128 69.7215909 220.987411 63.5965909 220.987411 58.2272727 220.987411 42.1193182 233.006651 32.5738636 243.63753 32.5738636 247.961283 32.5738636 251.333017 33.6875 252.562708 36.5511364 253.594062 38.8181818 250.97601 43.1534091 247.961283 44.1079545 246.929929 38.6590909 245.224228 36.8693182 241.574822 36.8693182 235.267696 36.8295455 228.325891 47.1704545 228.325891 55.8409091z"/>
      <path fill-rule="nonzero" d="M261.527553 54.25C261.448219 54.8068182 261.448219 55.2840909 261.448219 55.8409091 261.448219 63.6761364 264.740618 64.7897727 269.064371 64.7897727 272.634442 64.7897727 276.601188 62.7215909 280.052257 59.0227273 281.638955 58.9431818 283.146318 60.5340909 282.868646 61.9261364 277.711876 67.0965909 272.515439 69.6420455 266.247981 69.6420455 258.433492 69.6420455 254.109739 65.8636364 254.109739 58.1477273 254.109739 42.0397727 266.128979 32.4943182 276.759857 32.4943182 283.42399 32.4943182 286.161045 35.7954545 286.161045 39.4545455 286.161045 46.4147727 281.757957 49.5568182 273.943468 51.3465909L261.527553 54.25zM262.558907 49.3579545L273.269121 46.5340909C277.791211 45.3011364 279.457245 42.875 279.457245 40.8863636 279.457245 37.5852273 277.275534 36.75 275.054157 36.75 270.01639 36.7102273 264.819952 42.6761364 262.558907 49.3579545zM354.349406 48.9602273C354.349406 63.0795455 340.902138 68.7670455 328.684561 68.7670455 325.392162 68.7670455 321.82209 68.4886364 317.220665 68.4886364 313.571259 68.4886364 308.374822 68.7670455 305.479097 68.7670455 305.201425 67.7329545 305.201425 66.3011364 305.479097 65.4659091L312.14323 64.0340909C313.928266 63.6761364 314.602613 62.6022727 314.880285 61.2102273L325.114489 18.4943182C325.471496 16.7840909 325.312827 15.9488636 323.607126 15.5909091L317.855344 14.1590909C317.657007 13.0454545 317.77601 11.6931818 318.133017 10.8579545 321.227078 10.8579545 326.701188 11.1363636 330.747268 11.1363636 335.547031 11.1363636 339.672447 10.8579545 343.440855 10.8579545 354.428741 10.8579545 356.491449 18.0965909 356.491449 23.0284091 356.491449 30.5852273 351.057007 34.9204545 344.075534 36.9886364 352.088361 39.0965909 354.349406 43.9886364 354.349406 48.9602273zM345.781235 50.3125C345.781235 42 341.457482 39.7727273 335.348694 39.7727273L328.287886 39.7727273 323.488124 60.2159091C322.813777 62.9602273 323.408789 64.5511364 329.239905 64.5511364 340.783135 64.5511364 345.781235 58.2272727 345.781235 50.3125zM329.31924 35.5170455L335.904038 35.5170455C343.9962 35.5170455 348.597625 29.1136364 348.597625 23.1875 348.597625 17.6193182 345.027553 15.1931818 340.505463 15.1931818L337.490736 15.1931818C335.428029 15.1931818 333.920665 16.3068182 333.444656 18.0965909L329.31924 35.5170455zM383.742993 32.5738636C393.421853 32.5738636 395.603563 38.7784091 395.603563 44.0681818 395.603563 56.1193182 386.678385 69.7215909 373.429454 69.7215909 363.750594 69.7215909 361.568884 63.5170455 361.568884 58.2272727 361.568884 46.1363636 370.494062 32.5738636 383.742993 32.5738636zM382.037292 36.9090909C373.310451 36.9090909 368.788361 49.7159091 368.788361 58.0284091 368.788361 64.2329545 372.160095 65.3863636 375.095487 65.3863636 383.822328 65.3863636 388.344418 52.5795455 388.344418 44.2670455 388.344418 38.0625 384.972684 36.9090909 382.037292 36.9090909zM422.815439 32.5738636C432.494299 32.5738636 434.67601 38.7784091 434.67601 44.0681818 434.67601 56.1193182 425.750831 69.7215909 412.5019 69.7215909 402.82304 69.7215909 400.64133 63.5170455 400.64133 58.2272727 400.64133 46.1363636 409.566508 32.5738636 422.815439 32.5738636zM421.149406 36.9090909C412.422565 36.9090909 407.900475 49.7159091 407.900475 58.0284091 407.900475 64.2329545 411.272209 65.3863636 414.207601 65.3863636 422.934442 65.3863636 427.456532 52.5795455 427.456532 44.2670455 427.416865 38.0625 424.045131 36.9090909 421.149406 36.9090909zM472.796437 64.1534091C469.702375 67.5340909 465.180285 69.7215909 461.610214 69.7215909 456.731116 69.7215909 451.177672 66.6193182 446.774584 61.25 446.298575 62.4829545 445.941568 63.7159091 445.663895 64.8295455L444.632542 68.8068182C442.569834 69.4829545 439.753444 69.7613636 437.294062 69.7613636L453.914727 7.83522727C454.589074 5.28977273 453.637055 4.8125 452.685036 4.8125 451.177672 4.8125 448.440618 5.36931818 447.250594 5.84659091 446.496912 5.17045455 446.298575 4.73295455 446.21924 3.5 450.344656 1.3125 453.637055.397727273 457.326128.397727273 460.697862.397727273 462.006888 2.66477273 460.975534 6.44318182L451.296675 42.6363636 447.448931 50.75 448.004276 51.9829545C452.407363 40.8465909 461.253207 32.6534091 470.654394 32.6534091 474.62114 32.6534091 475.652494 35.1988636 475.652494 37.6647727 475.652494 48.9602273 464.545606 52.9375 449.709976 54.9261364 453.954394 61.1306818 460.221853 65.0284091 465.299287 65.0284091 466.727316 65.0284091 469.147031 63.7159091 471.408076 61.7272727 472.201425 62.2840909 472.677435 63.1193182 472.796437 64.1534091zM451.614014 51.2272727C465.894299 48.8806818 468.07601 43.9886364 468.07601 40.2102273 468.07601 38.6193182 467.12399 38.2215909 466.290974 38.2215909 461.768884 38.2215909 456.05677 43.9886364 451.614014 51.2272727z"/>
      <path d="M516.232304 68.7670455L503.935392 68.4886364 492.947506 68.7670455C492.590499 67.9318182 492.590499 66.5 492.947506 65.4659091L498.857957 64.0340909C500.166983 63.7556818 501.119002 62.7215909 501.47601 61.1306818L506.910451 39.1761364 511.591211 18.5340909C511.948219 16.9431818 511.591211 15.9886364 510.36152 15.6306818L505.006413 14.1988636C504.728741 13.1647727 504.728741 11.7329545 505.006413 10.8977273L516.589311 11.1761364 528.330879 10.8977273C528.608551 11.7329545 528.608551 13.1647727 528.330879 14.1988636L522.499762 15.6306818C521.071734 15.9886364 520.318052 16.9431818 519.88171 18.5340909L514.804276 39.1761364 509.726841 61.1306818C509.369834 62.7215909 509.806176 63.7556818 510.956532 64.0340909L516.311639 65.4659091C516.390974 66.5 516.390974 67.9318182 516.232304 68.7670455zM551.179335 33.5284091L549.473634 37.9431818C549.195962 38.6988636 548.44228 38.8977273 547.688599 38.8977273L540.072447 38.8181818 534.638005 58.7840909C533.209976 63.875 534.280998 64.4318182 536.224703 64.4318182 538.565083 64.4318182 541.57981 62.7215909 544.316865 59.5397727 545.268884 59.4602273 546.657245 61.3295455 546.379572 62.2840909 542.531829 66.8181818 537.652732 69.7215909 532.099287 69.7215909 526.466508 69.7215909 526.268171 65.1875 527.021853 62.2840909L533.328979 38.8181818 525.514489 38.8977273 527.577197 34.4829545C527.497862 33.7272727 528.251544 33.5284091 529.362233 33.5284091L534.71734 33.6079545 537.176722 24.3806818C537.533729 22.8693182 540.826128 21.2784091 544.872209 21.2784091L541.500475 33.6079545 551.179335 33.5284091z"/>
      <path fill-rule="nonzero" d="M589.934442,64.1534091 C586.84038,67.6534091 581.564608,69.7215909 577.915202,69.7215909 C573.512114,69.7215909 573.591449,66.0625 574.265796,63.6761364 C574.741805,62.0852273 575.098812,60.5738636 575.574822,59.2613636 L579.065558,52.0227273 L578.113539,51.7443182 C573.115439,62.6022727 564.666271,69.7613636 556.415439,69.7613636 C551.814014,69.7613636 550.980998,67.4147727 550.980998,64.3920455 C550.980998,47.8068182 564.031591,32.6136364 578.708551,32.6136364 C581.167933,32.6136364 582.833967,32.6931818 584.539667,32.9715909 C586.047031,32.6931818 587.752732,32.6136364 589.33943,32.6136364 L581.366271,62.3238636 C580.691924,64.5909091 581.723278,64.9488636 582.47696,64.9488636 C583.904988,64.9488636 586.324703,63.6363636 588.585748,61.6477273 C589.379097,62.2840909 589.855107,63.1193182 589.934442,64.1534091 Z M580.334917,38.6193182 C578.748219,38.4204545 575.812827,37.9431818 573.472447,37.9431818 C566.530641,37.9431818 558.319477,48.4034091 558.319477,61.2102273 C558.319477,63.4772727 559.152494,64.0340909 559.906176,64.0340909 C566.054632,64.0738636 577.32019,49.4375 580.334917,38.6193182 Z"/>
      <path d="M616.630641,6.36363636 L601.67601,62.2443182 C601.001663,64.5909091 602.033017,64.8693182 602.786698,64.8693182 C604.214727,64.8693182 606.634442,63.5568182 608.895487,61.5681818 C609.728504,62.2443182 610.204513,63.0795455 610.323515,64.1136364 C607.229454,67.6136364 601.953682,69.6818182 598.304276,69.6818182 C593.70285,69.6818182 593.980523,66.0227273 594.654869,63.6363636 L609.609501,7.75568182 C610.283848,5.21022727 609.331829,4.73295455 608.37981,4.73295455 C606.872447,4.73295455 604.135392,5.28977273 602.945368,5.76704545 C602.191686,5.09090909 601.993349,4.65340909 601.914014,3.42045455 C606.03943,1.23295455 609.331829,0.318181818 613.020903,0.318181818 C616.352969,0.357954545 617.701663,2.58522727 616.630641,6.36363636 Z"/>
      <path fill-rule="nonzero" d="M629.244893,38.6193182 L622.858432,62.2840909 C622.184086,64.6306818 623.215439,64.9090909 623.969121,64.9090909 C625.39715,64.9090909 627.816865,63.5965909 630.07791,61.6079545 C630.910926,62.2840909 631.386936,63.1193182 631.505938,64.1534091 C628.411876,67.6534091 623.136105,69.7215909 619.486698,69.7215909 C614.885273,69.7215909 615.162945,66.0625 615.837292,63.6761364 L622.223753,40.0113636 C622.8981,37.4659091 621.946081,36.9886364 620.994062,36.9886364 C619.486698,36.9886364 616.749644,37.5454545 615.55962,38.0227273 C614.805938,37.3465909 614.607601,36.9090909 614.528266,35.6761364 C618.653682,33.4886364 621.946081,32.5738636 625.635154,32.5738636 C628.927553,32.5738636 630.276247,34.8409091 629.244893,38.6193182 Z M629.403563,11.2556818 C631.94228,11.2556818 633.171971,13.125 632.41829,15.7897727 C631.664608,19.1704545 629.125891,21.2386364 625.912827,21.2386364 C623.453444,21.2386364 622.144418,19.3693182 622.8981,16.8238636 C623.770784,13.4431818 626.111164,11.2556818 629.403563,11.2556818 Z"/>
      <path d="M643.445843,55.8409091 C643.445843,64.0340909 646.738242,65.2670455 651.061995,65.2670455 C653.79905,65.2670455 656.813777,63.6761364 659.511164,60.8522727 C660.621853,60.7727273 662.327553,62.7215909 662.049881,63.6761364 C657.805463,67.8125 653.402375,69.7215909 648.047268,69.7215909 C638.646081,69.7215909 636.107363,63.5965909 636.107363,58.2272727 C636.107363,42.1193182 648.126603,32.5738636 658.757482,32.5738636 C663.081235,32.5738636 666.452969,33.6875 667.68266,36.5511364 C668.714014,38.8181818 666.095962,43.1534091 663.081235,44.1079545 C662.049881,38.6590909 660.344181,36.8693182 656.694774,36.8693182 C650.387648,36.8295455 643.445843,47.1704545 643.445843,55.8409091 Z"/>
    </g>
  </g>
</svg>
