<svg xmlns="http://www.w3.org/2000/svg" width="700" height="402" viewBox="0 0 700 402">
  <path fill="#231F20" fill-rule="evenodd" d="M45.6574295 364.022836C44.0851997 371.682901 37.7291231 375.47808 30.757335 375.47808 21.0515615 375.47808 14.0797734 368.23245 14.0797734 354.637229 14.0797734 342.768184 20.5733024 335.79821 30.1422511 335.79821 36.3621305 335.79821 41.4880392 338.282281 44.768696 346.563363L49.7584076 346.218635 48.869674 332.761559C42.5813822 330.277488 36.0200685 328.69009 30.4836854 328.69009 11.4826129 328.69009 0 341.318931 0 356.293699 0 373.338737 11.1405509 383 29.4587547 383 37.8653203 383 46.5461631 379.687694 50.0320571 377.272695L50.920163 363.609035 45.6574295 364.022836zM74.0222136 345.321328C67.1872502 345.321328 58.7122723 348.495489 56.6617833 353.739921 55.7046374 356.224626 59.737203 360.779602 62.8132503 360.779602 65.4788232 360.779602 65.273586 351.118339 70.8783815 351.118339 74.7057099 351.118339 75.7312682 354.56879 75.7312682 359.468494L75.7312682 360.020439C68.8278925 360.986186 56.0466993 365.541161 56.0466993 374.650479 56.0466993 379.273259 59.3273562 383 65.0689765 383 69.7850384 383 73.7491916 381.06724 76.8930237 378.375952 78.6020784 381.482308 81.2676513 383 84.0016366 383 88.786111 383 92.1351802 379.48111 93.2285233 376.927333L90.6997752 374.443262C90.3583408 374.926135 89.1275453 375.75437 88.3078518 375.75437 87.5559431 375.75437 86.6672096 374.994573 86.6672096 374.097266L86.6672096 359.951367C86.6672096 348.357978 81.3360637 345.321328 74.0222136 345.321328zM66.5721663 372.442063C66.5721663 368.508105 71.9039398 365.747745 75.7312682 364.505709L75.7312682 373.545954C73.9544288 375.064279 72.1769618 375.961587 70.33171 375.961587 68.6910677 375.961587 66.5721663 375.064279 66.5721663 372.442063zM111.27245 346.977798L89.2643701 346.977798 89.2643701 351.324923 90.4261256 351.53214C92.0667678 351.808429 93.980432 353.18861 94.8007532 355.120736L106.420191 381.482308 114.895169 381.482308 123.302362 363.056456 131.435906 381.482308 139.911511 381.482308 147.429971 362.297294C150.368566 354.775374 152.009208 351.739357 154.264934 351.463067L155.289865 351.324923 155.289865 346.977798 140.116121 346.977798 140.116121 351.324923 141.483113 351.600578C143.602015 352.015013 144.627573 353.60241 143.26058 357.535734L138.476106 371.061249 133.144333 357.535734C131.57273 353.60241 132.802898 352.015013 134.9218 351.600578L136.288792 351.324923 136.288792 346.977798 114.280085 346.977798 114.280085 351.324923 115.44184 351.53214C117.082483 351.808429 118.996147 353.18861 119.816468 355.120736L120.226315 356.087115 113.596589 371.475684 108.128618 357.535734C106.556388 353.60241 107.787184 352.015013 109.905457 351.600578L111.27245 351.324923 111.27245 346.977798zM181.740985 328C172.240448 328 163.423408 336.557372 163.423408 346.563363L157.477179 349.048068C157.271941 349.806597 157.271941 350.428249 157.477179 351.808429L163.218171 352.084085 163.218171 371.130955C163.218171 374.512334 162.261653 376.16817 158.844171 376.85826L157.477179 377.133916 157.477179 381.482308 180.920664 381.482308 180.920664 377.065478 178.52874 376.651677C175.111259 376.030659 174.154113 374.443262 174.154113 371.061249L174.154113 352.774175 180.783839 353.395193C183.381627 353.395193 185.568313 348.90929 184.74862 346.977798L174.154113 346.977798 174.0857 341.732732C174.017288 336.695517 175.452693 335.315336 177.571594 335.039047 181.809397 334.624613 185.090054 340.836058 187.551017 340.21504 190.011353 339.593389 192.540101 332.48527 190.285003 330.139343 188.370711 328 183.996711 328 181.740985 328zM210.789265 328C201.288729 328 192.471689 336.557372 192.471689 346.563363L186.524831 349.048068C186.320222 349.806597 186.320222 350.428249 186.524831 351.808429L192.266452 352.084085 192.266452 371.130955C192.266452 374.512334 191.309306 376.16817 187.891824 376.85826L186.524831 377.133916 186.524831 381.482308 209.968944 381.482308 209.968944 377.065478 207.577021 376.651677C204.159539 376.030659 203.202393 374.443262 203.202393 371.061249L203.202393 352.774175 209.832119 353.395193C212.42928 353.395193 214.616593 348.90929 213.796272 346.977798L203.202393 346.977798 203.133981 341.732732C203.065568 336.695517 204.500973 335.315336 206.619875 335.039047 210.857677 334.624613 214.138334 340.836058 216.59867 340.21504 219.059633 339.593389 221.588382 332.48527 219.332655 330.139343 217.418991 328 213.044991 328 210.789265 328zM232.455283 383C241.204538 383 246.945531 377.893713 249.064432 373.960389L246.467272 370.923738C244.34837 373.132154 238.948812 374.581406 235.872765 374.581406 230.131772 374.581406 226.782703 369.750775 226.099206 363.884691L247.902677 362.159782C247.902677 351.187411 242.639315 345.321328 233.549254 345.321328 224.390152 345.321328 214.889615 352.91232 214.889615 365.057654 214.889615 376.513532 222.681725 383 232.455283 383zM231.977024 351.324923C234.711009 351.324923 237.10356 353.739921 237.650232 358.294897L225.962382 359.261277C226.303816 354.016211 229.106214 351.324923 231.977024 351.324923zM270.594253 383C279.343508 383 285.084501 377.893713 287.203402 373.960389L284.606241 370.923738C282.48734 373.132154 277.087782 374.581406 274.011734 374.581406 268.270742 374.581406 264.921673 369.750775 264.238176 363.884691L286.041646 362.159782C286.041646 351.187411 280.778913 345.321328 271.688223 345.321328 262.529122 345.321328 253.028585 352.91232 253.028585 365.057654 253.028585 376.513532 260.820695 383 270.594253 383zM270.115994 351.324923C272.849979 351.324923 275.24253 353.739921 275.789201 358.294897L264.101351 359.261277C264.442786 354.016211 267.245183 351.324923 270.115994 351.324923zM308.185923 329.725542L308.185923 334.83183 309.826566 335.176558C313.790719 336.005427 315.020887 338.351353 315.020887 342.491261L315.020887 368.64625C315.020887 372.786792 313.722934 374.994573 309.826566 375.961587L308.185923 376.375387 308.185923 381.482308 338.806434 381.482308C348.170773 381.482308 355.552408 375.961587 355.552408 367.127291 355.552408 358.570553 350.289674 354.292501 344.069795 353.119537 348.717444 350.703271 351.998101 346.149563 351.998101 340.490696 351.998101 333.245066 346.188696 329.725542 337.781503 329.725542L308.185923 329.725542zM327.734295 335.521286L331.835273 335.521286C336.140861 335.521286 339.421518 337.86848 339.421518 343.32013 339.421518 346.632436 338.054525 351.049267 333.475288 351.049267L327.734295 351.049267 327.734295 335.521286zM327.734295 356.845644L334.021959 356.845644C337.98674 356.845644 342.838999 359.468494 342.838999 366.714124 342.838999 372.994009 340.105014 375.685297 335.388952 375.685297L332.381945 375.685297C329.579547 375.685297 327.734295 373.891316 327.734295 371.613828L327.734295 356.845644zM383.369893 345.321328C371.135371 345.321328 360.678316 353.326121 360.678316 364.920143 360.678316 376.789188 368.606623 383 378.653831 383 390.752155 383 401.073012 374.926135 401.073012 363.125529 401.073012 351.393995 393.075666 345.321328 383.369893 345.321328zM380.020823 351.324923C385.762443 351.324923 389.248965 356.914717 389.248965 365.126727 389.248965 372.580208 386.103878 376.996405 381.661465 376.996405 375.851433 376.996405 372.502364 371.200028 372.502364 363.263673 372.502364 355.603609 375.715236 351.324923 380.020823 351.324923zM417.544082 328L404.489239 333.175993 404.489239 336.971173 405.856231 337.247462C409.273713 337.937553 410.230859 339.593389 410.230859 342.974768L410.230859 371.130955C410.230859 374.512334 409.273713 376.16817 405.856231 376.85826L404.489239 377.133916 404.489239 381.482308 426.907793 381.482308 426.907793 377.133916 425.5408 376.85826C422.123319 376.16817 421.1668 374.512334 421.1668 371.130955L421.1668 328 417.544082 328zM451.170971 345.321328C441.465198 345.321328 431.349578 353.464266 431.349578 365.954962 431.349578 376.927333 437.70691 383 446.18126 383 451.170971 383 455.340362 380.515929 458.074347 377.962785 458.826256 380.102128 459.714362 381.482308 460.808332 383L474 377.755568 474 373.960389 472.633007 373.684099C469.215526 372.994009 468.25838 371.337539 468.25838 367.95616L468.25838 328 464.635661 328 451.580818 333.175993 451.580818 336.971173 452.947811 337.247462C456.365292 337.937553 457.322438 339.593389 457.322438 342.974768L457.322438 345.735128C455.477187 345.459473 453.426698 345.321328 451.170971 345.321328zM442.490756 362.7808C442.490756 355.810826 446.044435 351.53214 450.282238 351.53214 453.426698 351.53214 455.750209 352.842614 457.322438 354.361573L457.322438 373.615027C455.681796 375.133352 453.836544 376.16817 451.854468 376.16817 446.318085 376.16817 442.490756 370.233648 442.490756 362.7808zM44.8938604 282.597632C43.3220388 290.415478 37.1037745 294.427953 29.4511053 294.427953 19.6794575 294.427953 12.0945555 286.540861 12.0945555 272.773549 12.0945555 260.320647 18.6541655 252.987525 28.6309972 252.987525 35.1222126 252.987525 40.7255527 255.339359 44.2105416 264.126018L48.4472439 263.779786 47.5587412 250.704303C41.4088715 248.213976 34.8492615 246.691828 29.3827107 246.691828 11.1376581 246.691828 0 259.42108 0 274.43419 0 291.107941 10.864707 301 28.3574187 301 36.6256395 301 45.1674389 297.817846 48.5840332 295.396766L49.4719085 282.252036 44.8938604 282.597632zM71.67883 263.779786C65.3244039 263.779786 57.6027126 266.755472 55.8263346 271.389893 55.0062265 273.603869 58.4912154 277.547098 61.2244908 277.547098 63.5473984 277.547098 63.4106091 269.038059 69.0139492 269.038059 72.704122 269.038059 74.3443383 272.497199 74.3443383 277.408605L74.3443383 278.585157C67.7157061 279.346232 54.7326479 283.566445 54.7326479 292.698065 54.7326479 297.264511 58.0808476 301 63.615793 301 68.3306304 301 72.0208032 299.063009 75.1638189 296.295697 76.7356405 299.478487 79.3321267 301 81.9286128 301 85.9607588 301 89.1721691 297.748599 90.1968337 295.396766L87.9423207 293.044297C87.5319529 293.597632 86.3021045 294.427953 85.4819963 294.427953 84.7302828 294.427953 83.7740129 293.666878 83.7740129 292.698065L83.7740129 278.169679C83.7740129 266.824083 78.5804132 263.779786 71.67883 263.779786zM63.9577662 290.761074C63.9577662 286.333757 70.2437977 283.635692 74.3443383 282.528386L74.3443383 291.729887C72.2937542 293.597632 70.3805869 294.704303 68.1938411 294.704303 66.3490684 294.704303 63.9577662 293.666878 63.9577662 290.761074zM106.459697 265.232688L85.8923641 265.232688 85.8923641 269.106671 87.0538179 269.314409C88.9669852 269.660641 90.6072015 270.836558 91.4266821 272.635056L103.043103 299.616344 110.081475 299.616344 118.691669 280.038059 127.096052 299.616344 134.134424 299.616344 142.675596 277.685591C144.999131 271.805371 146.434164 269.522148 148.552515 269.245163L149.713969 269.106671 149.713969 265.232688 134.954532 265.232688 134.954532 269.106671 136.32117 269.383656C138.917656 269.799134 139.806159 271.182154 138.644078 274.503436L133.041365 290.138493 126.754706 274.364944C125.388068 271.044297 126.549522 269.729887 129.077614 269.314409L130.444251 269.106671 130.444251 265.232688 109.944686 265.232688 109.944686 269.106671 111.175162 269.314409C113.019934 269.591395 114.727918 270.767312 115.479631 272.635056L116.026161 273.950101 109.192972 290.415478 102.770152 274.43419C101.403514 271.113543 102.564968 269.799134 105.093059 269.383656L106.39193 269.106671 106.459697 265.232688zM174.518004 246C165.703253 246 157.707983 254.024949 157.707983 264.817846L151.763298 267.169679C151.558114 267.861507 151.558114 268.691828 151.763298 269.799134L157.503427 270.006237 157.503427 290.346232C157.503427 293.320647 156.54653 294.912042 153.266725 295.534623L151.900087 295.742362 151.900087 299.616344 173.561106 299.616344 173.561106 295.742362 171.237571 295.396766C167.889372 294.773549 166.933102 293.320647 166.933102 290.276985L166.933102 270.628819 174.31282 271.251401C176.499566 271.251401 178.481128 267.238926 177.729414 265.232688L166.933102 265.232688 166.864707 259.006237C166.864707 254.440427 168.231345 252.434825 170.622647 252.295697 174.518004 252.018712 177.661019 257.069246 179.574187 256.654404 181.624143 256.238926 184.289024 250.081721 182.375857 248.14473 180.667873 246.276985 177.046095 246 174.518004 246zM203.012212 246C194.197461 246 186.202191 254.024949 186.202191 264.817846L180.257506 267.169679C180.052322 267.861507 180.052322 268.691828 180.257506 269.799134L185.997635 270.006237 185.997635 290.346232C185.997635 293.320647 185.040738 294.912042 181.760933 295.534623L180.394295 295.742362 180.394295 299.616344 202.055314 299.616344 202.055314 295.742362 199.731779 295.396766C196.383579 294.773549 195.42731 293.320647 195.42731 290.276985L195.42731 270.628819 202.807028 271.251401C204.993774 271.251401 206.975335 267.238926 206.223622 265.232688L195.42731 265.232688 195.358915 259.006237C195.358915 254.440427 196.725553 252.434825 199.116855 252.295697 203.012212 252.018712 206.155227 257.069246 208.068395 256.654404 210.118351 256.238926 212.783232 250.081721 210.870065 248.14473 209.162081 246.276985 205.540303 246 203.012212 246zM224.604836 301C232.736268 301 237.92924 296.226451 240.047591 292.283223L237.860846 289.72365C235.606333 292.075484 230.959262 293.597632 227.747852 293.597632 221.666377 293.597632 217.840042 288.270748 217.429675 281.767312L239.091322 280.107306C239.091322 269.314409 234.034511 263.779786 225.493339 263.779786 216.81475 263.779786 207.794816 271.251401 207.794816 283.220214 207.794816 294.566445 215.175162 301 224.604836 301zM223.921518 269.245163C226.996139 269.245163 229.593252 271.805371 230.071387 276.648166L217.292885 277.616344C217.634859 272.150967 220.710107 269.245163 223.921518 269.245163zM261.366638 301C269.498697 301 274.691669 296.226451 276.81002 292.283223L274.623274 289.72365C272.368134 292.075484 267.721691 293.597632 264.510281 293.597632 258.428806 293.597632 254.601844 288.270748 254.192103 281.767312L275.853123 280.107306C275.853123 269.314409 270.79694 263.779786 262.25514 263.779786 253.577179 263.779786 244.557245 271.251401 244.557245 283.220214 244.557245 294.566445 251.936963 301 261.366638 301zM260.683319 269.245163C263.758567 269.245163 266.355054 271.805371 266.833189 276.648166L254.055314 277.616344C254.397287 272.150967 257.471908 269.245163 260.683319 269.245163zM316.714837 246.691828C306.192103 246.691828 299.563471 253.263875 299.563471 261.981288 299.563471 277.616344 324.093928 279.276985 324.093928 289.101068 324.093928 292.490962 320.95154 295.050534 316.441886 295.050534 311.45347 295.050534 306.260498 292.421715 303.527223 284.258273L299.085336 284.258273 299.085336 297.126018C302.63872 299.478487 310.770152 300.930754 315.690173 300.930754 326.691669 300.930754 333.729414 294.635692 333.729414 285.087958 333.729414 269.038059 309.19833 267.655039 309.19833 258.038059 309.19833 255.132255 312.410368 252.503436 316.236702 252.503436 320.199199 252.503436 324.299739 254.163442 327.306593 262.880855L331.679457 262.880855 331.679457 251.673116C328.262863 249.320647 322.591756 246.691828 316.714837 246.691828zM355.800801 301C363.932233 301 369.125205 296.226451 371.243556 292.283223L369.057438 289.72365C366.802298 292.075484 362.155855 293.597632 358.943817 293.597632 352.862342 293.597632 349.03538 288.270748 348.62564 281.767312L370.287286 280.107306C370.287286 269.314409 365.230476 263.779786 356.689304 263.779786 348.010715 263.779786 338.991408 271.251401 338.991408 283.220214 338.991408 294.566445 346.370499 301 355.800801 301zM355.117482 269.245163C358.192103 269.245163 360.789217 271.805371 361.267352 276.648166L348.489478 277.616344C348.830823 272.150967 351.906072 269.245163 355.117482 269.245163zM387.301236 264.333122L375.75321 269.175917 375.75321 272.497199 377.051453 272.704303C380.399652 273.326884 381.35655 274.918279 381.35655 277.893329L381.35655 290.346232C381.35655 293.320647 380.399652 294.912042 377.051453 295.534623L375.75321 295.742362 375.75321 299.616344 396.389565 299.616344 396.389565 295.742362 395.091322 295.534623C391.743122 294.912042 390.786225 293.320647 390.786225 290.346232L390.786225 274.157205C392.767786 272.635056 395.569457 271.251401 398.302732 271.251401 403.017569 271.251401 406.161212 274.226451 406.161212 280.383656L406.161212 290.346232C406.161212 293.320647 405.204315 294.912042 401.856115 295.534623L400.48885 295.742362 400.48885 299.616344 421.194227 299.616344 421.194227 295.742362 419.82759 295.534623C416.547157 294.912042 415.590887 293.320647 415.590887 290.346232L415.590887 277.685591C415.590887 276.509674 415.522493 275.402368 415.317309 274.364944 417.298871 272.773549 420.23733 271.251401 423.107395 271.251401 427.822232 271.251401 430.896853 274.226451 430.896853 280.383656L430.896853 290.346232C430.896853 293.320647 429.940583 294.912042 426.660151 295.534623L425.29414 295.742362 425.29414 299.616344 445.998262 299.616344 445.998262 295.742362 444.631625 295.534623C441.35182 294.912042 440.394922 293.320647 440.394922 290.346232L440.394922 277.685591C440.394922 268.761074 435.20195 263.779786 428.231972 263.779786 422.355681 263.779786 417.640216 267.585157 414.292644 270.836558 412.379477 266.270748 408.347331 263.779786 403.427937 263.779786 398.029781 263.779786 393.656289 267.031187 390.376484 270.006237 389.556376 267.446665 388.462689 265.924516 387.301236 264.333122zM459.322039 248.283223C455.632493 248.283223 452.557245 250.842795 452.557245 254.232688 452.557245 257.899567 455.29052 260.182154 458.707115 260.182154 462.465682 260.182154 465.335747 257.484089 465.335747 254.232688 465.335747 250.56581 462.602471 248.283223 459.322039 248.283223zM461.44039 265.232688L449.414229 270.14473 449.414229 273.465377 450.712472 273.742362C454.060672 274.364944 455.017569 275.887092 455.017569 278.931389L455.017569 290.346232C455.017569 293.320647 454.060672 294.912042 450.712472 295.534623L449.414229 295.742362 449.414229 299.616344 470.050584 299.616344 470.050584 295.742362 468.752341 295.534623C465.403514 294.912042 464.447244 293.320647 464.447244 290.346232L464.447244 265.232688 461.44039 265.232688zM497.314316 263.779786C493.077614 263.779786 489.182884 266.063009 486.108263 268.830321L486.108263 246 483.101409 246 471.075249 250.842795 471.075249 254.163442 472.441886 254.440427C475.721691 255.063009 476.677961 256.585157 476.677961 259.628819L476.677961 295.950101C480.026161 298.717413 486.723188 301 491.984554 301 502.371127 301 512.142774 293.459139 512.142774 282.044297 512.142774 270.283223 505.172797 263.779786 497.314316 263.779786zM492.189738 270.490962C498.270586 270.490962 502.439521 276.094196 502.439521 283.358706 502.439521 290.415478 498.954532 295.396766 493.692538 295.396766 490.754706 295.396766 488.089825 293.943864 486.108263 292.075484L486.108263 272.773549C487.884641 271.320647 490.002993 270.490962 492.189738 270.490962zM538.585771 263.779786C527.175162 263.779786 517.19833 271.805371 517.19833 283.220214 517.19833 294.912042 524.783859 301 534.213534 301 545.487981 301 555.395791 292.975051 555.395791 281.352469 555.395791 269.799134 547.674727 263.779786 538.585771 263.779786zM535.443383 269.245163C541.456463 269.245163 545.351192 275.056772 545.351192 283.358706 545.351192 291.038059 541.934598 295.534623 537.082971 295.534623 531.069891 295.534623 527.243556 289.515911 527.243556 281.490962 527.243556 273.673116 530.728545 269.245163 535.443383 269.245163zM571.111497 246L559.085336 250.842795 559.085336 254.163442 560.383579 254.440427C563.731779 255.063009 564.688677 256.585157 564.688677 259.628819L564.688677 290.346232C564.688677 293.320647 563.731779 294.912042 560.383579 295.534623L559.085336 295.742362 559.085336 299.616344 579.721691 299.616344 579.721691 295.742362 578.422821 295.534623C575.074621 294.912042 574.118351 293.320647 574.118351 290.346232L574.118351 246 571.111497 246zM602.202191 263.779786C592.635727 263.779786 582.933102 271.736125 582.933102 283.773549 582.933102 294.842795 589.355922 301 597.555749 301 602.544164 301 606.712472 298.509674 609.582537 295.742362 610.333623 298.025585 611.153731 299.409241 612.247418 301L624 296.226451 624 292.905804 622.63399 292.698065C619.353557 292.075484 618.397287 290.484724 618.397287 287.509674L618.397287 246 615.390433 246 603.295878 250.842795 603.295878 254.163442 604.662516 254.440427C608.010715 255.063009 608.966358 256.585157 608.966358 259.628819L608.966358 264.402368C606.780867 263.987525 604.594121 263.779786 602.202191 263.779786zM592.499566 281.075484C592.499566 273.742362 596.3259 269.314409 601.109132 269.314409 604.525726 269.314409 607.122213 270.836558 608.966358 272.635056L608.966358 291.452902C607.18998 293.320647 605.003861 294.635692 602.612559 294.635692 596.599479 294.635692 592.499566 288.616344 592.499566 281.075484zM44.0423744 201.545543C42.3350043 209.522702 36.3946353 213.613649 27.9957286 213.613649 18.1634587 213.613649 9.83289697 205.159401 9.83289697 191.454666 9.83289697 178.63649 16.4560886 170.931685 26.9034632 170.931685 33.7316897 170.931685 39.8770936 173.181894 43.4962417 182.318593L46.910355 182.045613 46.0908424 169.636281C40.0137835 167.181338 33.5266548 165.681825 28.1324186 165.681825 10.7207545 165.681825 0 178.22702 0 193.022424 0 209.113858 10.5157196 219 27.1084981 219 35.16568 219 43.6329316 216.068593 46.910355 213.750139L47.7982125 201.272563 44.0423744 201.545543zM68.9650876 182.999791C63.1607816 182.999791 56.3325551 185.658844 54.8302199 189.613927 54.0790523 191.386421 57.0837227 194.727298 59.3372256 194.727298 61.3173486 194.727298 61.3173486 187.500209 66.8482747 187.500209 70.3984509 187.500209 72.7202987 190.97695 72.7202987 195.749722L72.7202987 197.591712C66.4382049 198.137047 53.1234768 201.886142 53.1234768 210.954596 53.1234768 215.386768 56.6742799 219 61.8634813 219 66.5748949 219 69.9890081 217.159262 73.1980864 214.364345 74.5637317 217.432242 77.0906145 219 79.4801802 219 82.6892586 219 85.8989639 216.204457 86.8545394 214.091364L84.8060715 211.910027C84.3966287 212.52298 83.0993284 213.341295 82.2114708 213.341295 81.4603032 213.341295 80.5047277 212.591851 80.5047277 211.49993L80.5047277 196.772772C80.5047277 185.932451 75.4515893 182.999791 68.9650876 182.999791zM61.0439687 209.318593C61.0439687 204.409331 68.4183279 201.886142 72.7202987 201.000209L72.7202987 210.068036C70.3984509 212.318245 68.3499829 213.750139 65.7553823 213.750139 63.7069143 213.750139 61.0439687 212.52298 61.0439687 209.318593zM101.807666 184.22695L82.8253215 184.22695 82.8253215 187.500209 84.0542769 187.704944C86.2394347 188.045543 87.60508 188.999722 88.3562477 190.705222L99.9642327 217.841086 105.495159 217.841086 114.303508 197.250487 123.043513 217.841086 128.437749 217.841086 138.065611 193.364275C139.704636 189.340947 141.001937 187.909053 142.98206 187.636073L144.211015 187.500209 144.211015 184.22695 130.008429 184.22695 130.008429 187.500209 131.30573 187.704944C134.378745 188.182033 135.129286 189.340947 134.17371 191.932381L127.823271 209.455083 120.380567 191.659401C119.288302 189.067967 120.312222 188.045543 123.316893 187.636073L124.614193 187.500209 124.614193 184.22695 105.904602 184.22695 105.904602 187.500209 107.133557 187.636073C109.25037 187.909053 110.616015 188.863858 111.435528 190.636351L112.050006 192.068245 104.949026 209.591573 97.506322 191.72702C96.4134295 189.136212 97.437977 188.182033 100.44202 187.704944L101.739321 187.500209 101.807666 184.22695zM168.586968 165C160.598132 165 153.496525 172.295334 153.496525 183.818732L147.556156 185.932451C147.283403 186.477159 147.283403 187.636073 147.556156 188.386142L153.292117 188.591504 153.292117 209.863927C153.292117 212.454735 152.335915 213.81901 149.126836 214.364345L147.829536 214.56908 147.829536 217.841086 167.563048 217.841086 167.563048 214.56908 165.2412 214.295474C162.032122 213.81901 161.075919 212.38649 161.075919 209.796308L161.075919 188.999722 169.201446 189.613927C170.977161 189.613927 172.752249 186.204179 172.001082 184.22695L161.075919 184.22695 161.007574 176.931616C161.007574 173.045404 162.37322 170.454596 165.10451 170.318732 168.518624 170.181616 171.591639 173.931964 172.888939 173.727228 174.527964 173.522493 177.19091 168.544987 175.75692 167.113092 174.254585 165.545334 171.523294 165 168.586968 165zM197.196548 165C189.207711 165 182.106105 172.295334 182.106105 183.818732L176.165736 185.932451C175.892356 186.477159 175.892356 187.636073 176.165736 188.386142L181.90107 188.591504 181.90107 209.863927C181.90107 212.454735 180.945494 213.81901 177.735789 214.364345L176.438488 214.56908 176.438488 217.841086 196.172627 217.841086 196.172627 214.56908 193.85078 214.295474C190.641701 213.81901 189.685499 212.38649 189.685499 209.796308L189.685499 188.999722 197.811025 189.613927C199.586741 189.613927 201.361829 186.204179 200.610661 184.22695L189.685499 184.22695 189.617154 176.931616C189.617154 173.045404 190.982799 170.454596 193.71409 170.318732 197.128203 170.181616 200.201218 173.931964 201.498519 173.727228 203.136917 173.522493 205.799862 168.544987 204.366499 167.113092 202.864164 165.545334 200.132873 165 197.196548 165zM218.704521 219C226.21557 219 230.790294 214.773189 232.975451 210.818732L231.132018 208.840877C228.878516 211.227576 225.054959 212.932451 221.640846 212.932451 215.290407 212.932451 210.988437 207.137255 210.578994 200.045404L232.292629 198.545265C232.292629 188.113788 227.37618 182.999791 219.455688 182.999791 211.330162 182.999791 202.72622 190.227507 202.72622 201.750278 202.72622 212.863579 209.759481 219 218.704521 219zM217.885008 187.772563C221.299121 187.772563 224.098757 190.432242 224.577172 195.613858L210.578994 196.431546C210.920719 190.772841 214.266487 187.772563 217.885008 187.772563zM253.870201 219C261.38125 219 265.955974 214.773189 268.141131 210.818732L266.297071 208.840877C264.044196 211.227576 260.220012 212.932451 256.805899 212.932451 250.456087 212.932451 246.154117 207.137255 245.744047 200.045404L267.458309 198.545265C267.458309 188.113788 262.54186 182.999791 254.620741 182.999791 246.495214 182.999791 237.8919 190.227507 237.8919 201.750278 237.8919 212.863579 244.925161 219 253.870201 219zM253.050688 187.772563C256.464801 187.772563 259.264437 190.432242 259.742225 195.613858L245.744047 196.431546C246.085772 190.772841 249.43154 187.772563 253.050688 187.772563zM290.605934 166.704874L290.605934 170.386351 292.586057 170.658705C296.341268 171.136421 297.502505 173.113649 297.502505 176.249791L297.502505 208.295543C297.502505 211.431685 296.341268 213.204805 292.586057 213.886629L290.810342 214.158983 290.810342 217.841086 309.11049 217.841086 309.11049 214.158983 307.12974 213.886629C303.306184 213.40954 302.213919 211.431685 302.213919 208.295543L302.213919 174.477298 320.445096 217.841086 325.634297 217.841086 343.319341 174.613162 343.319341 208.295543C343.319341 211.431685 342.227075 213.40954 338.403519 213.886629L336.422769 214.158983 336.422769 217.841086 359.024262 217.841086 359.024262 214.158983 357.043512 213.886629C353.288928 213.40954 352.12769 211.431685 352.12769 208.295543L352.12769 176.113301C352.12769 172.977159 353.288928 171.136421 357.043512 170.658705L359.092607 170.386351 359.092607 166.704874 341.475281 166.704874 325.156509 206.181825 308.632076 166.704874 290.605934 166.704874zM378.006606 219C385.517655 219 390.091752 214.773189 392.277537 210.818732L390.433477 208.840877C388.180601 211.227576 384.356418 212.932451 380.942932 212.932451 374.592493 212.932451 370.289895 207.137255 369.881079 200.045404L391.594714 198.545265C391.594714 188.113788 386.678266 182.999791 378.757147 182.999791 370.63162 182.999791 362.028305 190.227507 362.028305 201.750278 362.028305 212.863579 369.06094 219 378.006606 219zM377.186466 187.772563C380.601207 187.772563 383.400842 190.432242 383.87863 195.613858L369.881079 196.431546C370.222177 190.772841 373.567945 187.772563 377.186466 187.772563zM416.03964 182.999791C406.548467 182.999791 397.330048 190.568106 397.330048 201.886142 397.330048 212.863579 403.885522 219 411.737669 219 416.654117 219 420.818771 216.613927 423.824069 213.750139 424.575236 216.137464 425.462467 217.568732 426.555359 219L436.661009 214.841434 436.661009 212.181755 435.363709 211.910027C432.086285 211.431685 431.130083 210.000417 431.130083 207.408983L431.130083 165 428.808235 165 417.883073 169.431546 417.883073 172.227089 419.180373 172.431825C422.390078 172.977159 423.345654 174.340808 423.345654 176.931616L423.345654 183.818732C420.751053 183.272772 418.429832 182.999791 416.03964 182.999791zM405.11385 199.840669C405.11385 192.13649 409.279758 187.704944 414.742339 187.704944 418.088107 187.704944 421.297186 189.409192 423.345654 191.318802L423.345654 209.522702C421.433876 211.636421 418.90762 213.27305 416.176329 213.27305 409.553138 213.27305 405.11385 207.273119 405.11385 199.840669zM449.702357 167.863162C446.698314 167.863162 444.171431 170.249861 444.171431 173.249513 444.171431 176.318662 446.424934 178.63649 449.292287 178.63649 452.433648 178.63649 454.823841 176.113301 454.823841 173.181894 454.823841 170.113371 452.638056 167.863162 449.702357 167.863162zM451.887515 184.22695L440.961726 188.659123 440.961726 191.454666 442.259653 191.659401C445.469358 192.205361 446.424934 193.636629 446.424934 196.159192L446.424934 209.863927C446.424934 212.454735 445.469358 213.81901 442.259653 214.364345L440.961726 214.56908 440.961726 217.841086 459.740289 217.841086 459.740289 214.56908 458.374644 214.364345C455.164938 213.81901 454.209363 212.454735 454.209363 209.863927L454.209363 184.22695 451.887515 184.22695zM472.849982 184.22695L461.856475 188.591504 461.856475 191.318802 463.22212 191.591782C466.431199 192.13649 467.387401 193.500139 467.387401 196.090947L467.387401 204.682311C467.387401 214.773189 472.16716 218.659401 479.200421 218.659401 484.526312 218.659401 488.486558 215.727368 491.148877 213.204805 491.969017 215.863858 492.856874 217.432242 494.017485 219L504.054162 214.841434 504.054162 212.11351 502.757489 211.910027C499.548411 211.364693 498.591581 210.000417 498.591581 207.408983L498.591581 184.22695 496.27036 184.22695 485.27748 188.591504 485.27748 191.318802 486.643125 191.591782C489.852204 192.13649 490.807779 193.500139 490.807779 196.090947L490.807779 209.182103C489.442761 210.682868 487.120913 212.591851 483.638455 212.591851 478.722633 212.591851 475.17183 209.182103 475.17183 202.295613L475.17183 184.22695 472.849982 184.22695zM518.18903 183.886351L508.084007 188.045543 508.084007 190.772841 509.449653 190.97695C512.658731 191.522911 513.613679 192.954805 513.613679 195.545613L513.613679 209.863927C513.613679 212.454735 512.658731 213.81901 509.449653 214.364345L508.084007 214.56908 508.084007 217.841086 526.929662 217.841086 526.929662 214.56908 525.564016 214.364345C522.354938 213.81901 521.398735 212.454735 521.398735 209.863927L521.398735 192.818941C523.583893 191.181685 526.656282 189.613927 529.729297 189.613927 534.850154 189.613927 537.649162 192.818941 537.649162 198.818871L537.649162 209.863927C537.649162 212.454735 536.694214 213.81901 533.484508 214.364345L532.187208 214.56908 532.187208 217.841086 550.965144 217.841086 550.965144 214.56908 549.667217 214.364345C546.389794 213.81901 545.434218 212.454735 545.434218 209.863927L545.434218 196.499791C545.434218 195.272632 545.365873 194.113719 545.160838 193.090669 547.345369 191.318802 550.555075 189.613927 553.76478 189.613927 558.953981 189.613927 561.753617 192.818941 561.753617 198.818871L561.753617 209.863927C561.753617 212.454735 560.796787 213.81901 557.588336 214.364345L556.222691 214.56908 556.222691 217.841086 575 217.841086 575 214.56908 573.7027 214.364345C570.493621 213.81901 569.538046 212.454735 569.538046 209.863927L569.538046 196.499791C569.538046 188.045543 564.758287 182.999791 557.861716 182.999791 552.262445 182.999791 547.414341 186.750139 544.205263 189.749791 542.361203 185.454735 538.605992 182.999791 533.826233 182.999791 528.635778 182.999791 524.061681 186.272424 520.920948 189.067967 520.16978 186.750139 519.281923 185.318871 518.18903 183.886351zM44.2969797 119.506748C42.5920734 127.741533 36.7967697 132.10135 27.7963925 132.10135 17.9100652 132.10135 8.97793433 122.897505 8.97793433 108.918895 8.97793433 95.4251334 15.6598143 87.2596123 26.5009643 87.2596123 33.524076 87.2596123 40.1377097 89.4048885 43.9563741 99.0929456L46.683097 98.8851538 45.8653932 86.6362367C39.8647244 84.1452762 33.3875834 82.6920041 28.0693779 82.6920041 11.3640517 82.6920041 1 95.4943973 1 110.510695 1 126.496053 11.2281852 136.668322 27.0463089 136.668322 34.9559969 136.668322 43.342157 133.831042 46.4789841 131.47861L47.3649343 119.298956 44.2969797 119.506748zM67.7518061 100.614846C62.3653542 100.614846 56.2970652 103.175706 55.001637 106.635727 54.3874199 108.157627 56.9106561 110.994907 58.8196752 110.994907 60.4563351 110.994907 60.5922017 104.697607 66.1151462 104.697607 69.5243325 104.697607 72.3881743 108.226891 72.3881743 113.07092L72.3881743 115.493252C66.3881315 115.9082 52.8878788 119.298956 52.8878788 128.572065 52.8878788 133.001146 56.5011781 136.668322 61.478778 136.668322 66.2516388 136.668322 69.3202196 134.800102 72.5929133 131.824294 73.6836025 135.077158 76.1385923 136.668322 78.5247097 136.668322 81.0473198 136.668322 84.1159005 134.108098 85.0024768 132.170614L83.1610779 130.094601C82.752226 130.786605 81.4567978 131.617137 80.5702215 131.617137 79.8201379 131.617137 78.797695 130.855869 78.797695 129.609754L78.797695 114.385664C78.797695 103.590654 73.8200951 100.614846 67.7518061 100.614846zM59.6380052 127.188057C59.6380052 121.652024 67.8882987 119.36822 72.3881743 118.537688L72.3881743 127.741533C69.8655642 130.301758 67.6835597 132.032086 64.7514716 132.032086 62.5018469 132.032086 59.6380052 130.648078 59.6380052 127.188057zM98.9109553 101.722434L81.2514327 101.722434 81.2514327 104.559714 82.5468609 104.766871C85.0018507 105.182454 86.0925399 106.012351 86.7743772 107.604151L98.3656107 135.630634 102.661373 135.630634 111.593504 113.762924 120.593255 135.630634 124.684279 135.630634 135.25307 108.365419C136.275512 105.735931 137.435074 105.043927 139.275847 104.766871L140.571275 104.559714 140.571275 101.722434 126.798037 101.722434 126.798037 104.559714 128.093465 104.766871C131.570898 105.320982 132.184489 106.289407 131.435031 108.365419L124.41192 127.949325 116.09338 107.950471C115.206803 105.874459 116.161626 105.043927 119.502566 104.697607L120.797994 104.559714 120.797994 101.722434 103.479703 101.722434 103.479703 104.559714 104.775132 104.697607C107.093003 104.974663 108.252564 105.735931 109.002022 107.534887L109.683859 109.126687 102.456634 128.018589 94.1380944 108.019735C93.2521443 105.943722 94.2063408 105.320982 97.5472808 104.766871L98.842709 104.559714 98.9109553 101.722434zM162.662427 82C155.366956 82 149.025682 88.8507769 149.025682 101.30685L143.025639 103.313599C142.75328 103.798446 142.75328 105.182454 143.025639 105.666667L148.821569 105.874459 148.821569 128.502801C148.821569 130.786605 147.866746 132.10135 144.730545 132.585562L143.435117 132.793354 143.435117 135.630634 161.571738 135.630634 161.571738 132.793354 159.321487 132.585562C156.185286 132.10135 155.230463 130.786605 155.230463 128.502801L155.230463 106.220143 163.957855 106.773619C165.389776 106.773619 166.95819 103.729182 166.276352 101.722434L155.230463 101.722434 155.230463 101.583906 155.162217 93.4183851C155.162217 89.8891007 156.457645 86.7055007 159.45798 86.7055007 162.594181 86.7055007 165.526269 89.4048885 166.344599 89.4048885 167.571781 89.4048885 170.367376 85.252864 169.276687 84.1452762 167.913012 82.761268 165.8675 82 162.662427 82zM190.754248 82C183.458777 82 177.117502 88.8507769 177.117502 101.30685L171.11746 103.313599C170.844474 103.798446 170.844474 105.182454 171.11746 105.666667L176.912763 105.874459 176.912763 128.502801C176.912763 130.786605 175.958567 132.10135 172.82174 132.585562L171.526311 132.793354 171.526311 135.630634 189.663558 135.630634 189.663558 132.793354 187.413308 132.585562C184.276481 132.10135 183.322284 130.786605 183.322284 128.502801L183.322284 106.220143 192.049676 106.773619C193.481597 106.773619 195.05001 103.729182 194.368173 101.722434L183.322284 101.722434 183.322284 101.583906 183.254038 93.4183851C183.254038 89.8891007 184.549466 86.7055007 187.5498 86.7055007 190.686001 86.7055007 193.618089 89.4048885 194.436419 89.4048885 195.663601 89.4048885 198.459197 85.252864 197.367881 84.1452762 196.004207 82.761268 193.958695 82 190.754248 82zM211.549971 136.668322C218.43659 136.668322 222.527614 132.654826 224.709618 128.641329L223.277698 127.118793C220.89158 129.679018 217.754753 131.47861 214.209074 131.47861 207.663687 131.47861 202.890826 125.042781 202.686087 117.292208L224.23252 115.9082C224.23252 105.528139 219.527906 100.68411 212.095316 100.68411 204.459239 100.68411 196.277192 107.881207 196.277192 119.36822 196.277192 130.50955 202.959072 136.668322 211.549971 136.668322zM210.527528 104.974663C214.27732 104.974663 217.209409 107.881207 217.61826 113.417239L202.686087 114.178508C203.027319 108.226891 206.640618 104.974663 210.527528 104.974663zM245.437096 136.668322C252.323715 136.668322 256.414738 132.654826 258.596743 128.641329L257.164822 127.118793C254.778079 129.679018 251.641878 131.47861 248.096199 131.47861 241.550811 131.47861 236.77795 125.042781 236.573211 117.292208L258.119019 115.9082C258.119019 105.528139 253.414404 100.68411 245.98244 100.68411 238.345738 100.68411 230.163691 107.881207 230.163691 119.36822 230.163691 130.50955 236.846197 136.668322 245.437096 136.668322zM244.414027 104.974663C248.164445 104.974663 251.096533 107.881207 251.505385 113.417239L236.573211 114.178508C236.913817 108.226891 240.527742 104.974663 244.414027 104.974663zM282.528041 83.7303279L282.528041 86.9132925 284.6418 87.1210844C288.528084 87.5360326 289.618773 89.2663606 289.618773 92.0343769L289.618773 127.326585C289.618773 130.094601 288.528084 131.824294 284.6418 132.239878L282.528041 132.447034 282.528041 135.630634 304.346834 135.630634 304.346834 132.447034 301.482992 132.239878C298.00556 131.824294 296.710131 130.094601 296.710131 127.326585L296.710131 112.171759 303.255519 112.171759 312.255896 128.433537C315.119738 133.692514 316.483412 135.630634 319.483747 135.630634L327.665168 135.630634 327.665168 132.516298C325.824395 132.447034 321.87049 130.371022 319.279008 125.734785L310.415123 110.095747C317.16525 106.427935 320.643308 102.206646 320.643308 95.9786095 320.643308 86.6362367 313.55195 83.7303279 304.005602 83.7303279L282.528041 83.7303279zM296.710131 87.3288762L302.573682 87.3288762C308.983202 87.3288762 313.211345 91.6187932 313.211345 98.8158898 313.211345 104.49045 308.84671 108.573211 304.005602 108.573211L296.710131 108.573211 296.710131 87.3288762zM344.710473 136.668322C351.597092 136.668322 355.688116 132.654826 357.870121 128.641329L356.438826 127.118793C354.051456 129.679018 350.915255 131.47861 347.369576 131.47861 340.824189 131.47861 336.051328 125.042781 335.846589 117.292208L357.393022 115.9082C357.393022 105.528139 352.687782 100.68411 345.255818 100.68411 337.619741 100.68411 329.43832 107.881207 329.43832 119.36822 329.43832 130.50955 336.119574 136.668322 344.710473 136.668322zM343.688031 104.974663C347.438449 104.974663 350.369911 107.881207 350.779389 113.417239L335.846589 114.178508C336.187821 108.226891 339.80112 104.974663 343.688031 104.974663zM377.574529 100.68411C370.347304 100.68411 362.369996 105.943722 362.369996 113.624396 362.369996 118.953272 365.506197 122.689713 369.460728 124.489305 365.574443 125.665521 362.847094 128.572065 362.847094 131.547873 362.847094 133.34683 364.211395 135.353578 366.801625 136.737586 362.574109 140.681819 361.006322 143.104151 361.006322 145.456584 361.006322 150.646932 366.119788 153 374.233589 153 384.870626 153 392.166097 146.97912 392.166097 139.367075 392.166097 133.900306 387.597975 130.855869 381.325573 130.855869L375.870249 130.855869C370.211438 130.855869 368.642398 130.163865 368.642398 128.433537 368.642398 126.841737 370.347304 126.080469 374.029476 125.734785 374.506574 125.804049 374.984299 125.804049 375.460771 125.804049 382.143277 125.804049 389.439374 120.475808 389.439374 112.794499 389.439374 110.302903 388.825157 108.157627 387.733842 106.427935 389.711733 106.773619 391.688999 106.842883 392.985053 106.635727 393.938623 106.427935 394.961692 104.421186 394.484594 102.483702 393.325659 102.621595 392.029604 102.552331 390.802422 102.552331 387.393236 102.552331 384.80238 102.27591 382.620375 101.791698 380.983715 101.099694 379.279435 100.68411 377.574529 100.68411zM376.142608 122.066973C371.847472 122.066973 368.847137 118.468424 368.847137 112.794499 368.847137 107.327731 371.847472 104.421186 375.597263 104.421186 379.961272 104.421186 382.893987 107.950471 382.893987 113.624396 382.893987 119.229692 379.893652 122.066973 376.142608 122.066973zM379.279435 137.42959C385.211232 137.42959 387.597975 139.090654 387.597975 142.550675 387.597975 147.463967 380.233632 148.985868 377.029184 148.985868 370.279058 148.985868 366.869872 147.186912 366.869872 142.342883 366.869872 140.543927 367.552335 139.436339 369.120122 137.42959L379.279435 137.42959zM407.506496 101.722434L397.483676 105.805195 397.483676 108.157627 398.779731 108.365419C401.915305 108.849631 402.870128 110.164375 402.870128 112.44818L402.870128 121.928445C402.870128 132.654826 407.711235 136.18411 414.325495 136.18411 419.302469 136.18411 423.393493 133.069774 425.916103 130.648078 426.666812 133.485358 427.621009 135.077158 428.711698 136.668322L437.507336 132.931882 437.507336 130.648078 436.211908 130.440286C433.075707 129.956073 432.12151 128.641329 432.12151 126.357525L432.12151 101.722434 430.348358 101.722434 420.324912 105.805195 420.324912 108.157627 421.62034 108.365419C424.757167 108.849631 425.711364 110.164375 425.711364 112.44818L425.711364 126.634581C424.553054 128.225746 422.166311 130.855869 418.075287 130.855869 412.961194 130.855869 409.279649 127.395849 409.279649 119.990961L409.279649 101.722434 407.506496 101.722434zM451.825919 82L441.803099 86.2212884 441.803099 88.5743565 443.098527 88.7815129C446.235354 89.2663606 447.189551 90.5811048 447.189551 92.8649089L447.189551 128.502801C447.189551 130.786605 446.235354 132.10135 443.098527 132.585562L441.803099 132.793354 441.803099 135.630634 458.984897 135.630634 458.984897 132.793354 457.689469 132.585562C454.553268 132.10135 453.598445 130.786605 453.598445 128.502801L453.598445 82 451.825919 82zM477.939848 100.614846C472.554022 100.614846 466.484481 103.175706 465.189053 106.635727 464.575462 108.157627 467.098072 110.994907 469.008343 110.994907 470.643751 110.994907 470.78087 104.697607 476.303188 104.697607 479.712374 104.697607 482.576216 108.226891 482.576216 113.07092L482.576216 115.493252C476.576173 115.9082 463.075295 119.298956 463.075295 128.572065 463.075295 133.001146 466.68922 136.668322 471.667446 136.668322 476.439681 136.668322 479.507635 134.800102 482.781581 131.824294 483.871644 135.077158 486.326008 136.668322 488.712752 136.668322 491.235988 136.668322 494.303942 134.108098 495.189893 132.170614L493.349746 130.094601C492.940268 130.786605 491.64484 131.617137 490.758263 131.617137 490.008806 131.617137 488.985111 130.855869 488.985111 129.609754L488.985111 114.385664C488.985111 103.590654 484.008763 100.614846 477.939848 100.614846zM469.825421 127.188057C469.825421 121.652024 478.075715 119.36822 482.576216 118.537688L482.576216 127.741533C480.053606 130.301758 477.871602 132.032086 474.939514 132.032086 472.689263 132.032086 469.825421 130.648078 469.825421 127.188057zM506.439894 101.168958L497.644256 104.905399 497.644256 107.189203 498.939685 107.396995C502.075886 107.881207 503.030708 109.195951 503.030708 111.479755L503.030708 128.502801C503.030708 130.786605 502.075886 132.10135 498.939685 132.585562L497.644256 132.793354 497.644256 135.630634 515.781503 135.630634 515.781503 132.793354 513.531253 132.585562C510.394425 132.10135 509.440229 130.786605 509.440229 128.502801L509.440229 114.593456C509.849081 111.410491 512.031085 106.358671 516.258602 106.358671 518.917704 106.358671 521.099083 108.988159 521.645053 108.988159 523.622319 108.988159 526.963259 105.182454 525.736077 103.52139 524.508269 101.860326 522.463383 100.68411 518.781212 100.68411 515.303779 100.68411 511.485741 103.382863 509.236116 107.189203 508.485406 104.351922 507.530584 102.760122 506.439894 101.168958zM42.9852465 37.7835068C41.2086803 46.1568947 35.5363447 50.6546437 26.0372691 50.6546437 16.1277823 50.6546437 6.76551056 41.0357645 6.76551056 26.9884007 6.76551056 13.1481952 13.4626192 4.70554278 24.6020848 4.70554278 31.845781 4.70554278 38.8164971 6.7815736 42.711639 16.7461403L44.9670183 16.6082466 44.1468233 4.6362782C38.2015078 2.1452954 31.7773791.692010275 26.4470529.692010275 10.1824668.692010275 0 13.4938826 0 28.510315 0 44.2886576 10.1140649 54.5995471 25.4222798 54.5995471 33.2809653 54.5995471 41.618464 51.831506 44.6934108 49.4784169L45.5820077 37.6449777 42.9852465 37.7835068zM65.4687557 18.8914357C60.3436351 18.8914357 54.7397014 21.3137894 53.6458989 24.3582533 53.0993114 25.6736447 55.2862889 28.1646275 56.9944532 28.1646275 58.3612357 28.1646275 58.5664413 22.6285453 64.1019732 22.6285453 67.4505275 22.6285453 70.73068 26.1578613 70.73068 31.0019332L70.73068 33.7007097C64.9905701 34.0463972 51.1859414 37.2300257 51.1859414 46.5025821 51.1859414 50.931702 54.8765051 54.5995471 59.7280182 54.5995471 64.5117569 54.5995471 67.4505275 52.7306746 70.73068 49.6862106 71.6192769 52.8692037 74.0792343 54.5995471 76.4030156 54.5995471 78.4531893 54.5995471 81.4603618 52.1771934 82.3483311 50.3782209L80.6401668 48.4407192C80.2297555 49.1327295 78.862973 49.9626335 77.9750037 49.9626335 77.2232106 49.9626335 76.1978099 49.2019941 76.1978099 47.8866026L76.1978099 32.4552183C76.1978099 21.8672705 71.277895 18.8914357 65.4687557 18.8914357zM57.131257 45.3263553C57.131257 39.4445857 66.1521469 37.2300257 70.73068 36.60728L70.73068 45.7413072C68.0655169 48.5786129 65.7423632 50.4474855 62.5983869 50.4474855 60.2068313 50.4474855 57.131257 48.9249358 57.131257 45.3263553zM94.8539516 19.8605042L78.1111799 19.8605042 78.1111799 22.3514871 79.4095605 22.5592808C82.0747236 23.0434973 82.9633205 23.7355076 83.6460842 25.2580573L95.2637353 53.6304786 98.6813191 53.6304786 107.701581 31.0019332 116.927677 53.6304786 120.139428 53.6304786 131.347295 24.6353116C131.962284 23.0434973 133.055459 22.9056036 134.832653 22.6285453L136.131034 22.3514871 136.131034 19.8605042 122.667787 19.8605042 122.667787 22.3514871 123.898393 22.5592808C127.725133 23.1820265 128.203319 24.0125659 127.588329 25.6736447L120.139428 46.5025821 111.118538 25.1887927C110.366745 23.5283493 111.255341 22.8363391 114.877503 22.4900162L116.175884 22.3514871 116.175884 19.8605042 99.7744941 19.8605042 99.7744941 22.3514871 101.141277 22.4900162C103.601234 22.7670745 104.558233 23.3898202 105.310026 25.1887927L105.993417 26.8498716 98.6813191 46.5025821 89.728831 25.2580573C88.9770379 23.5976139 89.9334091 23.1820265 93.4871691 22.5592808L94.7855497 22.3514871 94.8539516 19.8605042zM157.725946 0C150.823632 0 145.014492 6.50451531 145.014492 19.4455523L139.000775 21.3830539C138.727795 21.7980059 138.727795 23.3205556 139.000775 23.5976139L144.809914 23.8047722 144.809914 47.1945924C144.809914 49.2706232 143.852916 50.4474855 140.777969 50.931702L139.479588 51.1394958 139.479588 53.6304786 156.564369 53.6304786 156.564369 51.1394958 154.30899 50.931702C151.233415 50.5167501 150.277044 49.2706232 150.277044 47.1945924L150.277044 24.0125659 159.502512 24.6353116C160.664717 24.6353116 162.099273 21.9365351 161.484284 19.8605042L150.277044 19.8605042 150.277044 19.168494 150.208642 10.9336352C150.208642 7.68137759 151.507023 4.15206165 154.718774 4.22132622 157.589142 4.28995534 160.459511 6.22809247 160.937697 6.36598616 161.894695 6.50451531 164.765064 2.97519936 163.944869 2.1452954 162.646489.899168539 161.142902 0 157.725946 0zM185.539154 0C178.637467 0 172.828328 6.50451531 172.828328 19.4455523L166.81461 21.3830539C166.541003 21.7980059 166.541003 23.3205556 166.81461 23.5976139L172.623122 23.8047722 172.623122 47.1945924C172.623122 49.2706232 171.666751 50.4474855 168.591177 50.931702L167.292796 51.1394958 167.292796 53.6304786 184.377577 53.6304786 184.377577 51.1394958 182.122198 50.931702C179.047251 50.5167501 178.090252 49.2706232 178.090252 47.1945924L178.090252 24.0125659 187.316348 24.6353116C188.477924 24.6353116 189.913109 21.9365351 189.298119 19.8605042L178.090252 19.8605042 178.090252 19.168494 178.02185 10.9336352C178.02185 7.68137759 179.320858 4.15206165 182.532609 4.22132622 185.402978 4.28995534 188.272719 6.22809247 188.751532 6.36598616 189.707903 6.50451531 192.578272 2.97519936 191.758077 2.1452954 190.459696.899168539 188.95611 0 185.539154 0zM206.313871 54.5995471C212.806402 54.5995471 216.633142 50.7931729 218.820119 46.7796404L217.59014 45.534149C215.129555 48.1636609 212.464392 50.031898 208.842858 50.031898 202.077347 50.031898 196.951599 43.2503244 196.883198 35.1539949L218.478737 33.8392389C218.478737 23.5976139 213.831175 18.9607003 206.724282 18.9607003 199.411557 18.9607003 191.484469 26.0885967 191.484469 37.4378194 191.484469 48.5099838 197.977 54.5995471 206.313871 54.5995471zM205.152294 22.9056036C209.18424 22.9056036 212.259814 25.9500676 212.601196 31.6939435L196.951599 32.3166892C197.361383 26.2963904 201.051947 22.9056036 205.152294 22.9056036zM239.389631 54.5995471C245.882161 54.5995471 249.708901 50.7931729 251.895879 46.7796404L250.6659 45.534149C248.205315 48.1636609 245.540152 50.031898 241.918618 50.031898 235.15248 50.031898 230.027359 43.2503244 229.958957 35.1539949L251.553869 33.8392389C251.553869 23.5976139 246.906935 18.9607003 239.800042 18.9607003 232.487317 18.9607003 224.560229 26.0885967 224.560229 37.4378194 224.560229 48.5099838 231.052132 54.5995471 239.389631 54.5995471zM238.228054 22.9056036C242.26 22.9056036 245.335574 25.9500676 245.676956 31.6939435L230.027359 32.3166892C230.437143 26.2963904 234.127707 22.9056036 238.228054 22.9056036zM276.497336 1.72970796L276.497336 4.49774906 278.752088 4.70554278C282.37425 5.05123019 283.468052 6.57377988 283.468052 9.06539814L283.468052 46.2954238C283.468052 48.7864066 282.442652 50.5167501 278.752088 50.7239083L276.497336 50.8624375 276.497336 53.6304786 318.047398 53.6304786 320.234376 38.82184 317.978996 38.6140462C314.083855 48.4407192 311.281888 50.5167501 302.739183 50.5167501L293.171706 50.5167501C290.916954 50.5167501 289.413368 48.5786129 289.413368 46.0183655L289.413368 9.06539814C289.413368 6.57377988 290.438141 4.9133365 294.060303 4.70554278L296.384084 4.49774906 296.384084 1.72970796 276.497336 1.72970796zM332.261183 3.80573878C330.211009 3.80573878 328.365414 5.95103418 328.365414 8.51128156 328.365414 10.8643707 330.005804 13.2860889 332.192781 13.2860889 334.448161 13.2860889 336.087923 11.0721644 336.087923 8.51128156 336.087923 6.02029875 334.652739 3.80573878 332.261183 3.80573878zM334.448161 19.8605042L325.085261 23.8740367 325.085261 25.9500676 326.31524 26.0885967C329.459216 26.5728133 330.415587 27.8183047 330.415587 29.8257064L330.415587 47.1945924C330.415587 49.2706232 329.459216 50.4474855 326.31524 50.931702L325.085261 51.1394958 325.085261 53.6304786 341.213671 53.6304786 341.213671 51.1394958 339.914663 50.931702C336.839716 50.4474855 335.882717 49.2706232 335.882717 47.1945924L335.882717 19.8605042 334.448161 19.8605042zM361.30437 18.9607003C354.402055 18.9607003 346.679546 24.2203596 346.679546 31.8324726 346.679546 37.2300257 349.75512 40.8978708 353.650262 42.6968433 349.75512 43.8730701 347.158359 46.6411112 347.158359 49.5476815 347.158359 51.2780249 348.525142 53.146262 351.053501 54.5302826 346.81635 58.5438151 345.381165 61.0347979 345.381165 63.5264161 345.381165 68.5782818 350.37011 71 358.161021 71 368.343488 71 375.518782 64.9797012 375.518782 57.5747465 375.518782 52.3157226 371.077053 49.3398878 364.926531 49.3398878L359.732381 49.3398878C353.787693 49.3398878 352.146676 48.5786129 352.146676 46.6411112 352.146676 45.0499324 353.992272 44.219393 358.024217 43.8730701 358.434001 43.9423347 358.844412 43.9423347 359.254196 43.9423347 365.609923 43.9423347 372.717443 38.6140462 372.717443 31.0019332 372.717443 28.4416858 372.033424 26.2271259 370.940249 24.4275179 372.990423 24.8431053 375.108998 24.9816345 376.475781 24.7045762 377.432152 24.4967825 378.389778 22.6978099 377.910965 20.8982019 376.817163 21.0367311 375.518782 20.9674665 374.288803 20.9674665 370.871847 20.9674665 368.343488 20.6217791 366.15651 20.1375625 364.58515 19.3762877 362.94476 18.9607003 361.30437 18.9607003zM359.937587 40.5515479C355.427456 40.5515479 352.351882 36.8144382 352.351882 30.9326686 352.351882 25.3273219 355.427456 22.3514871 359.391 22.3514871 363.901131 22.3514871 366.976705 26.0193321 366.976705 31.8324726 366.976705 37.5757131 363.832729 40.5515479 359.937587 40.5515479zM363.21774 55.0144991C369.436663 55.0144991 371.897248 56.8141071 371.897248 60.5505813 371.897248 65.7409761 364.24314 67.4014195 360.894586 67.4014195 353.787693 67.4014195 350.439139 65.4639178 350.439139 60.3427876 350.439139 58.4052859 351.121903 57.2290591 352.830067 55.0837637 355.974043 55.0144991 357.204022 55.0144991 359.732381 55.0144991L363.21774 55.0144991zM389.732567 0L380.301893 4.0135325 380.301893 6.08956333 381.600274 6.22809247C384.675221 6.71230903 385.632219 7.95780043 385.632219 9.96456668L385.632219 47.1945924C385.632219 49.2706232 384.675221 50.4474855 381.600274 50.931702L380.301893 51.1394958 380.301893 53.6304786 396.429675 53.6304786 396.429675 51.1394958 395.131295 50.931702C392.055721 50.4474855 391.099977 49.2706232 391.099977 47.1945924L391.099977 28.3031567C393.559307 26.4342841 397.113694 24.4967825 400.598425 24.4967825 406.27076 24.4967825 408.730718 28.3031567 408.730718 34.3234554L408.730718 47.1945924C408.730718 49.2706232 407.773719 50.4474855 404.698772 50.931702L403.400392 51.1394958 403.400392 53.6304786 419.528174 53.6304786 419.528174 51.1394958 418.229793 50.931702C415.155474 50.4474855 414.197848 49.2706232 414.197848 47.1945924L414.197848 32.3166892C414.197848 24.2896242 409.892295 18.9607003 403.195186 18.9607003 398.821859 18.9607003 393.901316 21.7980059 391.099977 24.3582533L391.099977 0 389.732567 0zM428.548436 9.5496147C426.977076 14.739374 424.994676 17.1617277 420.962731 21.1059957 420.758153 21.2445248 420.894329 24.2203596 420.962731 24.0125659L425.336686 24.151095 425.336686 40.5515479C425.336686 51.2780249 429.846817 54.5995471 436.407749 54.5995471 440.576499 54.5995471 445.291836 51.9700352 447 49.8940043L445.155032 48.0943964C443.241662 49.5476815 441.53287 50.1011626 440.029284 50.1011626 436.134142 50.1011626 430.803816 48.7171421 430.803816 38.4755171L430.803816 24.4275179 444.676846 25.2580573C445.838423 25.2580573 447.205206 22.4900162 446.658618 20.2754562L430.803816 20.2754562 430.803816 9.5496147 428.548436 9.5496147z"/>
</svg>
