<svg xmlns="http://www.w3.org/2000/svg" width="600" height="405" viewBox="0 0 600 405">
  <path fill-rule="evenodd" d="M39.2598178,3.03723189 C38.2993878,8.55220558 37.9792444,12.7883448 37.9792444,18.6230271 L36.3785277,18.6230271 L30.7760191,7.03358964 L15.3291026,7.03358964 L15.3291026,26.7755969 L22.7724354,26.7755969 L27.8146931,19.7420073 L29.4154099,19.7420073 L29.4154099,38.1252529 L27.8146931,38.1252529 L22.9325071,30.7719547 L15.3291026,30.7719547 L15.3291026,48.1960745 L25.0134389,52.8318495 L25.0134389,54.3504654 L0.76258026,54.3504654 L0.76258026,53.0716309 L8.44602061,48.1960745 L8.44602061,9.19162282 L0.76258026,4.31606637 L0.76258026,3.03723189 L39.2598178,3.03723189 Z M54.866806,16.7847025 L55.6671644,17.2642655 L55.9072719,25.9763254 C57.5079887,21.1806961 60.7094221,16.7847025 65.9117515,16.7847025 C67.9126475,16.7847025 70.0736151,17.1843383 71.5142601,17.8237556 C70.7939376,21.1007689 70.2336867,25.4967624 70.1536509,29.9726831 L68.4728983,29.9726831 L64.4711065,22.1398219 C59.9890996,22.3796034 57.2678811,27.4150142 55.9072719,32.4504249 L55.9072719,49.2351275 L64.0709273,53.0716309 L64.0709273,54.3504654 L43.5017172,54.3504654 L43.5017172,53.0716309 L49.6644766,49.2351275 L49.6644766,24.8573452 L43.5017172,21.1007689 L43.5017172,19.8219344 C47.4234732,19.5022258 51.2651934,18.5431 54.866806,16.7847025 Z M83.7597432,2.23796034 C86.2408541,2.23796034 88.24175,4.23613921 88.24175,6.79380817 C88.24175,9.27154998 86.2408541,11.2697289 83.7597432,11.2697289 C81.2786322,11.2697289 79.2777363,9.27154998 79.2777363,6.79380817 C79.2777363,4.23613921 81.2786322,2.23796034 83.7597432,2.23796034 Z M87.0412125,16.7847025 L87.8415709,17.2642655 L87.8415709,49.2351275 L94.0043303,53.0716309 L94.0043303,54.3504654 L75.516052,54.3504654 L75.516052,53.0716309 L81.5987756,49.2351275 L81.5987756,24.8573452 L75.516052,21.1007689 L75.516052,19.7420073 C79.437808,19.4222987 83.4395998,18.5431 87.0412125,16.7847025 Z M126.658952,43.4803723 C126.658952,49.3150546 123.217411,55.1497369 111.932358,55.1497369 C106.569957,55.1497369 101.687771,53.1515581 99.046588,50.6738163 C99.7669106,47.7165115 100.487233,43.8800081 100.647305,40.6029947 L102.328057,40.6029947 L105.529491,48.5957102 C109.451247,50.9135977 114.733612,51.3931607 119.77587,50.1143262 C120.576228,48.9154189 121.216515,47.4767301 121.216515,45.878187 C121.216515,38.7646702 100.16709,40.1234318 100.16709,27.335087 C100.16709,21.1806961 104.649097,16.7847025 113.773182,16.7847025 C118.415261,16.7847025 122.897267,18.3033185 125.058235,20.1416431 C124.417948,22.2197491 123.61759,26.6157426 123.297447,29.8128288 L121.536658,29.8128288 L118.095117,21.9799676 C114.97372,20.621206 110.171569,20.3814245 106.329849,21.9000405 C105.689562,23.0190206 105.289383,24.2978551 105.289383,25.4967624 C105.289383,32.6902064 126.658952,31.2515176 126.658952,43.4803723 Z M164.916082,49.2351275 L169.718232,53.0716309 L169.718232,54.3504654 L154.111244,54.3504654 L154.111244,53.0716309 L157.632821,49.7946176 L147.468269,35.4876568 L143.786621,37.0062728 L143.786621,49.2351275 L149.94938,53.0716309 L149.94938,54.3504654 L131.461102,54.3504654 L131.461102,53.0716309 L137.543826,49.2351275 L137.543826,8.07264265 L131.461102,4.31606637 L131.461102,3.03723189 C135.382858,2.71752327 139.38465,1.75839741 142.986263,0 L143.786621,0.47956293 L143.786621,34.3686766 L156.352247,23.0989478 L152.510527,18.8628086 L152.510527,17.5839741 L168.837838,17.5839741 L168.837838,18.8628086 L161.954756,22.699312 L152.350455,31.3314448 L164.916082,49.2351275 Z M210.056294,3.03723189 C220.621024,3.03723189 228.704644,6.79380817 228.704644,15.9055038 C228.704644,23.1788749 224.702852,28.4540672 218.059878,30.6920275 L232.226221,50.5938891 C234.067045,51.3931607 236.708228,51.7927964 238.629088,51.8727236 L238.789159,53.0716309 C237.348514,54.1106839 234.707332,54.670174 232.546364,54.670174 C227.504106,54.670174 225.103031,53.3114124 221.181275,47.2369486 L211.176796,31.8909348 L202.773033,31.8909348 L202.773033,48.5157831 L211.496939,53.0716309 L211.496939,54.3504654 L188.20651,54.3504654 L188.20651,53.0716309 L195.889951,48.5157831 L195.889951,8.8719142 L188.20651,4.31606637 L188.20651,3.03723189 L210.056294,3.03723189 Z M207.895326,27.4150142 C211.256831,27.8146499 215.418695,27.4150142 219.180379,25.8164711 C220.540989,23.5785107 221.421383,21.4204775 221.421383,17.6639013 C221.421383,8.8719142 214.618337,6.95366248 207.25504,6.95366248 L202.773033,6.95366248 L202.773033,26.8555241 L207.895326,27.4150142 Z M257.837689,16.7847025 C265.841272,16.7847025 270.483351,24.5376366 270.483351,34.3686766 L269.362849,35.3278025 L247.352994,35.3278025 C247.593101,46.2778227 253.19561,50.513962 258.718083,50.513962 C262.479767,50.513962 265.521129,49.1552003 268.322383,46.1179684 L270.083172,47.7165115 C266.161416,52.9117766 261.599373,55.1497369 256.557115,55.1497369 C247.272958,55.1497369 240.950127,48.3559288 240.950127,36.2869284 C240.950127,26.1361797 248.473496,16.7847025 257.837689,16.7847025 Z M249.593997,23.3387293 C248.473496,25.5766896 247.593101,28.7737758 247.352994,32.0507892 L263.840376,31.3314448 C263.840376,25.8963982 260.87905,21.3405504 255.356578,21.3405504 C253.595789,21.3405504 251.434822,21.9000405 249.593997,23.3387293 Z M294.574138,16.7847025 C297.855607,16.7847025 300.576825,17.5040469 302.737793,18.8628086 L312.02195,13.1879806 L312.822308,13.7474707 L312.822308,20.2215702 L304.818725,20.5412788 C306.659549,22.5394577 307.700015,25.256981 307.700015,28.6139215 C307.700015,36.2070012 300.416754,41.9617564 292.653278,41.9617564 C290.572346,41.9617564 288.731522,41.6420478 287.130805,41.1624848 C285.129909,42.3613921 284.169479,43.8000809 284.169479,44.9190611 C284.169479,46.7573857 286.170375,47.6365844 289.051665,47.7964387 L300.176646,48.5157831 C308.260266,49.0752732 312.422129,53.1515581 312.422129,59.3858762 C312.422129,67.2986645 303.698223,72.733711 292.253098,72.733711 C282.328655,72.733711 277.126325,69.4566977 277.126325,62.9825981 C277.126325,59.5457305 279.687472,55.7891542 284.409586,53.3114124 C281.208153,52.592068 278.967149,50.513962 278.967149,47.1570214 C278.967149,44.4394982 281.128117,41.4821934 284.329551,39.8037232 C281.208153,37.8055443 279.367329,34.528531 279.367329,30.1325374 C279.367329,22.5394577 286.570554,16.7847025 294.574138,16.7847025 Z M293.133493,20.7810603 C290.732418,20.7810603 288.651486,21.2606232 287.130805,22.1398219 C286.170375,23.8182922 285.530088,26.296034 285.530088,28.6938486 C285.530088,34.528531 289.611916,38.0453258 294.093923,38.0453258 C296.414962,38.0453258 298.495894,37.4858357 300.016575,36.8464185 C300.896969,35.088021 301.377184,32.6902064 301.377184,30.1325374 C301.377184,24.3777823 297.695535,20.7810603 293.133493,20.7810603 Z M283.289085,60.9844193 C283.289085,66.01983 287.210841,68.1778632 294.494102,68.1778632 C298.655965,68.1778632 302.817829,67.2187374 305.939227,65.2205585 C306.579513,63.941724 306.819621,62.902671 306.819621,61.2242007 C306.819621,56.6683529 303.298044,54.7501012 298.415858,54.4303926 L288.811557,53.7909753 C285.370016,55.5493727 283.289085,57.7074059 283.289085,60.9844193 Z M327.468867,17.1843383 L327.468867,40.5230676 C327.468867,47.1570214 329.789906,50.034399 334.752128,50.034399 C337.873525,50.034399 341.63521,47.6365844 344.596536,43.6402266 L344.596536,24.8573452 L338.273705,21.2606232 L338.273705,19.7420073 C342.195461,19.4222987 346.43736,18.4631728 350.038973,16.7047754 L350.839331,17.1843383 L350.839331,48.1161473 L356.601911,51.3132335 L356.601911,52.5121408 C353.080334,52.6719951 349.718829,53.5511938 346.357324,54.8300283 L345.156787,54.3504654 L345.316858,47.1570214 C342.275496,51.4730878 337.073167,55.1497369 331.710766,55.1497369 C325.708078,55.1497369 321.226071,50.9935249 321.226071,42.3613921 L321.226071,24.8573452 L315.143348,21.2606232 L315.143348,19.7420073 C319.065104,19.4222987 323.066896,18.4631728 326.668508,16.7047754 L327.468867,17.1843383 Z M372.048828,0 L372.849186,0.47956293 L372.849186,49.2351275 L378.691802,53.0716309 L378.691802,54.3504654 L360.843811,54.3504654 L360.843811,53.0716309 L366.606391,49.2351275 L366.606391,8.07264265 L360.363596,4.31606637 L360.363596,3.03723189 C364.285352,2.71752327 368.447215,1.75839741 372.048828,0 Z M385.414813,21.7401862 C390.537106,18.6230271 395.819471,16.7847025 399.981335,16.7847025 C408.064954,16.7847025 411.02628,21.9000405 411.02628,29.6529745 L411.02628,48.1161473 L417.749291,51.3132335 L417.749291,52.5121408 C414.227714,52.6719951 409.825743,53.5511938 406.464238,54.8300283 L405.2637,54.3504654 L405.743915,48.4358559 C403.743019,52.2723594 399.661192,55.1497369 393.978647,55.1497369 C387.415709,55.1497369 383.413917,50.6738163 383.413917,46.8373128 C383.413917,41.6420478 387.495744,36.2070012 396.299686,35.088021 L404.783485,33.9690409 L404.783485,31.0916633 C404.783485,23.8182922 401.502016,21.0208418 397.020009,21.0208418 C395.979543,21.0208418 394.69897,21.1806961 393.418396,21.4204775 L387.735852,31.6511534 L386.055099,31.6511534 C386.135135,28.0544314 385.895028,24.6175637 385.414813,21.7401862 Z M390.697178,45.3186969 C390.697178,48.1161473 392.858145,50.1942533 396.059579,50.1942533 C400.941765,50.1942533 404.223234,47.0770943 404.783485,43.7201538 L404.783485,37.8055443 L399.421084,38.2851072 C397.100045,38.5248887 394.298791,39.1643059 392.37793,39.9635775 C391.337465,41.4821934 390.697178,43.0807365 390.697178,45.3186969 Z M432.395849,16.7847025 L433.196207,17.2642655 L433.436315,25.9763254 C435.037032,21.1806961 438.238465,16.7847025 443.440794,16.7847025 C445.44169,16.7847025 447.602658,17.1843383 449.043303,17.8237556 C448.32298,21.1007689 447.76273,25.4967624 447.682694,29.9726831 L446.001941,29.9726831 L442.000149,22.1398219 C437.518142,22.3796034 434.796924,27.4150142 433.436315,32.4504249 L433.436315,49.2351275 L441.59997,53.0716309 L441.59997,54.3504654 L421.03076,54.3504654 L421.03076,53.0716309 L427.193519,49.2351275 L427.193519,24.8573452 L421.03076,21.1007689 L421.03076,19.8219344 C424.952516,19.5022258 428.794236,18.5431 432.395849,16.7847025 Z M14.5665223,133.118677 L23.8506794,137.994233 L23.7706436,139.273068 L0,139.273068 L0,137.994233 L8.08361953,133.118677 L16.4073466,94.114225 L9.76437211,89.2386686 L9.84440794,87.9598341 L47.9414663,87.9598341 C46.4207854,93.4748078 45.7004629,97.710947 44.8200687,103.545629 L43.2193519,103.545629 L39.8578468,91.7963375 L23.4505002,91.7963375 L19.128565,111.698199 L26.5718979,111.698199 L33.2949082,104.664609 L34.7355532,104.664609 L30.8137972,123.047855 L29.3731522,123.047855 L25.8515753,115.534703 L18.3282067,115.534703 L14.5665223,133.118677 Z M56.6653726,129.202246 L54.1842616,139.273068 L48.101538,139.273068 L54.9045841,109.620093 L49.5421831,107.382133 L49.6222189,106.423007 C54.1842616,105.78359 57.3856951,104.185047 61.3074511,102.027013 L62.5079887,102.426649 L56.8254442,121.449312 L57.3056593,121.609166 C65.1491713,106.662788 68.1905331,101.707305 73.9531133,101.707305 C75.9540093,101.707305 77.3946543,102.106941 78.7552636,103.465702 C76.8344035,107.062424 75.5538301,110.739073 74.0331492,115.694557 L72.5124683,115.694557 L71.2318949,107.062424 L70.1113932,107.062424 C67.5502464,108.740894 62.4279528,117.373027 56.6653726,129.202246 Z M93.24175,87.1605625 C95.722861,87.1605625 97.7237569,89.1587414 97.3235777,91.7164104 C96.9233985,94.1941522 94.9225026,96.192331 92.4413917,96.192331 C89.9602807,96.192331 87.9593848,94.1941522 88.359564,91.7164104 C88.7597432,89.1587414 90.7606391,87.1605625 93.24175,87.1605625 Z M85.878453,133.59824 L86.4387039,133.838021 C89.0798865,131.999696 91.0807824,130.241299 94.7624309,126.724504 L95.8028968,127.603703 C89.2399582,136.235836 85.4782739,140.072339 82.6770196,140.072339 C80.1959086,140.072339 78.6752277,137.994233 80.2759445,131.919769 L86.2786322,109.859875 L80.516052,107.46206 L80.5960878,106.502934 C85.2381663,105.863517 88.839779,104.344901 92.8415709,102.106941 L94.0421084,102.506576 L85.878453,133.59824 Z M121.414365,132.399332 C119.413469,136.95518 114.611319,140.072339 108.288487,140.072339 C102.84605,140.072339 97.5636852,138.154087 97.5636852,136.315763 C97.6437211,133.997875 99.8046887,130.561008 103.326265,126.324868 L103.966552,126.724504 C103.566373,129.122319 103.24623,131.600061 103.24623,133.997875 C106.447663,135.916127 111.089742,137.035107 114.691354,135.996054 C115.491713,135.036928 115.971928,134.237657 116.532179,132.719041 C119.413469,123.927054 99.9647603,120.570113 105.727341,107.701841 C107.408093,103.785411 112.370315,101.707305 117.172465,101.707305 C122.054651,101.707305 125.015977,102.586503 127.417052,103.945265 C126.136479,106.263153 124.295655,110.019729 122.935046,113.616451 L121.89458,113.616451 L120.133791,106.34308 C117.812752,105.304027 115.011498,104.984318 112.370315,105.304027 C110.92967,106.103298 109.889204,107.222278 109.489025,108.501113 C107.248022,116.893464 127.256981,119.291279 121.414365,132.399332 Z M137.981783,121.928875 C145.104972,106.502934 151.427803,101.707305 158.550993,101.707305 C163.513215,101.707305 165.91429,105.943444 162.952964,111.458418 C160.791996,115.534703 155.269524,119.371206 148.866657,121.609166 L154.149022,134.15773 L154.869344,134.477438 C157.110348,132.639114 159.19128,130.241299 161.832462,126.56465 L163.113036,127.204067 C158.550993,135.356637 155.669703,140.072339 152.228162,140.072339 C149.747051,140.072339 148.306406,137.274889 147.025832,133.758094 L142.783933,122.408438 L143.104076,121.369385 C150.387338,118.97157 156.30999,114.815358 157.750635,111.618272 C159.271316,108.261331 157.83067,106.263153 153.588771,106.023371 C149.426908,107.541987 141.743467,118.811716 136.541138,131.440206 L134.540242,139.273068 L128.857697,139.273068 L138.942213,92.1959733 L133.579812,89.958013 L133.659848,88.9988871 C138.381962,88.3594699 141.823503,86.8408539 145.825295,84.6028936 L147.025832,85.0025293 L137.341496,121.848948 L137.981783,121.928875 Z M195.607585,92.9952448 L188.964611,89.2386686 L189.044647,87.9598341 L210.094072,87.9598341 L210.014036,89.2386686 L202.090488,92.9952448 L193.926833,134.237657 L200.569807,137.994233 L200.489772,139.273068 L179.440346,139.273068 L179.520382,137.994233 L187.44393,134.237657 L195.607585,92.9952448 Z M232.664178,126.404796 C225.380917,135.356637 220.738838,140.072339 216.817082,140.072339 C214.1759,140.072339 211.774825,137.994233 213.21547,131.919769 L219.218157,106.34308 L213.295505,106.34308 L213.535613,104.185047 C220.818874,102.666431 223.299985,99.7091259 226.341347,92.8353905 L228.902494,92.7554634 L226.501419,102.506576 L235.865611,102.426649 L236.585934,103.145994 L235.70554,106.34308 L225.540989,106.34308 L220.338659,127.603703 C218.97805,133.118677 218.97805,134.397511 220.418695,134.397511 C222.339555,134.397511 227.141705,129.601882 231.223533,125.285815 L232.664178,126.404796 Z M262.917724,120.330332 C258.355682,129.92159 250.592205,140.152266 244.269374,140.072339 C238.58683,139.992412 235.545468,133.438385 239.307152,122.248584 C243.629088,109.380312 253.873675,101.707305 262.357473,101.707305 C264.598477,101.707305 266.27923,102.266795 267.559803,103.145994 L272.04181,101.707305 L272.682096,102.027013 L269.080484,112.897106 L264.038226,133.59824 L264.518441,133.917948 C267.319695,132.159551 269.960878,129.92159 273.402419,126.804431 L274.522921,127.68363 C267.959982,136.075981 263.95819,140.072339 261.156936,140.072339 C258.755861,140.072339 257.075108,137.594597 259.15604,131.919769 L263.317904,120.410259 L262.917724,120.330332 Z M245.469912,120.889822 C242.188443,130.481081 244.109303,134.15773 246.590414,134.15773 C251.792743,134.15773 259.716291,121.689093 263.317904,114.096014 L265.318799,107.781769 C262.437509,106.103298 258.915933,105.623735 254.674033,106.662788 C250.432134,110.339437 247.150664,115.934338 245.469912,120.889822 Z M284.687472,133.59824 L285.247723,133.838021 C287.888905,131.999696 289.889801,130.241299 293.57145,126.724504 L294.611916,127.603703 C288.048977,136.235836 284.367329,140.072339 281.566074,140.072339 C279.084963,140.072339 277.564283,138.07416 279.084963,131.919769 L288.929371,92.3558276 L283.166791,89.958013 L283.246827,88.9988871 C287.80887,88.3594699 291.010303,86.7609268 294.932059,84.6028936 L296.132597,85.0025293 L284.687472,133.59824 Z M313.420337,87.1605625 C315.901448,87.1605625 317.902344,89.1587414 317.502165,91.7164104 C317.101986,94.1941522 315.10109,96.192331 312.619979,96.192331 C310.138868,96.192331 308.137972,94.1941522 308.538151,91.7164104 C308.938331,89.1587414 310.939227,87.1605625 313.420337,87.1605625 Z M306.05704,133.59824 L306.617291,133.838021 C309.258474,131.999696 311.25937,130.241299 314.941018,126.724504 L315.981484,127.603703 C309.418546,136.235836 305.656861,140.072339 302.855607,140.072339 C300.374496,140.072339 298.853815,137.994233 300.454532,131.919769 L306.45722,109.859875 L300.694639,107.46206 L300.774675,106.502934 C305.416754,105.863517 309.018366,104.344901 313.020158,102.106941 L314.220696,102.506576 L306.05704,133.59824 Z M345.034493,125.845306 L346.555174,126.964286 C341.272809,134.637293 334.469763,140.072339 328.226967,140.072339 C321.343885,140.072339 318.702703,132.079624 322.22428,121.129603 C325.905928,109.70002 333.829476,101.707305 342.313275,101.707305 C346.63521,101.707305 350.236822,103.145994 351.757503,104.264974 C349.596536,107.302206 347.195461,111.138709 345.354636,114.895285 L344.074063,114.655504 L344.154099,106.423007 C343.113633,106.183225 342.073167,106.103298 340.952665,106.103298 C338.711662,106.103298 336.390623,106.662788 334.149619,107.861696 C331.348365,111.138709 329.267433,115.61463 328.146931,119.770842 C325.585785,129.521955 327.106466,134.637293 331.668508,134.637293 C335.030013,134.637293 340.552486,130.720862 345.034493,125.845306 Z M40.3002837,172.882436 C39.3398537,178.39741 38.9396745,182.633549 38.8596386,188.468231 L36.8587427,188.628086 L30.9360908,177.757993 L16.129461,177.757993 L16.129461,196.221166 L23.0925788,196.221166 L28.2949082,189.427357 L30.2958041,189.427357 L30.2958041,208.130312 L28.2949082,208.130312 L23.2526504,201.096722 L16.129461,201.096722 L16.129461,217.242007 L25.4936539,222.357345 L25.4936539,224.19567 L0.602508586,224.19567 L0.602508586,222.597127 L7.80573391,217.242007 L7.80573391,179.836099 L0.602508586,174.480979 L0.602508586,172.882436 L40.3002837,172.882436 Z M56.0673436,186.150344 L57.347917,186.789761 L57.4279528,196.061311 C59.0286696,191.0259 62.3901747,186.150344 67.7525758,186.150344 C69.7534717,186.150344 71.8344035,186.54998 73.1950127,187.189397 C72.3946543,190.866046 71.8344035,195.182113 71.8344035,199.817887 L69.8335075,200.057669 L65.0313573,192.704371 C61.4297447,193.663497 59.0286696,197.899636 57.7480962,202.215702 L57.7480962,218.28106 L65.8317157,222.597127 L65.8317157,224.19567 L44.3020756,224.19567 L44.3020756,222.597127 L50.0646558,218.360987 L50.0646558,195.102185 L44.1420039,191.105828 L44.1420039,189.507285 C48.1437957,189.187576 52.5457668,187.908741 56.0673436,186.150344 Z M85.7606391,171.203966 C88.8020009,171.203966 91.0430043,173.282072 91.0430043,176.239377 C91.0430043,179.116754 88.8020009,181.19486 85.7606391,181.19486 C82.6392415,181.19486 80.4782739,179.116754 80.4782739,176.239377 C80.4782739,173.282072 82.6392415,171.203966 85.7606391,171.203966 Z M89.2021801,186.150344 L90.4027176,186.789761 L90.4027176,218.360987 L96.2453337,222.597127 L96.2453337,224.19567 L77.0367329,224.19567 L77.0367329,222.597127 L82.7192773,218.360987 L82.7192773,195.102185 L76.8766612,191.105828 L76.8766612,189.427357 C80.878453,189.107649 85.6005674,187.908741 89.2021801,186.150344 Z M130.020457,212.925941 C130.020457,219.479968 125.458414,225.074868 114.653576,225.074868 C109.211139,225.074868 104.088846,223.156617 101.047484,220.838729 C101.847842,217.801497 102.648201,213.645285 102.888308,210.288345 L104.809168,210.12849 L108.730924,218.121206 C112.572644,219.879603 117.534866,220.359166 122.176945,219.240186 C122.897267,218.121206 123.377482,216.842372 123.377482,215.403683 C123.377482,208.689802 102.08795,210.608053 102.08795,197.020437 C102.08795,190.706192 107.210243,186.150344 116.254293,186.150344 C120.976407,186.150344 125.778558,187.589033 128.579812,189.34743 C127.779453,191.825172 126.899059,196.141238 126.578916,199.498179 L124.57802,199.578106 L120.576228,191.985026 C117.134687,190.626265 112.892788,190.546338 109.371211,191.745245 C108.730924,192.864225 108.410781,194.063132 108.410781,195.26204 C108.410781,201.895994 130.020457,200.057669 130.020457,212.925941 Z M170.198447,218.440915 L175.080633,222.597127 L175.080633,224.19567 L157.632821,224.19567 L157.632821,222.597127 L161.074362,218.84055 L152.110348,205.332861 L148.108556,206.851477 L148.108556,218.360987 L153.871136,222.597127 L153.871136,224.19567 L134.662535,224.19567 L134.662535,222.597127 L140.34508,218.360987 L140.34508,178.717119 L134.5825,174.800688 L134.5825,173.202145 C138.584291,172.882436 143.22637,171.603602 146.827983,169.845204 L148.108556,170.404694 L148.108556,203.494537 L159.873824,192.864225 L156.192176,188.468231 L156.192176,186.949616 L173.880096,186.949616 L173.880096,188.468231 L166.596834,192.544516 L157.872928,200.217523 L170.198447,218.440915 Z M213.657907,222.597127 L213.657907,224.19567 L192.528446,224.19567 L192.528446,222.597127 L199.971778,217.321934 L199.971778,178.9569 L193.328804,174.480979 L193.328804,172.882436 L210.13633,172.882436 L226.063461,210.208418 L242.150664,172.882436 L257.677617,172.882436 L257.677617,174.480979 L251.27475,179.036827 L251.27475,217.561716 L258.477975,222.597127 L258.477975,224.19567 L236.46812,224.19567 L236.46812,222.597127 L242.870987,217.561716 L242.870987,184.072238 L225.823354,224.19567 L223.022099,224.19567 L206.054502,183.912384 L206.054502,217.321934 L213.657907,222.597127 Z M281.368225,186.150344 C289.852023,186.150344 295.134389,193.583569 295.134389,204.373735 L293.693743,205.572643 L271.84396,205.572643 C272.244139,215.323756 277.046289,219.719749 282.80887,219.719749 C286.410482,219.719749 289.852023,218.440915 292.733313,215.883246 L294.574138,218.041279 C290.49231,222.836908 285.69016,224.994941 280.327759,224.994941 C270.483351,224.994941 263.920412,217.961352 263.920412,205.892351 C263.920412,195.501821 271.603852,186.150344 281.368225,186.150344 Z M273.684784,193.183934 C272.644318,195.501821 272.004032,198.379199 271.683888,201.656212 L287.130805,200.936868 C287.130805,195.501821 284.249515,191.265682 279.367329,191.265682 C277.526504,191.265682 275.365537,191.905099 273.684784,193.183934 Z M334.992235,170.164913 L334.992235,216.842372 L341.315066,220.359166 L341.235031,221.957709 C337.473346,222.197491 332.351053,223.396398 328.909512,224.75516 L327.308795,224.19567 L328.029118,218.201133 C324.987756,222.437272 320.505749,224.994941 315.783634,224.994941 C307.940122,224.994941 301.697327,218.680696 301.697327,206.451841 C301.697327,194.70255 310.501269,186.150344 321.466179,186.150344 C323.387039,186.150344 325.387935,186.629907 327.228759,187.349251 L327.228759,178.477337 L321.546215,174.560907 L321.546215,172.962363 C325.467971,172.642655 330.190085,171.36382 333.711662,169.605423 L334.992235,170.164913 Z M309.620875,204.933225 C309.620875,214.684338 314.022846,219.320113 318.985068,219.320113 C322.586681,219.320113 325.467971,217.002226 327.228759,213.325577 L327.228759,194.143059 C325.147827,192.624444 322.586681,191.745245 320.025534,191.745245 C316.984172,191.745245 314.743169,192.384662 312.182022,193.903278 C310.741377,196.700728 309.620875,200.697086 309.620875,204.933225 Z M353.080334,171.203966 C356.121696,171.203966 358.3627,173.282072 358.3627,176.239377 C358.3627,179.116754 356.121696,181.19486 353.080334,181.19486 C349.958937,181.19486 347.797969,179.116754 347.797969,176.239377 C347.797969,173.282072 349.958937,171.203966 353.080334,171.203966 Z M356.521875,186.150344 L357.722413,186.789761 L357.722413,218.360987 L363.565029,222.597127 L363.565029,224.19567 L344.356428,224.19567 L344.356428,222.597127 L350.038973,218.360987 L350.038973,195.102185 L344.196357,191.105828 L344.196357,189.427357 C348.198148,189.107649 352.920263,187.908741 356.521875,186.150344 Z M379.89234,186.709834 L379.89234,209.808782 C379.89234,216.0431 382.053307,218.760623 386.775422,218.760623 C389.656712,218.760623 393.098253,216.682517 395.819471,213.165722 L395.819471,195.102185 L389.576676,191.265682 L389.576676,189.427357 C393.658504,189.107649 398.620726,187.908741 402.302374,186.150344 L403.502912,186.709834 L403.502912,217.082153 L409.025385,220.598948 L408.945349,222.117564 C405.343736,222.357345 400.941765,223.476325 397.58026,224.75516 L396.379722,224.275597 L396.539794,216.762444 C393.73854,221.238365 388.616246,224.994941 383.173809,224.994941 C376.931014,224.994941 372.2089,220.758802 372.2089,211.886888 L372.2089,195.102185 L366.366283,191.265682 L366.366283,189.427357 C370.368075,189.107649 375.09019,187.908741 378.691802,186.150344 L379.89234,186.709834 Z M424.952516,186.150344 L426.153054,186.789761 L426.313125,193.503642 C429.274451,189.507285 433.676422,186.150344 438.398537,186.150344 C442.720472,186.150344 446.8023,188.708013 448.403016,193.903278 C451.444378,189.747066 456.006421,186.150344 460.888607,186.150344 C466.491115,186.150344 471.533373,190.386483 471.533373,199.258397 L471.533373,218.360987 L477.295953,222.597127 L477.295953,224.19567 L458.407496,224.19567 L458.407496,222.597127 L463.849933,218.360987 L463.849933,201.336503 C463.849933,195.182113 461.048679,192.464589 456.966851,192.464589 C454.48574,192.464589 451.60445,194.542695 449.043303,197.659854 C449.123339,198.219344 449.123339,198.698907 449.123339,199.258397 L449.123339,218.360987 L454.005525,222.597127 L454.005525,224.19567 L436.477677,224.19567 L436.477677,222.597127 L441.439898,218.360987 L441.439898,201.336503 C441.439898,195.182113 438.638644,192.464589 434.476781,192.464589 C431.99567,192.464589 429.034344,194.542695 426.473197,197.819709 L426.473197,218.360987 L432.075706,222.597127 L432.075706,224.19567 L413.107212,224.19567 L413.107212,222.597127 L418.789757,218.360987 L418.789757,195.102185 L412.947141,191.105828 L412.947141,189.507285 C416.948932,189.187576 421.350903,187.988669 424.952516,186.150344 Z M41.5808571,257.805038 C40.6204271,263.320012 40.0601762,267.556151 39.8200687,273.390834 L37.3389577,273.710542 L31.0961625,263.719648 L17.089891,263.719648 L17.089891,280.664205 L23.492758,280.664205 L28.7751232,274.190105 L31.4163058,274.190105 L31.4163058,293.212768 L28.7751232,293.212768 L23.6528296,286.578814 L17.089891,286.578814 L17.089891,301.205484 L26.0539047,306.960239 L26.0539047,309.118272 L0.362401075,309.118272 L0.362401075,307.040166 L7.08541138,301.205484 L7.08541138,265.717827 L0.362401075,259.883144 L0.362401075,257.805038 L41.5808571,257.805038 Z M57.5079887,270.593383 L59.2687771,271.312728 L59.1887412,281.383549 C60.8694938,276.02843 64.4711065,270.593383 69.9135434,270.593383 C71.9944751,270.593383 73.9153352,270.993019 75.1959086,271.552509 C74.3155144,275.628794 73.8352994,279.864933 73.7552636,284.74049 L71.5142601,285.220053 L65.9917874,278.745953 C63.1905331,280.104715 61.1096013,283.301801 59.9890996,286.818596 L59.9890996,302.164609 L67.9126475,307.040166 L67.9126475,309.118272 L45.1824698,309.118272 L45.1824698,307.040166 L50.5448708,302.404391 L50.5448708,280.50435 L44.9423623,276.268211 L44.9423623,274.270032 C48.9441541,273.950324 54.0664477,272.351781 57.5079887,270.593383 Z M88.1617142,255.007588 C91.9233985,255.007588 94.4045095,257.245548 94.4045095,260.682416 C94.4045095,264.039357 91.9233985,266.277317 88.1617142,266.277317 C84.319994,266.277317 81.9189189,264.039357 81.9189189,260.682416 C81.9189189,257.245548 84.319994,255.007588 88.1617142,255.007588 Z M91.7633269,270.593383 L93.5241153,271.312728 L93.5241153,302.404391 L98.8865164,307.040166 L98.8865164,309.118272 L78.7975213,309.118272 L78.7975213,307.040166 L84.0798865,302.404391 L84.0798865,280.50435 L78.5574138,276.268211 L78.5574138,274.190105 C82.5592056,273.870397 88.24175,272.351781 91.7633269,270.593383 Z M134.102285,297.36898 C134.102285,304.802206 128.099597,309.997471 117.774974,309.997471 C112.252501,309.997471 106.970136,308.319 103.448559,306.160967 C104.328953,302.963881 105.209347,298.567887 105.609527,294.971166 L107.85053,294.731384 L112.332537,302.484318 C116.094221,303.923007 120.656264,304.322643 124.898163,303.363517 C125.53845,302.404391 125.938629,301.205484 125.938629,299.926649 C125.938629,293.612404 104.408989,296.25 104.408989,281.703258 C104.408989,275.309085 110.251605,270.513456 119.215619,270.513456 C124.017769,270.513456 129.220099,271.792291 132.66164,273.550688 C131.701209,276.428066 130.820815,280.584278 130.420636,284.260927 L128.179633,284.340854 L123.537554,277.067483 C119.935941,275.708721 116.174257,275.708721 112.972824,276.747774 C112.332537,277.786827 112.012394,278.905807 112.012394,280.024788 C112.012394,286.099251 134.102285,283.701437 134.102285,297.36898 Z M176.441242,302.564245 L181.403464,307.040166 L181.403464,309.118272 L161.714648,309.118272 L161.714648,307.040166 L165.236225,302.804027 L157.552785,290.255463 L153.150814,291.774079 L153.150814,302.404391 L158.513215,307.040166 L158.513215,309.118272 L138.42422,309.118272 L138.42422,307.040166 L143.706585,302.404391 L143.706585,264.678774 L138.184112,260.442635 L138.184112,258.444456 C142.26594,258.124747 147.788413,256.606131 151.390025,254.767807 L153.150814,255.487151 L153.150814,287.458013 L163.955652,277.626973 L160.434075,273.071125 L160.434075,271.392655 L179.882783,271.392655 L179.882783,273.071125 L172.039271,277.467119 L164.435867,284.021145 L176.441242,302.564245 Z M221.981634,257.005767 C227.904286,257.005767 233.506794,259.083873 237.42855,261.481688 C235.907869,264.838628 234.54726,269.953966 233.826937,274.270032 L231.265791,274.34996 L226.223533,264.918555 C221.101239,263.000304 215.89891,263.000304 211.576975,264.678774 C210.616545,266.19739 210.376437,267.716006 210.376437,269.314549 C210.376437,278.186463 238.38898,276.348138 238.38898,293.932113 C238.38898,303.923007 231.025683,309.917544 218.7802,309.917544 C211.897118,309.917544 204.373749,307.999292 200.051814,305.041987 C201.572495,300.725921 202.853069,294.651457 203.573391,290.175536 L206.214574,289.935755 L211.496939,301.285411 C216.699268,303.523371 223.262207,303.923007 227.904286,302.244537 C228.464536,300.725921 228.944751,299.04745 228.944751,297.129199 C228.944751,286.97845 201.572495,288.337212 201.572495,272.032072 C201.572495,263.000304 208.935792,257.005767 221.981634,257.005767 Z M263.680305,270.593383 C272.724354,270.593383 278.727042,277.547046 278.727042,289.536119 L276.966254,290.974808 L255.356578,290.974808 C255.836793,299.287232 259.838584,303.923007 265.681201,303.923007 C269.202777,303.923007 273.044498,302.7241 276.085859,300.725921 L278.006719,303.603298 C273.684784,307.839437 268.722562,309.917544 262.79991,309.917544 C252.395252,309.917544 245.51217,302.644172 245.51217,290.575172 C245.51217,279.864933 253.435717,270.593383 263.680305,270.593383 Z M256.557115,278.186463 C255.596685,280.50435 255.11647,283.062019 254.956398,286.259106 L269.042706,285.539761 C269.042706,280.264569 266.401523,276.348138 262.159624,276.348138 C260.238764,276.348138 258.077796,276.987556 256.557115,278.186463 Z M296.494998,270.593383 L298.255786,271.312728 L298.255786,278.426244 C301.377184,274.110178 306.099298,270.593383 311.461699,270.593383 C316.023742,270.593383 320.10557,273.151052 321.706286,278.506172 C324.827684,274.110178 329.549798,270.593383 334.912199,270.593383 C340.914887,270.593383 345.877109,274.829522 345.877109,284.021145 L345.877109,302.404391 L351.159474,307.040166 L351.159474,309.118272 L331.310587,309.118272 L331.310587,307.040166 L336.43288,302.404391 L336.43288,286.339033 C336.43288,280.744132 334.031805,278.186463 329.949978,278.186463 C327.548902,278.186463 324.827684,279.785006 322.346573,282.422602 C322.426609,282.982092 322.426609,283.461655 322.426609,284.021145 L322.426609,302.404391 L327.228759,307.040166 L327.228759,309.118272 L308.100194,309.118272 L308.100194,307.040166 L312.98238,302.404391 L312.98238,286.339033 C312.98238,280.744132 310.501269,278.186463 306.499477,278.186463 C304.018366,278.186463 301.217112,279.705079 298.736001,282.502529 L298.736001,302.404391 L304.018366,307.040166 L304.018366,309.118272 L284.009407,309.118272 L284.009407,307.040166 L289.291772,302.404391 L289.291772,280.50435 L283.7693,276.268211 L283.7693,274.270032 C287.771092,273.950324 292.893385,272.351781 296.494998,270.593383 Z M364.205316,255.007588 C367.967,255.007588 370.448111,257.245548 370.448111,260.682416 C370.448111,264.039357 367.967,266.277317 364.205316,266.277317 C360.363596,266.277317 357.962521,264.039357 357.962521,260.682416 C357.962521,257.245548 360.363596,255.007588 364.205316,255.007588 Z M367.806928,270.593383 L369.567717,271.312728 L369.567717,302.404391 L374.930118,307.040166 L374.930118,309.118272 L354.841123,309.118272 L354.841123,307.040166 L360.123488,302.404391 L360.123488,280.50435 L354.601015,276.268211 L354.601015,274.190105 C358.602807,273.870397 364.285352,272.351781 367.806928,270.593383 Z M392.618038,254.927661 L392.618038,275.948503 C395.499328,272.511635 399.421084,270.513456 403.582948,270.513456 C411.826639,270.513456 418.629685,277.387191 418.629685,288.816775 C418.629685,302.324464 407.824847,309.917544 397.420188,309.917544 C393.898611,309.917544 390.45707,309.038345 387.815888,307.279947 L383.974168,309.837616 L381.413021,309.837616 L383.173809,295.770437 L383.173809,264.119284 L377.731372,259.883144 L377.731372,257.884966 C381.733164,257.565257 387.335673,255.966714 390.85725,254.208316 L392.618038,254.927661 Z M392.618038,297.289053 C392.618038,300.725921 395.819471,303.28359 399.020905,303.28359 C401.742123,303.28359 403.662983,302.804027 406.064059,301.445265 C407.744811,298.567887 408.705241,294.971166 408.705241,290.655099 C408.705241,281.623331 404.623413,277.547046 399.741227,277.547046 C396.699866,277.547046 394.298791,278.745953 392.618038,280.824059 L392.618038,297.289053 Z M460.808571,289.616046 C460.808571,302.244537 451.60445,309.917544 440.959683,309.917544 C430.555025,309.917544 423.91205,302.164609 423.91205,290.894881 C423.91205,278.26639 433.196207,270.593383 443.760938,270.593383 C454.165597,270.593383 460.808571,278.346317 460.808571,289.616046 Z M450.804091,291.854006 C450.804091,282.742311 447.522622,276.747774 441.920113,276.747774 C439.198895,276.747774 437.598178,277.307264 435.757354,278.426244 C434.636852,281.223695 433.996566,284.580635 433.996566,288.65692 C433.996566,297.768616 437.278035,303.763153 442.880544,303.763153 C445.521726,303.763153 447.122443,303.203662 448.963267,302.084682 C450.163805,299.287232 450.804091,295.930291 450.804091,291.854006 Z M478.336419,254.767807 L480.097208,255.487151 L480.097208,302.404391 L485.299537,307.040166 L485.299537,309.118272 L465.45065,309.118272 L465.45065,307.040166 L470.572943,302.404391 L470.572943,264.678774 L465.05047,260.442635 L465.05047,258.444456 C469.132298,258.124747 474.734807,256.606131 478.336419,254.767807 Z M525.157384,254.927661 L525.157384,300.406212 L531,304.40257 L530.919964,306.400749 C526.758101,306.800384 521.3957,308.239073 517.794087,309.757689 L515.873227,309.038345 L516.593549,302.164609 C513.632223,306.880312 509.150217,309.917544 504.187995,309.917544 C496.504554,309.917544 489.781544,303.923007 489.781544,291.694152 C489.781544,278.106536 500.186203,270.593383 510.43079,270.593383 C512.191578,270.593383 513.952367,270.913092 515.633119,271.392655 L515.633119,264.119284 L510.190682,259.883144 L510.190682,257.884966 C514.192474,257.565257 519.794983,255.966714 523.396595,254.208316 L525.157384,254.927661 Z M499.46588,290.335391 C499.46588,298.967523 503.3076,302.804027 508.029715,302.804027 C511.551292,302.804027 514.112438,300.645994 515.633119,297.289053 L515.633119,278.985735 C513.712259,277.786827 511.39122,277.14741 509.150217,277.14741 C506.428998,277.14741 503.787815,278.026609 501.38674,279.545225 C500.266239,282.422602 499.46588,285.939397 499.46588,290.335391 Z M43.0215022,342.727641 C42.0610721,348.242614 41.3407496,352.478754 40.9405704,358.313436 L37.8992086,358.792999 L31.4963416,349.76123 L18.050321,349.76123 L18.050321,365.107244 L23.972973,365.107244 L29.335374,358.872926 L32.5368075,358.872926 L32.5368075,378.375152 L29.335374,378.375152 L24.1330446,372.140834 L18.050321,372.140834 L18.050321,385.16896 L26.6141556,391.563132 L26.6141556,394.040874 L0.0422577273,394.040874 L0.0422577273,391.563132 L6.20501717,385.16896 L6.20501717,351.599555 L0.0422577273,345.205382 L0.0422577273,342.727641 L43.0215022,342.727641 Z M58.6284904,354.956495 L60.9495296,355.835694 L60.7094221,366.466006 C62.4702105,360.951032 66.3119307,354.956495 71.8344035,354.956495 C73.9153352,354.956495 75.6761236,355.356131 76.8766612,355.915621 C75.9162311,360.391542 75.4360161,364.467827 75.4360161,369.663092 L72.7948335,370.382436 L66.6320741,364.94739 C64.4711065,366.306151 62.8703897,368.783893 61.9099597,371.501416 L61.9099597,386.048159 L69.6734359,391.563132 L69.6734359,394.040874 L45.7427206,394.040874 L45.7427206,391.563132 L50.5448708,386.447794 L50.5448708,365.906516 L45.3425414,361.430595 L45.3425414,358.952853 C49.3443333,358.633144 55.1869494,356.714893 58.6284904,354.956495 Z M89.8424668,338.81121 C94.4045095,338.81121 97.1257279,341.129098 97.1257279,345.125455 C97.1257279,348.961959 94.4045095,351.359773 89.8424668,351.359773 C85.2804241,351.359773 82.6392415,348.961959 82.6392415,345.125455 C82.6392415,341.129098 85.2804241,338.81121 89.8424668,338.81121 Z M93.7642228,354.956495 L96.0852621,355.835694 L96.0852621,386.447794 L100.887412,391.563132 L100.887412,394.040874 L79.918023,394.040874 L79.918023,391.563132 L84.7201732,386.447794 L84.7201732,365.906516 L79.5178438,361.430595 L79.5178438,358.952853 C83.5196357,358.633144 90.242646,356.714893 93.7642228,354.956495 Z M137.223682,381.812019 C137.223682,390.124444 129.780349,395 120.096013,395 C114.413469,395 108.81096,393.481384 104.889204,391.483205 C105.849634,388.126265 106.810064,383.410563 107.370315,379.653986 L109.851426,379.25435 L114.813648,386.687576 C118.495296,387.806556 122.817232,388.286119 126.658952,387.486847 C127.219203,386.527722 127.539346,385.568596 127.539346,384.449616 C127.539346,378.614933 105.769598,381.971874 105.769598,366.386079 C105.769598,359.832052 112.332537,354.796641 121.216515,354.796641 C126.098701,354.796641 131.781245,355.915621 135.943109,357.674019 C134.822607,361.110886 133.862177,365.107244 133.461998,368.943747 L130.900851,369.103602 L125.698522,362.309794 C122.016873,360.951032 118.575332,360.951032 115.694042,361.750304 C115.053755,362.709429 114.813648,363.668555 114.813648,364.787535 C114.813648,370.222582 137.223682,367.18535 137.223682,381.812019 Z M181.643572,386.607649 L186.685829,391.563132 L186.685829,394.040874 L164.595938,394.040874 L164.595938,391.563132 L168.037479,386.687576 L161.714648,375.178066 L157.07257,376.536827 L157.07257,386.447794 L161.954756,391.563132 L161.954756,394.040874 L140.985367,394.040874 L140.985367,391.563132 L145.787517,386.447794 L145.787517,350.640429 L140.585187,346.164508 L140.585187,343.686766 C144.747051,343.367058 151.149918,341.528733 154.751531,339.690409 L157.07257,340.569607 L157.07257,371.261635 L166.836942,362.389721 L163.555473,357.674019 L163.555473,355.755767 L184.845005,355.755767 L184.845005,357.674019 L176.441242,362.389721 L169.95834,367.824767 L181.643572,386.607649 Z M250.954607,379.094496 C250.954607,389.564953 241.190234,394.040874 227.904286,394.040874 L203.01314,394.040874 L203.01314,391.563132 L209.1759,385.488669 L209.1759,351.279846 L203.01314,345.205382 L203.01314,342.727641 L226.143497,342.727641 C239.749589,342.727641 247.673137,346.564144 247.673137,355.356131 C247.673137,361.350668 244.391668,365.027317 239.189339,367.105423 C247.833209,368.943747 250.954607,373.579522 250.954607,379.094496 Z M225.183067,349.041886 L220.861132,349.041886 L220.861132,364.867463 L222.701956,364.94739 C227.42407,365.107244 230.945647,365.027317 233.826937,363.748482 C235.50769,361.990085 236.308048,359.432416 236.308048,356.79482 C236.308048,352.638608 232.466328,349.041886 225.183067,349.041886 Z M227.023891,371.101781 L220.861132,371.101781 L220.861132,387.087212 C225.823354,388.5259 231.826042,388.445973 235.747798,387.167139 C237.588622,385.009106 238.308944,382.531364 238.308944,380.213476 C238.308944,374.298867 233.746902,371.101781 227.023891,371.101781 Z M295.214424,374.139013 C295.214424,387.40692 285.370016,394.840146 274.325071,394.840146 C263.680305,394.840146 256.317008,386.927357 256.317008,375.657628 C256.317008,362.389721 266.241451,354.956495 277.366433,354.956495 C288.011199,354.956495 295.214424,362.869284 295.214424,374.139013 Z M283.209049,376.696682 C283.209049,368.064549 280.567866,361.910158 275.445573,361.910158 C273.124533,361.910158 271.763924,362.389721 270.083172,363.268919 C269.042706,365.986443 268.482455,369.103602 268.482455,373.09996 C268.482455,381.732092 271.123637,387.886483 276.245931,387.886483 C278.56697,387.886483 279.92758,387.40692 281.528296,386.527722 C282.648798,383.810198 283.209049,380.693039 283.209049,376.696682 Z M312.822308,339.690409 L315.143348,340.569607 L315.143348,386.447794 L320.025534,391.563132 L320.025534,394.040874 L299.056145,394.040874 L299.056145,391.563132 L303.858295,386.447794 L303.858295,350.640429 L298.655965,346.164508 L298.655965,343.686766 C302.817829,343.367058 309.220696,341.528733 312.822308,339.690409 Z M361.24399,339.690409 L361.24399,383.970053 L366.686427,388.445973 L366.446319,390.843788 C362.044348,391.403278 356.281768,393.161675 352.520084,394.840146 L350.199044,393.960947 L350.919367,386.128086 C348.118113,391.323351 343.636106,394.840146 338.433776,394.840146 C330.910408,394.840146 323.707182,389.085391 323.707182,376.936463 C323.707182,361.430595 335.712558,354.956495 345.316858,354.956495 C346.917575,354.956495 348.438256,355.11635 349.878901,355.436058 L349.878901,349.841157 L344.756607,345.28531 L344.756607,342.887495 C348.758399,342.567786 355.401374,340.649535 358.922951,338.891137 L361.24399,339.690409 Z M335.232343,375.657628 C335.232343,383.170781 338.513812,386.208013 342.995819,386.208013 C346.357324,386.208013 348.518292,384.209834 349.878901,381.172602 L349.878901,363.988264 C348.118113,363.109065 346.197253,362.629502 344.276392,362.629502 C341.795281,362.629502 338.75392,363.748482 336.43288,365.347025 C335.632522,368.144476 335.232343,371.101781 335.232343,375.657628 Z"/>
</svg>
