<svg xmlns="http://www.w3.org/2000/svg" width="900" height="900" viewBox="0 0 900 900">
  <path fill-rule="evenodd" d="M0,687.722176 L52.3939758,683.436545 C76.9882934,681.294934 78.0559387,680.222924 78.0559387,642.731479 L78.0559387,271.018605 C78.0559387,99.624668 143.280896,0 268.38537,0 C346.438904,0 404.180725,46.0627077 404.180725,99.622259 C404.180725,164.966694 295.117383,261.377741 295.117383,312.795681 C295.117383,344.931894 312.22616,364.213621 364.617731,408.134718 L412.736316,448.839784 C469.405682,497.044103 494,530.252326 494,576.315033 C494,659.869186 431.982788,722 331.472632,722 C266.247674,722 210.645953,692.007808 190.331836,651.300332 C183.916345,630.946595 179.63855,609.523256 177.500854,580.600665 L202.095172,577.384634 C207.443017,602.024003 212.788458,623.447342 223.481744,639.515448 C247.006012,674.867691 288.706701,690.935798 346.443713,690.935798 C407.39328,690.935798 457.647156,650.228322 457.647156,589.169518 C457.647156,543.106811 443.748529,528.110714 390.284503,479.906396 L342.165918,437.057309 C274.803265,377.070515 258.764538,361.002409 258.764538,321.366944 C258.764538,247.453655 364.617731,162.825083 364.617731,112.479153 C364.617731,52.4923592 305.810669,29.9946014 253.416693,29.9946014 C172.153009,29.9946014 115.481238,114.620764 115.481238,256.022509 L115.481238,709.145515 L0.00240460672,709.145515 L0.00240460672,687.722176 L0,687.722176 Z" transform="translate(0 178)"/>
</svg>
