<svg xmlns="http://www.w3.org/2000/svg" width="710" height="310" viewBox="0 0 710 310">
  <path fill="#231F20" d="M406.12601 262.576533C406.658702 270.283836 409.593024 275.055881 410.92024 280.458196L413.854562 280.458196C414.963045 277.370493 415.273558 274.054041 414.757431 270.815064 413.558452 266.210543 411.991477 261.709219 410.071544 257.354295 408.527187 253.743023 408.275345 249.711911 409.358278 245.937402 411.164015 239.571674 410.423663 237.356724 407.227509 236.555381L400.753944 234.880663C399.68856 234.610547 399.417699 232.926826 399.598273 231.693297L396.754238 231.072031C395.246448 235.411891 392.321155 242.308847 396.754238 243.551379L401.376923 244.784908C406.252412 246.117479 404.085528 249.926111 403.769524 252.888381 402.758312 260.685722 402.577738 270.589967 398.848892 270.589967L393.612256 270.589967C390.596676 270.589967 389.802152 271.211233 389.26946 273.336144L387.310236 280.539231 389.88341 281.439617C390.867537 280.539231 392.727445 280.539231 396.898697 280.539231L399.029466 280.539231C400.65736 280.461871 402.117062 279.515501 402.848598 278.06317 404.527933 274.785765 406.460071 268.23996 406.044752 262.657568L406.12601 262.576533zM380.56581 244.964985L381.188789 240.54409C381.45965 238.590253 380.836671 237.617836 378.480184 236.99657L369.776535 234.880663C367.970798 234.259397 367.826339 233.458053 367.916626 231.693297L364.928132 231.072031C364.07211 233.912337 363.42039 236.809933 362.977937 239.742747 362.625818 241.957696 363.248797 243.11019 365.289279 243.551379 367.329762 243.992568 369.370244 244.451765 371.320439 244.874946 369.722362 249.124768 367.862454 256.030727 369.514703 262.936687 371.118503 268.673368 372.146804 274.554762 372.584455 280.494212L375.509748 280.494212C376.845993 277.657996 378.705902 270.671002 378.525328 267.888809 378.173209 262.225382 374.913855 254.698156 374.354077 248.332428 374.354077 246.207518 375.419461 245.67629 377.821091 246.531656 378.391288 246.78853 379.051151 246.752718 379.590028 246.435655 380.128906 246.118591 380.479428 245.559915 380.529695 244.937973L380.56581 244.964985zM351.78237 244.235672C352.486608 239.805774 352.134489 237.239674 349.913433 236.708446 345.037945 235.465914 339.981883 235.73603 340.415259 231.666286L337.706655 231.045019C335.305025 239.454623 335.305025 243.34429 338.239347 243.875518 342.049451 244.586823 348.793877 244.847935 347.46666 248.215378 344.983773 254.671145 345.245604 257.777476 348.369529 271.139203 344.378851 271.139203 340.027026 270.607975 337.101733 271.139203 333.020768 271.760469 330.709426 274.23653 329.99616 276.712591L328.560599 281.394598 331.404634 282.294984C332.470019 279.467772 340.722234 280.494212 349.245311 280.494212 350.447209 280.566184 351.571218 279.898631 352.080317 278.81049 353.407252 275.83622 354.245598 272.668384 354.563205 269.428469 355.186184 262.351436 350.391953 253.140489 351.8546 244.217665L351.78237 244.235672zM312.940979 231.072031C312.083594 233.973038 311.43192 236.930603 310.990783 239.922824 310.638665 242.137773 311.252615 243.371302 313.293097 243.731456 321.373768 245.235101 323.41425 246.117479 323.323963 248.59354 323.137764 253.425992 322.484676 258.229275 321.373768 262.936687L324.92204 263.377876C328.118194 255.760612 330.781655 242.840074 329.003005 238.680292 328.100136 236.645419 324.037229 235.934115 318.62002 234.961698 316.489251 234.610547 315.785014 233.368015 315.911415 231.603259L312.940979 231.072031zM296.526834 248.24239C297.763763 255.4995 295.994142 266.565242 295.994142 279.305702 295.994142 280.278119 296.698379 280.458196 297.944337 280.206088L302.738567 279.053594C303.442805 278.873517 303.641436 278.252251 303.533091 277.459911 302.205875 268.609118 302.557994 255.949693 302.910112 247.630127 303.006624 245.061083 302.919124 242.488446 302.648281 239.931828 302.37742 238.068029 301.140491 236.744462 297.763763 236.033157L292.346554 234.889667C290.306072 234.439474 290.215785 233.377019 290.540817 231.873374L287.525237 231.081035C286.281428 234.021335 285.446081 237.117251 285.04235 240.282978 284.771489 242.317851 285.304182 243.290267 287.173119 243.74046L292.590328 245.064027C294.630811 245.595255 296.138601 246.216521 296.499748 248.251393L296.526834 248.24239zM270.849261 246.567672C272.98003 247.900243 274.460734 252.762327 274.460734 258.335715 274.460734 268.609118 273.395349 272.678862 261.504575 273.030013 250.137463 273.300129 247.744863 268.87023 247.744863 254.004859 247.758549 250.870404 247.936355 247.7388 248.277555 244.622838 259.193232 244.271688 266.74121 244.001572 270.849261 246.567672zM279.814743 256.922109C279.814743 247.369015 278.126379 240.553094 274.48782 237.806917 271.47224 235.501929 266.407149 235.06074 248.837333 235.420895 244.043103 235.501929 244.846656 232.14349 244.846656 232.14349L241.912334 231.081035C238.896754 243.560383 241.822047 244.88395 244.485508 244.793912L244.846656 244.793912C242.138051 248.602544 241.379641 254.094898 241.379641 259.488209 241.379641 276.658568 244.991114 282.150922 258.24522 282.150922 270.885376 282.150922 279.814743 274.803773 279.814743 256.940117L279.814743 256.922109zM186.385937 245.67629C186.957486 245.904251 187.602721 245.855067 188.13289 245.543128 188.663058 245.231189 189.018243 244.691747 189.094541 244.082607L189.717521 240.54409C190.078668 238.590253 189.365402 237.887952 187.008916 236.99657L180.255461 234.610547C178.976947 234.266263 178.100423 233.094579 178.133721 231.774332L175.289686 231.072031C174.44684 233.435408 173.7947 235.862167 173.339491 238.329141 172.978343 240.54409 173.601322 241.33643 175.641805 242.137773L180.788154 244.082607C179.460937 248.24239 178.133721 255.940689 180.526322 262.936687L184.878147 275.677147 176.752333 280.458196C171.969101 283.067592 168.954335 288.032575 168.852235 293.468772L171.56084 294C172.274106 292.406317 174.666707 290.722595 176.797476 289.570101L195.965369 279.215664C199.432383 277.360869 202.095844 273.111048 203.42306 268.158925L207.242193 253.905817C208.659696 248.503502 210.609892 247.269973 210.971039 244.964985L211.584989 240.54409C211.85585 238.590253 211.142584 237.977991 208.876385 236.99657L203.730036 234.880663C202.303504 234.259397 201.770812 233.728169 201.861098 232.044448L198.935805 231.072031C198.078561 233.911449 197.42979 236.809351 196.994639 239.742747 196.633491 241.957696 197.346757 242.840074 199.296953 243.551379L203.811294 245.235101C204.876678 245.586251 204.714162 246.738745 204.434273 248.152351 202.186131 260.280549 198.800375 266.988424 191.180167 271.958554 189.753635 267.006431 184.516999 255.679577 184.164881 247.801201 184.074594 246.000429 184.426713 245.055024 186.385937 245.67629zM134.823131 271.256253C130.733138 271.697442 128.340537 274.974846 126.119481 281.700729L128.782943 282.673146C130.65188 279.215664 151.146989 280.368158 161.981408 280.458196 165.349107 280.458196 166.233917 280.548235 168.987666 269.923682L166.279061 268.951265C165.376193 270.896098 163.173194 271.076176 161.222999 270.986137 161.534195 261.679256 161.356387 252.362507 160.690306 243.074175 160.428475 238.734315 155.634244 235.636987 150.397608 235.375875L136.457323 234.754609C134.245296 234.664571 133.53203 233.602115 133.622316 231.918394L130.868568 231.018008C128.033562 236.501358 127.410583 243.758468 131.672121 243.848507L144.537994 244.208661C150.397608 244.379734 152.790209 246.009433 153.413188 248.809633 154.749744 256.081803 155.492532 263.450116 155.634244 270.842075 142.939917 270.842075 139.743763 270.671002 134.777988 271.20223L134.823131 271.256253zM83.6575878 231.459197C80.9489831 235.880091 80.4614342 244.559811 85.075091 244.469773 91.5486563 244.379734 98.7445162 244.379734 105.218081 244.730885 109.831738 245.001 111.538159 246.324568 112.233368 249.511934 113.389039 254.734172 113.136236 263.017722 112.585486 279.611834 112.585486 280.314135 113.027892 280.51222 113.650871 280.314135L118.977794 278.513363C119.510486 278.333286 119.691059 277.892097 119.600773 277.000715 118.535388 266.475204 118.697904 254.788195 118.887507 244.433757 118.977794 238.860369 115.068374 235.321852 111.077696 235.429899 104.152697 235.519937 96.1713417 235.429899 89.2463422 235.168787 84.8945173 234.988709 86.4023073 232.467629 86.4023073 232.467629L83.6575878 231.459197zM58.9821987 231.018008C58.1248138 233.919015 57.47314 236.87658 57.0320033 239.868801 56.670856 242.08375 57.2938351 243.317279 59.3343173 243.677433 67.4149881 245.181078 69.4554703 246.063456 69.3651835 248.539517 69.1745498 253.371584 68.521519 258.174445 67.4149881 262.882664L70.9632603 263.323853C74.1594139 255.706589 76.8228752 242.786051 75.0442248 238.626268 74.1413565 236.591396 70.0784494 235.880091 64.6612399 234.907675 62.5304709 234.556524 61.817205 233.313992 61.9526352 231.549235L58.9821987 231.018008zM10.2273135 270.229813C7.92499944 270.229813 5.17125129 270.76104 4.37672724 272.615835L1 280.719308 3.66346132 282.051879C6.23663582 278.513363 9.52307623 279.305702 15.2924043 280.368158L19.1025083 271.958554C15.2021175 264.260254 14.6694252 253.554666 16.439047 244.343719 22.2986619 244.343719 28.9528009 244.25368 33.8373181 244.25368 39.1642407 244.25368 41.9179889 244.523796 42.7125129 248.863656 43.6876106 253.995855 43.0646315 263.10776 42.2701075 279.395741 42.2701075 280.296127 42.8027997 280.458196 43.5160656 280.296127L48.5721278 278.882521C49.1886039 278.748607 49.6074007 278.176279 49.5472255 277.54995L48.6443573 241.264399C48.5540705 236.222238 44.0307005 235.159783 39.9407074 235.249821 31.8690653 235.420895 18.912906 235.249821 16.6015633 234.628555 13.4054097 233.827212 14.3805074 232.062455 14.3805074 232.062455L11.6719027 231C8.64729403 235.781049 8.56603589 243.605402 12.9088321 244.271688 8.03334363 253.572674 7.49162268 259.938402 10.2453708 270.211805L10.2273135 270.229813zM507.377793 171.755829C512.611339 171.755829 519.108156 167.39692 522.717498 161.437332L520.407519 159.628656C518.187773 162.920447 514.289684 165.669634 510.563038 165.669634 505.861869 165.669634 502.938302 162.386887 502.938302 154.47393 503.001076 151.285341 503.694207 148.140889 504.97758 145.222552 507.016859 140.339127 510.563038 136.179172 514.822062 136.179172 517.041807 136.179172 518.900619 137.246291 520.587986 140.357214 521.914419 142.753709 526.705822 138.31341 525.911766 135.736046 525.198921 132.977815 522.004653 131.024445 518.01633 131.024445 511.808261 131.024445 505.771636 135.817437 501.693079 142.310584 498.699459 147.02219 497.043027 152.462092 496.901677 158.046065 496.901677 166.75484 500.186178 171.737742 507.36877 171.737742L507.377793 171.755829zM478.367703 171.737742C480.668659 171.737742 486.786494 167.216052 489.809319 164.177476L487.679807 161.780981C482.617704 166.75484 481.363457 166.130846 483.068872 156.888512 484.214838 150.558146 485.730762 144.535255 486.876728 138.575668 487.85125 133.601809 486.34435 131.024445 483.862927 131.024445 481.561971 131.024445 475.083202 135.546135 472.132564 138.575668L474.081609 141.062597C478.873011 136.269606 480.109211 136.884556 478.782778 145.864632 477.718022 152.710471 476.743499 159.375442 475.236599 166.130846 474.334263 169.956196 475.768977 171.737742 478.340633 171.737742L478.367703 171.737742zM490.314627 113.326551C490.756771 110.306062 489.249871 108 486.587981 108 484.458469 108 482.509424 110.215628 482.076303 113.326551 481.634158 116.265649 483.321526 118.662145 485.802949 118.662145 487.932461 118.662145 489.710062 116.527907 490.314627 113.326551zM452.416531 171.737742C454.636277 171.737742 460.844346 167.216052 463.858147 164.177476L461.818868 161.690547C457.830545 165.868588 456.233411 164.358344 457.30719 156.888512 458.46218 148.270171 461.385747 136.179172 466.177149 111.020489 466.52906 109.419811 465.996682 108.171824 464.318338 108.61495 459.80666 109.682069 455.177678 110.667797 451.099121 111.282747L451.279588 114.040978C457.659101 113.688286 458.281713 114.945316 456.865046 124.350431 454.735534 138.31341 451.811966 152.176911 449.24031 166.130846 448.527465 169.956196 449.853898 171.737742 452.425555 171.737742L452.416531 171.737742zM411.270028 160.089869C411.270028 144.444821 417.748797 135.283877 424.579478 135.283877 427.265636 135.145148 429.885934 136.146354 431.798163 138.042108 429.758884 154.58245 421.150603 165.959022 414.058245 165.959022 412.018966 165.959022 411.351238 163.553483 411.351238 160.089869L411.270028 160.089869zM411.179794 171.737742C416.675018 171.737742 425.193066 166.402148 428.829479 156.183128L429.091156 156.264519C426.519499 164.087043 426.7902 171.638265 430.065678 171.638265 433.088503 171.638265 437.609204 168.346474 441.597527 164.168433L439.431922 161.889501C434.378843 166.86336 433.223853 166.148933 434.730753 156.906599 436.156444 148.10739 437.482877 139.480006 439.431922 131.042532L436.724915 129.613678 434.50517 132.281475C432.694659 131.568362 430.774076 131.176661 428.829479 131.123923 414.98765 131.123923 404.881492 144.688993 404.971725 160.107955 405.052935 167.044228 407.272681 171.755829 411.179794 171.755829L411.179794 171.737742zM395.479155 163.128444C392.907498 165.000424 390.967477 165.977109 389.622997 165.977109 387.818325 165.977109 386.91599 164.466864 386.91599 161.355942 386.95408 159.653043 387.132142 157.956188 387.448368 156.282606 388.42289 149.888936 389.397413 143.486223 390.552402 137.08351L401.109729 137.264378C401.46164 137.264378 401.73234 137.08351 401.822574 136.549951L402.354952 133.529462C402.436162 132.815035 402.174485 132.462343 401.452616 132.462343L391.436691 132.552777C392.339027 128.031087 393.385736 123.5727 394.540726 119.123357 394.712169 118.417974 394.089558 118.146672 393.385736 118.32754L388.15219 120.018652C387.65775 120.149299 387.297349 120.575516 387.249854 121.085771 386.717476 124.992511 386.094864 128.817861 385.445183 132.724601 383.197598 133.69864 380.797276 134.270977 378.352825 134.415713L377.820447 137.173944 383.577348 137.08351 384.642104 137.08351C383.496138 143.576657 382.250915 149.970326 381.032762 156.373039 380.554444 158.835497 380.288776 161.334688 380.238706 163.842871 380.238706 169.712025 382.368218 171.846263 385.382019 171.846263 389.108665 171.846263 393.990301 168.464038 397.265779 165.353116L395.479155 163.128444zM366.649532 170.15515L366.649532 166.682493C359.557174 167.044228 359.376707 166.329801 361.235519 154.238802 362.742419 145.086901 364.420763 135.754133 366.198364 126.412322 368.589554 114.330366 369.65431 113.615939 376.665457 113.968631L376.665457 110.505016C369.134337 111.038591 361.575024 111.038591 354.043904 110.505016L354.043904 113.968631C361.055051 113.615939 360.703141 114.330366 358.835306 126.412322 357.418639 135.663699 355.821505 144.996467 353.782227 154.238802 351.354944 166.329801 350.912799 167.026141 344.000909 166.682493L344.000909 170.15515C351.529018 169.621581 359.08533 169.621581 366.613439 170.15515L366.649532 170.15515zM302.042303 171.963826C308.602283 171.963826 315.081052 166.537799 315.081052 161.03038 315.081052 147.700438 301.780626 147.46531 301.780626 138.096369 301.780626 135.166313 304.613959 133.827893 307.808228 133.827893 311.002496 133.827893 313.574152 136.857425 314.368207 141.740851L317.120331 141.297725 317.391032 133.827893C314.998472 131.841344 311.97974 130.770906 308.872984 130.807404 301.248248 130.807404 295.653767 135.790307 295.563533 142.563798 295.482323 151.453441 308.340606 153.849936 308.340606 163.62583 308.340606 166.736753 305.498248 169.051858 301.780626 169.051858 298.063003 169.051858 295.031155 165.850502 293.352811 160.343083L290.600688 161.247421 291.665444 169.603504C294.859712 171.41218 297.693045 172 302.042303 172L302.042303 171.963826zM253.081573 172C256.366075 172 265.849622 164.891903 272.030621 152.448213 270.875631 157.955631 269.810875 162.757666 269.368731 166.402148 268.836353 170.227498 269.630408 172 272.382532 172 274.954188 172 281.956312 167.47831 285.240814 164.448778L283.418096 162.242193C277.823615 167.134662 276.316715 167.026141 277.291237 159.791437 278.626694 150.811361 280.90058 141.116857 282.705251 132.317649 282.885718 131.413311 282.35334 131.078706 281.550261 131.413311L277.291237 133.013989C276.53854 133.34032 276.027943 134.057438 275.964804 134.876925 272.508859 152.122651 260.264165 165.108944 257.015756 165.108944 254.36289 165.108944 253.740278 163.056097 254.976478 157.277377L259.488156 136.839339C260.390492 133.013989 259.569366 131.232443 256.826266 131.232443 254.254609 131.232443 247.595373 135.754133 244.319894 138.792709L246.178706 140.926946C251.854397 135.944044 253.722231 136.215345 251.592719 145.195422L248.660129 157.195987C246.359173 167.143705 248.046541 171.94574 253.09962 171.94574L253.081573 172zM225.24452 171.773916C227.554499 171.773916 233.672334 167.252226 236.686135 164.21365L234.556623 161.817154C229.503544 166.791013 228.240274 166.16702 229.945688 156.924686 231.100678 150.59432 232.652695 144.571429 233.762568 138.611841 234.73709 133.637982 233.23019 131.060619 230.748767 131.060619 228.438788 131.060619 221.969042 135.582309 219.018404 138.611841L220.967449 141.098771C225.758851 136.305779 227.004074 136.920729 225.668618 145.900805 224.603862 152.746644 223.629339 159.411615 222.122439 166.16702 221.220103 169.99237 222.654817 171.773916 225.226473 171.773916L225.24452 171.773916zM237.200467 113.362724C237.642611 110.342235 236.135711 108.036174 233.473821 108.036174 231.353332 108.036174 229.395264 110.251802 228.962143 113.362724 228.519998 116.301823 230.207366 118.698318 232.688789 118.698318 234.818301 118.698318 236.595902 116.564081 237.200467 113.362724zM173.071475 171.547831L177.330499 169.947153C178.076413 169.626951 178.586125 168.921503 178.656933 168.111347 180.186978 160.886835 183.107896 154.030636 187.256191 147.926523 191.515215 141.704677 195.945683 137.888371 197.723284 137.888371 198.338364 137.817481 198.955148 138.006207 199.425833 138.409321 199.896517 138.812434 200.178681 139.393606 200.204707 140.013565 200.330024 141.928956 200.150316 143.852129 199.672329 145.710894L195.602795 166.121803C194.80874 169.947153 195.512562 171.728699 198.309802 171.728699 200.881459 171.728699 207.531672 167.207009 210.816174 164.168433L208.957362 162.034195C203.281671 167.017098 201.684537 166.745796 203.543349 157.76572L206.024771 145.765155C207.450462 138.3948 207.089527 133.855023 204.788572 131.992087 203.863745 131.315694 202.738366 130.971595 201.594304 131.015402 198.84218 131.015402 190.946744 136.341953 184.919142 145.593331 183.699155 147.445365 182.601956 149.375766 181.63464 151.37205 182.699396 145.683764 184.025829 140.34817 184.341647 136.613254 184.874025 132.787904 184.16118 131.015402 181.327846 131.015402 178.8374 131.015402 171.835275 135.537092 168.550774 138.566624L170.409585 140.700862C175.913832 135.808393 177.62827 135.898827 176.44621 143.187791L171.934532 170.66158C171.754065 171.565918 172.286443 171.900523 173.080499 171.565918L173.071475 171.547831zM140.352786 149.608591C142.220621 140.899816 146.831556 136.097782 151.180814 136.540907 153.75247 136.721775 155.692492 138.856012 155.268394 142.229193 154.817226 145.43055 148.789624 150.766144 140.271576 149.961283 140.271576 149.879893 140.36181 149.699025 140.36181 149.608591L140.352786 149.608591zM143.068816 171.565918C149.096418 171.91861 155.845889 168.274127 160.628267 162.23315L158.417545 159.918044C149.809263 169.341246 137.925503 169.702981 139.694081 153.696199 152.119243 154.139325 160.718501 144.89699 161.60279 138.675145 161.963724 135.292921 160.186123 132.181998 156.017332 131.738872 147.05714 130.943055 137.122425 139.561396 134.289091 150.142151 131.185057 161.256465 132.782191 171.032358 143.068816 171.565918zM111.757771 171.91861C118.326774 171.91861 124.79652 166.492582 124.79652 160.985163 124.79652 147.655221 111.496094 147.420093 111.496094 138.051152 111.496094 135.121097 114.329427 133.782676 117.523696 133.782676 120.717964 133.782676 123.28962 136.812209 124.092699 141.695634L126.799706 141.252508 127.070406 133.782676C124.677846 131.796127 121.659115 130.725689 118.552358 130.762187 110.927622 130.762187 105.333142 135.74509 105.251931 142.518581 105.161698 151.408224 118.01998 153.80472 118.01998 163.580613 118.01998 166.691536 115.177623 169.006641 111.46 169.006641 107.742378 169.006641 104.719553 165.805285 103.032186 160.297866L100.325179 161.202204 101.389935 169.558287C104.584203 171.366963 107.417537 171.954783 111.766794 171.954783L111.757771 171.91861zM73.5348349 149.644765C75.4026695 140.93599 80.0136045 136.133955 84.3628621 136.577081 86.9345186 136.757948 88.8745401 138.892186 88.441419 142.265367 87.9992746 145.466723 81.9626494 150.802317 73.4536246 149.997457 73.4536246 149.916066 73.5348349 149.735199 73.5348349 149.644765zM76.2418417 171.602091C82.2784668 171.954783 89.0189138 168.310301 93.8103159 162.269323L91.5905703 159.954218C82.9822886 169.37742 71.0985287 169.739155 72.8761299 153.732372 85.2922678 154.175498 93.9005494 144.933164 94.7848383 138.711318 95.1367492 135.329094 93.3681714 132.218172 89.1993809 131.775046 80.2391884 130.979228 70.3044734 139.59757 67.4621162 150.178324 64.3580818 161.292638 65.9552158 171.068532 76.2418417 171.602091zM51.057655 164.584428C51.0193597 161.899558 51.2551944 159.217804 51.7614767 156.581037L53.0066999 149.997457C53.3586108 147.953653 56.1107344 146.443408 59.1245353 146.271584L59.1245353 142.708492C52.123589 143.158547 45.101062 143.158547 38.1001157 142.708492L38.1001157 146.226367C44.4886518 146.398191 45.9955522 148.035043 45.3188005 151.733786L44.2540445 158.064151C43.0088214 164.638689 38.1271858 167.668221 29.8166749 167.668221 18.9886476 167.668221 9.77580112 161.337855 13.4122136 140.3753 16.2455474 124.730253 26.0990522 113.615939 37.9828121 113.525505 49.1537269 113.435071 54.0353625 118.237106 54.3060631 127.569874L57.7620085 126.864491 58.9169981 114.863925C55.3617958 110.233715 47.2949155 108.813904 40.870286 108.813904 22.4265463 108.813904 7.339495 125.354246 4.68662832 140.3753.77951516 162.332627 14.1701755 171.574961 29.0496896 171.574961 35.5194359 171.574961 44.2179511 168.283171 51.0486316 164.557298L51.057655 164.584428zM635.116182 40.5168823L635.116182 37.5859893C638.661973 30.3492164 645.131011 28.4224256 649.299346 32.6016619 650.72488 34.0309246 654 30.7924687 654 28.1600926 654 25.1387399 651.78952 23.3566845 648.767026 23.2662249 644.51749 23.1757652 638.84242 27.1831282 635.233473 32.1584096 635.323697 28.6033449 635.41392 24.9216367 635.504144 23.1124435L621.66383 26.4956348 622.376597 29.2094246C627.167475 28.847586 628.051667 30.0054697 628.051667 38.6353213L628.051667 46.3696224C628.051667 49.6623541 627.961444 53.0364994 627.699795 56.3201851 627.519348 58.4550331 625.66074 59.1606185 622.024725 58.9887451L622.024725 62.1910171C629.347242 61.6573164 636.698743 61.6573164 644.02126 62.1910171L644.02126 58.9887451C637.895072 59.3415378 635.856016 58.7173662 635.504144 56.3201851 635.166614 53.0148439 635.049063 49.6906307 635.152272 46.3696224L635.116182 40.5168823zM589.345705 52.2766383C589.345705 48.2692753 595.471893 44.7142106 603.628115 43.8277059L603.628115 55.297991C601.221649 57.1340944 598.312658 58.1883629 595.291446 58.3193436 591.835879 58.3193436 589.345705 56.2749553 589.345705 52.2766383zM591.150179 63.1317976C595.697402 63.2180645 600.143075 61.7789931 603.781495 59.0430209 604.133368 61.7115809 605.198007 63.041338 607.507733 63.041338 609.637013 63.041338 613.002356 61.8020406 618.145106 58.6811823L616.719572 55.813611C611.83847 58.3012517 611.134726 57.414747 610.864055 52.5208794 610.683607 48.7034816 610.512182 42.8326496 610.864055 33.6690859 611.044502 27.8887136 606.515273 23.0853056 602.437162 23.0853056 593.838845 23.0853056 583.490188 30.2044809 583.490188 35.0078889 583.48857 35.5138796 583.698369 35.9974273 584.068678 36.3412032 584.438988 36.6849791 584.935964 36.8575642 585.439019 36.8170821 588.632938 36.8170821 590.852441 35.6591985 590.852441 33.6148101 590.852441 30.5934575 593.162167 27.7530241 597.682374 27.7530241 602.031156 27.7530241 603.628115 30.2406648 603.628115 36.1929105L603.628115 40.4626065C589.435929 42.8688335 582.605996 47.8441149 582.605996 55.6688756 582.605996 60.2913643 586.602905 63.1408436 591.123112 63.1408436L591.150179 63.1317976zM577.733916 62.236247L577.733916 59.033975C574.124969 59.2058483 572.230271 58.500263 572.058846 56.365415 571.788175 53.0726833 571.697952 49.6985379 571.697952 46.4148522 571.607728 30.9372042 571.607728 15.4686021 572.058846 0L557.86666 3.37414537 558.570405 6.08793521C562.828963 5.81655622 564.07405 6.62164721 564.245475 12.8452719 564.696593 24.4060166 564.696593 35.523509 564.60637 46.3696224 564.60637 49.6623541 564.516146 53.0364994 564.245475 56.3201851 564.07405 58.4550331 562.20642 59.1606185 558.570405 58.9887451L558.570405 62.1910171C564.947152 61.6572999 571.357169 61.6572999 577.733916 62.1910171L577.733916 62.236247zM512.060094 48.4321027C512.060094 60.1918586 514.766804 63.8102451 522.97716 63.8102451 526.874823 63.8102451 532.991989 61.4944778 538.224963 57.4780688L538.143762 63.0775218 553.301342 60.363732 552.769022 57.16146C547.093952 57.966551 545.496993 57.16146 545.496993 48.1788156L545.496993 39.4675502C545.496993 33.9585569 545.587216 28.5309772 545.857887 23.0129378L532.017574 25.5096245 532.730341 28.2234143C537.521219 27.8706216 538.495634 29.0285053 538.405411 38.5448617L538.224963 53.0545914C534.616016 56.2568634 530.86271 57.948459 527.398121 57.948459 522.165147 57.948459 519.277989 54.8366467 519.277989 48.341643 519.277989 41.8466393 519.097541 36.5185653 519.449414 23.0853056L505.744436 25.5819922 506.44818 28.2957821C511.239058 27.9429894 512.12325 29.100873 512.12325 38.6172294L512.060094 48.4321027zM469.65496 72.6210161C469.65496 68.7945724 471.784239 65.7732197 476.926989 65.3842432 479.105095 65.1426036 481.294853 65.0218067 483.486252 65.0224045 492.625911 65.0224045 495.549159 67.4286315 495.549159 70.8027769 495.549159 76.7640686 488.989897 80.8528453 481.627644 80.8528453 473.823295 80.8528453 469.65496 76.9359419 469.65496 72.5848322L469.65496 72.6210161zM489.215456 36.2290944C489.837999 42.3713054 487.979391 46.460082 483.368961 47.1656674 477.693891 48.070264 474.671397 44.325234 473.967653 37.8302304 473.345109 32.1403177 475.474388 27.780162 480.084819 27.24645 485.49824 26.5408646 488.511711 29.91501 489.215456 36.2290944zM496.496507 36.6723467C496.551528 34.5043324 496.158323 32.3483714 495.341644 30.3401704L502.171577 29.9783318 501.729481 24.7316714 492.409374 26.0704744C490.068636 23.9991036 487.020791 22.9135273 483.901281 23.0400757 475.645813 23.0400757 466.75878 30.7834227 466.75878 37.4502998 466.75878 42.0727885 468.274538 45.8087725 471.017338 48.2059535 468.09409 51.1458925 465.603917 56.2116335 465.603917 58.3464815 465.603917 60.8341222 467.462525 63.5026822 470.0339 64.8414852 465.775342 67.5009993 463.29419 71.5083623 463.29419 75.2443463 463.29419 81.9112233 469.50158 86 479.534454 86 490.442498 86 501.088893 76.4836436 501.088893 66.1712422 501.088893 61.7296729 496.649888 57.9032292 485.209524 57.9032292 481.925382 57.9032292 478.560038 58.3464815 475.988663 58.3464815 473.281952 58.3464815 471.820329 57.7223099 471.820329 56.1211739 471.964473 53.9347006 472.735168 51.8364473 474.039831 50.0784685 475.748518 50.8147267 477.593737 51.1785687 479.453253 51.1458925 487.699698 51.1458925 496.487485 43.4115915 496.487485 36.6723467L496.496507 36.6723467zM443.363777 26.9117492C448.154655 26.9117492 450.72603 30.8286526 450.72603 35.8943936L434.76546 35.9848533C436.091748 30.5572736 439.37589 26.9388871 443.363777 26.9388871L443.363777 26.9117492zM433.962469 42.3170296C433.962469 41.3400652 434.052693 40.3540549 434.142917 39.3770906L458.710827 39.3770906C458.710827 30.5753655 453.568077 23.0943515 444.879535 23.0943515 435.388003 23.0943515 426.076919 33.2348796 426.076919 44.8046702 426.076919 57.6137583 431.571541 63.8011991 443.634449 63.8011991 449.219295 63.8011991 454.632716 60.7708005 458.449178 54.2848427L455.959004 52.3309141C453.297406 55.9493005 450.644829 57.7584937 446.476495 57.7584937 439.556338 57.7584937 433.962469 52.7832124 433.962469 42.2898917L433.962469 42.3170296zM380.928985 6.44977385C397.512099 4.49584517 401.860881 11.1627222 401.860881 18.0105186 401.860881 24.8583149 399.379729 32.3302829 380.928985 31.525192L380.928985 6.44977385zM364.165424 62.218155C372.493595 61.6844358 380.847259 61.6844358 389.17543 62.218155L389.17543 58.6540444C381.551529 59.015883 380.928985 58.3917114 380.928985 46.2972547L380.928985 35.1797623C383.636862 35.2579198 386.346943 35.2005574 389.049117 35.0078889 395.788827 42.8326496 400.309033 51.543915 406.787094 62.218155 412.158282 61.7732035 417.556924 61.7732035 422.928112 62.218155L422.928112 58.6540444C418.047011 58.482171 416.892147 58.0389187 413.256133 53.8596823 408.384054 48.1697696 405.36156 41.4938466 397.918106 33.4067529 406.940475 30.7381929 410.062214 25.1387399 410.152438 17.9291049 410.242662 7.43578416 404.125495 2.27958346 390.817501 2.64142211 380.622225 2.90375513 373.52162 3.17513411 365.184952 2.64142211L365.184952 6.1964868C369.795382 6.36836016 372.195332 6.99253182 372.402847 11.3526875 372.841935 23.0038919 372.841935 34.6520809 372.402847 46.2972547 371.951728 58.3917114 371.69008 59.015883 364.147379 58.6540444L364.165424 62.218155zM328.906007 33.7595456L331.919478 33.2258336 330.945062 25.7538656C328.906007 23.8903965 324.394822 23.0853056 320.785875 23.0853056 313.775494 23.0853056 308.362073 27.2645419 308.362073 34.0309246 308.362073 39.2775849 313.775494 43.275902 319.36034 47.1023456 324.593314 50.6574103 326.63237 53.5883034 326.63237 55.9040707 326.63237 59.1063427 324.241442 60.617019 320.605427 60.617019 316.788965 60.617019 313.333398 57.9032292 310.491352 51.815294L307.477881 52.4304197 308.380118 61.2411907C310.0673 62.751867 313.170995 63.819291 321.246015 63.819291 327.561674 63.819291 333.480348 59.7214684 333.480348 53.5883034 333.480348 49.4995267 329.934557 44.7865783 323.636943 40.2545493 317.961873 36.1567266 315.210051 32.5112023 315.210051 29.5803092 315.210051 27.5359209 316.716786 26.1157042 320.091152 26.1157042 324.34971 26.1157042 326.740638 28.6033449 328.869917 33.7595456L328.906007 33.7595456zM259.86684 48.4321027C259.86684 60.1918586 262.573551 63.8102451 270.774884 63.8102451 274.68157 63.8102451 280.798736 61.4944778 286.03171 57.4780688L285.941486 63.0775218 301.108088 60.363732 300.575768 57.16146C294.900699 57.966551 293.303739 57.16146 293.303739 48.1788156L293.303739 39.4675502C293.303739 33.9585569 293.393963 28.5309772 293.664634 23.0129378L279.82432 25.5819922 280.537087 28.2957821C285.327965 27.9429894 286.302381 29.100873 286.212157 38.6172294L286.03171 53.0184075C282.422762 56.2206795 278.669457 57.9122752 275.204867 57.9122752 269.971893 57.9122752 267.084735 54.8004628 267.084735 48.3054591 267.084735 41.8104555 266.904288 36.4823814 267.25616 23.0491217L253.515093 25.5458084 254.218837 28.2595982C259.009715 27.9068055 259.893907 29.0646892 259.893907 38.5810455L259.86684 48.4321027zM250.294107 62.218155L250.294107 59.015883C246.68516 59.1877564 244.790462 58.482171 244.619037 56.347323 244.348366 53.0545914 244.086717 49.680446 244.086717 46.3967603L244.086717 39.5489639C244.086717 34.0399705 244.258142 28.6123909 244.619037 23.0943515L230.778723 26.4775429 231.49149 29.1913327C236.282368 28.8294941 237.347008 30.8738824 237.347008 39.5037341L237.347008 46.3515305C237.347008 49.6442621 237.076337 53.0184075 236.814688 56.3020932 236.634241 58.4369412 234.76661 59.1425266 231.130596 58.9706532L231.130596 62.1729252C237.507343 61.639208 243.91736 61.639208 250.294107 62.1729252L250.294107 62.218155zM245.593453 8.80172504C245.593453 5.41853371 243.725823 3.46460503 240.802575 3.46460503 237.428209 3.46460503 234.947058 6.30503839 234.947058 8.80172504 234.947058 12.0039971 236.895889 14.1297991 239.828159 14.1297991 242.849218 14.1523631 245.370276 11.822493 245.593453 8.80172504zM179.964742 62.1729252C186.338476 61.6392078 192.745497 61.6392078 199.119231 62.1729252L199.119231 58.9706532C195.510284 59.1425266 193.615586 58.4369412 193.444161 56.3020932 193.17349 53.0093615 193.083266 49.8070895 193.083266 46.5234038 193.083266 41.7199958 193.083266 37.8935521 193.17349 34.7636478 196.277185 31.6246976 200.977839 28.9923214 204.974748 28.9923214 211.182138 28.9923214 213.311417 32.4659724 213.311417 38.5991375L213.311417 46.6048175C213.311417 49.8885032 213.221194 53.0907752 212.950522 56.3835069 212.779097 58.5183549 210.911467 59.2239403 207.275453 59.0520669L207.275453 62.2543389C213.652199 61.7206217 220.062217 61.7206217 226.438964 62.2543389L226.438964 59.0520669C222.830016 59.2239403 220.935319 58.5183549 220.754872 56.3835069 220.493223 53.0907752 220.402999 49.8885032 220.402999 46.6048175L220.402999 38.463448C220.402999 27.8796676 216.794052 23.0853056 209.404732 23.0853056 204.532652 23.0853056 198.054592 26.3780372 193.164468 30.4668139 193.254691 27.7530241 193.344915 25.4915326 193.435139 23.1757652L179.594825 26.5589566 180.307592 29.3179762C185.09847 28.9561376 185.982662 30.1140212 185.982662 38.7438729L185.982662 46.5686336C185.982662 49.8523193 185.892438 53.0545914 185.63079 56.347323 185.450342 58.482171 183.591734 59.1877564 179.95572 59.015883L179.964742 62.1729252zM159.384719 26.8936573C164.175597 26.8936573 166.746972 30.8105606 166.746972 35.8763017L150.786401 35.9667613C152.11269 30.5391817 155.396832 26.9207952 159.384719 26.9207952L159.384719 26.8936573zM149.98341 42.2989376C149.98341 41.3219733 150.073634 40.335963 150.163858 39.3589986L174.731768 39.3589986C174.731768 30.5572736 169.589018 23.0762596 160.891454 23.0762596 151.399922 23.0762596 142.088838 33.2167876 142.088838 44.7865783 142.088838 57.5956664 147.592483 63.7831072 159.65539 63.7831072 165.240236 63.7831072 170.653657 60.7527085 174.461097 54.2667508L171.979946 52.3128221C169.318347 55.9312086 166.656748 57.7404018 162.488414 57.7404018 155.568257 57.7404018 149.98341 52.7651204 149.98341 42.2717997L149.98341 42.2989376zM131.361241 33.7324077L134.374712 33.1986957 133.400297 25.7267277C131.361241 23.8632587 126.841034 23.0581677 123.286221 23.0581677 116.284863 23.0581677 110.871442 27.237404 110.871442 34.0037867 110.871442 39.250447 116.284863 43.2487641 121.869709 47.0752077 127.102683 50.6302724 129.141739 53.5611655 129.141739 55.8769328 129.141739 59.0792048 126.750811 60.5898811 123.114796 60.5898811 119.298334 60.5898811 115.842767 57.8760913 113.000721 51.7881561L109.987249 52.4032818 110.889486 61.2140528C112.576669 62.7247291 115.680364 63.7921532 123.755384 63.7921532 130.071042 63.7921532 135.989716 59.6943305 135.989716 53.5611655 135.989716 49.4723888 132.443925 44.7594404 126.146312 40.2274114 120.471242 36.1295887 117.71942 32.4840644 117.71942 29.5531713 117.71942 27.508783 119.226155 26.0885663 122.600521 26.0885663 126.859079 26.0885663 129.250007 28.576207 131.379286 33.7324077L131.361241 33.7324077zM88.008759 26.9117492C92.7996369 26.9117492 95.371012 30.8286526 95.371012 35.8943936L79.4104416 35.9848533C80.7367298 30.5572736 84.020872 26.9388871 88.008759 26.9388871L88.008759 26.9117492zM78.6074507 42.3170296C78.6074507 41.3400652 78.6976744 40.3540549 78.7878981 39.3770906L103.346786 39.3770906C103.346786 30.5753655 98.2040358 23.0943515 89.5064723 23.0943515 80.0239626 23.0943515 70.7038556 33.2348796 70.7038556 44.8046702 70.7038556 57.6137583 76.2075006 63.8011991 88.2704077 63.8011991 93.855254 63.8011991 99.2686753 60.7708005 103.076115 54.2848427L100.594964 52.3309141C97.9333647 55.9493005 95.2717659 57.7584937 91.1034315 57.7584937 84.192297 57.7584937 78.5984284 52.7832124 78.5984284 42.2898917L78.6074507 42.3170296zM35.8504449 63.6293258C42.8608255 63.6293258 51.5493666 60.3365941 58.4063669 56.6006101 57.8778232 53.9680669 57.6118568 51.2893261 57.6123985 48.603976L57.6123985 42.0185127C57.6123985 39.9741243 59.6514538 38.463448 62.7551487 38.2825287L62.7551487 34.727464C55.192062 35.1784026 47.6089331 35.1784026 40.0458464 34.727464L40.0458464 38.2825287C47.056227 38.463448 49.6276021 40.0917219 49.6276021 43.800568L49.6276021 50.1327443C49.6276021 56.7091617 44.9269479 59.7305144 35.877512 59.7305144 24.1484325 59.7305144 13.0870083 53.3983381 13.0870083 32.4388345 13.0870083 16.7893131 21.3334534 5.84369412 34.2805527 5.76228042 46.2532361 5.67182076 52.5508496 10.2852635 54.6801286 19.6297465L58.2890761 18.9151152 57.1342129 6.91111812C52.3523575 2.28862943 43.3029215 1.04933207 36.3827646 1.04933207 16.4252848 1.04933207 3 17.4044388 3 32.4388345 3 54.4024403 19.6733376 63.6474177 35.8143554 63.6474177L35.8504449 63.6293258z"/>
</svg>
