<svg xmlns="http://www.w3.org/2000/svg" width="900" height="900" viewBox="0 0 900 900">
  <path fill-rule="evenodd" d="M218.805015,555.886681 C128.103791,508.673657 111.940539,405.04507 160.964617,305.417586 C285.728893,412.113687 415.702813,505.472774 528.711996,634.575055 C546.777671,652.935584 552.043449,680.327063 542.070056,704.06089 L584.014363,722.332597 C641.854761,638.442789 653.609853,574.291759 613.001352,533.61387 C572.392851,492.935982 526.307546,451.057763 479.420757,410.379875 C517.491226,296.348418 554.22589,239.932855 610.730482,214.992642 C634.374247,205.790103 642.255502,83.8898087 622.485574,76.0209713 L530.582125,60.2832965 C487.302012,52.4144592 474.211113,38.0104857 471.539501,10.5362399 L425.587777,0 C417.36347,34.3890815 412.531515,69.4995684 411.161072,104.828918 C411.161072,163.911884 438.678675,184.850993 504.667489,196.720935 C472.915718,250.18874 446.218002,306.491547 424.919874,364.900662 C315.918108,273.142016 206.916342,185.251104 144.400624,114.431567 C110.337572,76.4210817 95.9108674,41.0779985 94.5750615,12.1366814 L48.6233367,0.400110375 C14.4267043,102.694996 23.6437654,178.715968 60.3784291,213.792311 C77.4767453,229.529985 93.2392555,245.26766 110.337572,259.671634 C36.7346637,396.109272 20.9721535,529.746137 64.3858469,625.505887 C36.2148136,645.464132 13.9688156,672.651806 0,704.19426 L41.5435651,725 C70.3969737,690.857248 112.341281,688.323216 167.510067,709.262325 C192.489638,717.131163 262.085128,575.8922 218.805015,555.886681" transform="translate(0 155)"/>
</svg>
