<svg xmlns="http://www.w3.org/2000/svg" width="900" height="900" viewBox="0 0 900 900">
  <path fill-rule="evenodd" d="M397.628272,170.947526 C326.376963,189.346327 172.382199,305.488756 119.518325,494.076462 C157.442408,471.077961 203.410995,454.97901 244.782723,454.97901 C359.704188,454.97901 439,536.623688 439,635.517241 C439,812.605697 344.764398,900 217.201571,900 C102.280105,900 0,828.704648 0,673.464768 C0,265.241379 382.688482,133 382.688482,133 L397.628272,170.947526 Z M102,625.048276 C102,734.134483 132.966825,857 220.132701,857 C296.976303,857 344,806.475862 344,713.465517 C344,598.637931 306.151659,524 200.635071,524 C166.227488,524 135.260664,540.075862 106.587678,559.596552 C103.146919,581.413793 102,602.082759 102,625.048276 Z"/>
</svg>
