<svg xmlns="http://www.w3.org/2000/svg" width="900" height="900" viewBox="0 0 900 900">
  <path fill-rule="evenodd" d="M397.628272,150.947526 C326.376963,169.346327 172.382199,285.488756 119.518325,474.076462 C157.442408,451.077961 203.410995,434.97901 244.782723,434.97901 C359.704188,434.97901 439,516.623688 439,615.517241 C439,792.605697 344.764398,880 217.201571,880 C102.280105,880 0,808.704648 0,653.464768 C0,245.241379 382.688482,113 382.688482,113 L397.628272,150.947526 Z M102,605.048276 C102,714.134483 132.966825,837 220.132701,837 C296.976303,837 344,786.475862 344,693.465517 C344,578.637931 306.151659,504 200.635071,504 C166.227488,504 135.260664,520.075862 106.587678,539.596552 C103.146919,561.413793 102,582.082759 102,605.048276 Z"/>
</svg>
