<svg xmlns="http://www.w3.org/2000/svg" width="89" height="46" viewBox="0 0 89 46">
  <path d="M4.2222354,18.1320873 L6.94446612,17.2952089 L10.3610046,1.22742172 L8.11099754,1.78534068 L3.38889947,8.25706116 L2.5000078,7.97810168 L4.55543088,0 L22.2496528,0 L21.4996504,8.03403306 L20.6386755,8.22930469 L18.3053349,1.78534068 L16.3608844,1.22742172 L12.9442071,17.2952089 L15.3331034,18.1320873 L15.1107416,19.1921333 L3.9998736,19.1921333 L4.2222354,18.1320873 Z M18.4722799,21.4796011 C18.4722799,20.1405956 19.499922,19.387405 20.5832587,19.387405 C21.6388175,19.387405 22.4721535,20.1125602 22.4721535,21.1166748 C22.4721535,22.0652765 22.0554855,22.6509519 21.1667327,22.902155 L21.1667327,22.9579469 C21.3056221,22.9857033 21.5556228,22.9857033 21.72229,22.9857033 C22.3056252,22.9857033 22.8888214,22.8184671 23.5554902,22.5672641 C23.8332688,21.3399819 24.1388253,19.0525141 24.1388253,16.0956831 C24.1388253,11.7995676 23.8332688,9.51237883 23.5832681,8.50798522 L20.8332595,11.1861357 L20.1665907,10.5724249 C23.4999345,5.91380152 24.6943826,5.02127066 26.249943,5.02127066 C27.8053646,5.02127066 28.8887013,6.16486505 28.8887013,10.8233489 C28.8887013,13.8641467 28.6664784,16.430574 28.2220325,18.8854174 C30.583151,15.9840993 32.3609343,12.0231536 32.3609343,8.70339633 L32.3053786,8.67563986 C30.9999579,8.98235581 30.1666219,7.92244926 30.1666219,6.86240324 C30.1666219,5.83025316 30.9999579,5.02141014 32.2499618,5.02141014 C33.4444099,5.02141014 34.7776085,5.91380152 34.7776085,8.28495711 C34.7776085,13.4457075 29.5832868,21.9259363 24.2499368,24.0458888 C23.4443787,24.3528837 22.4999313,24.5760513 21.6665954,24.5760513 C20.2500632,24.5759118 18.4722799,23.7390334 18.4722799,21.4796011 Z M32.7502411,22.4279238 L34.7781641,22.4279238 L38.2778972,9.28921124 C36.9445598,10.2652905 35.9445566,11.1861357 35.9445566,11.1861357 L35.2778879,10.5724249 C36.5833086,8.92642444 37.6666453,7.58755841 38.9723439,6.66699212 L40.0834584,2.51063533 L44.6111115,2.51063533 L43.9166648,5.04916661 C44.1668045,5.02141014 44.4445832,5.02141014 44.7223618,5.02141014 C48.3334842,5.02141014 50.472102,7.19729409 50.472102,10.1541251 C50.472102,15.2590836 46.0555604,19.4434758 40.1112363,19.3039961 L39.2779004,22.4280633 L41.6944357,22.4280633 L41.3055456,24.2413 L32.3612121,24.2413 L32.7502411,22.4279238 Z M45.3334748,9.40093451 C45.3334748,7.78296952 44.6388893,7.19701513 43.3611076,7.11346677 L40.5556821,17.6581352 C42.6666609,17.3233838 43.8056923,16.3470256 44.8333344,12.4696283 C45.1666687,11.1583792 45.3334748,10.1820211 45.3334748,9.40093451 Z M50.833492,15.0912895 C50.833492,10.1817421 54.5001701,5.02127066 59.5279636,5.02127066 C62.3890836,5.02127066 63.8611715,6.19262152 63.8611715,7.78283004 C63.8611715,9.98647047 61.6113034,11.4370598 56.5003152,12.664621 C56.1946198,13.9754516 56.0557305,14.9240533 56.0557305,15.5656601 C56.0557305,16.6537415 56.4447595,16.932701 57.1392061,16.932701 C58.1114314,16.932701 59.2501849,16.0121347 61.0281071,14.0036265 L61.8335263,14.5057535 C60.1392155,17.6857521 57.8893473,19.4433364 55.0282273,19.4433364 C52.5280806,19.4431969 50.833492,17.7136481 50.833492,15.0912895 Z M56.8057329,11.548783 C59.055601,10.488737 59.8612979,9.48462236 59.8612979,7.33663435 C59.8612979,6.97398703 59.6947696,6.69502755 59.3333796,6.69502755 C58.611294,6.69502755 57.8335138,7.53190599 56.8333718,11.4093033 C56.8057329,11.4652347 56.8057329,11.4932701 56.8057329,11.548783 Z M63.8890883,14.9799847 C63.8890883,8.1735128 70.13883,0.697398703 78.9166352,0.697398703 C84.7776257,0.697398703 89,4.15635679 89,9.42883046 C89,15.9004115 84.694431,19.6942604 80.3335841,19.6942604 C77.8056595,19.6942604 76.9723236,18.8296255 76.6391281,17.1278332 L76.6112113,16.9886324 L78.4723283,13.8083548 L78.4167725,13.7525629 C76.4167663,16.6816375 74.0835646,19.4434758 72.0278637,19.4434758 C70.6945262,19.4434758 69.5002169,18.3276379 69.5002169,16.402678 C69.5002169,11.4653742 73.0837003,5.85828858 76.7780174,5.85828858 C78.0832993,5.85828858 78.8334405,6.36041565 79.2501085,6.86240324 L79.4723314,6.02552479 L83.9167897,6.02552479 L80.750252,15.9840993 C80.6390017,16.3188507 80.583446,16.6537415 80.583446,16.932701 C80.583446,17.5183765 80.8335856,17.9090592 81.5001155,17.9090592 C84.0834569,17.9090592 85.8333234,14.3940303 85.8333234,9.48448288 C85.8333234,4.37952437 83.3056767,2.31536369 78.8335794,2.31536369 C72.0835583,2.31536369 67.4449327,7.92244926 67.4449327,14.5615454 C67.4449327,20.5033824 70.0559131,22.5674036 75.1114844,22.5674036 C77.6391312,22.5674036 80.2501116,22.0094846 82.1390064,21.4238092 L82.5835911,22.4279238 C80.4726123,23.5717972 77.8057984,24.3528837 74.4724547,24.3528837 C67.7500726,24.3528837 63.8890883,20.2521794 63.8890883,14.9799847 Z M77.3891304,13.8362508 L78.9724687,7.97838064 C78.6946901,7.81086547 78.3613557,7.67138573 78.0555214,7.67138573 C76.8891289,7.67138573 75.6946807,9.01039124 74.6668997,14.1152103 C74.611344,14.4499616 74.5835661,14.7011647 74.5835661,14.9243322 C74.5835661,15.565939 74.805789,15.7889672 75.1667624,15.7889672 C75.8057922,15.7889672 76.5835724,15.0080201 77.3891304,13.8362508 Z M0,32.3870563 C0,25.9151963 5.02765458,21.6193598 10.4998939,21.6193598 C12.4719834,21.6193598 13.7219873,22.1495223 14.7219904,23.097845 L15.6664378,21.8425274 L16.7219966,21.8425274 L17.0275531,29.4302253 L16.1108836,29.6252179 C13.3886529,24.4089546 12.6108727,23.5720762 11.2775352,23.5720762 C9.19419536,23.5720762 7.91655249,25.2735895 6.74974329,30.7969872 C6.33307532,32.7774601 6.13876916,34.3117372 6.13876916,35.511263 C6.13876916,38.4961294 7.3609952,39.3330079 9.33308469,39.3330079 C11.527536,39.3330079 13.4442086,38.2452054 15.1664362,36.1807657 L16.3329676,36.9898877 C14.3608782,39.9467187 11.9164261,41.2579678 8.63863807,41.2579678 C2.91653688,41.2578283 0,37.2129158 0,32.3870563 Z M17.222276,35.7342911 C17.222276,30.6296115 21.5000671,26.7801102 25.7499415,26.7801102 C28.9998127,26.7801102 31.2220419,29.3462585 31.2220419,32.1358533 C31.2220419,37.2408118 26.9164729,41.2020364 22.6665985,41.2020364 C19.4167273,41.2020364 17.222276,38.5238859 17.222276,35.7342911 Z M25.6667468,33.7263407 C26.2777209,31.5224214 26.5554995,30.2113118 26.5554995,29.4302253 C26.5554995,28.6491387 26.2777209,28.4538671 25.6945246,28.4538671 C24.5278543,28.4538671 24.1389642,29.2349536 22.8334046,34.14478 C22.2500694,36.4042123 21.9445129,37.7432178 21.9445129,38.4964084 C21.9445129,39.2215636 22.2222916,39.4169747 22.7778489,39.4169747 C23.9445192,39.4169747 24.3335482,38.6918195 25.6667468,33.7263407 Z M31.6667655,35.7342911 C31.6667655,30.6296115 35.9445566,26.7801102 40.194431,26.7801102 C43.4443023,26.7801102 45.6665314,29.3462585 45.6665314,32.1358533 C45.6665314,37.2408118 41.3609624,41.2020364 37.111088,41.2020364 C33.8612168,41.2020364 31.6667655,38.5238859 31.6667655,35.7342911 Z M40.1112363,33.7263407 C40.7222104,31.5224214 40.9999891,30.2113118 40.9999891,29.4302253 C40.9999891,28.6491387 40.7222104,28.4538671 40.1390142,28.4538671 C38.9723439,28.4538671 38.5834538,29.2349536 37.2778941,34.14478 C36.694559,36.4042123 36.3890025,37.7432178 36.3890025,38.4964084 C36.3890025,39.2215636 36.6667811,39.4169747 37.2223384,39.4169747 C38.3888698,39.4169747 38.7778988,38.6918195 40.1112363,33.7263407 Z M43.4447189,44.1866239 L45.472503,44.1866239 L48.9723751,31.0480508 C47.6390376,32.02413 46.6391733,32.9449752 46.6391733,32.9449752 L45.9723657,32.3312644 C47.2779253,30.685264 48.3611232,29.3463979 49.6668217,28.4258316 L50.7779363,24.2694749 L55.3057282,24.2694749 L54.6112816,26.8078667 C54.8614212,26.7801102 55.1391999,26.7801102 55.4169785,26.7801102 C59.0278231,26.7801102 61.1667187,28.9559941 61.1667187,31.9128252 C61.1667187,37.0177837 56.7501771,41.2021759 50.805853,41.0626961 L49.9725171,44.1867634 L52.3889135,44.1867634 L52.0001623,46 L43.0556899,46 L43.4447189,44.1866239 Z M56.0276749,31.159774 C56.0276749,29.5418091 55.3332283,28.9558547 54.0555854,28.8723063 L51.25016,39.4169747 C53.3611388,39.0822233 54.4998923,38.1058651 55.5278122,34.2284678 C55.8611466,32.9172188 56.0276749,31.9408606 56.0276749,31.159774 Z M61.6668591,36.850129 C61.6668591,31.9405816 65.3335372,26.7801102 70.3613307,26.7801102 C73.2224508,26.7801102 74.6945387,27.9514611 74.6945387,29.5416696 C74.6945387,31.74531 72.4446706,33.1958993 67.3334046,34.4234605 C67.027987,35.7342911 66.8890977,36.6828928 66.8890977,37.3244996 C66.8890977,38.4125811 67.2781266,38.6915406 67.9725733,38.6915406 C68.9445207,38.6915406 70.0835521,37.7709743 71.8611965,35.762466 L72.6668935,36.2645931 C70.9725826,39.4445917 68.7224367,41.2021759 65.8613167,41.2021759 C63.36117,41.2020364 61.6668591,39.4724876 61.6668591,36.850129 Z M67.6391,33.3076226 C69.8889681,32.2475765 70.6946651,31.2434619 70.6946651,29.0954739 C70.6946651,28.7328266 70.527859,28.4538671 70.1667468,28.4538671 C69.4446612,28.4538671 68.6666032,29.2907455 67.666739,33.1681428 C67.6391,33.2240742 67.6391,33.2521096 67.6391,33.3076226 Z M77.1392685,30.6015761 L74.8337058,32.9449752 L74.1668981,32.3312644 C77.7501038,27.5611967 78.8891351,26.7801102 80.0558054,26.7801102 C81.0277529,26.7801102 81.6669216,27.1985494 81.5556712,28.8442709 L81.5001155,29.5974615 L79.3058031,35.5670549 L79.4167756,35.6228468 C81.9167834,30.0994491 83.3612324,26.7801102 86.0001295,26.7801102 C87.5279121,26.7801102 88.4445816,27.8679127 88.4445816,29.2627101 C88.4445816,30.685264 87.361106,31.7733454 86.2223524,31.7733454 C84.7222089,31.7733454 84.3612355,30.8247437 84.3055409,30.1832764 L84.250263,30.1832764 C83.1947041,30.8529186 81.8058109,32.805635 80.7501131,34.7861078 L79.0837191,40.9787293 L74.3335653,40.9787293 L77.1392685,30.6015761 Z"/>
</svg>
