<svg xmlns="http://www.w3.org/2000/svg" width="900" height="900" viewBox="0 0 900 900">
  <path fill-rule="evenodd" d="M111.264368,876.434483 L0,899.8 C4.45057471,646.117241 5.56321839,461.418391 6.67586207,208.848276 C78.9977011,192.158621 157.995402,174.356322 252.570115,174.356322 C421.691954,174.356322 482.887356,274.494253 484,366.843678 C482.887356,532.627586 357.158621,621.63908 110.151724,637.216092 C110.151724,710.650575 111.264368,788.535632 111.264368,876.434483 Z M225.866667,260.029885 C188.036782,260.029885 146.868966,266.705747 106.813793,276.71954 C106.813793,373.51954 107.926437,460.305747 109.03908,548.204598 C310.427586,538.190805 386.087356,484.783908 386.087356,386.871264 C386.087356,310.098851 331.567816,260.029885 225.866667,260.029885 Z"/>
</svg>
