<svg xmlns="http://www.w3.org/2000/svg" width="900" height="900" viewBox="0 0 900 900">
  <path fill-rule="evenodd" d="M111.264368,857.078161 L0,880.443678 C4.45057471,626.76092 5.56321839,442.062069 6.67586207,189.491954 C78.9977011,172.802299 157.995402,155 252.570115,155 C421.691954,155 482.887356,255.137931 484,347.487356 C482.887356,513.271264 357.158621,602.282759 110.151724,617.85977 C110.151724,691.294253 111.264368,769.17931 111.264368,857.078161 Z M225.866667,240.673563 C188.036782,240.673563 146.868966,247.349425 106.813793,257.363218 C106.813793,354.163218 107.926437,440.949425 109.03908,528.848276 C310.427586,518.834483 386.087356,465.427586 386.087356,367.514943 C386.087356,290.742529 331.567816,240.673563 225.866667,240.673563 Z"/>
</svg>
