<svg xmlns="http://www.w3.org/2000/svg" width="700" height="383" viewBox="0 0 700 383">
  <g fill="none" fill-rule="evenodd">
    <path fill="#000" fill-rule="nonzero" d="M540.454551,49.0449012 L561.738632,49.0449012 L562.187525,43.8196995 L560.451507,43.2853038 C558.266597,42.6321536 557.538542,41.5047273 557.538542,39.7820436 L557.538542,37.2881973 L562.523264,33.6068052 L566.835764,39.5445344 C568.348451,41.6821169 567.676973,42.9297823 566.444937,43.2853038 L564.708175,43.8196995 L565.156323,49.0449012 L586.441148,49.0449012 L586.890041,43.8790767 L585.153279,43.2259265 C583.473094,42.5727763 582.128649,41.6821169 580.671793,39.8414209 L571.205585,27.4902019 L576.526791,24.2845703 C578.094567,23.3345336 580.559384,22.6220061 583.136611,22.1469878 L582.687718,16.9811634 L562.355767,16.9811634 L561.907618,22.2063651 L563.64438,22.7407607 C564.372435,22.9782699 564.81984,23.4532882 564.81984,24.0470611 C564.81984,24.5220795 564.428268,25.1759719 563.64438,25.7690026 L557.538542,30.2816768 L557.538542,14.4279398 C557.538542,11.0434341 557.875025,8.19332411 558.658913,5.9963643 L555.297799,3.02749969 C551.040387,3.02749969 546.280483,5.93772922 539.614831,6.88702368 L540.175389,12.646621 L542.023071,12.587986 C544.03974,12.5286087 545.2152,13.656035 545.2152,16.2100008 L545.2152,39.7827858 C545.2152,41.5047273 544.543721,42.4547639 542.303723,43.1672915 L540.006403,43.879819 L540.454551,49.0449012 Z M518.442415,50.1144346 C525.556216,50.1144346 531.325571,48.0956067 537.094926,44.1767054 L534.909271,39.5452766 C531.605478,40.6741874 527.235657,41.5054695 522.250934,41.5054695 C515.809356,41.5054695 512.280744,38.4772276 512.280744,33.073894 C512.280744,25.8298643 515.641859,22.7422451 519.841949,22.7422451 C523.203064,22.7422451 525.779546,24.582199 526.787508,29.0956154 L527.17908,30.8175569 L532.780193,30.8175569 C532.275467,26.8986556 533.060844,21.079681 533.060844,18.645212 C529.812139,16.8052581 526.675099,15.9138565 522.417687,15.9138565 C509.478699,15.9138565 499.452677,24.8798277 499.452677,35.3896084 C499.454166,44.1767054 506.17565,50.1144346 518.442415,50.1144346 Z M467.459929,39.010881 C467.459929,37.1108076 468.916784,35.6857526 472.277155,35.6857526 C474.462065,35.6857526 476.590399,35.9232618 478.606323,36.2802678 L478.606323,39.426522 L478.606323,40.1984268 C476.98197,41.9203683 474.629562,42.8117699 472.445396,42.8117699 C469.476598,42.8110277 467.459929,41.2078408 467.459929,39.010881 Z M466.563632,50.1144346 C471.829006,50.1144346 476.086418,48.4518705 479.390211,45.3642513 C479.558453,46.3736652 479.72595,47.3244441 479.72595,48.2151035 L484.20818,50.1151769 C487.511973,50.1151769 491.26466,46.9681804 496.530778,46.2556529 L495.97022,40.4960555 L494.121793,40.5554328 C492.105869,40.6148101 490.92892,39.4866416 490.92892,36.933418 L490.92892,29.21437 C490.92892,19.7733805 486.560588,15.9138565 475.918176,15.9138565 C468.917529,15.9138565 461.802984,18.5858347 459.170669,20.3077762 C459.170669,23.1578862 459.899469,24.7610731 459.562241,29.0362381 L466.5078,29.0362381 L466.844283,27.3744162 C467.572339,23.7524013 469.589007,21.9710826 472.893545,21.9710826 C476.253915,21.9710826 478.606323,23.8711559 478.606323,29.3932441 L478.606323,30.6401672 L470.48456,30.6401672 C460.291041,30.6401672 455.69789,35.5692247 455.69789,41.8624755 C455.69789,46.2541684 459.898725,50.1144346 466.563632,50.1144346 Z M429.83778,49.0449012 L451.682419,49.0449012 L452.130567,43.8790767 L449.833992,43.1665492 C447.593249,42.4540217 446.921771,41.5047273 446.921771,39.7820436 L446.921771,14.4279398 C446.921771,11.0434341 447.25751,8.19332411 448.042142,5.9963643 L444.681028,3.02749969 C440.423616,3.02749969 435.663712,5.93772922 428.99806,6.88702368 L429.558618,12.646621 L431.4063,12.587986 C433.422225,12.5286087 434.598429,13.656035 434.598429,16.2100008 L434.598429,39.7827858 C434.598429,41.5047273 433.92695,42.4547639 431.686207,43.1672915 L429.389632,43.879819 L429.83778,49.0449012 Z M404.644683,41.9196261 C401.340145,41.9196261 399.266899,39.6039117 399.211067,36.4569152 L399.099402,29.6886461 L406.604774,29.6886461 C410.917274,29.6886461 413.382091,32.1223729 413.382091,35.4482435 C413.382091,39.1890129 410.749777,41.9203683 406.941258,41.9203683 L404.644683,41.9203683 L404.644683,41.9196261 Z M403.691809,13.0630043 C407.276253,13.0630043 409.181257,14.7849458 409.181257,17.4569239 C409.181257,19.5351291 408.564866,21.1976933 407.33283,22.563371 L399.155979,22.563371 L399.155979,13.0630043 L403.691809,13.0630043 Z M380.166985,49.0449012 L405.092087,49.0449012 C419.654683,49.0449012 426.376912,42.1578775 426.376912,34.735716 C426.376912,28.7979867 422.344319,24.4634444 415.510425,23.0376472 C419.654683,20.9000647 421.503854,17.8718227 421.503854,14.9029581 C421.503854,9.85588829 417.862833,5.93772922 411.085516,5.93772922 L380.166985,5.93772922 L379.718836,11.1035536 L383.471523,11.578572 C385.599856,11.8754584 386.384488,12.8848724 386.384488,15.2005868 L386.495409,27.6698182 L386.384488,39.7827858 C386.384488,42.0985002 385.599856,43.1071719 383.471523,43.4048006 L379.718836,43.879819 L380.166985,49.0449012 Z M338.663363,22.7415029 C342.081054,22.7415029 344.264476,24.8197082 344.657536,29.2730051 L332.110865,29.2730051 C332.894008,25.2939843 335.471235,22.7415029 338.663363,22.7415029 Z M337.99114,50.1144346 C345.104941,50.1144346 350.874295,48.0956067 356.64365,44.1767054 L354.45874,39.5452766 C351.097625,40.7335647 346.784381,41.6828591 341.800403,41.6828591 C335.918639,41.6828591 332.669934,39.8429053 331.997711,35.9826391 L351.770593,35.9826391 L357.539947,32.4793789 C357.539947,21.4945798 351.546518,15.9131143 341.519752,15.9131143 C328.300857,15.9131143 319.003635,25.1165946 319.003635,35.3888662 C319.004379,44.1767054 325.725119,50.1144346 337.99114,50.1144346 Z M285.093973,32.5981334 C285.093973,25.9478767 288.062771,22.2664846 293.159903,22.2664846 C295.120739,22.2664846 296.912589,22.5626288 298.425277,23.1564018 L298.425277,40.2570619 C296.744347,41.8008715 294.89592,42.3352671 293.047493,42.3352671 C287.894529,42.3352671 285.093973,39.7234085 285.093973,32.5981334 Z M288.566752,50.1144346 C292.991661,50.1144346 296.801669,48.570625 300.049629,45.6017604 C300.834261,46.9080609 301.841479,48.154984 303.017683,49.2237753 L304.02639,50.1144346 C307.330183,50.1144346 311.082869,46.9674382 316.348987,46.2549107 L315.788429,40.4953133 L313.940002,40.5546906 C311.924078,40.6140679 310.747874,39.4858993 310.747874,36.9326758 L310.747874,14.428682 C310.747874,11.0441764 311.083613,8.19406633 311.868246,5.99710652 L308.507131,3.0282419 C304.250464,3.0282419 299.489071,5.93847144 292.824908,6.8877659 L293.384722,12.6473632 L295.232404,12.5887282 C297.249073,12.5293509 298.425277,13.6567772 298.425277,16.210743 L298.425277,16.2701203 C297.024998,16.0326111 295.512311,15.9138565 293.887958,15.9138565 C281.565361,15.9138565 272.267394,23.9891683 272.267394,34.7958355 C272.267394,43.938454 278.316656,50.1144346 288.566752,50.1144346 Z M247.089929,49.0449012 L268.934568,49.0449012 L269.383461,43.8790767 L267.086886,43.1665492 C264.846887,42.4540217 264.174664,41.5047273 264.174664,39.7820436 L264.174664,27.3135544 C264.174664,23.9283066 264.510403,21.0789387 265.295036,18.8819789 L261.933921,15.9131143 C257.676509,15.9131143 252.915861,18.8226016 246.250954,19.7726383 L246.810767,25.5322357 L248.659194,25.4728584 C250.675863,25.4134811 251.852067,26.5416496 251.852067,29.0948732 L251.852067,39.7827858 C251.852067,41.5047273 251.179844,42.4547639 248.939101,43.1672915 L246.642525,43.879819 L247.089929,49.0449012 Z M257.619933,12.1122254 C262.717065,12.1122254 265.23697,9.49962454 265.23697,6.05574159 C265.23697,2.61185864 262.71632,0 257.619933,0 C252.523545,0 250.002895,2.61260086 250.002895,6.05574159 C250.002895,9.50036676 252.523545,12.1122254 257.619933,12.1122254 Z M187.488399,50.1144346 L196.505715,50.1144346 L207.036463,25.9478767 L217.509889,50.1144346 L226.527949,50.1144346 L239.466937,15.2005868 C240.362489,12.7661178 241.538693,11.6973266 244.675734,11.2223082 L245.460366,11.1042959 L245.012217,5.93772922 L227.704897,5.93772922 L227.256749,11.1035536 L229.328505,11.4590752 C231.793323,11.8754584 232.353136,13.4185258 231.569993,15.4967311 L227.087762,27.6683337 C226.136377,30.2816768 225.12767,32.8341582 224.455448,35.2686272 C223.67156,32.8341582 222.551188,30.2809346 221.431561,27.6683337 L216.166187,15.4967311 C215.26989,13.4177836 215.830448,11.7559616 218.40693,11.3989557 L220.703506,11.1028114 L220.255357,5.93772922 L197.402012,5.93772922 L196.953864,11.1035536 L198.746458,11.3403206 C201.267108,11.6965844 202.723218,12.7059983 203.674604,15.1998446 L198.297565,27.669076 C197.289603,30.1035449 196.169231,32.4786366 195.329511,34.735716 C194.600711,32.4793789 193.648582,30.1042872 192.752284,27.669076 L188.21571,15.4974733 C187.431823,13.4779031 187.879227,11.7567039 190.456453,11.3996979 L192.52821,11.1035536 L192.08155,5.93772922 L168.275331,5.93772922 L167.827183,11.1035536 L169.619777,11.3403206 C172.140427,11.6965844 173.596537,12.7059983 174.547923,15.1998446 L187.488399,50.1144346 Z M121.283005,39.010881 C121.283005,37.1108076 122.739116,35.6857526 126.100231,35.6857526 C128.285141,35.6857526 130.41273,35.9232618 132.429399,36.2802678 L132.429399,39.426522 L132.429399,40.1984268 C130.805046,41.9203683 128.452638,42.8117699 126.268472,42.8117699 C123.299674,42.8110277 121.283005,41.2078408 121.283005,39.010881 Z M120.386708,50.1144346 C125.652082,50.1144346 129.908749,48.4518705 133.213287,45.3642513 C133.381529,46.3736652 133.54977,47.3244441 133.54977,48.2151035 L138.030512,50.1151769 C141.334305,50.1151769 145.086991,46.9681804 150.353109,46.2556529 L149.793296,40.4960555 L147.945614,40.5554328 C145.9282,40.6148101 144.752741,39.4866416 144.752741,36.933418 L144.752741,29.21437 C144.752741,19.7733805 140.383664,15.9138565 129.741252,15.9138565 C122.739861,15.9138565 115.626804,18.5858347 112.993745,20.3077762 C112.993745,23.1578862 113.721801,24.7610731 113.386061,29.0362381 L120.33162,29.0362381 L120.667359,27.3744162 C121.396159,23.7524013 123.412828,21.9710826 126.717365,21.9710826 C130.077735,21.9710826 132.430143,23.8711559 132.430143,29.3932441 L132.430143,30.6401672 L124.308381,30.6401672 C114.114861,30.6401672 109.52171,35.5692247 109.52171,41.8624755 C109.520221,46.2541684 113.721056,50.1144346 120.386708,50.1144346 Z M59.3729891,49.0449012 L81.2176276,49.0449012 L81.6657762,43.8790767 L79.3692007,43.1665492 C77.1292022,42.4540217 76.4569793,41.5047273 76.4569793,39.7820436 L76.4569793,27.3135544 C77.6890157,25.1759719 80.0980005,24.2259352 82.7303152,24.2259352 C86.2589271,24.2259352 88.7795768,26.4822723 88.7795768,30.282419 L88.7795768,39.7827858 C88.7795768,41.5047273 88.1073539,42.4547639 85.866611,43.1672915 L83.5707799,43.879819 L84.0181841,49.0456434 L105.863567,49.0456434 L106.310971,43.879819 L104.01514,43.1672915 C101.774397,42.4547639 101.102174,41.5054695 101.102174,39.7827858 L101.102174,27.3729317 C101.102174,20.3664112 96.2849492,15.9131143 88.3872607,15.9131143 C83.3467056,15.9131143 78.9217966,17.7538104 75.6730915,20.8414296 C75.5048496,19.7733805 75.3366078,18.7038471 75.3366078,17.8139299 L70.8558663,15.9131143 C67.5513287,15.9131143 63.7978981,19.0601108 58.5332688,19.7726383 L59.0930823,25.5322357 L60.9415091,25.4728584 C62.9581778,25.4134811 64.1343818,26.5416496 64.1343818,29.0948732 L64.1343818,39.7827858 C64.1343818,41.5047273 63.4621589,42.4547639 61.2214159,43.1672915 L58.9248405,43.879819 L59.3729891,49.0449012 Z M28.3040827,50.1144346 C42.9232556,50.1144346 51.493167,42.9297823 51.2690927,27.3135544 L51.2132602,22.9196348 L51.2690927,15.2005868 C51.2690927,12.8848724 52.0529805,11.8762007 54.1813141,11.578572 L57.9347447,11.1035536 L57.4865961,5.93772922 L36.0901062,5.93772922 L35.6419576,11.1035536 L39.3946438,11.578572 C41.5229774,11.8754584 42.3068652,12.8848724 42.3068652,15.2005868 L42.3634421,22.9196348 L42.3068652,31.0543238 C42.2510327,39.7234085 37.4338076,42.870405 31.3845459,42.870405 C23.8791736,42.870405 19.7900038,39.7234085 19.7341713,30.2230417 L19.6783388,22.9196348 L19.7341713,15.2005868 C19.7341713,12.8848724 20.5180591,11.8762007 22.6471372,11.578572 L26.3998234,11.1035536 L25.9516748,5.93772922 L0.634256817,5.93772922 L0.186108221,11.1035536 L3.93879439,11.578572 C6.067128,11.8754584 6.85176026,12.8848724 6.85176026,15.2005868 L6.90759273,22.9196348 L6.85176026,33.1919064 C6.79518336,43.3446811 13.2925936,50.1144346 28.3040827,50.1144346 Z" transform="translate(0 304)"/>
    <path fill="#000" fill-rule="nonzero" d="M466.039878,32.1449642 C466.039878,24.864653 469.963415,20.4245364 475.566446,20.4245364 C478.256615,20.4245364 480.498423,20.9566104 482.515306,22.1413815 L482.515306,39.9003679 C480.554282,42.0323639 478.032434,43.0380503 475.510587,43.0380503 C469.851697,43.0380503 466.039878,39.7819648 466.039878,32.1449642 Z M472.3728,48.4845933 C476.463169,48.4845933 480.385961,47.0045545 483.412029,44.3404845 C483.972854,45.5837171 484.757114,46.8262098 485.709696,47.8341162 L486.32638,48.4845933 C489.128267,48.3069887 491.92941,45.7613218 496.24396,45.1693063 L495.852947,41.2035421 L493.83532,41.2627437 C491.817692,41.3219452 490.640929,40.1978557 490.640929,37.6521888 L490.640929,12.1363187 C490.640929,8.88171326 490.921714,5.92163552 491.593511,3.61277488 L489.184126,1.65838355 C485.878018,1.89518977 482.066944,4.26325196 476.91153,4.97367062 L477.359892,8.99789631 L479.32166,8.93869475 C481.338543,8.88097324 482.515306,10.0050628 482.515306,12.5507296 L482.515306,16.221966 C480.890181,15.8068151 479.097479,15.6292105 477.023993,15.6292105 C465.759838,15.6292105 457.466638,24.0365713 457.466638,33.8033478 C457.467383,42.8012441 463.631238,48.4845933 472.3728,48.4845933 Z M435.920702,47.5373685 L453.572148,47.5373685 L453.964651,43.9253336 L451.666984,43.5116627 C449.481035,43.0373103 448.809237,42.0908254 448.809237,40.1364341 L448.809237,12.1340987 C448.809237,8.8794932 449.089277,5.91941546 449.761819,3.61055482 L447.351689,1.6561635 C444.045581,1.89296971 440.235252,4.26103191 435.079838,4.97145056 L435.527455,8.99567625 L437.489223,8.93647469 C439.506851,8.87875318 440.683614,10.0028427 440.683614,12.5485096 L440.683614,40.1356941 C440.683614,42.0900854 440.011071,43.0365702 437.825122,43.5109227 L435.527455,43.9245936 L435.920702,47.5373685 Z M414.407537,43.5124027 C408.860366,43.5124027 405.44105,40.1971157 405.44105,32.3225689 C405.44105,24.5087037 409.19552,20.7205442 414.295819,20.7205442 C419.842991,20.7205442 423.262307,23.9766297 423.262307,31.8482164 C423.262307,39.6043601 419.507837,43.5124027 414.407537,43.5124027 Z M412.334051,48.4845933 C423.317421,48.4845933 431.94801,40.2563172 431.94801,30.3696576 C431.94801,21.4302228 425.784155,15.6284704 416.369306,15.6284704 C405.44105,15.6284704 396.756091,23.9174281 396.756091,33.8026077 C396.756091,42.682841 402.975805,48.4845933 412.334051,48.4845933 Z M370.714623,42.4452947 C367.185078,42.4452947 365.335028,40.6107865 365.278424,37.1178948 L365.110847,27.2926568 L372.675646,27.2926568 C378.951964,27.2926568 382.202214,30.0751298 382.202214,34.3953633 C382.202214,39.3675539 378.727783,42.4460347 372.731505,42.4460347 L370.714623,42.4460347 L370.714623,42.4452947 Z M370.826341,9.58991186 C375.589997,9.58991186 378.111845,11.7219078 378.111845,15.3324627 C378.111845,17.818188 377.102659,20.2469317 375.085776,22.0821799 L365.167451,22.0821799 L365.278424,9.58991186 L370.826341,9.58991186 Z M350.820624,47.5373685 L370.266261,47.5373685 C384.55574,47.5373685 391.000379,40.9060543 391.000379,33.3282553 C391.000379,27.8839323 387.357627,23.7398235 380.633693,22.4359092 C384.668203,20.0093855 386.573367,16.6933584 386.573367,13.3780713 C386.573367,8.3466792 382.987964,4.55851972 375.421675,4.55851972 L350.76551,4.55851972 L350.373007,8.46508231 L353.511539,8.82029164 C355.865065,9.05561782 356.593466,10.0635243 356.649325,12.2532418 L356.818392,26.5807581 L356.649325,39.8404263 C356.593466,42.0316239 355.865065,43.0373103 353.511539,43.2748565 L350.429611,43.6300658 L350.820624,47.5373685 Z M310.81068,20.5429395 C314.84519,20.5429395 317.647078,22.9694632 317.983721,28.7134941 L302.629198,28.7134941 C303.58178,23.8582266 306.999606,20.5429395 310.81068,20.5429395 Z M310.307204,48.4845933 C316.919421,48.4845933 321.850654,46.531682 326.61431,43.2755965 L324.932582,40.019511 C321.963117,41.2627437 318.096184,42.4460347 313.50085,42.4460347 C306.608593,42.4460347 302.629198,39.4267554 302.348413,33.5658015 L322.970813,33.5658015 L326.669424,30.9032116 C326.669424,20.5429395 321.121508,15.6284704 313.164206,15.6284704 C302.012514,15.6284704 293.661965,23.9766297 293.661965,33.9802124 C293.66271,42.5644378 299.770706,48.4845933 310.307204,48.4845933 Z M259.731716,32.1449642 C259.731716,24.864653 263.654508,20.4245364 269.258283,20.4245364 C271.947708,20.4245364 274.189516,20.9566104 276.207143,22.1413815 L276.207143,39.9003679 C274.245375,42.0323639 271.723527,43.0380503 269.202424,43.0380503 C263.542789,43.0380503 259.731716,39.7819648 259.731716,32.1449642 Z M266.063893,48.4845933 C270.155006,48.4845933 274.077798,47.0045545 277.103867,44.3404845 C277.663946,45.5837171 278.448207,46.8262098 279.400789,47.8341162 L280.017472,48.4845933 C282.81936,48.3069887 285.620503,45.7613218 289.935797,45.1693063 L289.54404,41.2035421 L287.526412,41.2627437 C285.50953,41.3219452 284.332767,40.1978557 284.332767,37.6521888 L284.332767,12.1363187 C284.332767,8.88171326 284.612806,5.92163552 285.285349,3.61277488 L282.875219,1.65838355 C279.569111,1.89518977 275.758782,4.26325196 270.602623,4.97367062 L271.050985,8.99789631 L273.012753,8.93869475 C275.03038,8.88097324 276.207143,10.0050628 276.207143,12.5507296 L276.207143,16.221966 C274.582019,15.8068151 272.788572,15.6292105 270.715086,15.6292105 C259.451676,15.6292105 251.157731,24.0365713 251.157731,33.8033478 C251.158476,42.8012441 257.321586,48.4845933 266.063893,48.4845933 Z M229.359312,47.5373685 L247.011503,47.5373685 L247.404006,43.9253336 L245.106338,43.5116627 C242.920389,43.0373103 242.248592,42.0908254 242.248592,40.1364341 L242.248592,26.1071456 C242.248592,22.8525402 242.528632,19.8909824 243.200429,17.5821218 L240.791044,15.6277304 C237.484936,15.8645366 233.673862,18.2325988 228.518448,18.9430175 L228.967554,22.9102617 L230.928578,22.8510601 C232.946205,22.7903785 234.122968,23.9159481 234.122968,26.4616149 L234.122968,40.1364341 C234.122968,42.0908254 233.450426,43.0373103 231.264477,43.5116627 L228.967554,43.9253336 L229.359312,47.5373685 Z M237.821579,10.773943 C241.239406,10.773943 243.201174,8.52502389 243.201174,5.56494615 C243.201174,2.54566686 241.239406,0.355949348 237.821579,0.355949348 C234.347149,0.355949348 232.385381,2.54566686 232.385381,5.56494615 C232.386126,8.52502389 234.347149,10.773943 237.821579,10.773943 Z M173.556165,48.4845933 L179.159941,48.4845933 L190.311633,21.7861722 L201.407466,48.4845933 L207.010496,48.4845933 L220.572318,12.5499896 C221.412438,10.3010705 222.758267,9.05635784 225.672618,8.58422544 L226.624455,8.40662078 L226.176094,4.55925974 L210.54153,4.55925974 L210.093169,8.40662078 L212.278373,8.70262855 C215.024402,8.99715629 215.64034,10.5963383 214.463577,13.556416 L208.580507,29.2455681 C208.076286,30.6664054 206.731201,34.2177586 205.778619,37.1778364 C204.712829,34.2177586 203.256026,30.6664054 202.640088,29.2455681 L195.916153,12.9059389 C195.01943,10.6555398 195.52365,8.93869475 198.101357,8.643427 L200.679064,8.40662078 L200.287307,4.55925974 L181.290031,4.55925974 L180.841669,8.40662078 L182.354331,8.58422544 C184.707857,8.88023322 186.165405,9.9458612 187.173846,12.5499896 L187.846389,14.2076331 L181.625185,29.244828 C181.008502,30.6656654 179.551699,34.1578171 178.430795,37.1178948 C177.422353,34.1578171 176.077269,30.6656654 175.573048,29.244828 L169.409193,12.9051989 C168.568329,10.6547998 169.017435,8.93795473 171.538538,8.64268698 L174.004527,8.40588076 L173.612769,4.55851972 L154.111273,4.55851972 L153.662167,8.40588076 L155.174829,8.58348542 C157.528355,8.8794932 159.041017,9.94512118 159.994344,12.5492496 L173.556165,48.4845933 Z M108.384346,38.6571352 C108.384346,35.9930653 110.177793,34.1578171 114.773127,34.1578171 C117.463297,34.1578171 119.70436,34.5130264 121.83296,34.9266973 L121.83296,39.5444185 C119.70436,42.0908254 116.958331,43.215655 114.043981,43.215655 C110.682013,43.215655 108.384346,41.2620036 108.384346,38.6571352 Z M110.626899,48.4845933 C115.166374,48.4845933 119.200884,46.8861513 122.339415,43.9852752 C122.619455,45.1693063 123.010468,46.3540774 123.291253,47.3605038 L125.644779,48.4853333 C128.446667,48.3077287 131.248554,45.7620618 135.563104,45.1700463 L135.171346,41.2042821 L133.153719,41.2634837 C131.136092,41.3226852 129.959329,40.1985957 129.959329,37.6529289 L129.959329,28.1207385 C129.959329,19.2405053 125.980678,15.6284704 117.294975,15.6284704 C111.522878,15.6284704 106.03082,17.818188 103.621435,19.7133777 C103.621435,22.200583 104.238118,23.8589666 103.957334,27.528723 L108.384346,27.528723 L108.889312,25.2798039 C109.673572,21.7861722 111.467019,20.1877302 115.165629,20.1877302 C119.368461,20.1877302 121.833705,22.2013231 121.833705,28.5358894 L121.833705,30.193533 L113.876404,30.193533 C104.629876,30.193533 100.371186,34.7505726 100.371186,40.3747203 C100.37193,44.7556354 104.181515,48.4845933 110.626899,48.4845933 Z M54.8297105,47.5373685 L72.4819012,47.5373685 L72.8178,43.9253336 L70.5767367,43.5116627 C68.3907876,43.0373103 67.7182452,42.0908254 67.7182452,40.1364341 L67.7182452,24.864653 C69.3999736,22.5550524 72.4819012,21.2526181 75.2837889,21.2526181 C80.3274847,21.2526181 82.9051917,23.9181682 82.9051917,29.5415758 L82.9051917,40.1371741 C82.9051917,42.0915654 82.2326492,43.0380503 80.1033039,43.5124027 L77.8056368,43.9260736 L78.1415356,47.5381085 L95.7937263,47.5381085 L96.1862289,43.9260736 L93.8885618,43.5124027 C91.7033575,43.0380503 91.030815,42.0323639 91.030815,40.1371741 L91.030815,26.9367074 C91.030815,19.7718393 86.6038026,15.6284704 78.9265409,15.6284704 C74.3312067,15.6284704 70.1842341,17.286114 67.1581655,19.9501839 C67.0464475,19.0036991 66.9898437,18.0549942 67.1023065,17.1085093 L64.3004188,15.6284704 C61.3302093,15.8652767 58.5841805,18.351742 53.9888463,18.9437575 L54.4372079,22.7911186 L56.3989762,22.731917 C58.4158587,22.6727154 59.5933666,23.798285 59.5933666,26.3439519 L59.5933666,40.1371741 C59.5933666,42.0915654 58.9208241,43.0380503 56.734875,43.5124027 L54.4938117,43.9260736 L54.8297105,47.5373685 Z M24.9548247,48.4845933 C38.4041837,48.4845933 46.1931635,40.7291897 46.1373045,26.2262888 L46.0814454,21.1934166 L46.2497673,12.2539818 C46.2497673,10.0642643 46.9781687,9.05709786 49.3316948,8.82103166 L52.750266,8.46582233 L52.3577633,4.55925974 L33.7529905,4.55925974 L33.3604879,8.46582233 L36.834918,8.82103166 C39.1325851,9.05635784 39.8609866,10.0642643 39.9168456,12.2539818 L40.0293084,21.1934166 L40.0293084,29.6007774 C39.9734494,38.1243212 34.6497137,43.215655 27.5883906,43.215655 C19.3510492,43.215655 15.0923586,39.6628216 15.0357548,29.4816343 L14.9798958,21.1926766 L15.1482176,12.2532418 C15.2040766,10.0635243 15.932478,9.05635784 18.2301451,8.82029164 L21.3686765,8.46508231 L20.9761739,4.55851972 L0.577954514,4.55851972 L0.185451899,8.46508231 L3.32398324,8.82029164 C5.67750935,9.05561782 6.40591079,10.0635243 6.46176979,12.2532418 L6.6300916,21.1926766 L6.57423259,31.907418 C6.51837359,42.3860932 12.3470746,48.4845933 24.9548247,48.4845933 Z" transform="translate(0 227)"/>
    <path fill="#000" fill-rule="nonzero" d="M612.514196,32.3331522 C612.514196,26.4222905 616.993289,18.797279 624.495898,18.797279 C628.023956,18.797279 630.823481,20.8668194 631.103285,25.1226398 L631.214909,26.8367897 L633.678819,26.8367897 C634.68641,23.8813589 635.303318,19.5073212 635.134394,17.4968894 C633.567195,16.1373912 630.207318,15.1923922 626.903996,15.1923922 C614.361943,15.1923922 606.298981,26.0100079 606.298981,35.288583 C606.298981,42.854486 610.554082,47.1103064 617.609452,47.1103064 C625.05625,47.1103064 630.655301,44.0366583 636.589968,37.5945579 L634.68641,35.7023433 C629.254794,40.1945982 625.503489,42.0868128 620.408234,42.0868128 C615.872585,42.0868128 612.514196,38.6577742 612.514196,33.5145857 L612.514196,32.3331522 Z M599.350026,19.0337134 C599.350026,17.3195636 599.069478,16.0782826 598.565682,15.1923922 C595.765412,15.1923922 590.391097,17.3195636 588.655718,18.6790617 L588.487539,20.925928 L590.559277,20.9850366 C592.294655,21.0441453 593.302991,21.8118184 593.302991,23.6449244 C593.302991,26.1858561 590.727457,39.0139036 590.727457,42.381617 C590.727457,43.9775497 590.951449,45.632591 591.455244,47.1103064 C595.821968,47.1103064 599.742197,46.4608504 602.933895,44.983135 L602.374287,42.6771601 C601.365952,42.854486 600.582353,42.9727032 599.742197,42.9727032 C597.782083,42.9727032 597.110852,41.7314223 597.110852,40.1945982 C597.110107,34.8755616 599.350026,25.0036837 599.350026,19.0337134 Z M597.669715,9.34063915 C600.749789,9.34063915 602.092251,6.50342555 602.092251,3.78369033 C602.092251,1.71414988 601.141216,0.178803566 598.902042,0.178803566 C595.821224,0.178803566 594.478762,3.1342344 594.478762,5.73501354 C594.478762,7.80381512 595.431285,9.34063915 597.669715,9.34063915 Z M583.409398,4.25655926 C583.409398,2.54240938 583.129595,1.30112843 582.625799,0.413760317 C579.825529,0.413760317 574.451214,2.54240938 572.715091,3.90190756 L572.546911,6.14877385 L574.617905,6.20788247 C576.354028,6.26699109 577.362363,7.03466425 577.362363,8.86777022 C577.362363,15.1931311 572.715091,36.3540158 572.715091,42.381617 C572.715091,43.9775497 572.939083,45.632591 573.442879,47.1103064 C577.810347,47.1103064 581.730576,46.4608504 584.922273,44.983135 L584.361922,42.6771601 C583.354331,42.854486 582.570731,42.9727032 581.730576,42.9727032 C579.770461,42.9727032 579.09923,41.7314223 579.09923,40.1945982 C579.098486,31.1509799 583.409398,14.4232413 583.409398,4.25655926 Z M544.003209,43.1500291 C541.371863,43.1500291 539.468305,41.4358792 539.468305,36.8845157 C539.468305,26.3040733 545.571152,19.5065824 551.618187,19.5065824 C554.417713,19.5065824 556.769255,20.2151469 558.616257,21.9292968 C554.025541,38.0068405 547.47471,43.1500291 544.003209,43.1500291 Z M567.967357,44.983135 L567.40775,42.6771601 C566.400159,42.854486 565.615815,42.9727032 564.776404,42.9727032 C562.81629,42.9727032 562.144314,41.7314223 562.144314,40.1945982 C562.144314,33.1015642 565.000396,20.5697986 566.287791,18.4433661 C564.047129,16.7292162 560.016764,15.1923922 555.033876,15.1923922 C543.330489,15.1923922 533.197278,26.7185725 533.197278,38.5402958 C533.197278,43.6834843 536.556411,47.1110452 541.874915,47.1110452 C548.033574,47.1110452 554.361157,40.8455319 557.945026,31.2108273 L558.336453,31.3290446 C555.705852,41.4957266 555.481116,44.8649178 556.489451,47.1103064 C560.857664,47.1103064 564.776404,46.4608504 567.967357,44.983135 Z M527.261867,36.5889726 C524.742145,39.8990551 521.3272,42.0868128 517.912255,42.0868128 C514.32913,42.0868128 512.929367,40.4317715 512.985179,37.0618415 C513.040246,33.6919115 513.936214,27.0724853 515.056917,20.5705375 L527.822218,20.5705375 C528.04621,19.2701479 528.213646,17.4377808 528.157834,16.0782826 L515.78396,16.9065421 C516.231944,14.5414586 516.679928,12.2369614 517.183723,10.2265295 L514.664001,9.28153054 C512.088467,13.1819604 509.288942,15.8418481 505.98562,17.7931713 L505.98562,20.2158858 L509.848549,20.2158858 C508.672778,25.7728346 507.048279,35.4666477 507.048279,39.1912294 C507.048279,44.3920489 510.239977,47.1110452 515.446856,47.1110452 C520.31812,47.1110452 524.965393,44.214723 529.332861,38.4811872 L527.261867,36.5889726 Z M491.27732,9.87113899 L489.429574,25.5356613 L487.357835,39.6618818 C487.078032,41.7314223 486.350244,42.7355299 483.886334,42.9719643 L481.086808,43.2083988 L481.47898,46.2229383 L498.891554,46.2229383 L499.283725,43.2083988 L496.427644,42.9719643 C493.963734,42.7946385 493.292502,41.7306834 493.516494,39.6618818 L495.140249,25.5356613 L497.435979,9.87113899 C497.715783,7.80307626 498.44357,6.79896864 500.90748,6.56179531 L503.707006,6.32536085 L503.315578,3.30934368 L485.902261,3.30934368 L485.510833,6.32536085 L488.366915,6.56179531 C490.828592,6.73986002 491.501312,7.80381512 491.27732,9.87113899 Z M461.657564,45.4552651 L461.826488,43.2098765 L459.58657,42.9734421 C455.554717,42.5589429 452.307952,40.4325104 448.276843,30.7372195 C455.219102,27.9591146 458.802971,23.5850769 458.802971,19.8028643 C458.802971,17.2013463 457.29084,15.1923922 453.931707,15.1923922 C448.444279,15.1923922 442.341432,20.9850366 438.197956,30.5007851 L437.749228,30.3840456 C440.493686,18.6214308 442.005817,8.51237966 442.005817,4.43462397 C442.005817,2.66136547 441.557089,1.18365005 441.053293,0.414499175 C438.253023,0.414499175 432.878708,2.54314823 431.143329,3.90264642 L430.97515,6.14951271 L433.046888,6.20862133 C435.062814,6.26772994 436.069661,7.27183757 435.734046,9.81350809 L430.750414,47.1110452 L436.462577,46.2251548 L436.630013,44.4518963 C437.52598,35.111996 445.757866,19.0351912 451.411985,19.0351912 C452.419576,19.0351912 453.148107,19.6861248 453.148107,21.045623 C453.148107,24.2965969 450.628386,28.1977656 442.845228,30.2665672 C442.956852,34.7588221 448.107919,44.0972446 451.579421,47.1117841 C454.434758,47.1103064 459.530758,46.224416 461.657564,45.4552651 Z M420.157312,27.8408973 C420.157312,34.9930399 416.79669,43.5054196 408.119054,43.5054196 C405.486964,43.5054196 401.063683,42.3217696 401.063683,34.4618013 C401.063683,27.3096586 404.423561,18.797279 413.101942,18.797279 C415.733287,18.7965401 420.157312,19.9801902 420.157312,27.8408973 Z M395.073204,35.1112572 C395.073204,39.8399465 396.528779,47.1103064 406.551111,47.1103064 C419.037353,47.1103064 426.147791,34.816453 426.147791,27.1914414 C426.147791,22.4627521 424.692216,15.1923922 414.669884,15.1923922 C402.183643,15.1923922 395.073204,27.4869845 395.073204,35.1112572 Z M384.57982,27.8408973 C384.57982,34.9930399 381.220687,43.5054196 372.542306,43.5054196 C369.910216,43.5054196 365.48768,42.3217696 365.48768,34.4618013 C365.48768,27.3096586 368.847557,18.797279 377.525938,18.797279 C380.15654,18.7965401 384.57982,19.9801902 384.57982,27.8408973 Z M359.495713,35.1112572 C359.495713,39.8399465 360.952032,47.1103064 370.975107,47.1103064 C383.460605,47.1103064 390.571787,34.816453 390.571787,27.1914414 C390.571787,22.4627521 389.116213,15.1923922 379.093881,15.1923922 C366.606895,15.1923922 359.495713,27.4869845 359.495713,35.1112572 Z M332.15085,42.6771601 C329.183145,42.6771601 327.614458,40.668206 327.950818,37.8309924 L329.350581,25.5356613 L329.406393,25.1211621 L337.245362,25.1211621 C344.3558,25.1211621 347.939669,28.3130274 347.211882,33.4547382 C346.484095,39.2488603 342.173182,42.6756824 335.56654,42.6756824 L332.15085,42.6756824 L332.15085,42.6771601 Z M337.469354,6.62164279 C343.572201,6.62164279 346.203547,9.04435721 345.643939,13.5957207 C345.251768,16.3738257 343.796193,19.1519307 340.604495,21.6928623 L329.910188,21.6928623 L332.095039,6.62164279 L337.469354,6.62164279 Z M319.832044,3.30934368 L319.440617,6.32536085 L322.295954,6.56179531 C324.759864,6.73912116 325.711644,7.80307626 325.487652,9.87113899 L323.639905,25.5356613 L321.568167,39.6618818 C321.288363,41.7314223 320.392396,42.7355299 317.92923,42.9719643 L315.129704,43.2083988 L315.520388,46.2229383 L331.030147,46.2229383 C345.02852,46.2229383 352.587686,40.0756421 353.650345,31.9770228 C354.32232,26.5397689 350.906631,22.6386002 344.3558,21.8694493 C349.732348,18.2054539 351.635162,14.95448 352.083146,11.7027672 C352.811678,6.44283922 349.732348,3.30860482 341.053223,3.30860482 L319.832044,3.30860482 L319.832044,3.30934368 Z M283.158407,18.7965401 C285.90212,18.7965401 287.414251,20.0984074 287.414251,22.1664701 C287.414251,25.6546174 283.886938,29.0223308 271.568876,31.5063704 C272.128484,24.2951192 276.775756,18.7965401 283.158407,18.7965401 Z M276.38284,47.1103064 C283.325842,47.1103064 288.757458,44.4504186 294.188329,38.8949475 L292.284771,36.7662984 C287.525131,40.4908802 283.886194,42.0868128 279.182366,42.0868128 C275.207069,42.0868128 272.240107,39.4254473 271.623944,35.2294744 C288.365286,32.214935 293.517098,26.5996164 293.517098,21.1623625 C293.517098,17.4968894 290.77264,15.1923922 285.509949,15.1923922 C273.584058,15.1923922 265.297105,25.4772915 265.297105,35.288583 C265.297105,43.0909204 269.384026,47.1103064 276.38284,47.1103064 Z M233.634633,36.8845157 C233.634633,26.3040733 239.73748,19.5065824 245.784515,19.5065824 C248.639853,19.5065824 251.103763,20.2742555 252.951509,22.047514 C249.704744,34.2238891 242.649374,43.1500291 238.170282,43.1500291 C235.538936,43.1500291 233.634633,41.4358792 233.634633,36.8845157 Z M254.743444,8.86703136 C254.743444,11.1730063 254.575264,13.4775035 254.239648,15.6652611 C252.727518,15.3697181 251.047951,15.1916534 249.200204,15.1916534 C237.497562,15.1916534 227.363606,26.7178336 227.363606,38.5395569 C227.363606,43.6827455 230.722739,47.1103064 236.041987,47.1103064 C242.144834,47.1103064 248.136057,41.3767706 252.111354,31.8019135 L252.560082,31.9201307 C250.039616,41.6723136 249.872924,44.9240264 250.824703,47.1103064 C255.192172,47.1103064 259.110912,46.4608504 262.30261,44.983135 L261.743002,42.6771601 C260.734667,42.854486 259.951068,42.9727032 259.110912,42.9727032 C257.151542,42.9727032 256.479567,41.7314223 256.479567,40.1945982 C256.479567,31.1509799 260.791223,14.4225025 260.791223,4.2558204 C260.791223,2.54167052 260.511419,1.30038957 260.00688,0.413021459 C257.207354,0.413021459 251.832294,2.54167052 250.096916,3.9011687 L249.928736,6.148035 L252.000474,6.20714361 C253.735853,6.26625223 254.743444,7.03466425 254.743444,8.86703136 Z M220.263586,19.0337134 C220.263586,17.3195636 219.983783,16.0782826 219.479987,15.1923922 C216.680461,15.1923922 211.305402,17.3195636 209.569279,18.6790617 L209.401099,20.925928 L211.472838,20.9850366 C213.20896,21.0441453 214.216551,21.8118184 214.216551,23.6449244 C214.216551,26.1858561 211.641018,39.0139036 211.641018,42.381617 C211.641018,43.9775497 211.865009,45.632591 212.368805,47.1103064 C216.736273,47.1103064 220.656502,46.4608504 223.8482,44.983135 L223.287848,42.6771601 C222.280257,42.854486 221.496658,42.9727032 220.656502,42.9727032 C218.697132,42.9727032 218.025157,41.7314223 218.025157,40.1945982 C218.024412,34.8755616 220.263586,25.0036837 220.263586,19.0337134 Z M218.58402,9.34063915 C221.663349,9.34063915 223.0073,6.50342555 223.0073,3.78369033 C223.0073,1.71414988 222.055521,0.178803566 219.815603,0.178803566 C216.735529,0.178803566 215.392322,3.1342344 215.392322,5.73501354 C215.392322,7.80381512 216.344846,9.34063915 218.58402,9.34063915 Z M146.658088,10.462964 L156.568796,47.1103064 L158.975405,47.1103064 L174.765713,17.4968894 L182.604682,47.1103064 L184.95548,47.1103064 L204.272356,10.462964 C205.504683,8.0993582 207.240062,6.62164279 210.599195,6.32536085 L210.208512,3.30934368 L195.986147,3.30934368 L195.59472,6.32536085 L199.122033,6.62090393 C200.857411,6.73912116 201.697567,8.03951073 200.410172,10.4622252 L190.106548,29.7907428 L186.075439,37.9469931 L184.115325,29.7907428 L178.964257,10.4622252 C178.292282,7.98040211 178.740265,6.79822978 180.643824,6.62090393 L184.171881,6.32536085 L183.779709,3.30934368 L167.766154,3.30934368 L167.373982,6.32536085 L168.718678,6.44357808 C171.125287,6.68001255 172.190179,7.27035985 173.141214,10.4622252 L173.645754,12.2354837 L164.238841,29.7907428 L160.039553,38.0652103 L158.134506,29.7907428 L152.927626,10.4622252 C152.256395,7.98040211 152.703634,6.79822978 154.607937,6.62090393 L158.134506,6.32536085 L157.743822,3.30934368 L141.282284,3.30934368 L140.890112,6.32536085 L142.234063,6.44357808 C144.642161,6.6807514 145.817932,7.27109871 146.658088,10.462964 Z M97.554764,43.1500291 C94.9226741,43.1500291 93.0191157,41.4358792 93.0191157,36.8845157 C93.0191157,26.3040733 99.1219626,19.5065824 105.168998,19.5065824 C107.969268,19.5065824 110.32081,20.2151469 112.168556,21.9292968 C107.577096,38.0068405 101.026265,43.1500291 97.554764,43.1500291 Z M121.518912,44.983135 L120.959305,42.6771601 C119.951714,42.854486 119.16737,42.9727032 118.327215,42.9727032 C116.367845,42.9727032 115.695869,41.7314223 115.695869,40.1945982 C115.695869,33.1015642 118.551207,20.5697986 119.839346,18.4433661 C117.599428,16.7292162 113.568319,15.1923922 108.584687,15.1923922 C96.8827886,15.1923922 86.7480888,26.7185725 86.7480888,38.5402958 C86.7480888,43.6834843 90.1079661,47.1110452 95.4272138,47.1110452 C101.585873,47.1110452 107.912711,40.8455319 111.496581,31.2108273 L111.888008,31.3290446 C109.256662,41.4957266 109.032671,44.8649178 110.040262,47.1103064 C114.40773,47.1103064 118.327215,46.4608504 121.518912,44.983135 Z M71.7927278,47.1103064 C76.1601963,47.1103064 80.0796811,46.4608504 83.2713785,44.983135 L82.7110269,42.6771601 C81.7034357,42.854486 80.9198364,42.9727032 80.0796811,42.9727032 C78.1203107,42.9727032 77.4483353,41.7314223 77.4483353,40.1945982 C77.4483353,36.5291251 80.3594848,28.6093093 80.3594848,23.4661208 C80.3594848,17.732585 77.4483353,15.1916534 72.856875,15.1916534 C66.80984,15.1916534 61.6022161,20.0984074 56.8433201,30.5000462 L56.4511484,30.3833067 C58.3547068,24.8854665 58.6910666,20.9251892 58.6910666,19.1519307 C58.6910666,17.3195636 58.187271,15.7820007 57.7392874,15.1923922 C54.9397617,15.1923922 49.5647021,17.3195636 47.8285794,18.6790617 L47.6603995,20.925928 L49.7321379,20.9850366 C51.7480643,21.0441453 52.7556554,22.0482529 52.4200397,24.5899234 L49.3965222,47.1103064 L55.1071974,46.224416 L55.2753773,44.4511575 C56.0031647,36.7670373 63.8421343,18.9154962 70.7293248,18.9154962 C73.1924907,18.9154962 74.4806297,20.9850366 74.4806297,25.240857 C74.4806297,31.9777616 69.8333575,42.20503 71.7927278,47.1103064 Z M42.2912932,9.87113899 C42.571097,7.80307626 43.2430724,6.73986002 45.7069825,6.56179531 L49.1219276,6.32536085 L48.7305,3.30934368 L32.5487652,3.30934368 L32.1565935,6.32536085 L35.5164708,6.56179531 C37.9796367,6.73912116 38.5399883,7.80307626 38.2601846,9.87113899 L35.9644544,27.1315939 C34.4523236,38.7168828 29.189632,43.2682463 20.7903107,43.2682463 C12.7280935,43.2682463 7.96845327,38.9533173 9.48058411,27.8992671 L11.8321262,9.87113899 C12.1119299,7.80307626 13.119521,6.79896864 15.5834311,6.56179531 L18.3829568,6.32536085 L17.990785,3.30934368 L0.57746729,3.30934368 L0.18603972,6.32536085 L3.04137734,6.56179531 C5.50528738,6.73912116 5.95327103,7.80307626 5.67272313,9.87113899 L2.92900935,30.4424153 C1.58580257,40.9031628 7.46465771,47.1103064 17.9349731,47.1103064 C30.5893949,47.1103064 38.3159965,40.076381 40.4435467,23.9995761 L42.2912932,9.87113899 Z" transform="translate(0 151)"/>
    <path fill="#000" fill-rule="nonzero" d="M454.66484,46.0301242 L469.781638,46.0301242 L470.117997,43.6106308 L467.822274,43.3753203 C465.638918,43.1392722 465.022756,42.1353299 465.022756,40.0706464 L465.022756,32.1630338 L468.94223,29.4484803 L476.836988,39.421514 C478.683984,41.7229833 478.236746,43.0802601 475.772099,43.3753203 L473.812735,43.6106308 L474.14835,46.0301242 L490.106045,46.0301242 L490.440916,43.6106308 L488.369928,43.3753203 C487.138348,43.2572962 485.962581,42.4901398 484.338831,40.4247186 L473.475632,26.3208425 L480.418614,21.2458075 C482.659269,19.5934706 484.226463,18.7673021 486.410563,18.3542179 L486.074948,15.9347245 L472.860214,15.9347245 L472.5246,18.3542179 L474.820323,18.5895284 C475.940279,18.7075524 476.444073,19.0033502 476.444073,19.5927329 C476.444073,20.1238412 476.108458,20.6549495 475.100126,21.422106 L465.023501,29.2116945 L465.023501,10.0917955 C465.023501,6.96415766 465.247492,3.89553189 465.807098,1.4760385 L464.015912,0.29506017 C461.272207,0.708882058 458.024707,2.71455356 453.826175,3.18664984 L454.161046,5.84292902 L456.232778,5.78391698 C458.248698,5.72490495 459.424466,6.84539594 459.424466,9.38365106 L459.424466,40.0699087 C459.424466,42.1353299 458.752492,43.1385345 456.624948,43.3745826 L454.329225,43.6098931 L454.66484,46.0301242 Z M434.117186,43.3155706 C428.014357,43.3155706 423.42291,39.0076921 423.42291,31.1590916 C423.42291,23.8415994 427.118392,18.6485404 432.885607,18.6485404 C438.988435,18.6485404 443.579882,22.9564189 443.579882,30.8050194 C443.579882,38.1225116 439.8844,43.3155706 434.117186,43.3155706 Z M431.205301,46.9153047 C441.563962,46.9153047 449.682711,38.9486801 449.682711,29.3887306 C449.682711,20.9500097 444.811461,15.0488063 435.796748,15.0488063 C425.438831,15.0488063 417.320082,23.0154309 417.320082,32.5753804 C417.320082,41.0141013 422.191331,46.9153047 431.205301,46.9153047 Z M395.037054,43.3155706 C388.933481,43.3155706 384.342779,39.0076921 384.342779,31.1590916 C384.342779,23.8415994 388.038261,18.6485404 393.804731,18.6485404 C399.908304,18.6485404 404.499751,22.9564189 404.499751,30.8050194 C404.499006,38.1225116 400.804269,43.3155706 395.037054,43.3155706 Z M392.124425,46.9153047 C402.483086,46.9153047 410.601835,38.9486801 410.601835,29.3887306 C410.601835,20.9500097 405.729842,15.0488063 396.715872,15.0488063 C386.357211,15.0488063 378.238462,23.0154309 378.238462,32.5753804 C378.238462,41.0141013 383.109711,46.9153047 392.124425,46.9153047 Z M351.425009,42.4894021 C348.457312,42.4894021 346.609571,40.482993 346.553759,37.6504153 L346.329768,25.3751746 L346.329768,24.9620904 L354.167226,24.9620904 C361.279131,24.9620904 365.253672,28.1480026 365.253672,33.2820495 C365.253672,39.0659665 361.446567,42.4879268 354.8392,42.4879268 L351.425009,42.4879268 L351.425009,42.4894021 Z M351.928803,6.49206139 C358.031632,6.49206139 360.999329,8.91155478 360.999329,13.4547438 C360.999329,16.229047 359.93444,19.0026126 357.079111,21.5393924 L346.384836,21.5393924 L346.553759,6.49206139 L351.928803,6.49206139 Z M334.79534,46.0301242 L350.752291,46.0301242 C364.750622,46.0301242 371.468869,39.8936103 371.468869,31.808224 C371.468869,26.3798545 367.493584,22.4843226 360.886217,21.7171662 C365.701655,18.0584201 367.213781,14.8134958 367.213781,11.5670963 C367.213781,6.31502529 363.74229,3.18738749 355.063191,3.18738749 L334.738784,3.18738749 L334.346613,6.19700122 L337.201943,6.43304936 C339.666589,6.61008546 340.337819,7.67230207 340.39363,9.73698561 L340.617622,25.3751746 L340.39363,39.4790507 C340.337819,41.5444719 339.665845,42.5476765 337.201943,42.7837246 L334.402425,43.0190351 L334.79534,46.0301242 Z M295.266482,18.4722419 C299.689005,18.4722419 303.160496,22.012964 303.385231,27.9731794 L286.251768,27.9731794 C287.204289,22.4253106 291.067206,18.4722419 295.266482,18.4722419 Z M294.706876,46.9153047 C300.977884,46.9153047 305.849134,45.2039557 309.936042,42.194342 L308.592839,40.0108967 C305.84839,41.5452096 302.321087,42.5484142 298.009443,42.5484142 C290.675035,42.5484142 286.084333,38.6536199 286.027777,31.3951397 L307.079969,31.3951397 L309.48806,29.3887306 C309.48806,19.4747089 304.392075,15.0488063 297.673085,15.0488063 C288.435124,15.0488063 279.92346,22.6613587 279.92346,32.5753804 C279.924948,41.0141013 285.188368,46.9153047 294.706876,46.9153047 Z M245.804621,31.1000796 C245.804621,23.7825874 249.835717,18.6485404 255.937802,18.6485404 C259.241858,18.6485404 261.817384,19.4747089 264.056551,21.3048196 L264.056551,39.3027523 C262.041375,41.7812577 259.354225,43.3155706 256.385784,43.3155706 C250.67587,43.3155706 245.804621,39.4797884 245.804621,31.1000796 Z M253.643567,46.9153047 C257.619596,46.9153047 261.650693,45.4400038 264.562578,43.0205104 C264.897448,44.2605008 265.51361,45.4990159 266.353019,46.4439461 L266.745189,46.9160423 C269.209092,46.5619701 271.504815,44.4375369 275.256109,44.0244527 L274.920495,41.3689111 L272.848762,41.4271855 C270.833586,41.4861976 269.657819,40.3657066 269.657819,37.8274514 L269.657819,10.0917955 C269.657819,6.96415766 269.881066,3.89553189 270.441416,1.4760385 L268.649486,0.29506017 C265.905781,0.708882058 262.658281,2.71455356 258.459749,3.18664984 L258.796108,5.84292902 L260.867096,5.78391698 C262.882272,5.72490495 264.05804,6.84539594 264.05804,9.38365106 L264.05804,15.9929989 C262.322666,15.3438665 260.306746,15.0488063 258.011023,15.0488063 C247.373303,15.0488063 239.702536,23.4285151 239.702536,32.5753804 C239.701792,41.0141013 244.628853,46.9153047 253.643567,46.9153047 Z M219.4838,46.0301242 L234.600598,46.0301242 L234.936957,43.6106308 L232.641234,43.3753203 C230.457134,43.1392722 229.841716,42.1353299 229.841716,40.0706464 L229.841716,24.8455416 C229.841716,21.7179038 230.065707,18.649278 230.625313,16.2297847 L228.833384,15.0488063 C226.089678,15.4626282 222.842923,17.4682997 218.643647,17.940396 L218.979261,20.5966752 L221.050993,20.5376631 C223.06617,20.4786511 224.242681,21.5991421 224.242681,24.1373972 L224.242681,40.0706464 C224.242681,42.1360676 223.571452,43.1392722 221.44242,43.3753203 L219.147441,43.6106308 L219.4838,46.0301242 Z M226.650772,9.38365106 C229.002307,9.38365106 230.961672,7.31822987 230.961672,4.83972444 C230.961672,2.30220698 229.002307,0.29579782 226.650772,0.29579782 C224.299237,0.29579782 222.339129,2.30220698 222.339129,4.83972444 C222.339129,7.31822987 224.299237,9.38365106 226.650772,9.38365106 Z M166.723836,46.9153047 L169.131183,46.9153047 L180.945414,17.3502756 L192.759645,46.9153047 L195.11118,46.9153047 L209.55675,10.3278436 C210.507782,8.02637427 212.020652,6.49206139 214.875237,6.2552756 L215.603767,6.19626357 L215.21234,3.18664984 L200.990018,3.18664984 L200.599336,6.19626357 L204.125894,6.49132374 C205.861268,6.60934781 206.70142,7.73057645 205.693832,10.3271059 L197.96651,29.6233034 C197.517783,30.7452697 196.231136,33.9319195 195.502607,36.5277114 C194.774077,33.9311819 193.486686,30.7445321 193.038704,29.6233034 L185.032323,10.3271059 C184.079802,7.96662459 184.52704,6.66835984 186.432081,6.49132374 L189.959384,6.19626357 L189.567213,3.18664984 L172.770853,3.18664984 L172.379427,6.19626357 L173.723374,6.31428764 C176.13072,6.55033577 177.139053,7.25848018 178.426444,10.3271059 L179.210041,12.0967293 L172.099624,29.6233034 C171.650897,30.8042817 170.195327,34.049206 169.41173,36.6464731 C168.683201,34.049206 167.284186,30.8042817 166.836204,29.6233034 L159.053813,10.3271059 C158.102037,7.96662459 158.548531,6.66835984 160.453572,6.49132374 L163.980875,6.19626357 L163.588704,3.18664984 L146.287806,3.18664984 L145.896379,6.19626357 L147.239582,6.31428764 C149.646929,6.55033577 150.711817,7.25848018 151.942652,10.3271059 L166.723836,46.9153047 Z M101.214981,38.0044875 C101.214981,34.7005513 103.174345,32.7524165 108.549389,32.7524165 C110.845112,32.7524165 113.644629,32.8704406 115.996909,33.1662384 L115.996909,38.5355959 C113.756997,41.9000194 110.621121,43.5523564 107.206186,43.5523564 C103.622327,43.5523564 101.214981,40.8960772 101.214981,38.0044875 Z M105.358445,46.9153047 C109.389542,46.9153047 113.420638,45.1449437 116.332523,42.253354 C116.668138,43.5523564 117.396667,45.0276572 118.348444,46.4439461 L118.684058,46.9160423 C121.147961,46.5619701 123.443684,44.4375369 127.195722,44.0244527 L126.858619,41.3689111 L124.787631,41.4271855 C122.771711,41.4861976 121.595943,40.3657066 121.595943,37.8274514 L121.595943,25.9660326 C121.595943,18.8845885 117.901206,15.0488063 110.397874,15.0488063 C105.359189,15.0488063 100.823554,16.9379291 98.5278309,18.9436006 C98.5278309,21.1270458 99.0881809,22.8383948 98.8641897,26.0250446 L101.383904,26.0250446 L101.999322,23.3104911 C102.783663,19.710757 104.295045,18.7075524 108.438509,18.7075524 C113.029956,18.7075524 115.997653,21.1860579 115.997653,27.5593575 L115.997653,29.5665043 L108.998115,29.5665043 C100.711931,29.5665043 95.4485106,34.2867294 95.4485106,39.3027523 C95.4477664,43.6696428 99.0308808,46.9153047 105.358445,46.9153047 Z M52.396815,46.0301242 L67.5143577,46.0301242 L67.8507165,43.6106308 L65.5549932,43.3753203 C63.3708934,43.1392722 62.7554758,42.1353299 62.7554758,40.0706464 L62.7554758,22.6030843 C64.7148403,20.1835909 68.1863311,18.649278 71.4896426,18.649278 C76.6414392,18.649278 79.6649477,21.0097594 79.6649477,28.5632998 L79.6649477,40.0706464 C79.6649477,42.1360676 78.9929742,43.1392722 76.8654303,43.3753203 L74.569707,43.6106308 L74.9053217,46.0301242 L90.0228644,46.0301242 L90.3592232,43.6106308 L88.0634998,43.3753203 C85.8794,43.1392722 85.2639825,42.0770555 85.2639825,40.0706464 L85.2639825,26.2618304 C85.2639825,18.2361938 81.4561328,14.9315199 73.8977336,14.9315199 C69.5302781,14.9315199 65.331002,16.4658328 62.3633052,19.0040879 C62.2516817,18.1779194 62.2516817,17.1747148 62.419117,16.2305223 L60.6279319,15.049544 C57.8842263,15.4633659 55.7566824,17.4690374 51.5574063,17.9411336 L51.8930209,20.5974128 L53.9647531,20.5384008 C55.9806735,20.4793887 57.156441,21.5998797 57.156441,24.1381349 L57.156441,40.071384 C57.156441,42.1368052 56.4844676,43.1400098 54.3569237,43.3760579 L52.0612004,43.6113684 L52.396815,46.0301242 Z M23.4223311,46.9153047 C36.0767152,46.9153047 43.0755086,39.7158365 42.8515175,23.4875272 L42.7949615,18.8845885 L42.8515175,9.73772326 C42.8515175,7.67230207 43.3553115,6.61082311 45.8184701,6.43378701 L49.2341492,6.19773887 L48.8419786,3.18812514 L32.6610361,3.18812514 L32.2688655,6.19773887 L35.6287329,6.43378701 C38.0918914,6.61082311 38.8196766,7.67303972 38.8196766,9.73772326 L38.8762325,18.8845885 L38.8196766,27.0872613 C38.7638649,38.712632 34.1166065,43.0795225 25.7738661,43.0795225 C17.7109286,43.0795225 12.4482527,38.771644 12.392441,27.7363936 L12.3358851,18.8845885 L12.392441,9.73772326 C12.392441,7.67230207 13.1202262,6.66983514 15.5833847,6.43378701 L18.3829021,6.19773887 L17.9914757,3.18812514 L0.578209729,3.18812514 L0.186039166,6.19773887 L3.04136829,6.43378701 C5.50527101,6.61082311 6.23305623,7.67303972 6.23305623,9.73772326 L6.28886798,18.8845885 L6.23305623,30.2739111 C6.17724448,40.7190411 12.9520468,46.9153047 23.4223311,46.9153047 Z" transform="translate(0 75)"/>
    <path fill="#000" fill-rule="nonzero" d="M429.827725,45.7380146 L443.492863,45.7380146 L443.716161,43.6135814 L441.476475,43.4365453 C439.348438,43.2602468 438.732134,42.2563046 438.732134,40.132609 L438.732134,22.1339387 C440.915995,19.7144453 444.500684,18.121858 447.524149,18.121858 C453.90826,18.121858 456.596776,21.1314717 456.596776,28.4489639 L456.596776,40.1333467 C456.596776,42.2577799 455.924647,43.2609845 453.851691,43.4372829 L451.61126,43.614319 L451.835303,45.7387523 L465.500441,45.7387523 L465.780309,43.614319 L463.540623,43.4372829 C461.355272,43.2609845 460.739712,42.1390182 460.739712,40.1333467 L460.739712,26.2065066 C460.739712,18.8890144 456.706937,15.0532322 449.146786,15.0532322 C445.003106,15.0532322 441.137805,16.5285331 438.394953,18.8300024 C438.338384,18.0038339 438.338384,17.0596414 438.562427,16.0556992 L437.330562,14.9942202 C434.699359,15.4663165 432.962839,17.2956895 428.985888,17.7677858 L429.265756,19.892219 L431.393793,19.833207 C433.410181,19.7741949 434.586221,20.8954236 434.586221,23.4329411 L434.586221,40.1340843 C434.586221,42.2585175 433.914091,43.2617221 431.786055,43.4380206 L429.54488,43.6150567 L429.827725,45.7380146 Z M409.195666,45.7380146 L422.860804,45.7380146 L423.140672,43.6135814 L420.845161,43.4365453 C418.71638,43.2602468 418.100075,42.2563046 418.100075,40.132609 L418.100075,24.6124441 C418.100075,21.4848063 418.268294,18.4161805 418.828774,15.9376751 L417.372866,14.9934825 C414.907648,15.4655788 411.995832,17.3539639 408.356063,17.7670481 L408.635931,20.0685175 L410.763968,20.0095054 C412.780355,19.9504934 413.956395,21.071722 413.956395,23.6092395 L413.956395,40.132609 C413.956395,42.2570422 413.284266,43.2602468 411.155485,43.4365453 L408.85923,43.6135814 L409.195666,45.7380146 Z M415.636346,9.09154149 C417.483771,9.09154149 418.884598,7.26216843 418.884598,4.72465097 C418.884598,2.12738383 417.483771,0.357760456 415.636346,0.357760456 C413.731608,0.357760456 412.332269,2.12738383 412.332269,4.72465097 C412.332269,7.26216843 413.732352,9.09154149 415.636346,9.09154149 Z M366.756254,45.7380146 L380.420648,45.7380146 L380.700516,43.6135814 L378.40426,43.4365453 C376.220399,43.2602468 375.660663,42.2563046 375.660663,40.132609 L375.660663,22.1339387 C377.844525,19.7144453 381.428469,18.121858 384.452678,18.121858 C390.837534,18.121858 393.52605,21.1314717 393.52605,28.4489639 L393.52605,40.1333467 C393.52605,42.2577799 392.853921,43.2609845 390.781709,43.4372829 L388.484709,43.614319 L388.765321,45.7387523 L402.429715,45.7387523 L402.765407,43.614319 L400.469152,43.4372829 C398.284546,43.2609845 397.668986,42.1390182 397.668986,40.1333467 L397.668986,26.2065066 C397.668986,18.8890144 393.636955,15.0532322 386.07606,15.0532322 C382.099854,15.0532322 378.347691,16.410509 375.659919,18.5349422 L375.659919,9.62412509 C375.659919,6.49648729 375.827393,3.42859918 376.331304,1.00836813 L374.875396,0.00516355297 C372.467491,0.477997475 369.611501,2.36564491 365.915162,2.77872915 L366.19503,5.13921051 L368.322323,5.08019848 C370.33871,5.02118644 371.51475,6.14241509 371.51475,8.67993255 L371.51475,40.1340843 C371.51475,42.2585175 370.843365,43.2617221 368.770409,43.4380206 L366.474153,43.6150567 L366.756254,45.7380146 Z M332.095825,45.7380146 L349.344908,45.7380146 L349.681345,43.023461 L346.320699,42.7874129 C343.801145,42.6103768 343.129016,41.6071722 343.072447,39.5424887 L342.792579,25.1428147 L343.072447,5.72785555 L350.017037,5.72785555 C353.937418,5.72785555 355.729763,7.08586998 356.457717,10.56758 L357.577932,16.0549615 L360.09823,16.0549615 C359.874187,12.1609049 360.657966,5.5515571 360.657966,2.65996743 C357.689581,2.89527792 354.218031,2.89527792 349.792994,2.89527792 L331.647739,2.89527792 C327.223447,2.89527792 323.751152,2.89527792 320.782023,2.65996743 C320.782023,5.5515571 321.56729,12.1609049 321.287423,16.0549615 L323.863546,16.0549615 L324.927192,10.56758 C325.599321,7.02685795 327.503315,5.72785555 331.367871,5.72785555 L338.312462,5.72785555 L338.59233,25.1428147 L338.312462,39.5424887 C338.256637,41.6079099 337.583764,42.6103768 335.06421,42.7874129 L331.760133,43.023461 L332.095825,45.7380146 Z M283.933267,18.0613707 C288.469953,18.0613707 291.941503,20.7759242 292.109722,27.8566306 L274.075372,27.8566306 C275.140507,22.074189 279.509719,18.0613707 283.933267,18.0613707 Z M283.59683,46.6231951 C289.701817,46.6231951 293.846242,44.675798 297.599149,42.0202565 L296.423109,40.1318714 C293.790417,41.4301361 290.373946,42.7874129 286.172953,42.7874129 C278.669371,42.7874129 273.852073,38.8343443 273.852073,31.398828 L273.852073,30.9259941 L295.133931,30.9259941 L296.869706,29.0973587 C296.869706,19.242349 291.773285,14.9934825 285.78218,14.9934825 C276.541334,14.9934825 269.204482,22.4880109 269.204482,32.2832708 C269.203738,40.7219917 274.692421,46.6231951 283.59683,46.6231951 Z M235.383657,31.3390783 C235.383657,23.4897401 240.144386,18.2966811 246.248629,18.2966811 C249.609275,18.2966811 252.185398,19.1228496 254.817345,21.1299964 L254.817345,39.1279291 C252.690053,41.6654466 249.441056,43.3177836 246.192804,43.3177836 C240.144386,43.3185212 235.383657,39.423727 235.383657,31.3390783 Z M244.401204,46.6231951 C248.265016,46.6231951 252.353616,45.0888822 255.097213,42.6693888 C255.377825,43.9093792 255.881736,45.2069063 256.60969,46.1518365 L256.889558,46.6239328 C259.185813,46.2108485 261.146376,44.2044394 264.562846,43.7913551 L264.282978,41.4898858 L262.154197,41.5488978 C260.138554,41.6079099 258.962514,40.4866812 258.962514,37.9491638 L258.962514,9.62338744 C258.962514,6.49574964 259.186557,3.42786152 259.691212,1.00763048 L258.23456,0.00442590255 C255.826656,0.477259825 252.91484,2.36490726 249.218502,2.7779915 L249.49837,5.13847286 L251.626406,5.07946083 C253.642794,5.02044879 254.81809,6.14167744 254.81809,8.6791949 L254.81809,16.0556992 C253.08157,15.4065668 251.066671,15.0532322 248.433979,15.0532322 C238.128743,15.0532322 230.849204,23.6689892 230.849204,32.4617823 C230.84846,41.3711241 237.063608,46.6231951 244.401204,46.6231951 Z M212.187385,45.7380146 L225.852523,45.7380146 L226.132391,43.6135814 L223.836135,43.4365453 C221.708098,43.2602468 221.09105,42.2563046 221.09105,40.132609 L221.09105,24.6124441 C221.09105,21.4848063 221.259268,18.4161805 221.819748,15.9376751 L220.36384,14.9934825 C217.898622,15.4655788 214.986807,17.3539639 211.347037,17.7670481 L211.626905,20.0685175 L213.755686,20.0095054 C215.770585,19.9504934 216.946625,21.071722 216.946625,23.6092395 L216.946625,40.132609 C216.946625,42.2570422 216.27524,43.2602468 214.146459,43.4365453 L211.850204,43.6135814 L212.187385,45.7380146 Z M218.628065,9.09154149 C220.475489,9.09154149 221.875572,7.26216843 221.875572,4.72465097 C221.875572,2.12738383 220.475489,0.357760456 218.628065,0.357760456 C216.723326,0.357760456 215.323988,2.12738383 215.323988,4.72465097 C215.323243,7.26216843 216.723326,9.09154149 218.628065,9.09154149 Z M160.131985,46.6231951 L162.53989,46.6231951 L174.18864,17.1761901 L185.893959,46.6231951 L188.301864,46.6231951 L202.415088,9.68166183 C203.198867,7.61624064 204.654774,6.19995182 207.399116,5.72785555 L208.463506,5.5515571 L208.071245,2.89527792 L194.01459,2.89527792 L193.622328,5.5515571 L195.863503,5.72785555 C198.886968,5.96390369 199.503273,7.5572286 198.047365,11.3937485 L190.822907,30.3956234 L187.799442,38.362248 L184.607014,30.3956234 L176.542209,10.0954837 C175.590212,7.67599032 176.093378,5.90489165 178.613677,5.72785555 L181.470412,5.5515571 L181.078895,2.89527792 L165.78963,2.89527792 L165.397369,5.5515571 L166.573409,5.66958117 C168.81384,5.90489165 170.269747,7.02685795 171.334138,9.68166183 L172.621083,12.8683117 L165.620668,30.3948858 L162.260766,38.7745946 L159.068339,30.3948858 L151.33997,10.0947461 C150.443797,7.67525267 150.891884,5.904154 153.412182,5.7271179 L156.268173,5.55081945 L155.875911,2.89454027 L140.475742,2.89454027 L140.083481,5.55081945 L141.259521,5.66884352 C143.499951,5.904154 145.012428,7.0261203 146.02025,9.68092418 L160.131985,46.6231951 Z M95.9522085,37.9484261 C95.9522085,34.5249905 98.13607,32.4005573 103.904621,32.4005573 C107.097048,32.4005573 109.337479,32.7546295 111.63299,33.3447498 L111.63299,38.4787968 C108.889393,41.9605068 105.976833,43.2587715 102.280494,43.2587715 C98.5283315,43.2602468 95.9522085,40.8990278 95.9522085,37.9484261 Z M101.272673,46.6231951 C105.024836,46.6231951 108.889393,45.0888822 111.857033,42.3743287 C112.081076,43.7316054 112.584986,45.0298702 113.425334,46.1510988 L113.705202,46.6231951 C116.001457,46.2101109 117.96202,44.2037017 121.377746,43.7906175 L121.097878,41.4891482 L118.969842,41.5481602 C116.953454,41.6071722 115.777414,40.4859436 115.777414,37.9484261 L115.777414,26.7361397 C115.777414,18.3564308 112.193469,14.9927449 105.360528,14.9927449 C100.768762,14.9927449 96.7918117,16.7623683 94.5521254,18.8285271 C94.5521254,20.9529603 95.0560362,22.6635717 94.8878178,25.7321974 L96.9042054,25.7321974 L97.5763346,22.8996198 C98.3601131,19.5956835 99.9842392,18.1203827 104.072839,18.1203827 C109.001042,18.1203827 111.63299,20.3038279 111.63299,27.385272 L111.63299,29.4506932 L103.792971,29.4506932 C95.4482977,29.4506932 91.583741,33.5822732 91.583741,38.5975585 C91.583741,42.964449 95.0002115,46.6231951 101.272673,46.6231951 Z M50.7907847,45.7380146 L64.4551783,45.7380146 L64.6792214,43.6135814 L62.4395351,43.4365453 C60.3114982,43.2602468 59.6951937,42.2563046 59.6951937,40.132609 L59.6951937,22.1339387 C61.8790553,19.7144453 65.4637442,18.121858 68.4879534,18.121858 C74.872064,18.121858 77.5605808,21.1314717 77.5605808,28.4489639 L77.5605808,40.1333467 C77.5605808,42.2577799 76.8884516,43.2609845 74.8162394,43.4372829 L72.5758088,43.614319 L72.7998518,45.7387523 L86.4649898,45.7387523 L86.7448575,43.614319 L84.5051712,43.4372829 C82.3205653,43.2609845 81.7050052,42.1390182 81.7050052,40.1333467 L81.7050052,26.2065066 C81.7050052,18.8890144 77.6722301,15.0532322 70.1120795,15.0532322 C65.967655,15.0532322 62.1030984,16.5285331 59.358757,18.8300024 C59.3029323,18.0038339 59.3029323,17.0596414 59.5269753,16.0556992 L58.2951107,14.9942202 C55.663163,15.4663165 53.9266432,17.2956895 49.9504372,17.7677858 L50.2303049,19.892219 L52.3583418,19.833207 C54.3747293,19.7741949 55.5507693,20.8954236 55.5507693,23.4329411 L55.5507693,40.1340843 C55.5507693,42.2585175 54.8786401,43.2617221 52.7506032,43.4380206 L50.5101726,43.6150567 L50.7907847,45.7380146 Z M22.3075431,46.6231951 C34.572598,46.6231951 41.1807517,40.4269315 41.1807517,24.7887425 L41.1807517,19.1818617 L41.4047948,9.09080384 C41.4606195,7.02538265 42.1327486,6.02217807 44.653047,5.84514197 L47.7330808,5.60983148 L47.3973884,2.89454027 L31.4359952,2.89454027 L31.1561274,5.60983148 L34.2927302,5.84514197 C36.8122842,6.02217807 37.4844134,7.0261203 37.5409824,9.09080384 L37.7650255,19.1818617 L37.7650255,27.7983563 C37.7650255,38.5385465 32.3879921,43.1414851 24.2673616,43.1414851 C15.3071279,43.1414851 10.602968,39.0099051 10.546399,27.32626 L10.4905743,19.1825993 L10.7704421,9.09154149 C10.8270111,7.0261203 11.4983959,6.08192775 14.0186942,5.84587962 L16.5389926,5.61056913 L16.2033002,2.89527792 L0.465950016,2.89527792 L0.186082275,5.61056913 L2.76220529,5.84587962 C5.28250361,6.08192775 5.95463279,7.02685795 6.01045747,9.09154149 L6.29032521,19.1825993 L6.23450053,29.2153827 C6.17867585,40.4859436 11.946482,46.6231951 22.3075431,46.6231951 Z"/>
  </g>
</svg>
