<svg xmlns="http://www.w3.org/2000/svg" width="900" height="900" viewBox="0 0 900 900">
  <path fill-rule="evenodd" d="M589.769956,759 C581.895663,759 578.979258,756.961243 575.771213,753.174981 L174.182275,156.401765 C164.266499,141.547966 147.351351,110.675365 134.51917,85.0452801 L133.644249,606.384497 C133.644249,671.04221 150.559397,716.47736 174.473916,719.68112 L221.136392,725.50614 C223.177876,725.50614 223.177876,743.272448 221.136392,743.272448 L1.53111251,743.272448 C-0.510370836,743.272448 -0.510370836,725.50614 1.53111251,725.50614 L38.2778127,719.68112 C61.02577,715.603607 82.0238843,670.168457 84.0653677,606.384497 L100.980515,46.6001535 C100.980515,31.7463546 77.0659962,26.7950883 63.0672533,24.7563315 L16.4047769,18.9313124 C14.3632935,18.9313124 14.3632935,0 16.4047769,0 L176.515399,0 C184.389692,0 188.472659,2.03875672 190.514142,5.82501919 L530.566939,510.271681 C534.649906,517.261704 551.565053,548.134305 562.355751,570.85188 L562.355751,136.887951 C562.355751,72.2302379 545.440603,26.7950883 521.526084,23.5913277 L474.863608,17.7663085 C472.822124,17.7663085 472.822124,0 474.863608,0 L694.468887,0 C696.510371,0 696.510371,17.7663085 694.468887,17.7663085 L657.722187,23.5913277 C634.97423,27.6688411 613.101194,73.1039908 611.059711,136.887951 L594.144563,757.252494 C593.561282,759 590.644877,759 589.769956,759 Z" transform="translate(0 141)"/>
</svg>
