<svg xmlns="http://www.w3.org/2000/svg" xmlns:xlink="http://www.w3.org/1999/xlink" width="700" height="462" viewBox="0 0 700 462">
  <defs>
    <polygon id="family-a" points=".009 .286 14.467 .286 14.467 62.807 .009 62.807"/>
    <polygon id="family-c" points=".049 .167 27.698 .167 27.698 38.808 .049 38.808"/>
    <polygon id="family-e" points="0 .499 41.772 .499 41.772 58.89 0 58.89"/>
    <polygon id="family-g" points=".122 .346 29.816 .346 29.816 50 .122 50"/>
    <polygon id="family-i" points=".031 .315 45.618 .315 45.618 42.023 .031 42.023"/>
    <polygon id="family-k" points=".338 .284 25.785 .284 25.785 63 .338 63"/>
    <polygon id="family-m" points=".193 .388 24.745 .388 24.745 60.016 .193 60.016"/>
    <polygon id="family-o" points=".524 .002 38.588 .002 38.588 41 .524 41"/>
  </defs>
  <g fill="none" fill-rule="evenodd">
    <path fill="#000" d="M55.6990752 46.976127C55.6990752 48.3731278 55.6990752 50.0166582 55.7810362 51.906718 55.9466085 56.0149961 56.6892082 56.7551326 58.5044522 57.0832908 58.6689243 57.4941734 58.6689243 58.233762 58.5044522 58.6446446 49.0987383 60.0416454 46.5408946 63 36.1444975 63 19.478358 63 9 51.1665815 9 35.1432564 9 15.093282 22.283735 4 36.8045862 4 41.4252071 4 46.7884278 4.73904081 51.1615155 7.36868935 53.3057036 8.68351363 53.9668924 9.25874925 54.2963867 6.71127722 54.6264311 6.54692418 55.4515419 6.62964854 55.8640974 6.95780677L57.1017637 20.7629138C56.6892082 20.9272668 55.9466085 20.9272668 55.534053 20.7629138 50.0883212 12.4636334 43.2404511 8.02610149 33.8341871 8.02610149 23.5214013 8.02610149 15.682848 15.7501462 15.682848 30.0488602 15.682848 46.2365384 24.0159178 59.2204281 38.9504246 59.2204281 43.2404511 59.2204281 47.2829443 58.233762 49.8413381 56.2615256 49.6757658 38.3481406 48.6861828 37.6907284 40.9301406 36.2937277 40.6826074 35.8828451 40.6826074 35.1432564 40.9301406 34.7323738 46.4578334 35.0610799 48.1911163 35.4719625 52.9762093 35.4719625 57.3487469 35.4719625 57.431258 35.0610799 60.8147626 34.7323738 61.0617458 35.1432564 61.0617458 35.8828451 60.8147626 36.2937277 56.3591639 37.3620224 55.6990752 38.0188867 55.6990752 46.976127M91.7910574 38C92.0325392 32.8985189 88.0078427 28.455842 82.9372617 28.455842 77.3831804 28.455842 74.4054416 32.5699397 73.4389778 37.917718L91.7910574 38zM91.0666121 41.0444323L73.1170021 40.9616018 73.1170021 41.7844213C73.1170021 50.7531541 76.4177899 59.4744926 85.996031 59.4744926 90.5031545 59.4744926 92.6764907 58.4048272 96.0566991 55.7718047 96.5401994 55.8546352 97.0231629 56.1832145 97.2641081 56.8420187 94.6888389 61.4492595 89.0542638 64 83.7416644 64 73.2785266 64 67 55.2786615 67 45.1585299 67 33.5567745 74.002972 25 84.4666464 25 93.6418812 25 99.8404505 32.6516731 97.5055899 41.0444323L91.0666121 41.0444323zM132 30.1857222C132 34.3991215 128.783145 35.5329581 128.783145 35.3714444 128.783145 32.130368 126.450926 30.347776 123.394914 30.2662089 117.605111 30.2662089 114.549099 35.9380926 114.549099 42.0961377L114.549099 45.3372141C114.549099 59.434816 115.031627 59.9215176 119.696067 61.4604887 119.937331 61.7041096 119.85691 62.8379462 119.696067 63 117.122583 62.6758924 114.469214 62.2707578 111.734351 62.2707578 108.678339 62.2707578 106.668341 62.6758924 105.059914 63 104.980029 62.6758924 104.980029 61.7845964 105.059914 61.4604887 109.000561 60.0020043 109.160868 59.2733023 109.160868 45.255647L109.160868 43.7166759C109.160868 33.5072853 108.92014 30.5908568 105.059914 30.1857222 104.980029 29.8610744 104.980029 28.9703186 105.059914 28.6456707 107.713819 28.565184 111.09098 27.1877266 112.940672 25.2430807 113.4232 25.0810269 114.067107 25 114.549099 25.2430807 114.469214 25.891296 114.549099 29.8610744 114.549099 33.2642046 117.042162 28.6456707 121.304494 25 126.12924 25 129.185252 25 132 26.9446458 132 30.1857222M160.489714 45.1122508L160.489714 43.7223044 160.40843 43.804066 160.40843 43.7223044C151.46838 44.0493506 143.177511 47.6463137 143.177511 54.1872375 143.177511 57.1306533 144.965737 59.7470228 148.866781 59.7470228 155.206316 59.7470228 160.489714 52.9608143 160.489714 45.1122508M170.812117 60.4011152C167.317488 60.4823317 163.903601 62.1175627 162.034091 63.8351003 161.383827 64.1616014 160.652821 63.9163167 160.40843 63.8351003 160.733563 62.3628473 160.977412 59.0111689 161.059237 54.105476 157.482783 60.8911394 152.036278 63.8351003 146.347007 63.8351003 140.088755 63.8351003 137 59.7470228 137 55.004853 137 45.6845816 149.436304 41.7600273 160.489714 40.8606502 160.327147 33.9932252 158.295072 28.6787246 151.386555 28.6787246 145.696743 28.6787246 144.23419 32.3579943 144.071082 37.2636872 140.413346 37.9172345 138.300529 36.4460717 138.300529 34.402033 138.300529 29.1692939 149.11063 25 154.637877 25 162.521789 25 165.854394 30.3957171 165.854394 38.4901104L165.854394 51.2438218C165.854394 57.539461 166.422833 58.0300303 170.812117 58.8471007 171.137249 59.174692 170.975225 60.073524 170.812117 60.4011152M215.814278 62C214.163414 61.6748356 212.099835 61.2690565 208.963194 61.2690565 206.156726 61.2690565 203.433352 61.6748356 200.79197 62 200.544341 61.513065 200.544341 60.9449742 200.79197 60.4574982 205.74401 58.9160785 205.99164 58.4286024 205.99164 44.3085701L205.99164 39.7638437C205.99164 30.7560876 202.525377 28.2407979 197.490243 28.2407979 192.538203 28.2407979 186.925267 33.0284508 186.925267 41.3869603L186.925267 44.3085701C186.925267 58.4286024 187.419975 58.9160785 192.20803 60.4574982 192.455659 60.9449742 192.455659 61.513065 192.20803 62 189.566648 61.6748356 186.843274 61.2690565 184.036806 61.2690565 180.899615 61.2690565 178.836586 61.6748356 177.185722 62 176.938093 61.513065 176.938093 60.9449742 177.185722 60.4574982 181.229788 58.9972343 181.394874 58.2668318 181.394874 44.2268733L181.394874 42.6854535C181.394874 32.459819 181.147795 29.5387501 177.185722 29.132971 176.938093 28.646036 176.938093 28.0779452 177.185722 27.5910102 179.909647 27.5098544 183.37591 26.1302053 185.274403 24.1830064 185.852205 23.9389979 186.347464 23.9389979 186.925267 24.1830064 186.843274 25.7244261 186.843274 28.9706593 186.843274 32.3792042 190.144451 26.6176813 194.684325 24.0206947 200.296711 24.0206947 205.909647 24.0206947 211.522033 27.672166 211.522033 36.9233896L211.522033 44.2268733C211.605126 58.2668318 211.934749 58.9972343 215.814278 60.4574982 216.061907 60.9449742 216.061907 61.513065 215.814278 62M223.614798 10.1607459C223.614798 7.66429837 225.258089 6 227.764813 6 230.185656 6 231.741911 7.66429837 231.741911 10.1607459 231.741911 12.7398536 230.185656 14.4879217 227.764813 14.4879217 225.258089 14.4879217 223.614798 12.7398536 223.614798 10.1607459M221.194532 61.4189166C225.43043 59.921048 225.603923 59.1726685 225.603923 44.7764876L225.603923 43.195959C225.603923 32.7108793 225.343971 29.715697 221.194532 29.2996224 220.935156 28.8003329 220.935156 28.2178284 221.194532 27.7179842 224.047091 27.635324 227.505437 26.2206704 229.666904 24.2235124 230.272691 23.9738676 230.790866 23.9738676 231.396077 24.2235124 231.223159 29.5487124 231.396077 32.4612345 231.396077 42.7798844L231.396077 44.7764876C231.396077 59.1726685 231.568994 59.921048 235.805468 61.4189166 236.064844 61.9182061 236.064844 62.5012653 235.805468 63 234.162754 62.6671403 232.174205 62.1678508 228.283565 62.2510657 224.825795 62.3342807 222.83667 62.6671403 221.194532 63 220.935156 62.5012653 220.935156 61.9182061 221.194532 61.4189166M278.812233 60.4339141C275.31976 60.5153465 271.907978 62.1549263 270.039622 63.8770315 269.71469 64.0409895 268.902361 64.0409895 268.414964 63.8770315 268.739354 62.4014098 268.984135 59.1222503 269.064827 54.2854901 265.571812 61.007767 260.860846 63.8770315 255.255776 63.8770315 249.73248 63.8770315 244.209185 60.1879771 244.209185 50.8423726L244.209185 43.3828314C244.12741 34.2017314 244.452342 30.594656 240.14754 30.512677 239.9033 29.6928871 239.984532 29.1190342 240.228773 28.6271603 242.908917 28.5451813 246.158233 27.152085 248.026048 25.1840428 248.59522 24.9386524 249.082617 24.9386524 249.650706 25.1840428 249.569473 26.4137276 249.569473 34.4476683 249.650706 43.3008524L249.650706 47.9731081C249.650706 57.0727756 253.062487 59.6141242 258.017694 59.6141242 263.053592 59.6141242 268.414964 54.3674691 268.414964 45.3497805L268.414964 40.0216929C268.414964 33.5458995 268.171806 30.594656 264.272086 30.512677 264.028387 29.6928871 264.110162 29.1190342 264.353319 28.6271603 267.034004 28.5451813 270.445786 27.152085 272.314143 25.1840428 272.882773 24.9386524 273.37017 24.9386524 273.938259 25.1840428 273.857568 26.3322952 273.857568 33.2179835 273.857568 40.1856509L273.857568 51.2522676C273.857568 57.5646495 274.425657 58.0565235 278.812233 58.8757668 279.137165 59.2042293 278.97524 60.1054516 278.812233 60.4339141M348.812859 63C347.149384 62.6758924 345.070039 62.2707578 341.90999 62.2707578 339.082082 62.2707578 336.337348 62.6758924 333.675787 63 333.42682 62.5143787 333.42682 61.9466502 333.675787 61.4604887 338.666213 59.9215176 338.91518 59.434816 338.91518 45.3372141L338.91518 40.7186803C338.91518 31.7252335 335.422991 29.2133993 330.348836 29.2133993 325.774833 29.2133993 319.869495 32.85907 319.786321 43.1494875L319.786321 45.255647C319.869495 59.2733023 320.20219 60.0020043 324.111358 61.4604887 324.360879 61.9466502 324.360879 62.5143787 324.111358 63 322.447882 62.6758924 320.368538 62.2707578 317.20738 62.2707578 314.380026 62.2707578 311.635846 62.6758924 308.974285 63 308.724764 62.5143787 308.724764 61.9466502 308.974285 61.4604887 313.964157 59.9215176 314.213679 59.434816 314.213679 45.3372141L314.213679 40.7186803C314.213679 31.7252335 310.72038 29.2133993 305.647335 29.2133993 300.823256 29.2133993 295.667036 33.7509062 295.084265 41.6094361L295.001646 45.3372141C295.001646 59.434816 295.500134 59.9215176 300.324213 61.4604887 300.573734 61.9466502 300.573734 62.5143787 300.324213 63 297.662652 62.6758924 294.918472 62.2707578 292.091119 62.2707578 288.929406 62.2707578 286.850616 62.6758924 285.187141 63 284.93762 62.5143787 284.93762 61.9466502 285.187141 61.4604887 289.262656 60.0020043 289.429003 59.2733023 289.429003 45.255647L289.429003 43.7166759C289.429003 33.5072853 289.180037 30.5908568 285.187141 30.1857222 284.93762 29.6995607 284.93762 29.1323724 285.187141 28.6456707 287.93243 28.565184 291.424619 27.1877266 293.338171 25.2430807 293.919833 25 294.41943 25 295.001646 25.2430807 294.835299 27.5118342 294.835299 29.7805877 295.001646 33.2642046 298.328597 27.5118342 302.819426 25 308.474688 25 313.049246 25 317.623249 27.4302671 319.204105 33.2642046 322.032013 27.3497804 327.68783 25 333.176744 25 338.832561 25 344.488377 28.6456707 344.488377 37.8827384L344.488377 45.255647C344.488377 59.2733023 344.904246 60.0020043 348.812859 61.4604887 349.06238 61.9466502 349.06238 62.5143787 348.812859 63M389.346665 7.79330664C387.623764 7.79330664 385.079626 8.28624311 383.027902 8.69702349 382.699626 12.8869835 382.617557 19.1302977 382.617557 26.852969L382.617557 31.863942C383.93066 32.0282541 385.325286 32.1104102 386.720458 32.1104102 395.994251 32.1104102 400.999911 28.7425587 400.999911 19.7053902 400.999911 13.5442321 396.89701 7.79330664 389.346665 7.79330664M419.956749 63C416.593015 62.6713757 414.622813 62.2605953 411.340601 62.2605953 409.944882 62.2605953 408.878532 62.2605953 406.251778 62.3427514 404.775084 57.4955428 402.969566 52.2375538 400.425976 47.1449724 395.337152 36.9576188 392.711493 35.3144972 382.617557 34.9037169L382.617557 38.7650525C382.617557 59.2208204 382.945833 59.9602251 391.480458 61.4390345 391.726665 61.6855028 391.644596 62.8356878 391.480458 63 385.982384 62.6713757 384.258936 62.2605953 379.498936 62.2605953 375.149281 62.2605953 373.425832 62.6713757 370.061552 63 369.979483 62.7535318 369.979483 61.6855028 370.061552 61.4390345 376.380315 59.8786168 376.626522 59.2208204 376.626522 34.0821561 376.626522 8.94349173 376.380315 8.28624311 370.061552 6.72527763 369.979483 6.47935711 369.979483 5.41078039 370.061552 5.16431216 373.754655 5.49293647 375.477556 5.98587293 380.811492 5.90371685 385.489971 5.82156078 388.608044 5 392.301148 5 402.72336 5 407.811636 11.6546423 407.811636 18.5552051 407.811636 26.1957203 402.969566 31.863942 395.665975 33.9178439 395.173562 34.0821561 394.681148 34.1643122 394.188734 34.3286243 400.343907 35.1501851 403.051635 38.1078039 406.499079 45.336991 413.310256 59.6316008 412.981433 59.5494447 419.62902 61.4390345 420.039365 61.8498149 420.039365 62.5070635 419.956749 63M445.791057 38C446.032539 32.8985189 442.007843 28.455842 436.937262 28.455842 431.38318 28.455842 428.405442 32.5699397 427.438978 37.917718L445.791057 38zM445.066612 41.0444323L427.117002 40.9616018 427.117002 41.7844213C427.117002 50.7531541 430.41779 59.4744926 439.996031 59.4744926 444.503155 59.4744926 446.676491 58.4048272 450.056699 55.7718047 450.540199 55.8546352 451.023163 56.1832145 451.264108 56.8420187 448.688839 61.4492595 443.054264 64 437.741664 64 427.278527 64 421 55.2786615 421 45.1585299 421 33.5567745 428.002972 25 438.466646 25 447.641881 25 453.840451 32.6516731 451.50559 41.0444323L445.066612 41.0444323zM465.993006 37.2013065C465.993006 43.4716383 469.289318 48.9174042 475.634718 48.752381 480.413821 48.4223346 483.216235 44.4617776 483.216235 38.8515386 483.216235 32.0855871 479.507884 27.0529293 473.3273 27.2179525 468.547648 27.6305106 465.993006 31.1785095 465.993006 37.2013065M492.939805 67.894523C492.939805 76.3101565 482.226792 83.2405811 470.690251 82.9935964 463.932812 82.8280231 458 79.940667 458 74.4949012 458 70.3698711 461.296312 66.9043837 464.922255 65.8317329 465.334294 65.9142445 465.499109 66.1612292 465.580968 66.4918257 463.768545 67.8114613 462.696695 69.9573131 462.696695 71.6075451 462.696695 76.7227145 469.20691 78.4554582 475.551761 78.3729466 482.474016 78.290435 488.160153 75.567552 488.160153 70.5348943 488.160153 65.2541517 481.814753 64.759082 474.48046 64.759082L473.821747 64.759082C466.487453 64.759082 459.89483 63.8514544 459.89483 58.3231769 459.89483 54.8582397 463.274099 51.9703335 467.72357 50.5676363 463.191142 48.5048462 459.977787 44.1322812 459.977787 38.8515386 459.977787 29.1157194 467.146716 24.0825116 475.634718 24.0825116 477.942136 24.0825116 480.002331 24.4950696 481.814753 25.3201857L490.302206 25.3201857C491.538323 25.3201857 492.77444 24.9076276 493.763883 24 494.175922 24 494.834635 24.2475348 495 24.5775812L492.692032 28.7031614 486.264225 28.7031614C488.160153 30.9309747 489.148497 33.8188808 489.148497 37.1187949 489.148497 46.2770329 482.143835 51.7227987 473.739339 51.8053103 468.794871 51.8053103 464.180584 54.1975967 464.180584 56.5909833 464.180584 59.4783394 468.382832 59.3133162 476.375839 59.3133162L476.952693 59.3133162C484.616069 59.3133162 492.939805 60.1384322 492.939805 67.894523M537.812401 60.4339141C534.319384 60.5153465 530.908142 62.1549263 529.039243 63.8770315 528.714311 64.0409895 527.901982 64.0409895 527.415125 63.8770315 527.739516 62.4014098 527.983756 59.1222503 528.064989 54.2854901 524.571972 61.007767 519.860462 63.8770315 514.255389 63.8770315 508.73209 63.8770315 503.208792 60.1879771 503.208792 50.8423726L503.208792 43.3828314C503.127017 34.2017314 503.451949 30.594656 499.147144 30.512677 498.903446 29.6928871 498.984679 29.1190342 499.228377 28.6271603 501.908523 28.5451813 505.157841 27.152085 507.026198 25.1840428 507.594829 24.9386524 508.082768 24.9386524 508.650316 25.1840428 508.569624 26.4137276 508.569624 34.4476683 508.650316 43.3008524L508.650316 47.9731081C508.650316 57.0727756 512.062641 59.6141242 517.01785 59.6141242 522.053751 59.6141242 527.415125 54.3674691 527.415125 45.3497805L527.415125 40.0216929C527.415125 33.5458995 527.171427 30.594656 523.272245 30.512677 523.028547 29.6928871 523.109779 29.1190342 523.353478 28.6271603 526.034165 28.5451813 529.445407 27.152085 531.314307 25.1840428 531.882396 24.9386524 532.369793 24.9386524 532.938424 25.1840428 532.857733 26.3322952 532.857733 33.2179835 532.857733 40.1856509L532.857733 51.2522676C532.857733 57.5646495 533.425822 58.0565235 537.812401 58.8757668 538.137332 59.2042293 537.974866 60.1054516 537.812401 60.4339141"/>
    <g transform="translate(543)">
      <mask id="family-b" fill="#fff">
        <use xlink:href="#family-a"/>
      </mask>
      <path fill="#000" d="M0.196944444,61.2321316 C4.28027778,59.7400263 4.44638889,59.8229211 4.44638889,33.0490263 L4.44638889,29.3187632 C4.44638889,8.92776316 4.19638889,5.94355263 0.196944444,5.52907895 C-0.0530555556,5.03171053 -0.0530555556,4.45144737 0.196944444,3.95407895 C2.94638889,3.87118421 6.44694444,2.46197368 8.36305556,0.473052632 C8.94638889,0.223815789 9.44638889,0.223815789 10.0297222,0.473052632 C9.86305556,5.77776316 10.0297222,8.67852632 10.0297222,29.7332368 L10.0297222,33.0490263 C10.0297222,59.8229211 10.1963889,59.7400263 14.2797222,61.2321316 C14.5297222,61.7289474 14.5297222,62.3097632 14.2797222,62.8071316 C12.6963889,62.4755526 10.7797222,62.1434211 7.19694444,62.1434211 C3.69694444,62.1434211 1.78027778,62.4755526 0.196944444,62.8071316 C-0.0530555556,62.3097632 -0.0530555556,61.7289474 0.196944444,61.2321316" mask="url(#family-b)"/>
    </g>
    <path fill="#000" d="M586.489997,45.1122508 L586.489997,43.7223044 L586.408715,43.804066 L586.408715,43.7223044 C577.468221,44.0493506 569.177985,47.6463137 569.177985,54.1872375 C569.177985,57.1306533 570.96565,59.7470228 574.867193,59.7470228 C581.206658,59.7470228 586.489997,52.9608143 586.489997,45.1122508 M596.812287,60.4011152 C593.317155,60.4823317 589.903847,62.1175627 588.034358,63.8351003 C587.383559,64.1616014 586.652561,63.9163167 586.408715,63.8351003 C586.733843,62.3628473 586.977148,59.0111689 587.058972,54.105476 C583.482558,60.8911394 578.036654,63.8351003 572.347446,63.8351003 C566.089263,63.8351003 563,59.7470228 563,55.004853 C563,45.6845816 575.436168,41.7600273 586.489997,40.8606502 C586.327433,33.9932252 584.295379,28.6787246 577.386397,28.6787246 C571.696647,28.6787246 570.234111,32.3579943 570.071546,37.2636872 C566.41385,37.9172345 564.301056,36.4460717 564.301056,34.402033 C564.301056,29.1692939 575.111039,25 580.637683,25 C588.521509,25 591.854076,30.3957171 591.854076,38.4901104 L591.854076,51.2438218 C591.854076,57.539461 592.423051,58.0300303 596.812287,58.8471007 C597.137416,59.174692 596.974851,60.073524 596.812287,60.4011152"/>
    <g transform="translate(602 24)">
      <mask id="family-d" fill="#fff">
        <use xlink:href="#family-c"/>
      </mask>
      <path fill="#000" d="M27.698149,5.44000563 C27.698149,9.72451268 24.4040314,10.8774845 24.4040314,10.7132451 C24.4040314,7.41747042 22.0157961,5.60479437 18.8869333,5.5218507 C12.9569725,5.5218507 9.8281098,11.2894563 9.8281098,17.5514282 L9.8281098,20.8472028 C9.8281098,35.1827239 10.3227765,35.6776394 15.098698,37.2425831 C15.3457569,37.4903155 15.2634039,38.6432873 15.098698,38.8080761 C12.4634039,38.4784986 9.74575686,38.0665268 6.94575686,38.0665268 C3.81689412,38.0665268 1.75807059,38.4784986 0.111011765,38.8080761 C0.0286588235,38.4784986 0.0286588235,37.5721606 0.111011765,37.2425831 C4.14630588,35.7594845 4.31046275,35.0184845 4.31046275,20.7642592 L4.31046275,19.1993155 C4.31046275,8.81762535 4.06340392,5.85197746 0.111011765,5.44000563 C0.0286588235,5.10987887 0.0286588235,4.20409014 0.111011765,3.87396338 C2.8281098,3.79211831 6.28748235,2.39141408 8.18105098,0.413949296 C8.67571765,0.249160563 9.33399216,0.166766197 9.8281098,0.413949296 C9.74575686,1.07310423 9.8281098,5.10987887 9.8281098,8.57044225 C12.3816,3.87396338 16.7457569,0.166766197 21.6869333,0.166766197 C24.8157961,0.166766197 27.698149,2.14423099 27.698149,5.44000563" mask="url(#family-d)"/>
    </g>
    <path fill="#000" d="M64.4220944 133.825791C64.5046523 134.23771 64.5872103 134.64963 64.0093046 135.555304 59.2214941 136.462077 58.3959147 137.202983 55.5889445 146.100449L54.5151408 149.724793C54.5151408 149.807726 54.4331333 149.889561 54.4331333 149.971945 54.3505753 150.30148 54.2680174 150.7134 54.1023511 151.043485 53.6895614 152.525847 53.5249958 153.515003 53.5249958 154.25591 53.5249958 155.574053 54.184909 155.985972 55.5063866 156.233124 55.5063866 156.727428 55.1761548 157.551267 55.0104885 157.79787 46.4250125 157.633651 40.5639487 161.752848 31.2349007 162L30.4093213 162C18.9348675 162 12 152.937766 12 142.310787 12 123.115878 30.3273137 102.356223 47.2505919 103.015295 52.5337501 103.097679 56.1662997 104.250505 59.8814073 106.640188 61.6151242 107.793563 62.6058196 107.628796 63.6790729 105.569197 63.9267467 105.486264 64.8348841 105.569197 65 105.898184L61.862798 121.138664C61.3674504 121.386365 60.6244288 121.303431 60.376755 121.138664 58.7255961 112.818435 53.2767716 107.298711 45.0220778 107.133943 30.2442054 107.381644 18.8517592 123.857883 18.8517592 139.344965 18.8517592 149.642958 23.6395697 157.304115 35.1151242 157.304115 39.2430215 157.304115 43.6180423 156.315508 47.5808237 154.420677 49.644222 147.500426 50.8825912 143.134627 50.8825912 140.498341 50.8825912 137.038764 48.9017509 136.214925 44.4436217 135.555304 44.2785059 134.979166 44.5267301 134.23771 44.8564115 133.825791 50.14012 134.155326 51.791279 134.567246 56.5790895 134.567246 61.0372186 134.567246 61.3674504 134.155326 64.4220944 133.825791M91.147069 129.825284C91.147069 127.712696 89.9932053 126.493896 87.9327346 126.331389 82.7408977 128.362723 77.7133491 134.374932 75.4061713 139.331389L74.9111088 140.468395C78.0430244 139.900163 83.070573 137.787574 85.8722638 136.24376 89.3344042 134.293679 91.147069 132.019126 91.147069 129.825284M96.9988059 128.76899C97.0812248 133.724905 91.147069 137.868828 85.1310438 140.062128 81.4221964 141.362723 77.8787362 142.499729 73.9226323 143.312263 73.3457005 145.506104 72.7687687 148.431768 72.7687687 150.950081 72.7687687 155.255969 74.9111088 157.531064 78.7029245 157.531064 83.4826672 157.531064 87.8503157 154.443435 91.0651996 151.681362 91.641582 151.762615 92.0536761 152.006375 92.3009326 152.412642 87.8503157 158.343598 81.9167094 162 76.5594854 162 70.0489473 162 67 157.531064 67 151.43706 67.0818694 138.600108 79.1150186 123 90.3228807 123 92.8778644 123 97.0812248 124.300054 96.9988059 128.76899M132 127.639609C132 130.556552 129.96641 132.907287 127.526102 133.7982 127.689331 131.123841 126.712666 129.503557 124.516388 128.935728 123.622151 129.098351 122.645485 129.503557 121.669904 130.232928 119.554971 132.015834 117.358693 134.608613 115.65102 136.878307 110.525831 143.684687 105.239039 153.814838 102.229325 162 100.114391 161.837377 99.1382682 161.270089 98 160.135512 105.889787 136.796725 110.200998 128.855227 103.368136 128.287939 103.368136 127.639609 103.449479 127.072321 103.69351 126.667115 107.028056 126.586073 111.177122 125.208373 113.698773 123.182343 114.024148 122.939219 115.081072 122.939219 115.406447 123.182343 114.999729 123.587549 110.851747 134.852276 109.224875 139.633167 108.004721 143.280022 106.784567 146.035423 105.645757 147.979871L106.052475 147.979871C106.459193 147.088418 106.865911 146.359047 107.272629 145.548635 109.061646 141.901781 111.339267 137.850261 113.860918 134.203407 118.091328 128.125316 122.971402 123.101842 127.689331 123.101842 129.641035 123.101842 132 124.803167 132 127.639609M159.268129 129.435979C157.408988 127.649335 155.306202 126.593591 153.124177 126.593591 143.017221 126.593591 135.740212 142.835266 135.740212 151.361889 135.740212 155.016388 137.196153 157.289757 139.944706 156.559399 145.928024 154.366699 154.983318 139.099556 159.268129 129.435979M168 149.90009C164.847169 156.721279 159.268129 162 155.14503 162 149.485673 162 152.719899 152.25467 155.225885 145.434021 156.519037 141.779522 157.651016 139.099556 158.783534 137.069279L158.2984 137.069279C151.667697 151.767945 143.017221 162 136.306202 162 131.940536 162 130 158.589676 130 153.798222 130 142.429211 141.076685 123.020303 156.034442 123.020303 158.540428 123.020303 160.804925 123.832414 163.1492 125.700269 163.957756 125.05058 164.766313 124.238469 165.574869 123.182725 165.817436 122.939092 166.787165 122.939092 167.030271 123.182725L161.936365 137.88139C158.2984 148.681923 156.842459 153.310955 156.842459 155.25948 156.842459 156.559399 157.489843 156.721279 158.621823 156.721279 161.127809 156.721279 165.251447 151.524311 166.706849 149.087979 167.272838 149.16919 167.757972 149.494034 168 149.90009M210 149.92486C206.60465 156.813363 201.026228 162 196.902109 162 194.638722 162 193.34505 160.379176 193.34505 157.785857 193.34505 153.004426 196.7404 146.926336 199.327744 141.416074 201.430501 136.958808 202.48107 133.555077 202.48107 131.366964 202.48107 129.260433 201.510816 128.206898 199.489453 128.206898 196.57923 128.206898 192.374796 133.06937 189.544888 136.878307 184.531909 143.766269 179.196051 153.814838 176.204434 162 174.101678 161.837377 173.132502 161.270089 172 160.135512 179.842887 136.796725 184.127637 128.855227 177.335858 128.287939 177.335858 127.639609 177.417252 127.072321 177.659815 126.667115 180.974311 126.586073 185.09843 125.208373 187.60438 123.182343 187.927798 122.939219 188.978907 122.939219 189.302325 123.182343 188.898052 123.587549 184.694157 134.852276 183.157383 139.633167 181.86425 143.280022 180.732286 146.035423 179.600323 147.979871L180.004596 147.979871C184.774473 137.76922 193.587075 123.101842 202.076798 123.101842 207.655219 123.182343 209.191455 128.450021 207.250947 134.284988 204.906705 141.901781 198.761224 151.545684 198.761224 155.354621 198.761224 156.083452 199.004865 156.732322 200.459708 156.732322 202.966197 156.732322 207.250947 151.464643 208.787182 149.033947 209.272309 149.195489 209.676582 149.519654 210 149.92486M228.049744 109.124939C228.710056 106.986823 230.113221 106 232.01107 106 234.405254 106 235.560251 108.138116 234.73486 111.098584 234.157636 113.2367 232.754472 114.387994 230.938612 114.387994 228.297361 114.387994 227.059275 112.003172 228.049744 109.124939M218.227592 148.102794C218.970994 145.717972 221.199549 139.304172 222.437636 135.274646 224.088417 130.340532 222.850331 127.956259 220.044002 127.791788 220.044002 127.133906 220.126541 126.55826 220.374158 126.147084 223.922789 126.0643 228.710056 124.584614 231.185679 122.610969 231.598374 122.363715 232.094159 122.363715 232.506855 122.610969 232.094159 122.93991 229.617986 129.600963 224.583102 143.991581 220.786854 154.681613 220.456697 156.65471 223.097398 156.65471 225.65611 156.65471 229.865604 151.392203 231.351307 148.925146 231.929081 149.007382 232.423765 149.336323 232.671933 149.747499 229.452908 156.65471 223.757711 162 219.548767 162 213.936659 162 216.164114 154.352123 218.227592 148.102794M276 149.906012C272.778167 156.724099 267.078553 162 262.864837 162 257.08206 162 260.386504 152.665714 262.947998 145.442329 264.269225 141.789783 265.426331 139.030081 266.582336 137.082056L266.16928 137.082056C261.295777 147.308645 252.291168 162 243.617554 162 239.404939 162 238 159.645595 238 156.237093 238 152.503379 239.652222 147.552149 241.552277 142.763795 243.452332 137.893733 245.682281 133.592385 245.682281 130.91331 245.682281 129.289956 244.939332 128.316485 242.791443 128.07244 242.791443 127.504808 243.121888 126.936634 243.369721 126.530795 247.08722 126.36846 251.052002 124.988609 253.447723 123.121752 254.026551 122.959416 254.686889 122.959416 255.099945 123.121752 248.491608 138.380739 243.534943 148.60787 243.534943 153.477391 243.534943 155.506584 244.361054 156.561764 246.178498 156.805267 248.986724 157.129938 253.447723 152.178708 256.421722 148.202031 261.791443 140.978106 267.491608 130.26451 270.052002 123.041125 272.19989 122.959416 273.439056 123.284087 274.595061 124.014596 273.108612 128.478279 268.234558 142.439124 267.65628 144.143646 265.343169 150.880024 263.113221 156.805267 266.004058 156.805267 266.995391 156.805267 268.482391 156.074216 269.721557 154.93841 271.703673 153.233888 273.76895 150.637062 274.678223 149.094335 275.255949 149.175503 275.751616 149.500173 276 149.906012M341 149.92486C337.532477 156.813363 331.837288 162 327.627943 162 325.316078 162 323.995327 160.379176 323.995327 157.785857 323.995327 153.004426 327.462299 146.926336 330.103802 141.416074 332.250023 136.958808 333.323133 133.555077 333.323133 131.366964 333.323133 129.260433 332.33257 128.206898 330.268896 128.206898 327.297755 128.206898 323.004763 133.06937 320.11562 136.878307 314.915712 143.684687 309.55016 153.814838 306.496473 162 304.020064 161.918419 302.203481 161.35113 301.626202 160.217093 306.908657 145.305511 310.705817 136.473101 310.705817 131.610628 310.705817 129.260433 309.797801 128.206898 307.981767 128.206898 305.010077 128.206898 300.801283 133.06937 297.912139 136.878307 292.793678 143.766269 287.346129 153.814838 284.291891 162 282.145671 161.837377 281.155107 161.270089 280 160.135512 288.006505 136.796725 292.381493 128.855227 285.447549 128.287939 285.447549 127.639609 285.530096 127.072321 285.777737 126.667115 289.161612 126.586073 293.372057 125.208373 295.931012 123.182343 296.2612 122.939219 297.33376 122.939219 297.663948 123.182343 297.251213 123.587549 292.959322 134.852276 291.39093 139.633167 290.070178 143.280022 288.914521 146.035423 287.758864 147.979871L288.171598 147.979871C293.041869 137.76922 302.038937 123.101842 310.705817 123.101842 314.255336 123.101842 316.566651 125.451496 316.566651 129.422516 316.566651 133.7982 312.686944 142.306987 310.045441 147.979871L310.375629 147.979871C315.2459 137.76922 324.242968 122.939219 332.910949 123.101842 338.605588 123.182343 340.008886 128.36898 338.193403 134.284988 335.881538 141.901781 329.525973 151.545684 329.525973 155.354621 329.525973 156.083452 329.773614 156.732322 331.260009 156.732322 333.818415 156.732322 338.193403 151.464643 339.761796 149.033947 340.256527 149.195489 340.669262 149.519654 341 149.92486M355.464654 160.17914C362.396395 158.690348 363.057111 157.365935 369.905782 133.703025 377.579659 107.14417 377.909742 107.226911 370.565397 105.738119 370.565397 105.15893 370.81296 104.248224 371.225563 104 374.608913 104.331517 377.909742 104.496999 381.210571 104.579189 384.511401 104.66193 387.81223 104.413707 390.947467 104.083293 391.112509 104.66193 390.864947 105.489343 390.534864 105.820309 383.603122 107.226911 382.943507 108.550772 375.104037 135.771558 368.502379 158.772537 368.420408 158.85583 375.516641 160.261881 375.516641 160.84107 375.269079 161.586293 374.856475 162 371.225563 161.668483 367.677172 161.503001 364.211851 161.33807 361.076064 161.420259 358.105867 161.586293 355.0526 161.916707 354.887559 161.33807 355.134571 160.592846 355.464654 160.17914M411.99562 123.180092L408.223937 127.84844 399.71638 127.84844C398.19144 132.516788 396.747296 137.18459 395.221821 141.852938 392.814557 149.469171 388.962079 156.676445 392.894817 156.676445 395.382341 156.676445 399.63612 151.270989 401.000539 148.896411 401.482634 149.059667 401.963659 149.305915 402.204439 149.796774 399.074835 156.676445 393.536897 162 389.443638 162 385.270655 162 384.94908 157.741156 388.159479 148.158757 388.721299 146.275584 390.246238 141.688591 391.450138 137.840343 394.018457 128.83125 393.938197 126.538026 390.165978 125.473316 390.165978 124.818109 390.326498 124.244803 390.567278 123.917745 395.061836 123.917745 399.074835 120.968769 401.642084 118.184686 402.043384 117.938438 402.525479 117.938438 402.926779 118.184686 402.766259 118.347942 402.043384 120.395463 400.920279 123.917745L406.858982 123.917745C408.062882 123.917745 409.347576 123.508241 410.551476 122.606786 411.032501 122.524885 412.07588 122.770588 411.99562 123.180092M437.268129 129.435979C435.408988 127.649335 433.306202 126.593591 431.124177 126.593591 421.017221 126.593591 413.740212 142.835266 413.740212 151.361889 413.740212 155.016388 415.196153 157.289757 417.944706 156.559399 423.928024 154.366699 432.983318 139.099556 437.268129 129.435979M446 149.90009C442.847169 156.721279 437.268129 162 433.14503 162 427.485673 162 430.719899 152.25467 433.225885 145.434021 434.519037 141.779522 435.651016 139.099556 436.783534 137.069279L436.2984 137.069279C429.667697 151.767945 421.017221 162 414.306202 162 409.940536 162 408 158.589676 408 153.798222 408 142.429211 419.076685 123.020303 434.034442 123.020303 436.540428 123.020303 438.804925 123.832414 441.1492 125.700269 441.957756 125.05058 442.766313 124.238469 443.574869 123.182725 443.817436 122.939092 444.787165 122.939092 445.030271 123.182725L439.936365 137.88139C436.2984 148.681923 434.842459 153.310955 434.842459 155.25948 434.842459 156.559399 435.489843 156.721279 436.621823 156.721279 439.127809 156.721279 443.251447 151.524311 444.706849 149.087979 445.272838 149.16919 445.757972 149.494034 446 149.90009M453.218658 147.994905C456.434903 138.216752 460.063487 126.946932 462.290119 119.90295 465.423346 109.876186 467.568059 104.821645 462.124633 104.32387 462.124633 103.578589 462.207651 103.164237 462.455054 102.667015 466.083089 102.667015 469.959077 101.092477 472.350643 99.1864584 473.010386 98.9378472 473.670129 98.9378472 474 99.1864584 473.422725 99.6836807 470.124562 110.953501 461.218037 138.796845 457.589452 150.066665 454.291289 156.613425 458.084259 156.613425 460.640762 156.613425 464.846621 151.30972 466.331042 148.823609 466.907767 148.906479 467.402574 149.237961 467.650527 149.652313 464.434282 156.613425 458.744552 162 454.538143 162 450.250366 162 449.920494 157.524999 453.218658 147.994905M486.049303 109.124939C486.710155 106.986823 488.112748 106 490.011117 106 492.405263 106 493.560242 108.138116 492.734864 111.098584 492.157099 113.2367 490.754507 114.387994 488.938126 114.387994 486.297466 114.387994 485.059399 112.003172 486.049303 109.124939M476.227855 148.102794C476.971246 145.717972 479.199216 139.304172 480.437283 135.274646 482.088039 130.340532 480.849972 127.956259 478.043687 127.791788 478.043687 127.133906 478.126775 126.55826 478.373838 126.147084 481.922963 126.0643 486.710155 124.584614 489.185739 122.610969 489.598428 122.363715 490.093655 122.363715 490.506344 122.610969 490.093655 122.93991 487.618071 129.600963 482.583266 143.991581 478.786527 154.681613 478.456376 156.65471 481.097585 156.65471 483.655707 156.65471 487.865684 151.392203 489.350814 148.925146 489.929129 149.007382 490.423806 149.336323 490.671419 149.747499 487.452995 156.65471 481.757888 162 477.54846 162 471.93644 162 474.164411 154.352123 476.227855 148.102794M497 151.43706C497 138.600108 508.452771 123 519.425518 123 523.509729 123.080712 526.1528 125.518313 525.993147 129.255969 525.91252 131.531064 523.830101 134.212426 520.706473 134.943706L520.546821 134.943706C521.748216 130.149756 520.466728 126.818909 517.022727 126.330847 508.933863 129.580983 502.52642 141.524689 502.52642 150.950081 502.52642 155.337222 504.448119 157.531064 508.052306 157.531064 512.697702 157.531064 516.943168 154.443435 520.066262 151.68082 520.62638 151.762615 521.026845 152.006375 521.267658 152.412642 516.862541 158.343598 511.095842 162 505.890328 162 499.64307 162 497 157.612317 497 151.43706M54.9570186 245.855714L54.9570186 246.438259C55.0389723 251.51473 55.617048 252.430159 58.7516375 252.763043 58.9996985 253.928134 58.8346912 256.340983 57.2671214 257.506075 48.4392287 258.754388 43.4070548 262 34.2496974 262 18.4095426 262 8.34409482 251.015405 8.01408014 234.621456 7.51905811 214.399904 20.1415697 202 35.6517097 202 39.7768933 202 45.0571282 203.081871 49.0167544 205.412609 51.1623998 206.577146 51.3268571 206.410704 51.4093608 203.830858 52.7294195 203.748192 53.5544562 203.664417 54.875065 204.330183 55.369537 210.155641 56.1126201 217.06297 56.7720994 222.47177 55.7820554 222.971095 53.8844709 222.971095 52.8944269 222.638211 48.9342507 214.399904 41.096952 208.824108 32.0220983 209.073771 22.8641908 209.406654 17.7495133 218.144841 17.7495133 230.127531 17.7495133 243.192647 24.5142642 254.51068 37.7973552 254.51068 40.9319447 254.51068 43.7370695 254.0108 46.0471722 253.01215 45.8821649 238.116731 44.8096172 237.367744 38.0443162 236.535535 37.7973552 235.370444 37.7973552 232.790598 38.0443162 231.875724 42.3345071 232.208052 45.2221355 232.624156 50.3373631 232.624156 56.4420847 232.624156 56.5245884 232.124831 60.5672682 231.791948 61.1442439 232.790598 61.1442439 235.453664 60.5672682 236.535535 55.7820554 237.284523 54.9570186 237.534185 54.9570186 245.855714M89.5722295 235.285753C89.2431326 230.306502 86.3683256 227.041063 81.6870447 227.041063 77.7444523 227.041063 75.363017 230.142686 74.4589587 235.285753L89.5722295 235.285753zM74.1309569 240.347184C74.3768213 248.183695 77.9908643 253.408398 85.4653624 253.408398 90.064506 253.408398 92.9387653 251.93895 95.6498452 250.060778 96.553356 250.22405 97.4563191 251.204226 97.8670058 252.183858 94.9106091 257.816197 88.9145832 261 82.0150465 261 71.9948384 261 64.9315746 253.408398 65.013712 242.305904 64.6030252 230.795774 73.4738581 221 84.06848 221 94.5815122 221 100.824498 230.06105 98.5246522 240.347184L74.1309569 240.347184zM136 227.866311C136 232.256119 132.46713 234.824618 130.495295 235.321088 130.084496 231.67626 127.701863 229.357377 124.744659 229.357377 121.622587 229.357377 117.678918 233.250715 117.678918 238.966467L117.678918 243.853297C117.678918 255.946944 118.089717 256.112066 123.676034 257.189499 123.840901 257.603684 123.840901 260.585815 123.676034 261 120.39019 260.6681 116.611389 260.337304 112.996358 260.337304 109.463488 260.337304 106.423576 260.6681 104.12365 261 103.958783 260.337304 103.958783 257.852195 104.12365 257.189499 108.970529 256.195455 109.217009 255.864107 109.217009 244.101255L109.217009 241.616698C109.217009 231.842486 108.970529 229.605336 104.205263 229.191703 104.12365 228.280496 104.12365 226.375246 104.205263 225.381202 109.874287 225.381202 113.817956 223.310277 115.789791 221.157068 116.446521 220.908005 117.432986 220.991394 117.761078 221.157068 117.432986 223.476503 117.432986 226.789431 117.514598 229.191703 120.39019 223.724462 124.497631 221.157068 128.8521 221.157068 132.713609 221.157068 136 224.056362 136 227.866311M161.962932 243.154908L161.962932 241.125972C154.797398 241.612916 148.038485 244.047641 148.038485 249.647506 148.038485 252.081689 149.830005 253.785996 152.680149 253.785996 157.891841 253.785996 161.882042 248.754774 161.962932 243.154908M175.724513 257.600398C170.757119 257.438083 167.174624 258.898917 164.405913 260.846156 163.917317 261.089628 162.777259 261.009012 162.370095 260.846156 162.614394 258.81776 162.777259 255.652618 162.858149 251.75706 159.682817 257.681555 154.878288 260.765539 149.015678 260.765539 143.233957 260.765539 139 257.19461 139 251.75706 139 240.801342 152.680149 237.31157 162.043822 236.581694 161.882042 230.576041 159.439062 226.680482 153.820206 226.680482 148.689947 226.680482 148.527082 230.413726 148.527082 234.633915 142.990202 236.499995 140.22149 234.714531 140.22149 231.549931 140.22149 225.13849 151.458658 221 158.379894 221 166.034024 221 170.431932 225.950065 170.431932 233.416553L170.431932 242.749121C170.431932 251.675902 170.594254 253.055579 175.724513 253.867154 176.131677 254.841585 176.049701 256.626508 175.724513 257.600398M222.815405 260C220.108566 259.676543 216.990969 259.353086 213.462615 259.43395 210.428155 259.43395 207.392053 259.676543 204.685213 260 204.520582 259.029628 204.520582 257.169749 204.685213 256.199377 208.704725 255.229006 209.279019 254.097444 209.279019 243.34303L209.279019 239.299815C209.279019 231.618244 206.817759 228.787993 202.223953 228.787993 198.614104 228.787993 193.773625 232.102891 193.691583 238.329443L193.691583 244.798049C193.691583 254.259173 194.347919 255.229006 198.285936 256.199377 198.532062 257.169749 198.532062 259.029628 198.285936 260 195.578549 259.676543 192.378911 259.43395 189.179272 259.43395 185.816096 259.43395 182.862584 259.676543 180.155744 260 179.991113 259.272221 179.909071 257.008021 180.155744 256.280781 185.077718 255.30987 185.241802 254.986413 185.241802 242.776441L185.241802 241.159694C185.241802 231.618244 184.996223 229.434369 180.237239 229.030586 180.073702 227.97935 180.073702 226.280661 180.237239 225.310289 185.816096 225.310289 189.836155 223.288681 191.805164 221.186748 192.542995 220.863291 193.363415 221.02502 193.773625 221.186748 193.446004 223.85527 193.363415 226.684982 193.527499 229.110911 196.645096 223.450949 201.075365 221.186748 206.326054 221.186748 213.872826 221.186748 217.7288 227.008979 217.7288 235.256599L217.7288 241.159694C217.7288 253.611719 217.892884 255.30987 222.815405 256.280781 223.061532 256.927156 223.061532 259.353086 222.815405 260M229.015189 207.543667C229.015189 204.234015 231.245705 202 234.632784 202 237.936701 202 240.084605 204.234015 240.084605 207.543667 240.084605 210.935509 237.936701 213.169525 234.632784 213.169525 231.245705 213.169525 229.015189 210.935509 229.015189 207.543667M226.124331 256.193348C231.080481 255.117711 231.245705 254.870039 231.245705 242.459395L231.245705 241.052793C231.245705 231.041646 230.99842 228.641597 226.124331 228.228442 225.958556 227.234995 225.958556 225.414686 226.124331 224.422342 231.823986 224.422342 235.789347 222.353809 237.85464 220.202535 238.432921 220.037053 239.258488 219.954312 239.836769 220.202535 239.671546 224.422342 239.754158 227.648701 239.754158 232.778662L239.754158 243.120774C239.754158 254.870039 240.001993 255.117711 244.876082 256.193348 245.041306 256.855279 245.041306 259.337518 244.876082 260 242.645567 259.586293 239.341099 259.337518 235.293127 259.337518 231.575601 259.337518 228.354295 259.668483 226.124331 260 225.958556 259.503001 225.958556 256.607055 226.124331 256.193348M288.724433 257.637838C283.59678 257.475807 280.177441 258.933553 277.328443 260.878476 276.677787 261.040508 275.945187 261.040508 275.293988 260.878476 275.456788 258.042918 275.538188 254.478217 275.619588 251.804691 272.200791 258.285966 267.805195 260.635428 262.433343 260.635428 254.94455 260.553872 251.119296 254.721805 251.119296 246.458179L251.119296 241.84027C251.037896 231.794294 251.119296 229.202324 246.153901 228.959276 245.910244 227.825053 245.991101 226.042702 246.153901 225.070511 251.769953 225.070511 255.758549 223.28816 257.712147 221.262762 258.444746 221.020254 259.014546 221.020254 259.584345 221.262762 259.502945 223.774796 259.421546 229.040292 259.502945 233.414613L259.502945 242.407382C259.502945 250.184372 261.863543 253.01993 266.502796 253.01993 270.084393 253.01993 274.642788 249.61726 274.967846 243.379573L274.967846 241.111127C274.967846 232.037882 274.886988 229.688419 269.922136 228.87826 269.758793 228.230133 269.758793 226.447782 269.922136 225.070511 275.538188 225.475591 279.689584 223.28816 281.479839 221.182286 282.293839 220.939238 282.863638 220.939238 283.514837 221.182286 283.433438 223.69324 283.352038 228.47318 283.352038 232.118898L283.352038 243.460589C283.352038 251.642659 283.59678 253.101486 288.724433 253.911645 289.131432 254.802281 289.050032 256.665647 288.724433 257.637838M358.876483 261C356.168683 260.585815 352.967909 260.337304 349.520375 260.337304 346.484837 260.337304 343.448205 260.585815 340.739858 261 340.493645 260.005404 340.493645 258.017869 340.739858 257.023825 344.679272 256.112066 345.335841 254.870063 345.335841 243.936134L345.335841 239.711448C345.335841 231.842486 342.873708 228.943192 338.277724 228.943192 334.748666 228.943192 329.742327 231.925323 329.742327 239.380652L329.742327 241.616698C329.742327 254.455878 329.660803 256.195455 334.831284 257.189499 335.076951 257.768805 335.076951 260.253915 334.831284 261 332.122937 260.585815 329.003687 260.253915 325.475176 260.337304 322.438544 260.337304 319.401912 260.585815 316.694112 261 316.529423 260.005404 316.529423 258.017869 316.694112 257.023825 320.715051 256.112066 321.289001 254.870063 321.289001 243.936134L321.289001 239.711448C321.289001 231.842486 318.827415 228.943192 314.231979 228.943192 310.784444 228.943192 306.352603 232.090445 305.7792 237.971871L305.696581 245.427199C305.696581 255.035737 306.352603 256.112066 310.292565 257.023825 310.538778 258.100706 310.538778 259.923119 310.292565 261 307.58367 260.585815 304.383443 260.337304 301.18267 260.337304 297.817753 260.337304 294.86374 260.585815 292.155393 261 291.99125 260.253915 291.909179 257.852195 292.155393 257.189499 297.079113 256.112066 297.243803 255.864107 297.243803 243.272886L297.243803 241.616698C297.243803 231.842486 296.997589 229.605336 292.237464 229.191703 292.073322 228.197659 292.073322 226.375246 292.237464 225.381202 297.8183 225.381202 301.839239 223.310277 303.808946 221.157068 304.548133 220.908005 305.368844 220.991394 305.7792 221.157068 305.368844 224.304321 305.368844 226.789431 305.61451 229.108866 308.897355 223.227992 313.165054 221.157068 318.334988 221.157068 323.833753 221.157068 327.362265 224.304321 328.840092 229.191703 332.122937 223.807299 337.293418 221.073679 342.381281 221.157068 349.931277 221.157068 353.78862 227.120778 353.78862 235.569598L353.78862 241.616698C353.78862 254.373041 353.952762 256.112066 358.876483 257.189499 359.041172 257.768805 359.041172 260.253915 358.876483 261M413.889245 245.051627C413.889245 239.267594 410.382908 233.896195 403.044606 233.896195L394.890877 233.896195C394.890877 241.25088 394.971876 248.109193 395.216505 253.645866 397.091987 254.05905 400.598325 254.802783 404.348746 254.802783 410.464451 254.802783 413.808246 250.5883 413.889245 245.051627M401.006038 208.527765C399.456726 208.527765 396.765816 208.775676 395.134962 209.106223 394.971876 214.146524 394.890877 221.005939 394.890877 227.698978L401.65838 227.698978C407.610456 227.698978 410.546537 223.319221 410.546537 218.196284 410.546537 212.659611 407.44737 208.527765 401.006038 208.527765M424 243.481526C424 254.141687 414.949301 261 402.717892 261 399.049013 261 395.216505 260.173631 390.650112 259.843634 385.350378 259.92572 386.00272 260.091545 379.398303 260.670003 378.827504 259.67836 378.908503 257.116065 379.398303 255.876512 386.00272 254.05905 386.00272 253.315318 386.00272 232.574555L386.00272 229.846986C386.00272 209.684682 385.921177 208.94095 379.398303 207.122938 378.908503 206.131846 378.908503 203.322191 379.398303 202.330548 386.654518 202.991092 385.513464 203.156366 390.569113 203.156366 396.847359 202.495821 398.804385 202.330548 403.860034 202 414.460045 202 420.575749 207.701396 420.575749 216.377721 420.575749 222.410215 417.31404 226.789972 411.931676 229.103805 419.678235 231.08654 424 236.540576 424 243.481526M457.143517 242.877356C457.143517 234.958665 453.944598 226.958883 447.466938 226.958883 441.72627 226.958883 438.856483 232.020314 438.856483 239.040464 438.856483 247.040247 442.054309 254.958937 448.614525 254.958937 454.027154 254.958937 457.143517 250.387866 457.143517 242.877356M430 242.305904C430 229.489598 439.019956 221 449.926677 221 459.767822 221 466 227.938514 466 239.611916 466 252.428766 456.979498 261 446.072776 261 436.231631 261 430 253.979305 430 242.305904M470.123926 256.213573C475.393889 255.143496 475.228654 255.225809 475.228654 236.129595L475.228654 221.972748C475.228654 207.074529 474.982173 204.852061 470.205721 204.440493 469.958691 203.617357 469.958691 202.218025 470.205721 201.394889 475.063968 201.312575 478.934097 200.324811 481.898451 198.185206 482.639539 197.938265 483.133049 197.938265 483.874687 198.185206 483.709451 202.300339 483.709451 205.428257 483.709451 222.136826L483.709451 236.129595C483.709451 255.225809 483.544765 255.143496 488.814728 256.213573 489.061757 256.872082 489.061757 259.341491 488.814728 260 486.26209 259.588432 482.968363 259.341491 479.098783 259.341491 475.475683 259.341491 472.511878 259.670745 470.123926 260 469.958691 259.341491 469.958691 256.872082 470.123926 256.213573M519.023841 242.800213L519.023841 230.064635C516.511019 227.600126 513.834963 226.531935 510.673532 226.531935 504.673893 226.531935 501.998918 229.653792 501.998918 239.514019 501.998918 246.990809 504.836586 253.31724 510.673532 253.31724 514.808418 253.31724 519.023841 249.455866 519.023841 242.800213M532.725719 257.590005C527.698995 257.508384 524.212718 258.904702 521.375051 260.876747 520.726441 261.041084 519.997296 261.041084 519.429222 260.876747 519.591914 258.493859 519.753526 254.796274 519.753526 251.920375 516.672631 258.083016 512.376132 260.71241 506.944026 260.71241 498.674794 260.630242 493 252.989114 493 242.800213 493 229.572171 502.079995 220.451462 513.673351 220.451462 515.700257 220.451462 517.483393 220.697968 519.023841 221.190979L519.023841 220.123335C519.023841 206.976915 518.781152 204.839984 514.078732 204.429142 513.91658 203.607456 513.91658 202.210591 514.078732 201.388905 518.861688 201.307284 522.753346 200.320714 525.591013 198.184879 526.320699 197.938374 526.888232 197.938374 527.536842 198.184879 527.455766 202.210591 527.374149 205.333543 527.374149 221.026642L527.374149 243.293224C527.374149 251.674417 527.698995 252.989114 532.725719 253.810799 533.1311 254.796274 533.049484 256.686699 532.725719 257.590005M55.4689606 343.961586L55.4689606 344.543331C55.7177621 347.701371 56.6300343 348.449328 59.9473876 348.698647 60.2785701 350.277113 59.9473876 353.85124 57.4593726 355.512812 49.0006745 356.676301 42.2001001 360 33.8243358 360 18.4826823 360 8.61355611 349.778475 8.03246638 333.241424 7.28661477 313.1308 19.4767825 300 35.8141949 300 39.6297041 300 44.770496 301.246595 48.5025186 303.40736 50.6593511 304.487742 50.4929306 303.822891 50.4929306 301.163489 52.4838955 301.163489 53.2297471 300.91417 55.1372253 301.828339 55.8006959 308.476292 56.7129681 316.870585 57.5423064 322.770026 56.1324313 323.435431 53.4785486 323.518537 52.0692263 323.019899 49.0836083 314.876033 40.6243572 308.559952 31.6680561 309.05859 23.2922918 309.557228 19.8914517 318.864583 19.8914517 329.25232 19.8914517 340.055589 25.6968201 350.111455 37.8875407 350.111455 40.2926219 350.111455 42.4489016 349.778475 44.4393136 349.280392 44.191065 336.898102 43.1118194 336.150145 37.0582024 335.734614 36.72702 334.072487 36.8099538 330.16649 37.0582024 328.919895 40.5419763 329.25232 44.1075783 329.750958 49.4982775 329.750958 56.7959019 329.750958 56.8793887 329.169768 61.4401966 328.836788 62.1866011 330.249596 62.1866011 334.155594 61.4401966 335.651507 56.3812328 336.150145 55.4689606 336.233252 55.4689606 343.961586M87.7207889 334.25172C87.2356492 329.413462 85.132838 326.789869 80.7671196 326.789869 78.0988511 326.789869 76.1588313 329.167996 75.2688694 334.25172L87.7207889 334.25172zM74.945982 340.730066C75.5922959 347.12586 79.0691306 350.323484 84.8099506 350.323484 89.4182389 350.323484 92.6519647 348.520481 94.8356324 347.12586 95.9676251 347.453878 97.0990788 348.847952 97.6656142 349.996013 94.5930626 356.391808 88.4484985 360 80.7671196 360 71.2260384 360 63.9494816 353.112179 64.0303383 341.304096 63.3840243 329.660022 73.1665973 319 83.5971013 319 94.7547758 319 100.737627 329.00344 98.555037 340.730066L74.945982 340.730066zM138 326.727937C138 331.187794 134.293563 334.512414 130.998463 335.484933 130.339443 331.755412 127.950496 329.160586 125.067285 329.160586 123.831622 329.160586 119.465616 331.593235 119.383787 336.701257L119.383787 342.701792C119.383787 353.080554 119.63092 353.080554 125.809231 353.810889 125.973437 354.21579 125.973437 358.432382 125.809231 359 122.102244 358.594558 117.65386 358.351294 113.369682 358.351294 109.663245 358.351294 105.956258 358.594558 103.155973 359 102.991218 358.108029 102.90884 354.621232 103.155973 353.810889 108.592337 353.080554 108.83947 353.080554 108.83947 343.188322L108.83947 340.188054C108.83947 331.106705 108.592337 329.403851 103.320728 328.998409 103.155973 327.619908 103.155973 325.106171 103.320728 323.809299 110.898907 323.809299 115.265463 321.37665 117.241973 319.187265 118.065748 318.862912 119.219033 319.025089 119.465616 319.187265 118.9719 322.592974 118.889523 324.944535 119.136106 326.56576 122.102244 321.295561 126.138192 319.268354 130.092311 319.268354 134.457768 319.268354 138 322.75461 138 326.727937M162.646335 342.66105L162.646335 340.302968C156.617885 340.790847 150.915297 342.41711 150.915297 347.458527 150.915297 349.652899 152.708082 350.791825 154.826186 350.791825 159.387713 350.791825 162.482861 346.888793 162.646335 342.66105M178.694504 356.646374C172.666054 356.402434 169.000104 357.702903 165.578552 359.817045 165.253233 360.060985 163.786853 360.060985 163.379525 359.817045 163.623922 357.296337 163.704844 354.206978 163.704844 351.198391 160.854093 356.483205 156.373488 359.654419 150.507969 359.654419 144.968855 359.654419 140 356.483205 140 350.46603 140 338.351451 154.418858 335.180238 162.727801 334.611045 162.56487 329.163605 159.958515 326.073162 155.151505 326.073162 150.345581 326.073162 150.997305 329.895423 151.160236 333.7166 144.398596 336.319164 141.22144 334.286335 141.22144 330.383302 141.22144 323.227201 152.708082 319 160.528231 319 168.022518 319 173.073382 323.715622 173.073382 330.870639L173.073382 337.944886C173.073382 348.678225 173.073382 350.629199 178.694504 351.44233 179.101832 352.824654 179.101832 355.263508 178.694504 356.646374M226.814555 359C223.353463 358.593735 219.562141 358.349976 215.77082 358.431229 212.474018 358.431229 209.260186 358.593735 206.457905 359 206.293065 357.700493 206.293065 354.856638 206.457905 353.556048 209.919547 353.069071 210.661327 351.444011 210.661327 342.912986L210.661327 339.174805C210.661327 332.26884 208.929957 329.181225 204.562244 329.181225 201.924803 329.181225 197.968642 331.294346 197.309831 335.681467L197.309831 345.350576C197.309831 351.68777 198.051062 353.069071 201.512703 353.556048 201.677543 354.937891 201.677543 357.618699 201.512703 359 198.628551 358.593735 195.16636 358.431229 191.622848 358.431229 188.161207 358.431229 184.535275 358.593735 181.156053 359 180.991213 358.106758 180.908793 354.612337 181.156053 353.799807 186.677646 353.069071 186.760616 353.069071 186.760616 341.937408L186.760616 340.231636C186.760616 331.131298 186.512806 329.424985 181.238473 329.018719 181.073633 327.63796 181.073633 325.118575 181.238473 323.819068 188.821117 323.819068 193.188829 321.381477 195.16636 319.187646 196.07353 318.862634 197.144441 319.02514 197.392251 319.187646 196.897731 322.51902 196.814761 324.95661 197.062571 326.581129 200.194532 321.300224 204.562244 319.268899 209.589867 319.268899 218.408261 319.350694 221.127572 326.662924 221.127572 334.299624L221.127572 339.2566C221.127572 350.712192 221.127572 353.069071 226.814555 353.799807 227.061815 354.450373 227.061815 358.18747 226.814555 359M232.493687 306.472324C232.493687 302.572001 235.237533 300 239.524792 300 243.554815 300 246.298089 302.572001 246.298089 306.472324 246.298089 310.372648 243.554815 313.028187 239.524792 313.028187 235.237533 313.028187 232.493687 310.372648 232.493687 306.472324M229.06388 353.689474C234.894552 352.942604 234.980297 352.942604 234.980297 341.822533L234.980297 340.578302C234.980297 330.703568 234.808807 328.794899 229.149625 328.379971 228.978707 326.969216 228.978707 324.396109 229.149625 323.068892 237.03761 323.068892 241.667849 320.579324 243.725733 318.338713 244.32595 318.172741 245.440637 318.090309 246.040853 318.338713 245.955108 321.824108 245.955108 325.309503 245.955108 326.969216L245.955108 342.984884C245.955108 352.942604 246.298089 352.942604 251.870954 353.689474 252.043015 354.436345 252.043015 358.253683 251.870954 359 249.041934 358.585072 244.66893 358.419101 240.295926 358.419101 236.094985 358.419101 231.808297 358.668611 229.06388 359 228.978707 358.585072 228.978707 354.104402 229.06388 353.689474M295.630748 356.653765C289.470251 356.410972 285.937919 357.708208 282.405587 359.817095 281.501967 360.060968 280.926937 360.060968 280.105464 359.817095 280.188159 356.329321 280.188159 352.679325 280.188159 351.057104 276.819574 357.545986 272.548464 359.492651 267.291039 359.41154 258.419683 359.330429 255.708824 352.030977 255.708824 344.407082L255.708824 341.568196C255.708824 330.943193 255.545077 328.996528 250.12281 328.590973 249.959063 327.293197 249.959063 324.697103 250.12281 323.399867 257.762505 323.399867 262.280604 321.372092 264.251591 319.263746 265.073063 319.019872 265.730242 319.019872 266.387967 319.263746 266.305272 322.588757 266.140978 326.076531 266.140978 327.617641L266.140978 339.54042C266.140978 346.434857 267.86607 349.516535 272.301474 349.516535 274.930734 349.516535 278.95595 347.326538 279.530433 342.865972L279.530433 342.622639C279.530433 331.753762 279.61258 329.807638 273.86282 328.509862 273.698526 327.941544 273.698526 325.347073 273.86282 323.319297 281.501967 324.048756 286.102214 321.291522 287.909453 319.182094 288.894673 318.939302 289.470251 318.939302 290.209577 319.182094 290.126882 322.508187 289.962587 325.99542 289.962587 327.535989L289.962587 339.134865C289.962587 348.623773 290.044735 350.733201 295.630748 351.462659 296.123084 352.760976 296.123084 355.356529 295.630748 356.653765M367.875673 359C364.406626 358.593735 360.523431 358.431229 356.806556 358.431229 353.502178 358.431229 350.28096 358.593735 347.472239 359 347.30702 357.700493 347.30702 354.856638 347.472239 353.556048 350.859226 353.069071 351.685321 351.444011 351.685321 342.912986L351.685321 339.174805C351.685321 332.26884 349.950522 329.181225 345.572221 329.181225 342.7635 329.181225 338.30314 331.618816 338.21998 336.737215L338.21998 339.2566C338.21998 350.793987 337.806932 353.149783 343.920032 353.799807 344.167861 354.450373 344.167861 358.18747 343.920032 359 340.450986 358.593735 336.650951 358.349976 332.850916 358.431229 329.546538 358.431229 326.32532 358.593735 323.516598 359 323.351379 357.700493 323.351379 354.856638 323.516598 353.556048 326.986195 353.069071 327.72968 351.444011 327.72968 342.912986L327.72968 339.174805C327.72968 332.26884 325.994331 329.181225 321.61603 329.181225 318.973078 329.181225 314.925215 331.294346 314.346949 335.681467L314.346949 345.350576C314.346949 351.68777 315.090434 353.069071 318.560031 353.556048 318.724699 354.937891 318.724699 357.618699 318.560031 359 315.669251 358.593735 312.199103 358.431229 308.647447 358.431229 305.17785 358.431229 301.543034 358.593735 298.156597 359 297.990827 358.106758 297.908768 354.612337 298.156597 353.799807 303.69088 353.069071 303.773489 353.069071 303.773489 341.937408L303.773489 340.231636C303.773489 331.131298 303.525661 329.424985 298.238656 329.018719 298.073437 327.63796 298.073437 325.118575 298.238656 323.819068 305.838725 323.819068 310.216476 321.381477 312.199103 319.187646 313.107807 318.862634 314.181179 319.02514 314.430109 319.187646 313.933901 322.762779 313.851292 325.281622 314.181179 326.82543 317.568717 320.893959 321.61603 319.268899 326.655757 319.268899 332.520478 319.350694 335.659637 322.51902 337.146608 326.906683 340.698263 321.950248 345.737991 319.187646 350.611398 319.268899 359.450059 319.350694 362.17562 326.662924 362.17562 334.299624L362.17562 339.2566C362.17562 350.712192 362.17562 353.069071 367.875673 353.799807 368.041442 354.450373 368.041442 358.18747 367.875673 359M411.00526 333.407083L403.315536 333.407083C403.315536 339.972483 403.397675 345.956138 403.563609 350.609539 406.457799 351.357496 409.51682 351.690475 412.327767 351.690475 417.785933 351.690475 420.43205 347.783924 420.51419 343.296736 420.596881 338.393462 417.372478 333.407083 411.00526 333.407083M409.020673 308.643058C407.532232 308.643058 404.721285 309.05859 403.563609 309.224803 403.397675 313.545778 403.315536 319.113348 403.315536 325.18011L409.599511 325.18011C414.644221 325.18011 417.289235 321.191006 417.289235 316.953137 417.289235 312.631608 414.478288 308.643058 409.020673 308.643058M433 341.717715C433 352.604091 423.656453 360 411.00526 360 406.953394 360 402.157308 358.920172 396.948318 358.50464 392.979695 358.50464 393.889297 358.670853 385.620184 359.41881 384.793272 357.922896 384.793272 353.933792 385.620184 352.438432 392.566239 350.360774 392.400305 349.612817 392.400305 331.74551L392.400305 328.255044C392.400305 310.387737 392.566239 309.640334 385.620184 307.562676 384.793272 306.066208 384.793272 302.077658 385.620184 300.581744 396.121407 301.57902 392.400305 301.57902 398.932905 301.49536 406.044343 300.415532 407.36685 300.249319 411.832171 300 422.664159 300 429.692906 305.817443 429.692906 315.124798 429.692906 320.942241 426.550643 324.930791 421.423792 327.09211 428.61737 329.25232 433 334.653677 433 341.717715M435.128259 353.724971C441.45571 352.900748 441.02818 352.98317 441.02818 338.889501L441.02818 317.707512C441.02818 306.416202 440.857168 304.685882 435.213765 304.273771 435.042753 303.284703 435.042753 301.306567 435.213765 300.235076 441.797165 300.152654 446.07247 299.493275 449.920244 297.18545 450.775305 296.938183 451.373848 296.938183 452.143972 297.18545 452.057896 300.564766 451.886314 303.861659 451.886314 317.707512L451.886314 338.889501C451.886314 352.98317 451.54486 352.900748 457.871741 353.724971 458.042753 354.467321 458.042753 358.258199 457.871741 359 454.451497 358.587888 450.091256 358.423044 445.901457 358.423044 441.968747 358.423044 438.120973 358.670311 435.128259 359 434.957247 358.258199 434.957247 354.467321 435.128259 353.724971M481.646107 342.66105L481.646107 340.302968C475.617573 340.790847 469.915449 342.41711 469.915449 347.458527 469.915449 349.652899 471.707716 350.791825 473.826392 350.791825 478.38744 350.791825 481.483174 346.888793 481.646107 342.66105M497.6945 356.646374C491.665966 356.402434 487.999965 357.702903 484.578908 359.817045 484.253584 360.060985 482.786641 360.060985 482.379307 359.817045 482.624251 357.296337 482.705174 354.206978 482.705174 351.198391 479.854384 356.483205 475.373716 359.654419 469.508115 359.654419 463.968381 359.654419 459 356.483205 459 350.46603 459 338.351451 473.419059 335.180238 481.727574 334.611045 481.565184 329.163605 478.95825 326.073162 474.151716 326.073162 469.345725 326.073162 469.996915 329.895423 470.160392 333.7166 463.398658 336.319164 460.221457 334.286335 460.221457 330.383302 460.221457 323.227201 471.707716 319 479.528517 319 487.022908 319 492.073299 323.715622 492.073299 330.870639L492.073299 337.944886C492.073299 348.678225 492.073299 350.629199 497.6945 351.44233 498.101833 352.824654 498.101833 355.263508 497.6945 356.646374M499 340.976079C499 327.199891 508.725884 319 518.860442 319 528.668606 319 532.264933 324.247733 532.264933 328.101392 532.264933 331.956144 529.321939 334.744293 523.846804 335.809803 523.029457 330.726079 520.413401 326.789869 515.918538 326.789869 512.403946 326.789869 510.033639 329.660022 510.033639 338.761961 510.033639 346.470372 513.629966 350.324031 520.004728 350.324031 524.664151 350.324031 527.932994 348.520481 530.139286 347.12586 531.283571 347.454424 532.427857 348.847952 533 349.996013 529.894626 356.391808 523.682789 360 515.918538 360 506.273843 360 499 353.194184 499 340.976079M581.876976 359C578.362545 358.670637 574.030133 358.34237 570.024695 358.34237 566.265033 358.34237 562.668313 358.506777 559.725543 359 559.643254 357.191517 559.643254 355.382486 559.725543 353.492348 563.077032 352.423699 563.15823 351.272846 561.605646 348.642873 560.624723 347.081002 559.316825 344.860952 557.273234 341.655553 555.884137 342.888609 554.249265 344.286074 552.205674 346.012353 552.286873 351.766068 553.104309 352.999125 556.374054 353.492348 556.537541 354.808156 556.537541 357.68474 556.374054 359 553.02311 358.506777 549.099416 358.34237 545.093979 358.424574 542.069464 358.424574 539.04495 358.670637 536.183923 359 535.938692 358.259618 535.938692 354.478793 536.183923 353.738959 541.905977 352.916921 541.824233 352.999125 541.824233 340.669656L541.824233 317.653149C541.824233 306.391781 541.660746 304.665501 536.266212 304.254483 536.102724 303.268037 536.102724 301.295147 536.266212 300.226498 542.560471 300.144294 546.647107 299.486664 550.243827 297.184958 551.061263 296.938347 551.714667 296.938347 552.369161 297.184958 552.286873 300.555313 552.205674 303.843464 552.205674 317.653149L552.205674 337.709772C557.845439 332.942502 563.321717 327.599257 556.782772 325.790774 556.619285 323.817883 556.619285 322.009948 556.782772 320.119262 557.927183 320.448077 560.297748 320.694688 566.101001 320.694688 573.539671 320.694688 575.583262 320.448077 578.362545 320.119262 578.607231 322.009948 578.607231 323.817883 578.362545 325.790774 574.765825 326.283996 572.640491 327.517053 570.678644 329.326084 568.879739 330.970159 566.755495 333.271317 564.63016 335.243659 567.408899 339.271644 572.313516 346.587779 573.212696 347.903039 575.583262 351.437253 576.318954 352.505902 581.876976 353.492348 582.041008 355.382486 582.041008 357.191517 581.876976 359"/>
    <g transform="translate(0 399)">
      <mask id="family-f" fill="#fff">
        <use xlink:href="#family-e"/>
      </mask>
      <path fill="#000" d="M1.70056364,53.2664131 C9.7182,51.2813664 9.96310909,50.4542636 15.6903818,31.1833196 C22.3989273,8.52235701 22.5631091,8.02554393 15.6903818,6.0410486 C16.0176545,4.80039439 17.0000182,1.65685234 17.4091091,0.499459813 C21.4994727,0.829749533 23.3812909,1.32656262 29.4358364,1.32656262 C35.3256545,1.32656262 37.5352909,0.829749533 41.7080182,0.499459813 C42.0347455,1.73956262 41.0529273,4.88255327 40.0716545,6.0410486 C32.2171091,8.02554393 31.8080182,8.85264673 25.0989273,31.6801327 C19.3722,50.7851047 19.0454727,51.3640766 26.1631091,53.2664131 C26.4898364,54.5070673 25.5080182,57.6495065 24.4443818,58.8901607 C20.3540182,58.559871 17.7358364,58.1463196 12.3358364,58.0630579 C6.93692727,58.0630579 4.07329091,58.559871 0.0642,58.8901607 C-0.263618182,57.6495065 0.7182,54.424357 1.70056364,53.2664131" mask="url(#family-f)"/>
    </g>
    <path fill="#000" d="M45.1989806 441.78884C43.9852379 445.472897 42.4478306 449.73066 44.5521906 449.73066 46.4936394 449.73066 49.0824176 447.191832 52.1572323 443.589656 52.9663941 443.835842 54.09976 444.245242 54.5847176 444.982163 51.5913585 451.122621 46.0081424 458 39.3735553 458 32.9817168 458 33.1424703 451.204501 35.4895788 443.999056 36.7836982 439.905599 37.6743156 437.530532 38.8880583 433.600835 41.3155436 425.494709 41.1531718 424.185174 36.5414891 423.612014 36.6224053 422.466239 37.2697347 420.336811 37.7552318 419.272371 42.8524115 418.863516 48.59746 415.178914 53.1282265 410.18423 53.9373882 409.93859 54.5043409 409.93859 55.0702147 410.18423 54.1801368 412.722512 53.2905983 415.833408 52.238688 419.272371L57.4167838 419.272371C58.5496103 419.272371 59.6015206 418.94485 60.7343471 418.12605 61.5435088 418.20793 62.5145029 418.69921 63 419.354251L57.4977 425.740895 50.2157835 425.740895C48.5165438 431.063099 46.8982203 436.384757 45.1989806 441.78884M89.2397343 429.460214C87.0149319 426.490172 84.6258786 425.087393 82.2357267 425.087393 74.9850681 425.087393 69.2994619 437.051727 69.2994619 444.230657 69.2994619 448.520412 70.7826635 450.66639 73.5024158 450.66639 78.6101227 449.511159 85.6970798 437.21676 89.2397343 429.460214M103 445.880986C100.445597 452.069169 94.9253405 459 88.8277339 459 84.4610784 459 83.9661286 454.13208 84.6258786 449.345576 84.7901295 447.86083 85.2021299 446.458051 85.6141304 445.138338 80.5882742 453.224399 74.0786671 459 68.3112102 459 61.9664032 459 59 453.801464 59 447.531315 59 434.493717 72.760815 418.156012 86.8501317 418.156012 90.1461353 418.156012 93.0301385 419.064243 95.4197411 421.127154 97.3973432 420.301989 98.9623956 419.228725 100.115997 418.156012 100.693347 417.990979 101.599198 417.909013 102.175999 418.156012 99.7039964 425.252426 97.1495936 433.50352 95.7493414 438.289473 93.524539 445.385337 92.8653383 447.778314 92.8653383 449.098577 92.8653383 450.170741 93.1943893 450.66639 93.9365394 450.66639 95.337341 450.66639 97.8917438 448.10783 100.363197 444.560173 101.187198 444.725756 102.423199 445.220304 103 445.880986M107.38853 444.866775C110.379646 435.444808 113.455652 425.526919 116.190387 416.765631 119.437314 405.773245 120.207028 403.211532 114.737559 402.798264 114.82302 401.889074 115.335782 400.236 115.763085 399.32681 121.659855 399.244156 126.017769 398.41762 129.948949 396.185971 130.803554 395.93801 131.401777 395.93801 132 396.185971 126.27415 414.534533 125.676497 416.187606 117.814135 441.974447 116.446198 446.519848 114.99451 450.652531 117.131021 450.652531 118.58271 450.652531 121.146523 448.090267 123.710337 444.53616 124.564941 444.702018 125.846848 445.19794 126.36018 445.85917 123.881827 452.057643 118.155407 459 111.831904 459 105.081098 459 105.081098 452.140297 107.38853 444.866775M140.474769 407.375276C140.644263 403.398152 144.191235 400 148.498956 400 151.539138 400 153.22844 401.823654 152.975045 404.557755 152.806114 408.535432 149.259142 411.933031 145.204816 411.933031 141.995141 411.933031 140.221937 410.027061 140.474769 407.375276M131.437564 444.830078L135.154029 433.560545C136.421006 428.67187 135.66082 427.097373 131.775424 426.765899 132.02882 425.522875 132.620076 423.451721 133.126866 422.373329 139.799611 422.373329 145.120351 420.13699 147.73877 417.981863 148.583421 417.73381 149.427509 417.73381 149.849835 417.981863 148.751788 420.799384 144.360165 434.472649 141.403886 443.172712 139.799611 447.647599 139.12389 450.630857 140.98156 450.630857 142.333565 450.630857 144.951421 448.061388 147.56984 444.498605 148.498956 444.664894 149.681468 445.161551 150.188259 445.82505 147.654305 452.039618 141.826211 459 135.576355 459 128.566313 459 129.410964 451.293803 131.437564 444.830078M153 446.575808C153 433.405579 166.098244 418 178.783494 418 185.868079 418 189.080306 421.727423 188.998477 425.454847 188.998477 429.347381 184.961362 433.074804 180.101556 434.069336 180.019178 434.069336 179.772041 434.069336 179.607283 433.819737 180.842966 428.933223 179.607283 425.372015 175.323581 424.792194 168.56961 425.62051 163.297361 437.216386 163.297361 444.008027 163.297361 448.398104 165.521042 450.883053 169.557058 450.883053 174.829307 450.883053 178.783494 448.480383 181.666755 446.658639 182.408165 446.989966 182.984818 447.735451 183.314333 448.977925 178.206842 455.355408 171.369943 459 164.86256 459 157.366081 459 153 453.947823 153 446.575808M238.359005 448.362944C238.359005 448.280392 238.276555 448.280392 238.276555 448.197285 232.587473 437.560229 230.938464 433.404913 224.012625 429.665128 222.529066 428.834064 221.126858 428.169768 219.808201 427.504363 216.510732 429.498915 213.377614 432.740062 213.377614 438.723718 213.377614 446.368392 219.395948 451.189113 226.403688 451.189113 230.608662 451.189113 234.978536 450.108177 238.359005 448.362944M264 449.277113C264 452.185835 256.744359 458.252597 250.890926 458.252597 245.449195 458.252597 243.223583 456.673577 241.162321 453.349324 235.225888 456.922896 228.712851 459 223.18812 459 210.82165 459 202 452.685027 202 442.130523 202 434.152869 207.111379 428.25232 214.119119 424.346323 210.986001 422.185558 209.172641 419.609816 209.172641 414.955861 209.172641 405.5654 219.973102 399 230.27941 399 237.781302 399 243.965087 402.324253 243.965087 408.557228 243.965087 414.789649 235.72059 418.446327 230.773563 418.197008 230.44431 418.197008 230.113959 418.197008 229.784157 418.113348 231.185815 416.950413 231.928419 414.872755 231.928419 412.795097 231.928419 408.474122 229.042653 406.645228 225.497283 406.645228 222.529066 406.645228 220.963057 410.053142 221.209859 412.629438 221.704561 417.697816 226.073886 419.359943 231.680518 422.103006 240.502168 426.839512 241.903826 429.914447 247.509907 440.634609 247.509907 440.634609 247.509907 440.717715 247.592907 440.717715 249.654169 437.642781 250.726025 434.069209 250.726025 430.662404 250.726025 424.928067 245.036943 421.271942 240.420267 422.850963 240.337816 422.60109 240.420267 422.268664 240.585168 422.019899 242.316078 419.028071 246.521601 416.701648 250.726025 416.701648 257.321512 416.701648 260.372729 421.10573 260.372729 426.839512 260.372729 434.069209 256.084756 440.551503 250.231322 446.036521 251.632431 448.612817 253.034638 450.773581 254.601197 450.856134 256.827359 450.93924 258.64072 449.776305 261.526486 447.698647 263.257946 447.698647 264 448.280392 264 449.277113M276.136996 451.11845C284.526802 449.070369 284.608507 448.33306 290.037205 430.720115 296.452391 409.585017 296.617445 408.848254 289.790446 406.717704 290.201711 405.325009 291.435506 401.475164 291.846771 400.000546 296.20618 400.328239 297.686186 400.901702 304.677691 400.901702 311.504142 400.901702 313.314257 400.328239 317.919328 400 318.330593 401.475164 317.096798 405.325009 315.863551 406.717704 307.638799 408.848254 307.309787 409.585017 300.894053 430.720115 295.465903 448.33306 295.054638 449.070369 302.210101 451.11845 302.621366 452.592521 301.387571 456.524836 300.153776 458 295.877168 457.671761 293.491831 457.098298 287.405657 457.098298 281.236682 457.098298 278.44008 457.671761 274.080671 458 273.669406 456.524836 274.903201 452.592521 276.136996 451.11845"/>
    <g transform="translate(309 409)">
      <mask id="family-h" fill="#fff">
        <use xlink:href="#family-g"/>
      </mask>
      <path fill="#000" d="M11.8958571,35.0007692 C11.0922857,37.3914286 10.3690714,40.6875824 11.8160357,40.6875824 C13.5833571,40.6875824 15.5119286,39.0392308 19.128,35.0831868 C20.0922857,35.330989 21.4583571,35.8249451 22.0208571,36.6491209 C19.0476429,42.5831868 13.503,50.0002198 6.11067857,50.0002198 C-0.960214286,50.0002198 -0.638785714,42.3359341 1.37014286,35.8249451 C2.89639286,30.9623077 3.53871429,29.313956 4.74407143,25.3584615 C7.15478571,17.5293407 6.91425,16.4579121 2.09282143,16.0458242 C2.17371429,14.7271429 2.97728571,12.0903297 3.61960714,10.7710989 C8.84282143,10.1947253 15.1101429,6.3210989 20.253,0.469450549 C21.1369286,0.305164835 21.7797857,0.305164835 22.3422857,0.469450549 L19.2887143,10.7710989 L24.1905,10.7710989 C25.2351429,10.7710989 26.1994286,10.441978 27.3238929,9.70021978 C28.2887143,9.86450549 29.1726429,10.441978 29.8155,11.1007692 L23.8690714,18.1886813 L17.0387143,18.1886813 C15.2713929,23.7930769 13.5833571,29.3969231 11.8958571,35.0007692" mask="url(#family-h)"/>
    </g>
    <g transform="translate(335 417)">
      <mask id="family-j" fill="#fff">
        <use xlink:href="#family-i"/>
      </mask>
      <path fill="#000" d="M30.2575405,13.4929448 C27.9580881,10.0929744 25.4111119,8.59950879 23.0295167,8.59950879 C16.7866595,8.59950879 11.7764929,19.1328371 11.7764929,25.8509442 C11.7764929,30.3291293 13.1729214,32.4861117 15.8836357,32.7343775 C20.6473738,31.9049816 26.9723738,20.6257498 30.2575405,13.4929448 M45.6177071,28.5873978 C43.3182548,34.5590486 37.8146833,42.023059 31.078969,42.023059 C27.2188024,42.023059 25.4938024,38.7884149 25.4938024,34.7243748 C25.4938024,33.5637734 25.6586357,32.4026191 25.9866595,31.1585252 C21.5514929,37.3789947 15.7188024,42.023059 10.2157786,42.023059 C3.31632619,42.023059 0.0306119048,36.2178404 0.0306119048,29.4167938 C0.0306119048,15.8152534 14.56935,0.555474103 28.2045167,0.555474103 C31.6545167,0.555474103 34.7753976,1.46780963 37.1575405,3.54074653 C39.4575405,2.62896394 41.3468262,1.55019629 42.578969,0.471981579 C43.3182548,0.306102392 44.1396833,0.22371573 44.7962786,0.471981579 C42.1682548,8.35124294 39.2932548,17.7228641 37.978969,22.4498679 C36.3361119,28.339132 35.9253976,29.9144313 35.9253976,31.0755856 C35.9253976,31.9879212 36.0896833,32.650885 36.7468262,32.650885 C37.7325405,32.650885 39.7861119,30.9920931 42.578969,27.0115456 C43.4819929,27.2603644 44.8784214,27.7580019 45.6177071,28.5873978" mask="url(#family-j)"/>
    </g>
    <g transform="translate(382 395)">
      <mask id="family-l" fill="#fff">
        <use xlink:href="#family-k"/>
      </mask>
      <path fill="#000" d="M1.41077083,48.8668539 C4.17327083,39.5817496 6.85397917,30.2144713 9.53522917,20.9288191 C12.6227292,9.67154087 12.9477292,7.94643652 7.74772917,7.53556696 C7.91022917,6.54948 8.47897917,4.57730609 8.96647917,3.50904522 C15.2221875,3.4268713 19.5284375,2.76948 23.6721875,0.468610435 C24.5659375,0.222088696 25.1346875,0.222088696 25.7846875,0.468610435 C18.7159375,24.6266452 19.0414792,23.1480626 11.9727292,48.0451148 C11.4039792,50.4287061 10.6732708,53.7151148 12.1352292,53.7151148 C13.1102292,53.7151148 14.9789792,52.0716365 17.7409375,48.1272887 C18.7159375,48.3743583 20.0971875,48.8668539 20.7471875,49.688593 C18.6352292,55.6051148 13.2721875,63.0002191 6.61077083,63.0002191 C-0.539229167,63.0002191 -0.457979167,55.358593 1.41077083,48.8668539" mask="url(#family-l)"/>
    </g>
    <g transform="translate(406 399)">
      <mask id="family-n" fill="#fff">
        <use xlink:href="#family-m"/>
      </mask>
      <path fill="#000" d="M10.2572159,9.06039824 C10.2572159,4.51789306 14.5185795,0.388342897 19.6316477,0.388342897 C22.8702841,0.388342897 24.7452841,2.04016296 24.7452841,4.68307507 C24.7452841,9.22502964 20.3992614,13.3545798 15.5413068,13.3545798 C12.1322159,13.3545798 10.2572159,11.7027597 10.2572159,9.06039824 M1.479375,45.8111923 C2.33164773,43.2514218 3.61005682,39.2044626 4.973125,35.1575034 C6.166875,30.2851849 5.57028409,28.9637288 1.30892045,28.6333648 C1.56403409,27.2293177 2.33164773,24.6689966 2.92823864,23.3475406 C10.7685795,23.3475406 16.223125,20.8698105 18.9503977,18.6398534 C19.8878977,18.392631 20.8253977,18.475222 21.2515341,18.6398534 C19.973125,22.3564485 14.8600568,38.2965122 12.6435795,44.9852822 C11.7913068,47.3809719 11.0248295,50.6840615 12.5583523,50.6840615 C13.5816477,50.6840615 15.6265341,49.0322414 18.6094886,45.0678732 C19.6316477,45.3161968 21.0810795,45.8111923 21.6776705,46.6371023 C19.3765341,52.5836545 13.4958523,60.0162942 6.50721591,60.0162942 C-0.992215909,60.0162942 -0.566079545,52.3358815 1.479375,45.8111923" mask="url(#family-n)"/>
    </g>
    <g transform="translate(430 418)">
      <mask id="family-p" fill="#fff">
        <use xlink:href="#family-o"/>
      </mask>
      <path fill="#000" d="M0.523533803,28.1267653 C0.523533803,15.089312 14.0356606,0.00240533333 27.2187592,0.00240533333 C35.2099141,0.00240533333 38.5880831,4.10240533 38.5880831,7.70985867 C38.5880831,12.1378587 33.8916042,16.073312 28.5365197,17.221312 C28.371731,17.221312 28.0421535,17.139312 27.8773648,16.811312 C29.1132803,11.973312 27.8773648,8.44785867 23.428069,7.79185867 C17.1666465,7.79185867 12.3053789,19.107312 12.3053789,24.9287653 C12.3053789,29.1927653 14.6124211,31.7347653 18.7315901,31.7347653 C24.2520127,31.7347653 28.0421535,29.685312 30.7611676,28.1267653 C31.5851113,28.5367653 32.2437169,29.521312 32.5738437,30.9967653 C27.3006042,37.3922187 20.1322944,41.0002187 13.2941113,41.0002187 C5.38480141,41.0002187 0.523533803,35.7522187 0.523533803,28.1267653" mask="url(#family-p)"/>
    </g>
  </g>
</svg>
