<svg xmlns="http://www.w3.org/2000/svg" width="900" height="900" viewBox="0 0 900 900">
  <path fill-rule="evenodd" d="M5.98388538,576 L0,506.983936 L50.107585,500.636719 C78.5260706,496.659791 89.00284,483.181873 89.00284,452.239191 L90.4839013,290.385165 L89.00284,123.770726 C89.00284,92.8280446 78.5260706,79.340209 50.107585,75.3731986 L0,69.0259819 L5.98388538,0 L418.822276,0 C509.316118,0 557.932702,52.3546204 557.932702,119.793798 C557.932702,159.463903 533.241719,199.927409 477.90569,228.489884 C569.154972,247.541452 623,305.459805 623,384.800014 C623,483.975275 533.241719,576 338.795265,576 L5.98388538,576 Z M332.821319,480.791749 L332.821319,480.801667 L363.486247,480.801667 C414.339332,480.801667 449.487204,444.305171 449.487204,394.320839 C449.487204,349.880404 416.575834,317.360836 358.993363,317.360836 L258.778193,317.360836 L260.269194,407.798757 C261.014695,449.849068 288.69762,480.791749 332.821319,480.791749 Z M320.098108,95.2082508 L259.533633,95.2082508 L259.533633,222.152585 L368.714691,222.152585 C385.165406,203.904337 393.395734,181.689079 393.395734,153.920006 C393.395734,118.216911 367.959251,95.2082508 320.098108,95.2082508 Z" transform="translate(0 324)"/>
</svg>
