<svg xmlns="http://www.w3.org/2000/svg" width="710" height="342" viewBox="0 0 710 342">
  <path fill-rule="evenodd" d="M2.99088964,78.2493557 C3.4339844,53.6788367 3.76630547,33.3140821 3.87707916,8.8542411 C9.74808476,7.30474891 17.0591483,5.97661274 25.2564014,5.97661274 C39.5462075,5.97661274 47.3003658,13.9454297 47.3003658,24.9025531 C47.3003658,34.4208623 41.2078128,44.0498495 28.9119332,47.7022239 C24.1486645,49.1410381 18.3884326,50.0264622 10.4127269,50.4691743 C10.4127269,58.7700253 10.4127269,67.4029104 10.5235006,76.5891855 L2.99088964,78.2493557 Z M22.7086065,12.3959375 C18.9423011,12.3959375 14.5113534,13.0600056 10.3019532,14.1667858 C10.4127269,23.685095 10.4127269,32.8713701 10.4127269,43.8284935 C17.6130168,43.6071374 22.7086065,42.9430693 27.8041963,41.2828991 C35.3368072,38.8479828 39.8785285,33.7567942 39.8785285,26.2306893 C39.8785285,17.5978042 33.8967493,12.3959375 22.7086065,12.3959375 Z M97.5054639,30.9898439 C85.5419054,60.8729076 77.8985207,76.1464735 61.6147882,103.815977 L55.4114616,100.606315 L71.6951941,74.8183373 C66.5996043,63.6398579 59.9531829,48.255614 54.9683668,33.8674722 L61.6147882,30.6578098 C65.4918674,43.0537474 71.5844204,58.4379913 75.1291785,67.1815544 C79.5601261,57.7739232 85.2095843,44.9352736 90.4159477,31.985946 L97.5054639,30.9898439 Z M115.807739,76.5891855 L109.272091,77.8066437 C109.161318,47.0381559 109.161318,26.6734013 109.050544,1.88152623 L116.583155,0 C116.472381,15.937634 116.250834,29.8830637 116.029287,47.0381559 L132.756114,30.1044197 L141.174914,29.6617077 L141.618009,30.3257758 L122.011066,49.3623941 C133.53153,54.6749388 139.402535,62.6437558 144.387351,76.5891855 L136.633193,77.6959657 C133.420756,65.3000281 126.442013,57.2205331 116.029287,53.3468026 C115.918513,60.4301955 115.918513,68.0669785 115.807739,76.5891855 Z M211.011572,76.5891855 L173.680838,78.1386777 L173.12697,78.2493557 C173.570065,53.1254466 173.791612,33.6461162 173.902386,8.63288508 L180.881128,6.86203685 C181.102676,29.8830637 181.213449,47.7022239 181.324223,70.8339288 L211.786988,69.5057927 L211.011572,76.5891855 Z M226.322958,23.1317049 L226.322958,10.7357673 L233.634021,8.74356309 L233.634021,21.5822127 L226.322958,23.1317049 Z M233.3017,76.4785075 L225.879863,77.8066437 C226.212184,61.0942636 226.544505,47.92358 226.766052,31.985946 L233.190926,30.7684878 C233.190926,46.5954438 233.3017,60.6515516 233.3017,76.4785075 Z M287.605425,71.3873189 C287.605425,93.3015656 280.515909,100.052924 266.115329,100.052924 C260.576644,100.052924 254.15177,98.6141103 249.831596,96.8432621 L252.93326,89.6491912 C260.908965,92.8588536 268.330803,94.1869897 274.755677,93.6335997 C278.189661,91.4200394 280.737456,85.3327486 280.737456,72.494099 L281.402098,55.3390069 C274.644903,67.6242664 261.905929,78.1386777 251.271654,78.2493557 C248.502312,73.8222352 247.062254,64.8573161 247.062254,58.1059572 C247.062254,41.5042552 256.588791,29.4403517 269.43854,29.4403517 C276.749603,29.4403517 282.95293,32.428658 287.494651,37.5198467 L287.494651,40.176119 C287.494651,51.6866324 287.605425,63.1971459 287.605425,71.3873189 Z M254.373318,57.9952792 C254.373318,61.5369757 255.03796,66.4068083 256.25647,70.5018948 C266.669197,67.5135884 279.297398,53.6788367 281.069777,41.8362892 C276.638829,37.8518807 272.318655,35.9703545 266.890745,35.9703545 C264.564497,35.9703545 262.902892,36.6344226 261.462834,37.6305247 C257.253434,40.508153 254.373318,48.5876481 254.373318,57.9952792 Z M343.792302,76.5891855 L336.370465,77.8066437 C337.035107,54.6749388 336.370465,44.7139176 335.816596,38.6266268 C327.619343,39.954763 317.095843,50.3584963 311.335611,62.7544338 C311.224837,67.0708764 311.224837,71.6086749 311.114063,76.5891855 L304.578416,77.8066437 C304.467642,47.0381559 304.467642,26.6734013 304.356868,1.88152623 L311.889479,0 C311.778706,14.8308538 311.557158,27.8908595 311.446385,43.3857814 L311.00329,53.4574807 C317.095843,40.9508651 330.277912,30.3257758 341.355281,30.2150978 C343.016886,35.0849304 343.903076,44.0498495 343.792302,76.5891855 Z M391.781926,63.6398579 C384.360089,70.7232508 372.396531,77.8066437 365.639336,77.8066437 C364.420825,74.4863033 363.97773,70.1698607 363.97773,64.303926 L363.97773,36.7451006 L354.118872,36.9664566 L355.55893,30.7684878 L363.97773,30.7684878 L363.97773,21.6928907 L371.510341,19.8113645 C371.399567,23.4637389 371.288794,27.1161134 371.288794,30.7684878 L388.680263,30.7684878 L387.350979,36.1917105 L371.067246,36.5237445 C370.845699,45.7100197 370.624152,54.5642608 370.624152,63.3078239 C370.624152,65.0786721 370.734925,68.3990125 371.288794,69.9485047 C372.396531,69.9485047 382.255389,65.5213842 388.680263,59.5447714 L391.781926,63.6398579 Z M14.6221271,191.906451 L3.54475809,194.230689 C3.98785285,168.996102 4.09862654,150.623552 4.20940024,125.499643 C11.4096901,123.839472 19.2746221,122.068624 28.6903858,122.068624 C45.5279868,122.068624 51.6205397,132.029646 51.7313134,141.215921 C51.6205397,151.951688 46.3034026,159.367115 35.8906757,163.794235 C30.2412175,166.118474 23.0409276,167.557288 14.5113534,168.110678 C14.5113534,175.415427 14.6221271,183.162888 14.6221271,191.906451 Z M26.0318172,130.590831 C22.2655118,130.590831 18.1668852,131.254899 14.1790324,132.251002 C14.1790324,141.879989 14.2898061,150.512874 14.4005798,159.256437 C22.3762855,158.813725 28.3580647,157.706945 32.6782387,156.046775 C39.2138864,153.390502 41.9832287,149.07406 41.9832287,143.208125 C41.9832287,135.571342 36.5553178,130.590831 26.0318172,130.590831 Z M104.603186,143.982871 C92.4180796,173.091189 84.5531476,190.467637 68.2694151,219.907988 L58.0782356,217.915784 L74.4727418,191.574417 C69.5986994,180.617294 61.9553148,162.798133 56.9704987,147.192533 L66.7185834,143.872193 C70.81721,156.821521 76.3558945,172.316443 79.5683315,181.170684 C83.7777318,170.877628 89.8702847,155.493384 93.6365902,145.311007 L104.603186,143.982871 Z M123.02444,192.570519 L113.387129,193.787977 C113.830224,155.050672 113.71945,139.445072 113.608676,116.977436 L124.132177,115.095909 C124.132177,130.701509 124.132177,142.876091 123.689082,161.359319 L139.086625,145.200329 L149.056257,143.318803 L150.496315,145.200329 L130.557051,164.458304 C141.855967,169.881526 147.94852,178.514411 152.933336,192.127807 L141.63442,193.677299 C138.64353,182.830854 132.994072,174.308647 123.578308,169.992204 C123.467535,176.632885 123.245987,184.048312 123.02444,192.570519 Z M190.108166,192.570519 L180.360082,194.230689 C181.024724,173.312545 181.357045,160.805929 182.575555,124.503541 L193.320603,122.732692 C201.739404,141.990667 210.379752,159.588471 217.358494,174.419325 C225.001879,157.928301 232.53449,141.437277 240.177874,124.503541 L251.587565,122.84337 C252.916849,156.378809 252.806075,172.095087 253.359944,192.570519 L241.174838,194.120011 C241.396385,175.194071 242.171801,162.355421 242.282575,139.998463 C235.193058,155.272028 228.878958,168.221356 218.466231,190.135603 L213.370641,191.795773 L213.370641,191.685095 C204.287199,171.431018 197.640777,158.813725 190.108166,141.990667 C190.329714,157.374911 190.21894,173.533901 190.108166,192.570519 Z M305.567174,176.411529 C296.926826,187.257974 282.415472,194.230689 272.44584,194.230689 C269.898045,190.910349 267.239477,182.49882 267.239477,173.423223 C267.239477,156.046775 277.209109,143.318803 291.05582,143.318803 C299.917715,143.318803 304.902531,146.749821 304.902531,152.837112 C304.902531,159.809827 292.052783,168.55339 277.098335,175.194071 C277.430656,178.735767 278.206072,181.613396 279.092262,183.826956 C285.184815,182.941532 293.16052,179.178479 301.357773,170.76695 L305.567174,176.411529 Z M289.061894,151.066264 C282.526246,151.066264 278.427619,158.260335 277.319883,166.89322 C285.627909,163.462201 295.043673,157.042877 295.043673,154.60796 C295.043673,152.615756 292.495878,151.066264 289.061894,151.066264 Z M349.798698,184.269668 L350.241793,175.636783 C343.927692,186.151194 331.631813,194.230689 319.003612,194.230689 C317.895875,190.135603 316.788138,182.49882 316.788138,177.296953 C316.788138,154.829316 324.874618,143.429481 341.822992,143.429481 C344.813882,143.650837 347.693998,144.536261 350.352566,145.643041 C350.131019,136.7888 350.241793,136.567444 350.241793,136.23541 C350.241793,130.369475 350.352566,124.060829 350.46334,116.866758 L359.879104,115.095909 C359.989877,153.833214 359.879104,170.102882 359.989877,192.570519 L349.687924,193.787977 C349.687924,190.356959 349.687924,187.257974 349.798698,184.269668 Z M326.203902,175.636783 C326.203902,177.296953 326.425449,180.395938 326.75777,182.941532 C338.278234,180.727972 349.134056,169.328136 351.460303,157.264233 C347.693998,153.833214 342.266087,152.173044 338.278234,152.173044 C335.176571,152.173044 332.850323,152.615756 331.521039,153.833214 C328.087055,157.374911 326.203902,164.458304 326.203902,175.636783 Z M375.974111,135.68202 L375.974111,125.499643 L388.26999,122.622014 L388.26999,133.357782 L375.974111,135.68202 Z M387.162253,192.349163 L377.081848,194.230689 C377.414169,180.727972 377.414169,167.003898 377.635716,146.196431 L387.162253,144.425583 C387.162253,165.897118 387.273027,178.957123 387.162253,192.349163 Z M447.123642,192.570519 L436.821688,194.230689 C436.821688,190.356959 436.932462,186.704584 436.932462,182.941532 L437.486331,173.976613 C430.839909,185.487126 418.322482,194.120011 407.023566,194.230689 C405.36196,189.471535 404.14345,178.071699 404.364997,146.639143 L414.888498,144.757617 C414.113082,166.89322 414.445403,176.632885 414.888498,182.49882 C421.978014,181.39204 432.612288,172.759155 437.264783,161.248641 C437.375557,156.378809 437.486331,151.176942 437.707878,145.643041 L447.012868,143.982871 C446.459,162.687455 446.680547,176.632885 447.123642,192.570519 Z M535,192.570519 L524.365726,194.230689 C525.141142,171.431018 524.587273,161.580675 523.922631,155.71474 C517.608531,156.932199 509.18973,167.889322 504.648009,180.395938 L504.648009,192.570519 L494.235282,194.230689 C495.010698,171.431018 494.678377,161.580675 494.235282,155.71474 C488.253503,156.600165 479.613155,167.44661 474.96066,180.174582 C474.849886,184.269668 474.739112,188.254077 474.628339,192.570519 L465.101801,193.787977 C465.434122,175.083393 465.544896,162.244743 465.212575,146.307109 L475.846849,144.425583 C475.846849,148.077958 475.846849,151.619654 475.625302,155.050672 L474.739112,167.003898 C481.053213,152.615756 491.133619,143.872193 501.98944,143.982871 C502.986403,147.192533 503.761819,151.508976 504.204914,159.920505 L504.09414,166.33983 C510.408241,152.726434 520.820968,143.872193 531.898337,143.982871 C533.781489,149.959484 535,159.809827 535,192.570519 Z M0,310.212023 C0.443094762,284.313368 0.553868452,267.933022 0.443094762,242.145044 C8.97266892,240.374196 17.3914694,238.160636 28.0257437,238.160636 C44.1987025,238.160636 51.9528608,246.461487 51.9528608,257.972 C51.9528608,269.261158 46.6357237,275.680482 38.660018,279.886247 C32.1243702,283.317265 23.5947961,285.198792 14.1790324,285.641504 C14.1790324,292.392863 14.2898061,299.586933 14.2898061,308.551853 L0,310.212023 Z M25.2564014,248.785725 C21.4900959,248.785725 17.6130168,249.449793 13.8467113,250.335217 C13.8467113,259.742849 13.957485,267.158275 14.0682587,274.573702 C22.8193802,274.020312 29.5765753,272.692176 33.3428808,270.81065 C38.660018,268.154378 39.9893022,264.391325 39.9893022,259.964205 C39.9893022,253.102168 35.0044862,248.785725 25.2564014,248.785725 Z M105.04628,258.52539 C99.6183695,275.791161 81.562258,312.978973 66.164715,336 L53.4257406,329.469997 L69.9310205,306.891682 C64.9462044,296.487949 58.5213304,279.222179 53.0934195,262.620477 L66.4970361,257.307932 C70.7064363,270.81065 75.2481576,285.420148 77.9067262,294.163711 C82.5592212,282.431841 86.7686214,271.474718 90.4241532,260.185561 L105.04628,258.52539 Z M154.816489,308.551853 L138.975851,310.212023 C136.206509,300.693714 130.778598,291.507438 122.13825,286.637606 C122.027477,294.163711 121.805929,301.689816 121.584382,308.551853 L109.51005,310.212023 C109.842371,287.633708 109.731597,252.880812 109.288502,232.848091 L122.802893,230.191819 C122.802893,241.81301 122.692119,259.07878 122.359798,276.676585 L136.428057,260.960307 L150.607089,257.41861 L151.604052,262.952511 L132.883298,280.328959 C143.296025,286.194894 150.163994,295.934559 154.816489,308.551853 Z M224.891105,284.866758 C224.669558,300.472358 207.94273,310.212023 174.156755,310.212023 C174.59985,284.092012 174.489076,268.375734 174.59985,242.3664 C184.901803,239.710128 193.763698,238.160636 202.847141,238.160636 C214.589152,238.160636 221.346347,245.022673 221.346347,254.430304 C221.346347,259.410814 218.687778,264.834037 213.592189,269.261158 C221.014026,272.913532 225.001879,277.894043 224.891105,284.866758 Z M200.077798,248.232335 C195.646851,248.232335 191.437451,249.007081 187.338824,250.003183 C187.338824,256.31183 187.449598,262.067087 187.560371,267.822344 C194.096019,267.379631 198.970062,266.272851 203.179462,264.502003 C206.613446,263.063189 209.493562,260.960307 209.493562,255.647762 C209.493562,251.441997 207.056541,248.232335 200.077798,248.232335 Z M212.373678,285.86286 C212.373678,280.660993 209.71511,277.229975 204.176425,274.905736 C200.077798,276.455229 194.317567,277.894043 187.781919,278.226077 C187.892693,284.20269 188.003466,290.400658 188.11424,297.373373 C205.173388,296.487949 212.373678,292.614219 212.373678,285.86286 Z M234.782785,310.212023 C234.893559,290.84337 234.672012,260.074883 234.561238,232.516057 L247.52176,230.191819 C247.52176,257.41861 247.300212,288.408454 247.189439,308.551853 L234.782785,310.212023 Z M303.827616,308.551853 L290.202452,310.212023 L290.424,305.010156 L291.531737,292.392863 C284.442221,302.685918 271.592472,310.212023 259.407366,310.212023 C257.856535,305.34219 256.859572,298.590831 256.859572,290.179302 C256.859572,269.039802 265.832241,257.41861 286.325373,257.41861 C293.082568,257.41861 300.504406,260.960307 303.273748,263.395223 C303.273748,285.30947 303.716843,293.388965 303.827616,308.551853 Z M268.712356,287.080318 C268.712356,290.28998 268.82313,292.946253 269.266225,295.713203 C279.125083,294.385067 289.427037,285.088114 292.307153,271.806752 C288.983942,269.593192 284.220673,268.375734 281.008236,268.375734 C277.795799,268.375734 275.691099,268.929124 274.361815,270.035904 C270.817057,272.913532 268.712356,278.115399 268.712356,287.080318 Z M351.493125,290.622014 C343.628193,301.136426 329.006066,310.322701 318.261018,310.322701 C314.494712,306.338292 312.61156,297.816085 312.61156,288.297776 C312.61156,270.81065 321.362681,257.41861 340.637303,257.41861 C344.182061,257.41861 349.388425,258.746746 352.600862,260.185561 L347.394498,271.585396 C340.415756,268.154378 333.32624,267.490309 327.676782,270.035904 C325.904403,273.02421 324.242797,280.771671 324.242797,286.526928 C324.242797,290.511336 324.685892,293.720999 325.350534,296.155915 C333.215466,295.159813 340.969624,290.179302 347.72682,281.989129 L351.493125,290.622014 Z M408.242076,308.551853 L392.401439,310.212023 C389.632096,300.693714 384.204186,291.507438 375.563838,286.637606 C375.453064,294.163711 375.231517,301.689816 375.009969,308.551853 L362.935637,310.212023 C363.267958,287.633708 363.157184,252.880812 362.71409,232.848091 L376.22848,230.191819 C376.22848,241.81301 376.117706,259.07878 375.785385,276.676585 L389.853644,260.960307 L404.032676,257.41861 L405.029639,262.952511 L386.308886,280.328959 C396.721613,286.194894 403.589581,295.934559 408.242076,308.551853 Z"/>
</svg>
