<svg xmlns="http://www.w3.org/2000/svg" width="710" height="414" viewBox="0 0 710 414">
  <path d="M470.319765 355.11274C470.319765 346.471251 473.312172 342.643743 480.163209 342.643743 483.037495 342.643743 485.833033 342.998873 487.604853 343.669673L487.604853 366.397971C485.754286 367.621195 484.061213 368.252537 482.407515 368.252537 475.320235 368.252537 470.319765 363.122886 470.319765 355.11274zM482.486262 337.158963C469.768532 337.158963 459.176986 346.550169 459.176986 358.032694 459.176986 369.002255 465.319295 375 476.462074 375 479.887593 375 484.454951 372.671928 487.604853 369.791432L487.604853 374.447576 489.927906 375 496.700196 372.316798 503 370.264938 503 368.48929 499.928845 367.10823C498.078278 366.43743 497.408924 365.05637 497.408924 363.122886L497.133307 338.61894 497.408924 305.749718 495.085871 305.078918 488.313581 307.76212 482.013777 309.81398 482.013777 311.86584 485.084932 313.2469C486.935499 313.9177 487.604853 315.29876 487.604853 316.956032L487.604853 337.23788C486.266145 337.158963 484.533699 337.158963 482.486262 337.158963zM452.522818 365.806088L452.247202 338.540023 452.522818 305.6708 450.199765 305 443.427476 307.683202 437.127671 309.735062 437.127671 311.786922 440.120078 313.167982C442.088767 313.838782 442.718748 315.219842 442.718748 316.877114L442.994364 338.500564 442.718748 365.766629C442.718748 367.739572 441.695029 369.199549 439.726341 370.067644L437.127671 371.56708 437.127671 373.697858 447.719217 373.421646 458.113894 373.697858 458.113894 371.56708 455.318356 370.067644C453.546536 369.278467 452.522818 367.77903 452.522818 365.806088zM425.276164 356.967306C425.197417 366.003382 422.480626 369.712514 415.983953 369.712514 409.290411 369.712514 406.494873 364.859076 406.494873 355.073281 406.57362 345.958286 409.290411 342.328072 415.708337 342.328072 422.559374 342.367531 425.354912 347.102593 425.276164 356.967306zM419.606341 337.158963C405.668023 337.158963 395.62771 345.800451 395.548963 357.914318 395.548963 369.357384 400.667554 374.960541 412.007202 374.960541 426.221135 374.960541 436.261448 366.200676 436.261448 354.086809 436.340196 342.643743 431.103483 337.158963 419.606341 337.158963zM363.104971 369.002255C360.978787 369.002255 359.128219 367.621195 359.128219 366.121759L359.128219 344.971815 368.341683 344.971815C372.712172 344.971815 376.33456 349.706877 376.33456 357.282976 376.33456 363.596392 371.412838 369.002255 365.664266 369.002255L363.104971 369.002255zM359.088845 323.466742C359.088845 321.967306 360.939413 320.586246 363.065597 320.586246L365.585519 320.586246C371.806575 320.586246 374.326497 323.466742 374.326497 330.372041 374.326497 334.949267 369.680391 340.236753 365.38865 340.236753L359.088845 340.236753 359.088845 323.466742zM340.031937 319.718151L345.504892 321.296505C347.001096 321.651635 347.552329 322.598647 347.552329 324.177001L347.827945 344.379932 347.552329 365.529876C347.552329 366.910936 347.001096 367.77903 345.504892 368.213078L340.031937 369.712514 340.031937 373.697858 353.3009 373.500564C355.820822 373.500564 362.396243 373.697858 364.994912 373.697858 379.681331 373.697858 388.973542 366.516347 388.304188 355.42841 388.107319 348.799324 383.106849 343.314543 375.586458 341.183766 380.901918 338.500564 385.429902 333.528749 385.429902 328.714769 385.429902 321.257046 378.539491 315.772266 368.814168 315.772266 361.372524 315.772266 354.875851 316.127396 353.222153 316.048478L340.031937 315.772266 340.031937 319.718151zM297.390137 342.367531C301.48501 342.367531 303.611194 345.366404 303.88681 351.403608L287.822309 351.403608C288.649159 345.169109 291.917182 342.367531 297.390137 342.367531zM312.43092 368.607666C312.43092 367.936866 312.155303 367.029312 311.879687 366.476888 307.981683 367.226607 303.808063 368.055242 301.918121 368.055242 292.704658 368.055242 287.62544 363.478016 287.507319 355.586246L312.312798 355.586246C313.257769 355.586246 313.690881 354.75761 313.690881 352.784667 313.690881 342.919955 308.296673 337.158963 299.555695 337.158963 286.99546 337.158963 276.325166 346.944758 276.325166 357.638106 276.325166 368.726043 283.569941 374.960541 296.130176 374.960541 301.406262 374.960541 309.477886 371.803833 312.43092 368.607666zM271.915303 365.806088C267.269198 367.187148 263.371194 368.213078 261.599374 368.213078 253.252133 368.213078 247.661057 363.00451 247.661057 354.994363 247.661057 345.958286 250.732211 342.328072 257.622622 342.328072 260.496908 342.328072 262.938082 345.011274 263.371194 349.864713 267.662935 347.89177 271.639687 343.827508 271.36407 342.05186 271.36407 339.723788 265.772994 337.119504 259.670059 337.119504 246.952329 337.119504 236.518278 346.786922 236.518278 357.795941 236.518278 368.804961 243.408689 374.921082 255.653933 374.921082 261.126888 374.921082 269.119765 371.56708 272.269667 367.857948 272.348415 367.305524 272.072798 366.279594 271.915303 365.806088zM186.198591 373.737317L196.790137 373.461105 207.184814 373.737317 207.184814 371.606539 204.586145 370.107103C202.617456 369.278467 201.593738 367.976325 201.593738 366.003382L201.593738 348.049605C204.192407 345.445321 207.539178 343.472379 210.0591 343.472379 215.728924 343.472379 218.130724 346.826381 218.130724 354.639233L218.130724 366.003382C218.130724 367.976325 217.107006 369.278467 215.256438 370.107103L212.579022 371.606539 212.579022 373.737317 222.973699 373.461105 233.486497 373.737317 233.486497 371.606539 230.966575 370.107103C228.919139 369.278467 227.974168 367.976325 227.974168 366.003382L227.974168 351.561443C227.974168 341.223224 224.54865 337.119504 216.00454 337.119504 211.00407 337.119504 205.334247 339.64487 201.593738 343.551297L201.593738 337.711387 199.270685 337.158963 192.498395 339.842165 186.198591 341.894025 186.198591 343.866967 189.269746 345.366404C191.120313 345.918828 191.789667 347.339346 191.789667 349.27283L191.789667 366.042841C191.789667 368.015784 190.765949 369.317926 188.994129 370.146561L186.198591 371.645998 186.198591 373.737317zM166.27546 342.367531C170.370333 342.367531 172.496517 345.366404 172.772133 351.403608L156.707632 351.403608C157.534481 345.169109 160.802505 342.367531 166.27546 342.367531zM181.316243 368.607666C181.316243 367.936866 181.040626 367.029312 180.76501 366.476888 176.867006 367.226607 172.693386 368.055242 170.803444 368.055242 161.58998 368.055242 156.510763 363.478016 156.392642 355.586246L181.198121 355.586246C182.143092 355.586246 182.576204 354.75761 182.576204 352.784667 182.576204 342.919955 177.181996 337.158963 168.441018 337.158963 155.880783 337.158963 145.210489 346.944758 145.210489 357.638106 145.210489 368.726043 152.455264 374.960541 165.015499 374.960541 170.252211 374.960541 178.363209 371.803833 181.316243 368.607666zM109.301605 355.11274C109.301605 346.471251 112.294012 342.643743 119.145049 342.643743 122.019335 342.643743 124.814873 342.998873 126.586693 343.669673L126.586693 366.397971C124.736125 367.621195 123.043053 368.252537 121.389354 368.252537 114.302074 368.252537 109.301605 363.122886 109.301605 355.11274zM121.468102 337.158963C108.750372 337.158963 98.1588258 346.550169 98.1588258 358.032694 98.1588258 369.002255 104.301135 375 115.443914 375 118.869432 375 123.436791 372.671928 126.586693 369.791432L126.586693 374.447576 128.909746 375 135.682035 372.316798 141.98184 370.264938 141.98184 368.48929 138.910685 367.10823C137.060117 366.43743 136.390763 365.05637 136.390763 363.122886L136.115147 338.61894 136.390763 305.749718 134.06771 305.078918 127.295421 307.76212 120.995616 309.81398 120.995616 311.86584 124.066771 313.2469C125.917339 313.9177 126.586693 315.29876 126.586693 316.956032L126.586693 337.23788C125.287358 337.158963 123.515538 337.158963 121.468102 337.158963zM68.6678669 363.951522C68.6678669 362.452086 70.3215656 360.873732 72.6446184 360.124014L79.2594129 357.993236 79.2594129 364.780158C76.9363601 367.77903 75.361409 368.686584 73.235225 368.686584 69.888454 368.726043 68.6678669 367.423901 68.6678669 363.951522zM58.1944423 366.200676C58.1944423 371.803833 61.1868493 374.960541 68.5891194 374.960541 71.7390215 374.960541 76.0307632 372.553551 79.2594129 369.002255L79.2594129 374.408117 81.5824658 374.960541 88.3547554 372.277339 94.6545597 370.225479 94.6545597 368.449831 91.5834051 367.068771C89.7328376 366.397971 89.0634834 365.016911 89.0634834 363.083427L89.0634834 352.311161C89.0634834 341.420519 85.4410959 337.119504 76.2276321 337.119504 70.6365558 337.119504 62.9586693 341.578354 59.6906458 346.786922 59.1394129 347.53664 59.7693933 348.167982 61.2655969 349.114994 63.2342857 350.140924 64.5336204 350.496054 66.4629354 350.693348 65.4392172 346.708005 68.4316243 343.038331 71.7783953 343.156708 77.5269667 343.235626 79.0231703 345.208568 79.2200391 354.599775L70.8727984 357.006764C61.8168297 359.768884 58.1944423 362.096956 58.1944423 366.200676zM46.6185519 357.361894C44.0986301 364.819617 36.8538552 369.475761 29.4122114 369.475761 19.0962818 369.475761 11.654638 359.334837 11.654638 343.669673 11.654638 329.425028 18.9781605 320.11274 30.5146771 320.11274 37.4050881 320.11274 43.6261448 324.57159 46.1066928 330.72717L49.8078278 330.72717 49.1384736 317.863585C44.4136204 315.732807 39.0981605 314.588501 32.0502544 314.588501 12.7177299 314.588501 0 327.057497 0 345.603157 0 363.556933 10.7884149 374.921082 28.0735029 374.921082 37.0113503 374.921082 45.004227 372.671928 49.6503327 368.765502L50.3984344 357.322435 46.6185519 357.322435 46.6185519 357.361894zM476.120483 213.964902L476.3177 237.03107 476.120483 264.940736C476.120483 266.925777 475.37106 268.116801 473.517223 268.791715L470.085653 270.02244 470.085653 272.086881 479.946486 271.808976 489.255113 272.086881 489.255113 270.02244 486.178533 268.791715C484.403583 268.037399 483.65416 266.925777 483.65416 264.940736L483.65416 256.524166 486.809626 253.983314 496.19714 265.218642C497.419883 266.727273 497.14378 267.481588 495.171613 268.513809L492.489466 270.02244 492.489466 272.086881 502.46863 271.808976 513 272.086881 513 270.02244 509.016223 268.513809C508.069583 268.156502 507.162387 267.481588 505.584653 265.496548L492.726126 249.378021 500.733123 242.827388C502.58696 241.318757 503.612487 240.564442 504.559127 240.405639L509.21344 239.294016 509.21344 237.03107 500.10203 237.308976 490.793403 237.03107 490.793403 239.294016 494.146086 239.849827C496.749346 240.326237 497.02545 240.802647 495.644933 241.993671L483.733046 252.31588 483.733046 204.794016 481.603106 204.039701 475.84438 206.024741 470.164539 207.533372 470.164539 209.518412 473.872213 210.630035C475.48939 211.066743 476.120483 212.257768 476.120483 213.964902zM457.976549 255.372842C457.976549 264.067319 454.623866 268.474108 448.115716 268.474108 440.858142 268.474108 437.584346 263.868815 437.584346 253.665708 437.584346 244.971231 440.937029 240.564442 447.366292 240.564442 454.702753 240.564442 457.976549 245.169735 457.976549 255.372842zM450.403429 236.078251C437.821006 236.078251 429.261802 244.216916 429.261802 256.047756 429.261802 267.283084 434.586652 273 444.999692 273 457.582116 273 466.220206 264.861335 466.220206 253.030495 466.259649 241.795167 460.934799 236.078251 450.403429 236.078251zM413.405582 255.372842C413.405582 264.067319 410.052899 268.474108 403.544749 268.474108 396.287175 268.474108 393.013378 263.868815 393.013378 253.665708 393.013378 244.971231 396.366062 240.564442 402.795325 240.564442 410.131785 240.564442 413.405582 245.169735 413.405582 255.372842zM405.871905 236.078251C393.289482 236.078251 384.730278 244.216916 384.730278 256.047756 384.730278 267.283084 390.055128 273 400.468169 273 413.050592 273 421.688682 264.861335 421.688682 253.030495 421.688682 241.795167 416.363832 236.078251 405.871905 236.078251zM350.848455 267.838895C348.718515 267.838895 347.219668 266.60817 347.219668 264.940736L347.219668 243.105293 355.699985 243.105293C363.036445 243.105293 367.059665 247.313579 367.059665 255.372842 367.059665 262.479287 361.458711 267.838895 354.319468 267.838895L350.848455 267.838895zM347.219668 221.627158C347.219668 219.959724 348.718515 218.728999 350.848455 218.728999L353.925035 218.728999C361.458711 218.728999 364.259188 221.547756 364.259188 228.296893 364.259188 233.537399 359.131555 238.897008 354.003921 238.897008L347.219668 238.897008 347.219668 221.627158zM330.732354 217.81588L336.609411 219.205409C337.989928 219.562716 338.660464 220.515535 338.660464 222.103567L338.857681 242.628884 338.660464 264.543728C338.660464 266.052359 337.989928 266.965478 336.609411 267.362486L330.732354 268.752014 330.732354 272.047181 342.920344 271.848677C345.523604 271.848677 350.572351 272.047181 353.333385 272.047181 367.651315 272.047181 376.407735 265.218642 376.052745 253.864212 375.855528 246.559264 371.201215 241.398159 362.918115 239.730725 368.519068 237.189873 372.581732 232.227273 372.581732 226.907365 372.581732 219.403913 366.349685 214.520713 356.488851 214.520713 350.730125 214.520713 344.931954 214.878021 342.880901 214.798619L330.692911 214.520713 330.692911 217.81588 330.732354 217.81588zM288.409657 240.564442C293.340074 240.564442 295.667231 243.462601 295.943334 249.85443L278.15439 249.85443C279.179917 243.740506 282.729817 240.564442 288.409657 240.564442zM302.727587 266.886076C302.806474 266.131761 302.451484 265.09954 301.978164 264.62313 297.797171 266.489068 294.168384 267.441887 291.367907 267.441887 282.5326 267.441887 277.878287 262.558688 277.878287 253.864212L277.878287 253.586306 301.228741 253.586306C302.727587 253.586306 303.358681 252.633487 303.358681 250.767549 303.358681 241.47756 298.428264 236.03855 290.22405 236.03855 278.50938 236.03855 269.476857 244.852129 269.476857 256.087457 269.476857 266.766974 276.103337 272.960299 287.344687 272.960299 292.59065 273 299.651007 270.181243 302.727587 266.886076zM262.613717 264.662831C258.235507 266.647871 254.685607 267.56099 252.00346 267.56099 243.72036 267.56099 238.789943 262.518987 238.789943 253.983314 238.789943 244.971231 242.339843 240.604143 249.4002 240.604143 253.107873 240.604143 255.55336 242.867089 256.73666 247.273878 260.010457 245.88435 262.968707 242.867089 262.613717 241.358458 261.864293 238.539701 256.73666 236.117952 251.05682 236.117952 239.34215 236.117952 230.388513 244.93153 230.388513 256.24626 230.388513 266.925777 236.817776 273 247.98024 273 253.18676 273 260.28656 270.181243 263.323697 266.925777 263.442027 266.131761 263.087037 265.09954 262.613717 264.662831zM181.005459 272.047181L190.866292 271.769275 200.648239 272.047181 200.648239 269.982739 197.295556 268.752014C195.441719 268.0771 194.613409 266.965478 194.613409 265.020138L194.613409 246.956272C197.216669 243.661105 201.121559 241.318757 204.277026 241.318757 210.430186 241.318757 212.836229 244.693326 212.836229 252.831991L212.836229 265.020138C212.836229 267.005178 212.007919 268.116801 210.232969 268.752014L206.801399 269.982739 206.801399 272.047181 216.583346 271.769275 226.44418 272.047181 226.44418 269.982739 223.091496 268.752014C221.23766 268.0771 220.40935 266.965478 220.40935 265.020138L220.40935 250.132336C220.40935 240.48504 216.701676 236.078251 208.694679 236.078251 203.488159 236.078251 198.084423 238.619102 194.652853 242.549482L194.652853 236.832566 192.522913 236.078251 186.764186 238.063291 181.084346 239.571922 181.084346 241.556962 184.792019 242.668585C186.448639 243.144994 187.119176 244.336018 187.119176 246.241657L187.119176 265.059839C187.119176 267.044879 186.290866 268.156502 184.515916 268.791715L181.084346 270.02244 181.084346 272.047181 181.005459 272.047181zM160.416039 240.564442C165.346455 240.564442 167.673612 243.462601 167.949716 249.85443L150.160772 249.85443C151.186299 243.740506 154.736199 240.564442 160.416039 240.564442zM174.733969 266.886076C174.812856 266.131761 174.457866 265.09954 173.984546 264.62313 169.803552 266.489068 166.174765 267.441887 163.374289 267.441887 154.538982 267.441887 149.884669 262.558688 149.884669 253.864212L149.884669 253.586306 173.235122 253.586306C174.733969 253.586306 175.365062 252.633487 175.365062 250.767549 175.365062 241.47756 170.434646 236.03855 162.230432 236.03855 150.515762 236.03855 141.483239 244.852129 141.483239 256.087457 141.483239 266.766974 148.109719 272.960299 159.351069 272.960299 164.597032 273 171.657389 270.181243 174.733969 266.886076zM104.051515 254.062716C104.051515 245.169735 107.680301 240.762946 115.016761 240.762946 118.290558 240.762946 121.446025 241.43786 123.102645 242.271577L123.102645 264.027618C120.499385 266.449367 118.172228 267.60069 115.766185 267.60069 108.626941 267.56099 104.051515 262.479287 104.051515 254.062716zM116.712825 236.078251C104.800938 236.078251 95.6895279 244.89183 95.6895279 256.325662 95.6895279 267.005178 101.645471 273 111.506305 273 115.608412 273 120.262725 270.657652 123.142088 267.362486L123.142088 272.245685 125.272028 273 131.030755 271.01496 136.710595 269.506329 136.710595 267.719793 133.002922 266.60817C131.346302 266.131761 130.675765 264.940736 130.675765 263.035098L130.478548 236.991369 130.675765 204.754315 128.545825 204 122.787098 205.98504 117.107258 207.493671 117.107258 209.478711 120.814932 210.590334C122.471552 211.066743 123.142088 212.257768 123.142088 213.964902L123.142088 236.435558C121.643242 236.276755 119.513302 236.078251 116.712825 236.078251zM64.4898508 262.876295C64.4898508 260.891254 66.2648009 259.303222 69.4991542 258.271001L77.3089343 255.849252 77.3089343 261.844074C74.1534676 266.250863 71.9840843 267.838895 69.4991542 267.838895 65.9886975 267.838895 64.4898508 266.330265 64.4898508 262.876295zM56.5222974 264.543728C56.5222974 269.784235 59.6777641 272.960299 66.1859142 272.960299 70.0908042 272.960299 74.4690143 270.141542 77.3483777 266.290564L77.3483777 272.205984 79.4783177 272.960299 85.2370444 270.975259 90.9168845 269.466628 90.9168845 267.680092 87.2092111 266.56847C85.5525911 266.09206 84.8820544 264.901036 84.8820544 262.995397L84.8820544 249.973533C84.8820544 240.405639 81.1743811 235.998849 73.1673843 235.998849 67.8425342 235.998849 61.4527141 239.651323 58.2578041 244.41542 57.7844841 245.090334 58.2578041 245.725547 59.3622174 246.479862 60.7427341 247.313579 61.8865908 247.710587 63.4643242 247.789988 63.5432108 243.859609 66.2648009 241.040852 69.8935876 241.040852 75.494541 241.040852 77.151161 243.462601 77.3483777 252.474684L68.7102876 255.015535C59.9538674 257.635788 56.5222974 260.136939 56.5222974 264.543728zM44.6498539 255.372842C42.6776872 263.789413 36.8400738 268.315305 28.2808704 268.315305 15.6984469 268.315305 8.63809011 259.025316 8.63809011 242.350978 8.63809011 227.939586 16.5662002 218.252589 28.5569737 218.252589 36.7611871 218.252589 42.0465939 222.103567 44.1765339 229.60702L47.4503306 229.60702 46.6220206 217.220368C42.5199139 214.878021 37.1161771 213.567894 30.2530371 213.567894 11.7146702 213.567894 0 225.557537 0 244.216916 0 262.201381 9.97916346 273 26.6242503 273 34.9073505 273 42.3621406 270.856157 47.0953406 266.925777L47.9236506 255.412543 44.6498539 255.412543 44.6498539 255.372842zM582.057963 133.467856L580.006796 132.719204 574.681652 134.295313 569.277617 135.516798 569.277617 137.368727 573.379951 138.393198C574.957771 138.747822 575.628345 139.890502 575.628345 141.663625L575.628345 161.286188C575.628345 163.256325 574.87888 164.359602 573.024941 164.91124L569.317063 166.014517 569.317063 167.984654 578.902322 167.708835 590.065402 167.984654 590.065402 166.014517 584.582476 164.91124C582.807428 164.556616 582.057963 163.256325 582.057963 161.286188L582.057963 157.661136C582.057963 147.613438 586.160296 139.260058 591.367104 139.260058 592.944924 139.260058 593.694389 139.338864 595.469437 140.560348 596.573911 139.535877 597.441712 137.683949 597.875613 136.107839 598.072841 135.004562 598.072841 134.728743 597.599494 134.25591 596.771139 133.428453 594.798863 132.758606 592.866033 132.758606 588.40869 132.758606 583.833011 138.077976 581.229607 148.007466 581.584617 145.603899 582.057963 142.254666 582.057963 140.087516L582.057963 133.467856zM537.681763 159.119038C537.681763 156.99129 539.535702 155.41518 543.283026 154.272501L551.645474 151.67192 551.645474 157.267109C548.213714 162.271257 545.610311 164.241394 543.006907 164.241394 539.338474 164.241394 537.681763 162.547076 537.681763 159.119038zM530.976026 160.498134C530.976026 165.620489 534.131667 168.772708 540.285167 168.772708 544.584727 168.772708 548.923734 165.699295 551.645474 161.719618L551.645474 167.945251 553.69664 168.772708 559.021784 167.196599 564.42582 165.896309 564.42582 164.123185 560.323486 163.17752C558.745666 162.822895 558.075092 161.60141 558.075092 159.828287L558.075092 145.800912C558.075092 137.053505 554.367214 132.679801 546.912013 132.679801 541.705205 132.679801 535.94616 135.83202 532.869411 140.402737 532.396064 140.954376 532.79052 141.624222 533.697766 142.254666 534.802241 143.003318 535.827824 143.357943 537.247862 143.476151 537.918436 139.57528 540.52184 137.171713 544.229718 137.171713 549.712644 137.092908 551.566583 139.772294 551.684919 148.519701L542.849125 151.041477C534.328894 153.445044 530.976026 156.045624 530.976026 160.498134zM518.235126 161.246786L518.037898 133.349647 518.235126 101.827457 516.183959 101 510.858815 102.576109 505.45478 103.797594 505.45478 105.767731 509.557113 106.713397C511.134934 107.068022 511.805508 108.210701 511.805508 109.865616L511.884399 133.38905 511.805508 161.286188C511.805508 163.256325 511.056043 164.359602 509.202104 164.91124L505.494226 166.014517 505.494226 167.984654 515.079485 167.708835 524.467517 167.984654 524.467517 166.014517 520.759639 164.91124C518.984591 164.320199 518.235126 163.216922 518.235126 161.246786zM468.573227 133.625467L466.522061 132.798009 461.196917 134.374119 455.871773 135.595603 455.871773 137.56574 459.974106 138.511406C461.473035 138.866031 462.104164 140.00871 462.104164 141.663625L462.104164 155.257569C462.104164 164.556616 466.206497 168.851514 474.766173 168.851514 478.119041 168.851514 481.748028 167.35421 484.62755 164.950643 485.377015 164.399005 486.12648 163.729158 486.757608 162.980506L486.757608 167.984654 488.808775 168.812111 494.133919 167.236002 499.459063 165.935711 499.459063 164.162588 495.475066 163.216922C493.897246 162.862298 493.226672 161.837827 493.226672 159.86769L493.226672 133.625467 491.175505 132.798009 485.850361 134.374119 480.446326 135.595603 480.446326 137.56574 484.548659 138.511406C486.12648 138.866031 486.797054 140.00871 486.797054 141.663625L486.797054 159.040232C484.19365 162.310659 480.76189 164.241394 477.211794 164.241394 470.782176 164.241394 468.573227 161.364994 468.573227 152.696392L468.573227 133.625467zM417.609627 182.287847C417.609627 177.914144 420.410258 175.037744 427.194886 173.067607 435.675671 173.619245 444.866475 173.422231 444.866475 179.687267 444.866475 186.464538 438.436857 191.665699 429.877181 191.665699 421.593624 191.665699 417.609627 188.316466 417.609627 182.287847zM430.429418 136.777686C436.38569 136.69888 440.211905 140.757362 440.211905 146.62837 440.211905 152.775197 437.135155 155.848611 430.626646 155.848611 424.473146 155.848611 420.844159 151.94774 420.844159 145.879718 420.765268 139.851099 423.842018 136.895894 430.429418 136.777686zM414.059531 147.968063C414.059531 153.445044 416.662935 157.267109 421.514733 158.922024 419.936912 159.276649 418.359092 159.86769 417.215172 160.576939 414.887887 161.798424 413.586185 163.571547 413.586185 165.502281 413.586185 169.600166 416.741826 171.373289 421.120277 172.279552 414.138422 174.4073 410.785553 178.58399 410.785553 184.573206 410.785553 191.074658 417.49129 196 426.879322 196 439.738559 196 451.453875 187.252592 451.532767 177.323102 451.611658 162.350062 420.252476 171.294484 420.252476 163.847366 420.252476 162.192451 422.776989 160.695147 426.682094 159.946495L428.181024 159.946495C439.265213 159.946495 446.996533 153.642057 446.996533 144.61883 446.996533 141.939444 446.325959 139.614683 445.024257 137.84156 446.996533 137.289921 448.456017 137.171713 450.901638 137.092908 451.453875 136.068436 451.651103 134.571132 451.374984 133.38905 451.019975 131.812941 449.718273 131.340108 448.101007 132.08876 445.694831 133.467856 443.998674 134.492327 442.775863 135.437993 440.369687 133.664869 437.016818 132.758606 432.717258 132.758606 421.790851 132.719204 414.059531 139.023642 414.059531 147.968063zM392.561727 136.777686C397.886871 136.777686 400.293047 139.57528 400.569166 145.997926L382.148112 145.997926C383.13425 140.126918 386.881574 136.777686 392.561727 136.777686zM406.525438 162.822895C406.604329 162.074243 406.24932 160.970966 405.697083 160.576939 401.318631 162.901701 397.965762 163.926172 394.810121 163.926172 386.171554 163.926172 381.793103 159.00083 381.793103 149.977603L381.793103 149.50477 404.395381 149.50477C406.052092 149.50477 406.919893 148.480299 406.919893 146.707175 406.919893 137.880962 402.186432 132.679801 394.257884 132.679801 382.897577 132.679801 374.692911 140.87557 374.692911 152.223559 374.692911 162.625881 381.004193 168.772708 391.654481 168.772708 396.742951 168.772708 403.330352 166.172128 406.525438 162.822895zM335.089618 118.021983C335.089618 116.248859 336.391319 115.145583 338.639714 115.145583L342.939274 115.145583C351.222832 115.145583 355.522392 119.243467 355.522392 126.76939 355.522392 133.38905 349.645011 138.314392 341.913691 138.314392L335.129063 138.314392 335.129063 118.021983 335.089618 118.021983zM319.824205 111.205309L319.824205 114.081709 325.859368 115.460805C327.16107 115.736624 327.910534 116.761095 327.910534 118.337204L328.107762 139.260058 327.910534 160.852758C327.910534 162.350062 327.16107 163.374533 325.859368 163.650353L319.824205 165.029448 319.824205 167.905848 331.539521 167.708835 343.175947 167.905848 343.175947 165.029448 337.140784 163.650353C335.839082 163.374533 335.089618 162.428868 335.089618 160.852758L335.089618 142.175861 340.966999 142.175861C341.716463 142.175861 342.465928 142.175861 343.215393 142.097055L352.99788 160.773953C356.074629 166.802572 359.900844 168.575695 365.857116 168.22107L371.261151 167.945251 371.261151 164.950643 367.553273 164.280796C363.924286 163.61095 361.320882 161.877229 358.914706 157.109498L350.433921 140.914973C358.520251 138.590212 363.174821 133.113231 363.017039 125.390294 362.938148 116.761095 355.837956 111.165906 344.398758 111.165906 339.468069 111.165906 333.866807 111.441725 331.46063 111.441725L319.824205 111.205309zM277.656953 136.777686C282.982097 136.777686 285.388273 139.57528 285.664392 145.997926L267.243338 145.997926C268.268922 140.126918 271.9768 136.777686 277.656953 136.777686zM291.620664 162.822895C291.699555 162.074243 291.344546 160.970966 290.792308 160.576939 286.413857 162.901701 283.060988 163.926172 279.905347 163.926172 271.26678 163.926172 266.888329 159.00083 266.888329 149.977603L266.888329 149.50477 289.490607 149.50477C291.147318 149.50477 292.015119 148.480299 292.015119 146.707175 292.015119 137.880962 287.281658 132.679801 279.35311 132.679801 267.992803 132.679801 259.788137 140.87557 259.788137 152.223559 259.788137 162.625881 266.099418 168.772708 276.749706 168.772708 281.838177 168.772708 288.465023 166.172128 291.620664 162.822895zM253.042954 160.892161C248.743394 163.138117 245.390525 163.965574 242.234884 163.965574 234.030218 163.965574 229.375648 159.119038 229.375648 150.37163 229.375648 141.427209 233.083526 136.777686 240.3415 136.777686 244.443833 136.777686 246.850009 138.747822 248.427829 142.924513 251.110124 141.821236 253.634637 139.378266 253.161291 137.99917 252.135707 134.925757 247.205019 132.679801 241.800984 132.679801 230.519567 132.679801 222.354347 140.954376 222.354347 152.302364 222.354347 162.704687 228.507846 168.772708 239.118689 168.772708 244.246605 168.772708 250.834006 166.172128 253.831864 163.17752 253.950201 162.350062 253.595191 161.364994 253.042954 160.892161zM174.230823 167.945251L183.816082 167.669432 193.204114 167.945251 193.204114 165.975114 189.496236 164.871837C187.721188 164.320199 186.971723 163.295728 186.971723 161.325591L186.971723 143.476151C189.654018 139.772294 193.67746 137.250518 197.227556 137.250518 203.538838 137.250518 206.06335 140.599751 206.06335 148.874326L206.06335 161.325591C206.06335 163.295728 205.313886 164.320199 203.538838 164.871837L199.712623 165.975114 199.712623 167.945251 209.218991 167.669432 218.72536 167.945251 218.72536 165.975114 215.017481 164.871837C213.242433 164.320199 212.492969 163.295728 212.492969 161.325591L212.492969 146.352551C212.492969 137.13231 208.587863 132.679801 200.856543 132.679801 195.649735 132.679801 190.2457 135.201576 186.971723 139.102447L186.971723 133.428453 184.920556 132.679801 179.595412 134.25591 174.191377 135.477395 174.191377 137.329324 178.293711 138.353795C179.871531 138.70842 180.542105 139.851099 180.542105 141.624222L180.542105 161.325591C180.542105 163.295728 179.79264 164.320199 178.017592 164.871837L174.191377 165.975114 174.191377 167.945251 174.230823 167.945251zM154.74474 136.777686C160.069884 136.777686 162.476061 139.57528 162.752179 145.997926L144.331125 145.997926C145.356709 140.126918 149.064587 136.777686 154.74474 136.777686zM168.708451 162.822895C168.787342 162.074243 168.432333 160.970966 167.880096 160.576939 163.501644 162.901701 160.148775 163.926172 156.993135 163.926172 148.354568 163.926172 143.976116 159.00083 143.976116 149.977603L143.976116 149.50477 166.578394 149.50477C168.235105 149.50477 169.102906 148.480299 169.102906 146.707175 169.102906 137.880962 164.369445 132.679801 156.440897 132.679801 145.08059 132.679801 136.875924 140.87557 136.875924 152.223559 136.875924 162.625881 143.187206 168.772708 153.837494 168.772708 158.925965 168.772708 165.55281 166.172128 168.708451 162.822895zM99.8365888 150.450436C99.8365888 141.506014 103.741694 136.856491 111.275787 136.856491 114.707547 136.856491 118.060415 137.526338 119.756572 138.629614L119.756572 159.473662C116.758713 162.625881 114.155309 163.926172 111.394124 163.926172 104.215041 163.965574 99.8365888 159.040232 99.8365888 150.450436zM112.695825 132.719204C101.256627 132.719204 92.8547333 141.072584 92.8547333 152.341767 92.8547333 162.74409 98.613778 168.812111 107.922919 168.812111 112.380261 168.812111 116.955941 166.48735 119.756572 163.059311L119.756572 167.984654 121.807739 168.812111 127.132883 167.236002 132.536918 165.935711 132.536918 164.162588 128.434584 163.216922C126.856764 162.862298 126.18619 161.640813 126.18619 159.86769L126.107299 133.349647 126.18619 101.827457 124.135024 101 118.80988 102.576109 113.484736 103.797594 113.484736 105.767731 117.468732 106.713397C119.046553 107.068022 119.717126 108.210701 119.717126 109.865616L119.717126 133.38905C118.178752 132.995023 115.772575 132.719204 112.695825 132.719204zM61.8505615 159.119038C61.8505615 156.99129 63.7045006 155.41518 67.4518241 154.272501L75.8142725 151.67192 75.8142725 157.267109C72.382513 162.271257 69.7791093 164.241394 67.1757055 164.241394 63.5467185 164.241394 61.8505615 162.547076 61.8505615 159.119038zM55.1448246 160.498134C55.1448246 165.620489 58.3004655 168.772708 64.4539653 168.772708 68.753526 168.772708 73.0925322 165.699295 75.8142725 161.719618L75.8142725 167.945251 77.8654391 168.772708 83.1905831 167.196599 88.5946181 165.896309 88.5946181 164.123185 84.492285 163.17752C82.9144645 162.822895 82.2438908 161.60141 82.2438908 159.828287L82.2438908 145.800912C82.2438908 137.053505 78.5360128 132.679801 71.0808112 132.679801 65.8740037 132.679801 60.114959 135.83202 57.0382092 140.402737 56.564863 140.954376 56.9593181 141.624222 57.8665649 142.254666 58.9710392 143.003318 59.9966225 143.357943 61.4166609 143.476151 62.0872346 139.57528 64.6906383 137.171713 68.3985164 137.171713 73.8814424 137.092908 75.7353815 139.772294 75.853718 148.519701L67.0179235 151.041477C58.4976931 153.445044 55.1448246 156.045624 55.1448246 160.498134zM43.7845174 151.317296C42.1278059 160.143509 36.9998895 164.517213 27.7696399 164.517213 14.1609385 164.517213 7.29741957 155.769805 7.29741957 138.747822 7.29741957 124.326421 15.5020859 114.67275 27.7696399 114.67275 36.5265434 114.67275 41.3783412 118.100788 43.3900623 126.217752L46.3879212 126.217752 45.4412289 114.23932C41.7333508 111.835753 36.2109793 110.417254 29.4263513 110.417254 11.2814162 110.417254 0 122.041062 0 140.639154 0 158.409788 9.58525922 168.812111 25.9551464 168.812111 33.8836941 168.812111 41.1416682 166.684363 45.8751295 162.783492L46.7034852 151.356698 43.7845174 151.356698 43.7845174 151.317296zM419.013211 65.5282906L427.655229 65.2531269 436.297246 65.5282906 436.297246 63.6807624 431.640817 62.855271C429.983443 62.5801072 429.391524 61.8332341 429.391524 59.8677784L429.391524 42.1393687C432.193274 37.5008934 436.73132 34.5134008 441.229905 34.5134008 448.135627 34.5134008 450.621687 37.8546754 450.621687 46.4633711L450.621687 59.8284693C450.621687 61.793925 450.069229 62.501489 448.372394 62.8159619L443.715965 63.6414532 443.715965 65.4889815 452.357982 65.2138177 461 65.4889815 461 63.6414532 456.34357 62.8159619C454.686197 62.5407981 454.094278 61.793925 454.094278 59.8284693L454.094278 44.4192972C454.094278 36.0857653 449.793 31.3293627 442.808355 31.3293627 437.323239 31.3293627 432.272197 33.7272186 429.312602 37.6188207L429.312602 32.3120905 427.536845 31.2900536 423.432873 31.9583085 418.855366 32.5086361 418.855366 34.3561644 423.788024 34.906492C425.090246 35.1030375 425.761088 36.0071471 425.761088 37.697439L425.761088 59.7891602C425.761088 61.7546158 425.20863 62.4621799 423.511795 62.7766528L418.855366 63.6021441 418.855366 65.5282906 419.013211 65.5282906zM406.385605 32.4300179L404.609848 31.4079809 400.505876 32.0762359 395.928369 32.6265634 395.928369 34.4740917 400.861028 35.0244193C402.16325 35.2209649 402.834091 36.1250744 402.834091 37.8153663L402.834091 59.9070876C402.834091 61.8725432 402.281633 62.5801072 400.584799 62.8945801L395.928369 63.7200715 395.928369 65.5675998 404.570387 65.292436 413.212405 65.5675998 413.212405 63.7200715 408.555975 62.8945801C406.898602 62.6194163 406.306683 61.8725432 406.306683 59.9070876L406.306683 32.4300179 406.385605 32.4300179zM403.978468 12.8540798C401.452947 12.8540798 400.071802 14.4264443 400.071802 16.9422275 400.071802 18.9863014 401.295102 20.2835021 403.149781 20.2835021 405.556919 20.2835021 407.056447 18.7111376 407.056447 16.1953544 407.016986 14.2298987 405.833147 12.8540798 403.978468 12.8540798zM383.419147 59.8677784L383.419147 44.4586063C383.419147 36.1250744 379.117869 31.3686718 372.133225 31.3686718 366.648108 31.3686718 361.597066 33.7665277 358.637471 37.6581298L358.637471 1.02203693 356.861714 0 352.757742.668254914 348.180235 1.21858249 348.180235 3.06611078 353.112894 3.61643836C354.415115 3.81298392 355.085957 4.71709351 355.085957 6.40738535L355.085957 59.8284693C355.085957 61.793925 354.533499 62.501489 352.836665 62.8159619L348.180235 63.6414532 348.180235 65.4889815 356.822253 65.2138177 365.46427 65.4889815 365.46427 63.6414532 360.807841 62.8159619C359.150468 62.5407981 358.558549 61.793925 358.558549 59.8284693L358.558549 42.1000596C361.360299 37.4615843 365.898344 34.4740917 370.396929 34.4740917 377.302651 34.4740917 379.788711 37.8153663 379.788711 46.4240619L379.788711 59.7891602C379.788711 61.7546158 379.236253 62.4621799 377.539418 62.7766528L372.882989 63.6021441 372.882989 65.4496724 381.525006 65.1745086 390.167024 65.4496724 390.167024 63.6021441 385.510594 62.7766528C383.971605 62.5801072 383.419147 61.8332341 383.419147 59.8677784zM325.253238 59.3960691L325.253238 13.0113163 339.30145 13.0113163C340.8799 13.0113163 341.984816 13.7581894 342.182122 15.0553901L343.839496 25.4329958 346.16771 25.4329958 345.496869 9.86658725 323.43802 9.94520548 301.379171 9.86658725 300.70833 25.4329958 303.036545 25.4329958 304.693918 15.0553901C304.891224 13.7581894 305.99614 13.0113163 307.57459 13.0113163L321.622802 13.0113163 321.622802 59.3960691C321.622802 60.8898154 320.95196 61.9904705 319.570816 62.2656343L313.059707 63.4842168 313.059707 65.5282906 323.398559 65.2531269 333.737411 65.5282906 333.737411 63.4842168 327.226302 62.2656343C325.884619 61.9904705 325.253238 60.8898154 325.253238 59.3960691zM261.641675 34.5527099C267.876555 34.5527099 270.599382 37.2257296 270.875611 44.0262061L250.395213 44.0262061C251.657974 38.2477665 255.683023 34.5527099 261.641675 34.5527099zM274.663893 60.418106C274.861199 59.5926147 274.308742 58.2954139 273.6379 58.0988684 268.902548 61.7153067 266.17972 62.8159619 261.917903 62.8159619 253.828343 62.8159619 250.0006 57.7057772 250.0006 47.9571173L250.0006 46.8564622 270.757227 46.8564622C273.164365 46.8564622 274.190358 45.755807 274.190358 44.1834425 274.190358 36.1250744 270.007463 31.3686718 262.825513 31.3686718 252.48666 31.3686718 246.330703 38.3263848 246.330703 50.1977367 246.330703 60.0250149 251.815819 65.9606909 260.852449 65.9606909 266.021875 66 271.428069 63.8773079 274.663893 60.418106zM237.767607 59.1209053C233.782019 61.9904705 230.980269 62.8159619 226.678991 62.8159619 218.589431 62.8159619 214.761688 58.1774866 214.761688 48.900536 214.761688 40.0952948 219.062966 34.5134008 226.481685 34.5134008 231.61165 34.5134008 234.018787 35.8892198 236.544308 39.5056581 237.925453 39.0339488 239.227674 38.0119119 238.675217 36.9112567 236.702153 33.3734366 232.361414 31.3293627 227.507678 31.3293627 217.523977 31.3293627 211.131252 38.4836212 211.131252 50.1584276 211.131252 59.9857058 216.734752 65.9213818 225.929227 65.9213818 230.782963 65.9213818 236.268079 64.0738535 239.069829 61.5580703 239.148752 60.6932698 238.596294 59.5926147 237.767607 59.1209053zM164.40911 65.5282906L173.051128 65.2531269 181.693146 65.5282906 181.693146 63.6807624 177.036716 62.855271C175.379343 62.5801072 174.787424 61.8332341 174.787424 59.8677784L174.787424 42.1393687C177.589174 37.5008934 182.12722 34.5134008 186.625804 34.5134008 193.531526 34.5134008 196.017586 37.8546754 196.017586 46.4633711L196.017586 59.8284693C196.017586 61.793925 195.465128 62.501489 193.768294 62.8159619L189.111864 63.6414532 189.111864 65.4889815 197.753882 65.2138177 206.395899 65.4889815 206.395899 63.6414532 201.73947 62.8159619C200.082097 62.5407981 199.490178 61.793925 199.490178 59.8284693L199.490178 44.4192972C199.490178 36.0857653 195.188899 31.3293627 188.204255 31.3293627 182.719139 31.3293627 177.668096 33.7272186 174.708501 37.6188207L174.708501 32.3120905 172.932744 31.2900536 168.828772 31.9583085 164.251265 32.5086361 164.251265 34.3561644 169.183924 34.906492C170.486146 35.1030375 171.156987 36.0071471 171.156987 37.697439L171.156987 59.7891602C171.156987 61.7546158 170.604529 62.4621799 168.907695 62.7766528L164.251265 63.6021441 164.251265 65.5282906 164.40911 65.5282906zM144.875783 34.5527099C151.110663 34.5527099 153.833491 37.2257296 154.109719 44.0262061L133.629321 44.0262061C134.892082 38.2477665 138.917131 34.5527099 144.875783 34.5527099zM157.898001 60.418106C158.095308 59.5926147 157.54285 58.2954139 156.872008 58.0988684 152.136656 61.7153067 149.413829 62.8159619 145.152012 62.8159619 137.062452 62.8159619 133.234709 57.7057772 133.234709 47.9571173L133.234709 46.8564622 153.991336 46.8564622C156.398473 46.8564622 157.424466 45.755807 157.424466 44.1834425 157.424466 36.1250744 153.241572 31.3686718 146.059621 31.3686718 135.720769 31.3686718 129.564811 38.3263848 129.564811 50.1977367 129.564811 60.0250149 135.049927 65.9606909 144.086557 65.9606909 149.255984 66 154.662177 63.8773079 157.898001 60.418106zM92.4317577 49.0184634C92.4317577 39.9380584 97.0881874 34.5527099 105.177747 34.5527099 109.084413 34.5527099 112.833233 35.5747469 114.490607 37.2257296L114.490607 55.1113758C110.386635 60.6932698 107.42704 62.8159619 103.520374 62.8159619 96.1411169 62.855271 92.4317577 58.0202501 92.4317577 49.0184634zM105.730205 31.4079809C95.3124303 31.4079809 88.7618598 38.9160214 88.7618598 50.0405003 88.7618598 59.9857058 94.3653599 66 102.060307 66 107.663807 66 111.452089 63.9559261 114.451145 59.5139964L114.451145 64.9779631 116.226902 66 120.330874 65.3317451 124.908381 64.7814175 124.908381 62.9338892 119.975723 62.3835616C118.673501 62.1870161 118.002659 61.2829065 118.002659 59.5926147L118.002659 1.06134604 116.226902.0393091126 112.12293.707564026 107.545423 1.2578916 107.545423 3.10541989 112.478082 3.65574747C113.780304 3.85229303 114.451145 4.75640262 114.451145 6.44669446L114.451145 33.2555092C112.280775 32.2334723 109.084413 31.4079809 105.730205 31.4079809zM57.1928455 57.5485408C57.1928455 54.7575938 59.2448314 53.1852293 64.0985674 51.8094104L73.9638844 48.9398451 73.9638844 53.1066111C69.9782963 59.5926147 66.1505533 62.855271 63.0725744 62.855271 59.1659089 62.855271 57.1928455 60.9684336 57.1928455 57.5485408zM53.5624089 58.2167957C53.5624089 62.855271 56.9955392 66 61.9281976 66 67.4133139 66 71.9118984 62.1083979 73.9244231 57.7450864L73.9244231 64.9779631 75.7001801 66 79.804152 65.3317451 84.3816591 64.7814175 84.3816591 62.9338892 79.4490006 62.3835616C78.1467788 62.1870161 77.4759372 61.2829065 77.4759372 59.5926147L77.4759372 42.8862418C77.4759372 35.8499107 73.6481942 31.3686718 67.6106202 31.3686718 62.8752681 31.3686718 58.5739899 33.6092912 55.6933173 37.5008934 55.3381659 37.9726027 55.496011 38.6015485 55.9695462 39.0732579 56.4430814 39.4270399 57.271768 39.820131 58.1004547 39.820131 60.0735181 36.1250744 62.4017329 34.7099464 66.4662435 34.5134008 71.5962083 34.3168553 73.9244231 37.6581298 73.9244231 45.2840977L73.9244231 45.9523526 64.6904864 48.4681358C56.7193103 50.6694461 53.5624089 53.3817749 53.5624089 58.2167957zM42.39487 48.7432996C41.3688771 58.6885051 38.0146693 62.855271 27.3995882 62.855271 11.1020846 62.855271 4.66989792 55.2293032 4.66989792 37.1471114 4.66989792 22.5634306 13.5092219 12.578916 26.3735953 12.578916 36.7124475 12.578916 40.4218066 15.2519357 42.0002574 24.9219774L44.3284722 24.9219774 43.3024792 13.6795712C40.3034228 11.0065515 34.6604615 9.3948779 28.1098911 9.3948779 10.9837008 9.3948779 1 20.244193 1 38.7980941 1 56.3299583 9.56309514 65.9606909 25.1108347 65.9606909 32.1744016 65.9606909 38.8038947 63.916617 43.6576306 60.1036331L44.6836236 48.7039905 42.39487 48.7039905 42.39487 48.7432996z"/>
</svg>
