<svg xmlns="http://www.w3.org/2000/svg" width="900" height="900" viewBox="0 0 900 900">
  <path d="M583.610609,355.19716 C544.874444,420.216664 508.920435,475.488599 476.925648,521.12008 C531.177679,599.743335 585.536716,667.654976 652.415453,664.76284 L694.147785,662.834749 L694.147785,701.610796 L604.904798,712.322411 C543.804384,720.034774 484.737084,660.906658 425.562778,586.139584 C349.053503,677.402545 285.063928,712.322411 212.299862,712.322411 C82.3946037,712.322411 0,642.48268 0,533.759786 C0,451.280349 76.6162809,371.693048 185.120343,333.881046 C117.278553,293.069792 74.5831673,234.905721 74.5831673,178.562625 C74.5831673,72.7318672 158.903879,0 281.104706,0 C379.015177,0 443.967806,57.3071413 443.967806,142.678715 C443.967806,215.517698 411.973019,259.113972 308.284225,320.277295 C360.610149,353.269069 406.194696,417.324528 449.853135,481.379987 C477.032654,440.568733 503.142113,392.045116 520.584087,349.412888 C532.247739,321.24134 529.358577,307.637589 511.809597,302.817362 L441.078645,282.465293 L441.078645,255.25779 L582.647555,258.149926 L698,255.25779 L698,282.465293 L641.821861,301.853316 C617.63851,309.565679 603.085697,323.169431 583.610609,355.19716 Z M396.564158,549.291628 C341.349073,476.452644 286.026981,398.90055 228.885789,359.053342 C147.454239,391.081071 91.169094,452.244394 91.169094,513.407717 C91.169094,596.851199 151.306454,656.086431 235.627165,656.086431 C279.285605,656.086431 338.352905,619.131359 396.564158,549.291628 Z M162.8631,157.246511 C162.8631,205.770128 185.120343,242.618084 271.474168,297.997135 C333.537636,260.185133 356.757933,221.30197 356.757933,164.101945 C356.757933,86.4427347 322.837038,46.7026423 257.884409,46.7026423 C197.854055,46.5955261 162.8631,87.2996639 162.8631,157.246511 Z" transform="translate(1 187)"/>
</svg>
